<svg xmlns="http://www.w3.org/2000/svg" xmlns:xlink="http://www.w3.org/1999/xlink" width="665" height="476" viewBox="0 0 665 476">
  <defs>
    <clipPath id="clip-path">
      <rect width="665" height="563" fill="none"/>
    </clipPath>
    <clipPath id="clip-cover_1">
      <rect width="665" height="476"/>
    </clipPath>
  </defs>
  <g id="cover_1" data-name="cover – 1" clip-path="url(#clip-cover_1)">
    <rect width="665" height="476" fill="#19191a"/>
    <g id="Repeat_Grid_2" data-name="Repeat Grid 2" clip-path="url(#clip-path)">
      <rect id="Rectangle_1" data-name="Rectangle 1" width="665" height="1" fill="salmon"/>
      <g transform="translate(0 25)">
        <rect id="Rectangle_1-2" data-name="Rectangle 1" width="665" height="1" fill="salmon"/>
      </g>
      <g transform="translate(0 50)">
        <rect id="Rectangle_1-3" data-name="Rectangle 1" width="665" height="1" fill="salmon"/>
      </g>
      <g transform="translate(0 75)">
        <rect id="Rectangle_1-4" data-name="Rectangle 1" width="665" height="1" fill="salmon"/>
      </g>
      <g transform="translate(0 100)">
        <rect id="Rectangle_1-5" data-name="Rectangle 1" width="665" height="1" fill="salmon"/>
      </g>
      <g transform="translate(0 125)">
        <rect id="Rectangle_1-6" data-name="Rectangle 1" width="665" height="1" fill="salmon"/>
      </g>
      <g transform="translate(0 150)">
        <rect id="Rectangle_1-7" data-name="Rectangle 1" width="665" height="1" fill="salmon"/>
      </g>
      <g transform="translate(0 175)">
        <rect id="Rectangle_1-8" data-name="Rectangle 1" width="665" height="1" fill="salmon"/>
      </g>
      <g transform="translate(0 200)">
        <rect id="Rectangle_1-9" data-name="Rectangle 1" width="665" height="1" fill="salmon"/>
      </g>
      <g transform="translate(0 225)">
        <rect id="Rectangle_1-10" data-name="Rectangle 1" width="665" height="1" fill="salmon"/>
      </g>
      <g transform="translate(0 250)">
        <rect id="Rectangle_1-11" data-name="Rectangle 1" width="665" height="1" fill="salmon"/>
      </g>
      <g transform="translate(0 275)">
        <rect id="Rectangle_1-12" data-name="Rectangle 1" width="665" height="1" fill="salmon"/>
      </g>
      <g transform="translate(0 300)">
        <rect id="Rectangle_1-13" data-name="Rectangle 1" width="665" height="1" fill="salmon"/>
      </g>
      <g transform="translate(0 325)">
        <rect id="Rectangle_1-14" data-name="Rectangle 1" width="665" height="1" fill="salmon"/>
      </g>
      <g transform="translate(0 350)">
        <rect id="Rectangle_1-15" data-name="Rectangle 1" width="665" height="1" fill="salmon"/>
      </g>
      <g transform="translate(0 375)">
        <rect id="Rectangle_1-16" data-name="Rectangle 1" width="665" height="1" fill="salmon"/>
      </g>
      <g transform="translate(0 400)">
        <rect id="Rectangle_1-17" data-name="Rectangle 1" width="665" height="1" fill="salmon"/>
      </g>
      <g transform="translate(0 425)">
        <rect id="Rectangle_1-18" data-name="Rectangle 1" width="665" height="1" fill="salmon"/>
      </g>
      <g transform="translate(0 450)">
        <rect id="Rectangle_1-19" data-name="Rectangle 1" width="665" height="1" fill="salmon"/>
      </g>
      <g transform="translate(0 475)">
        <rect id="Rectangle_1-20" data-name="Rectangle 1" width="665" height="1" fill="salmon"/>
      </g>
      <g transform="translate(0 500)">
        <rect id="Rectangle_1-21" data-name="Rectangle 1" width="665" height="1" fill="salmon"/>
      </g>
      <g transform="translate(0 525)">
        <rect id="Rectangle_1-22" data-name="Rectangle 1" width="665" height="1" fill="salmon"/>
      </g>
      <g transform="translate(0 550)">
        <rect id="Rectangle_1-23" data-name="Rectangle 1" width="665" height="1" fill="salmon"/>
      </g>
    </g>
    <circle id="Ellipse_1" data-name="Ellipse 1" cx="88" cy="88" r="88" transform="translate(25 25)" fill="#fff"/>
    <path id="Path_7" data-name="Path 7" d="M69.64-224.75H51.91L10.54-98.729H28.27l8.343-26.942H84.762l8.517,26.942h17.73Zm-8.865,22.075L79.9-141.141H41.48Zm102.9,106.205c17.382,0,27.116-6.258,32.852-15.992l.174,13.732H212c-.521-6.258-1.391-19.642-1.217-35.286l.174-22.771c.348-25.9-10.777-37.372-36.676-37.372-19.468,0-37.2,11.3-38.762,31.462h16.339c1.043-11.472,7.822-18.6,22.249-18.6,12.168,0,21.033,4.867,21.033,21.033v4c-38.241,4.172-61.881,10.951-61.881,33.2C133.259-106.2,146.817-96.469,163.677-96.469Zm32.679-44.5c0,24.857-13.906,31.636-28.159,31.636-11.3,0-17.73-5.215-17.73-14.08,0-13.384,17.382-17.382,45.889-20.163Z" transform="translate(253 274.75)" fill="#f7f7f8"/>
  </g>
</svg>
