<svg xmlns="http://www.w3.org/2000/svg" xmlns:xlink="http://www.w3.org/1999/xlink" width="1440" height="840" viewBox="0 0 1440 840">
  <defs>
    <style>
      .cls-1 {
        clip-path: url(#clip-path);
      }

      .cls-2 {
        fill: #303036;
      }
    </style>
    <clipPath id="clip-path"/>
  </defs>
  <g id="Cover" transform="translate(-156 -402)">
    <g id="Mask_Group_7" data-name="Mask Group 7" class="cls-1">
      <path id="Path_876" data-name="Path 876" class="cls-2" d="M-4670-2147v-120l120,60v120Zm-360,60-120-60,120-60,120,60Zm-720,0-120-60,120-60,120-59.995,120,60-120,60-.009,0,.006,0Zm600-60h-.006L-5270-2207l120-60,0,120h0Zm120-180,120-60,120,60-120,60Zm-480,0,120-60,120,60-120,60ZM-5870-2267V-2387l120,60-120,60h0Zm0,0h0ZM-4790-2327v-120l120-60v120l-120,60h0Zm-840-60v-120l240,120-120,60Zm-360-60,120,60-120,60Zm840,60.005-120-60-120-60-120-60,120-60,120,60v120l120-60v120h0Zm480-120,120,60-120,60Zm-480,0,120-60v120l-120,60Zm-600,60,120-60-120,60,17.142,8.57h0Zm720-120,120-60,120,60-120,60Zm-840,60-120-60,240-120v120l-120,60Zm1200-120,0-120v120l120-60v120Zm0,0h0Zm-960-120,120,60-120,60h0Zm840,60,120-60v120Zm-480,0h0l-120-60-120-60,120-60,120,60v120l120-60,120,60-120,60Zm-480,0,120-60,0,120h0Zm840-60-120-60,240-120,120,60-240,120h0Zm-960,0-120-60v-120l120,60v120h0Z" transform="translate(6146 3329)"/>
    </g>
  </g>
</svg>
