<svg xmlns="http://www.w3.org/2000/svg" xmlns:xlink="http://www.w3.org/1999/xlink" width="1440" height="840" viewBox="0 0 1440 840">
  <defs>
    <style>
      .cls-1 {
        fill: #fff;
        stroke: #707070;
      }

      .cls-2 {
        clip-path: url(#clip-path);
      }

      .cls-3 {
        fill: #303036;
      }
    </style>
    <clipPath id="clip-path">
      <rect id="Rectangle_89" data-name="Rectangle 89" class="cls-1" width="1440" height="840" transform="translate(156 402)"/>
    </clipPath>
  </defs>
  <g id="Cover" transform="translate(-156 -402)">
    <g id="Mask_Group_5" data-name="Mask Group 5" class="cls-2">
      <path id="Path_875" data-name="Path 875" class="cls-3" d="M-4550-2087h0l-120-60v-120l120,60,0,0,120,60-120,60Zm-1200,0-120-60,120-60,120-59.995,120,60-120,60-.01,0,.007,0-120,60Zm720,0-120-60,120-60,120,60-120,60Zm-120-60h-.008L-5270-2207l120-60,0,120Zm-240-120-120-60,120-60,120,60-120,60Zm480,0-120-60,120-60,120,60-120,60Zm-960,0v0h0V-2387l120,60-120,60Zm1080-60h0v-120l120-60v120l-120,60Zm-720.005,0-120-60v-120l240,120-120,60ZM-5990-2327v0h0v-120l120,60Zm840-59.995v0l-120-60-120-60-120-60,120-60,120,60v120l120-60v120h0Zm480,0h0v-120l120,60-120,60Zm-480,0h0v-120l120-60v120l-120,60Zm-582.858-51.429h0L-5750-2447l120-60-120,60,17.142,8.57ZM-5870-2507h0l-120-60,240-120v120l-120,60Zm960,0-120-60,120-60,120,60-120,60Zm360-60v0l-120-60v0l-120-60,120-60v120l0-120v120l120-60v120Zm-1080-60v-120l120,60-120,60h0Zm480,0-120-60v0h0l-120-60-120-60,120-60,120,60v120l120-60,120,60-120,60Zm-480,0-120-60,120-60,0,120h0Zm720-120h0l-120-60,120-60h0l0,0,120-60,120,60-120,60-120,60h0v0h0Zm-960,0h0l-120-60-120-60,120-60,120,60v120Z" transform="translate(6146 3329)"/>
    </g>
  </g>
</svg>
