<svg xmlns="http://www.w3.org/2000/svg" xmlns:xlink="http://www.w3.org/1999/xlink" width="665" height="476" viewBox="0 0 665 476">
  <defs>
    <clipPath id="clip-cover_3">
      <rect width="665" height="476"/>
    </clipPath>
  </defs>
  <g id="cover_3" data-name="cover – 3" clip-path="url(#clip-cover_3)">
    <rect width="665" height="476" fill="#19191a"/>
    <g id="Group_2" data-name="Group 2" transform="matrix(0.985, -0.174, 0.174, 0.985, -36.277, 61.354)">
      <rect id="Rectangle_1" data-name="Rectangle 1" width="665" height="1" fill="salmon"/>
      <rect id="Rectangle_1-2" data-name="Rectangle 1" width="665" height="1" transform="translate(0 25)" fill="salmon"/>
      <rect id="Rectangle_1-3" data-name="Rectangle 1" width="665" height="1" transform="translate(0 50)" fill="salmon"/>
      <rect id="Rectangle_1-4" data-name="Rectangle 1" width="665" height="1" transform="translate(0 75)" fill="salmon"/>
      <rect id="Rectangle_1-5" data-name="Rectangle 1" width="665" height="1" transform="translate(0 100)" fill="salmon"/>
      <rect id="Rectangle_1-6" data-name="Rectangle 1" width="665" height="1" transform="translate(0 125)" fill="salmon"/>
      <rect id="Rectangle_1-7" data-name="Rectangle 1" width="665" height="1" transform="translate(0 150)" fill="salmon"/>
      <rect id="Rectangle_1-8" data-name="Rectangle 1" width="665" height="1" transform="translate(0 175)" fill="salmon"/>
      <rect id="Rectangle_1-9" data-name="Rectangle 1" width="665" height="1" transform="translate(0 200)" fill="salmon"/>
      <rect id="Rectangle_1-10" data-name="Rectangle 1" width="665" height="1" transform="translate(0 225)" fill="salmon"/>
      <rect id="Rectangle_1-11" data-name="Rectangle 1" width="665" height="1" transform="translate(0 250)" fill="salmon"/>
      <rect id="Rectangle_1-12" data-name="Rectangle 1" width="665" height="1" transform="translate(0 275)" fill="salmon"/>
      <rect id="Rectangle_1-13" data-name="Rectangle 1" width="665" height="1" transform="translate(0 300)" fill="salmon"/>
      <rect id="Rectangle_1-14" data-name="Rectangle 1" width="665" height="1" transform="translate(0 325)" fill="salmon"/>
      <rect id="Rectangle_1-15" data-name="Rectangle 1" width="665" height="1" transform="translate(0 350)" fill="salmon"/>
      <rect id="Rectangle_1-16" data-name="Rectangle 1" width="665" height="1" transform="translate(0 375)" fill="salmon"/>
      <rect id="Rectangle_1-17" data-name="Rectangle 1" width="665" height="1" transform="translate(0 400)" fill="salmon"/>
      <rect id="Rectangle_1-18" data-name="Rectangle 1" width="665" height="1" transform="translate(0 425)" fill="salmon"/>
      <rect id="Rectangle_1-19" data-name="Rectangle 1" width="665" height="1" transform="translate(0 450)" fill="salmon"/>
      <rect id="Rectangle_1-20" data-name="Rectangle 1" width="665" height="1" transform="translate(0 475)" fill="salmon"/>
    </g>
    <g id="Group_3" data-name="Group 3" transform="matrix(-0.174, -0.985, 0.985, -0.174, 155.854, 606.777)">
      <rect id="Rectangle_1-21" data-name="Rectangle 1" width="665" height="1" fill="salmon"/>
      <rect id="Rectangle_1-22" data-name="Rectangle 1" width="665" height="1" transform="translate(0 25)" fill="salmon"/>
      <rect id="Rectangle_1-23" data-name="Rectangle 1" width="665" height="1" transform="translate(0 50)" fill="salmon"/>
      <rect id="Rectangle_1-24" data-name="Rectangle 1" width="665" height="1" transform="translate(0 75)" fill="salmon"/>
      <rect id="Rectangle_1-25" data-name="Rectangle 1" width="665" height="1" transform="translate(0 100)" fill="salmon"/>
      <rect id="Rectangle_1-26" data-name="Rectangle 1" width="665" height="1" transform="translate(0 125)" fill="salmon"/>
      <rect id="Rectangle_1-27" data-name="Rectangle 1" width="665" height="1" transform="translate(0 150)" fill="salmon"/>
      <rect id="Rectangle_1-28" data-name="Rectangle 1" width="665" height="1" transform="translate(0 175)" fill="salmon"/>
      <rect id="Rectangle_1-29" data-name="Rectangle 1" width="665" height="1" transform="translate(0 200)" fill="salmon"/>
      <rect id="Rectangle_1-30" data-name="Rectangle 1" width="665" height="1" transform="translate(0 225)" fill="salmon"/>
      <rect id="Rectangle_1-31" data-name="Rectangle 1" width="665" height="1" transform="translate(0 250)" fill="salmon"/>
      <rect id="Rectangle_1-32" data-name="Rectangle 1" width="665" height="1" transform="translate(0 275)" fill="salmon"/>
      <rect id="Rectangle_1-33" data-name="Rectangle 1" width="665" height="1" transform="translate(0 300)" fill="salmon"/>
      <rect id="Rectangle_1-34" data-name="Rectangle 1" width="665" height="1" transform="translate(0 325)" fill="salmon"/>
      <rect id="Rectangle_1-35" data-name="Rectangle 1" width="665" height="1" transform="translate(0 350)" fill="salmon"/>
      <rect id="Rectangle_1-36" data-name="Rectangle 1" width="665" height="1" transform="translate(0 375)" fill="salmon"/>
      <rect id="Rectangle_1-37" data-name="Rectangle 1" width="665" height="1" transform="translate(0 400)" fill="salmon"/>
      <rect id="Rectangle_1-38" data-name="Rectangle 1" width="665" height="1" transform="translate(0 425)" fill="salmon"/>
      <rect id="Rectangle_1-39" data-name="Rectangle 1" width="665" height="1" transform="translate(0 450)" fill="salmon"/>
      <rect id="Rectangle_1-40" data-name="Rectangle 1" width="665" height="1" transform="translate(0 475)" fill="salmon"/>
    </g>
  </g>
</svg>
