<svg xmlns="http://www.w3.org/2000/svg" xmlns:xlink="http://www.w3.org/1999/xlink" width="665" height="476" viewBox="0 0 665 476">
  <defs>
    <clipPath id="clip-cover-3">
      <rect width="665" height="476"/>
    </clipPath>
  </defs>
  <g id="cover-3" clip-path="url(#clip-cover-3)">
    <rect width="665" height="476" fill="#19191a"/>
    <g id="Group_2" data-name="Group 2" transform="translate(0 0)">
      <rect id="Rectangle_1" data-name="Rectangle 1" width="665" height="1" fill="rgba(255,255,255,0.5)"/>
      <rect id="Rectangle_1-2" data-name="Rectangle 1" width="665" height="1" transform="translate(0 25)" fill="rgba(255,255,255,0.5)"/>
      <rect id="Rectangle_1-3" data-name="Rectangle 1" width="665" height="1" transform="translate(0 50)" fill="rgba(255,255,255,0.5)"/>
      <rect id="Rectangle_1-4" data-name="Rectangle 1" width="665" height="1" transform="translate(0 75)" fill="rgba(255,255,255,0.5)"/>
      <rect id="Rectangle_1-5" data-name="Rectangle 1" width="665" height="1" transform="translate(0 100)" fill="rgba(255,255,255,0.5)"/>
      <rect id="Rectangle_1-6" data-name="Rectangle 1" width="665" height="1" transform="translate(0 125)" fill="rgba(255,255,255,0.5)"/>
      <rect id="Rectangle_1-7" data-name="Rectangle 1" width="665" height="1" transform="translate(0 150)" fill="rgba(255,255,255,0.5)"/>
      <rect id="Rectangle_1-8" data-name="Rectangle 1" width="665" height="1" transform="translate(0 175)" fill="rgba(255,255,255,0.5)"/>
      <rect id="Rectangle_1-9" data-name="Rectangle 1" width="665" height="1" transform="translate(0 200)" fill="rgba(255,255,255,0.5)"/>
      <rect id="Rectangle_1-10" data-name="Rectangle 1" width="665" height="1" transform="translate(0 225)" fill="rgba(255,255,255,0.5)"/>
      <rect id="Rectangle_1-11" data-name="Rectangle 1" width="665" height="1" transform="translate(0 250)" fill="rgba(255,255,255,0.5)"/>
      <rect id="Rectangle_1-12" data-name="Rectangle 1" width="665" height="1" transform="translate(0 275)" fill="rgba(255,255,255,0.5)"/>
      <rect id="Rectangle_1-13" data-name="Rectangle 1" width="665" height="1" transform="translate(0 300)" fill="rgba(255,255,255,0.5)"/>
      <rect id="Rectangle_1-14" data-name="Rectangle 1" width="665" height="1" transform="translate(0 325)" fill="rgba(255,255,255,0.5)"/>
      <rect id="Rectangle_1-15" data-name="Rectangle 1" width="665" height="1" transform="translate(0 350)" fill="rgba(255,255,255,0.5)"/>
      <rect id="Rectangle_1-16" data-name="Rectangle 1" width="665" height="1" transform="translate(0 375)" fill="rgba(255,255,255,0.5)"/>
      <rect id="Rectangle_1-17" data-name="Rectangle 1" width="665" height="1" transform="translate(0 400)" fill="rgba(255,255,255,0.5)"/>
      <rect id="Rectangle_1-18" data-name="Rectangle 1" width="665" height="1" transform="translate(0 425)" fill="rgba(255,255,255,0.5)"/>
      <rect id="Rectangle_1-19" data-name="Rectangle 1" width="665" height="1" transform="translate(0 450)" fill="rgba(255,255,255,0.5)"/>
      <rect id="Rectangle_1-20" data-name="Rectangle 1" width="665" height="1" transform="translate(0 475)" fill="rgba(255,255,255,0.5)"/>
    </g>
    <g id="Group_3" data-name="Group 3" transform="translate(94.5 570.5) rotate(-90)">
      <rect id="Rectangle_1-21" data-name="Rectangle 1" width="665" height="1" fill="rgba(255,255,255,0.4)"/>
      <rect id="Rectangle_1-22" data-name="Rectangle 1" width="665" height="1" transform="translate(0 25)" fill="rgba(255,255,255,0.4)"/>
      <rect id="Rectangle_1-23" data-name="Rectangle 1" width="665" height="1" transform="translate(0 50)" fill="rgba(255,255,255,0.4)"/>
      <rect id="Rectangle_1-24" data-name="Rectangle 1" width="665" height="1" transform="translate(0 75)" fill="rgba(255,255,255,0.4)"/>
      <rect id="Rectangle_1-25" data-name="Rectangle 1" width="665" height="1" transform="translate(0 100)" fill="rgba(255,255,255,0.4)"/>
      <rect id="Rectangle_1-26" data-name="Rectangle 1" width="665" height="1" transform="translate(0 125)" fill="rgba(255,255,255,0.4)"/>
      <rect id="Rectangle_1-27" data-name="Rectangle 1" width="665" height="1" transform="translate(0 150)" fill="rgba(255,255,255,0.4)"/>
      <rect id="Rectangle_1-28" data-name="Rectangle 1" width="665" height="1" transform="translate(0 175)" fill="rgba(255,255,255,0.4)"/>
      <rect id="Rectangle_1-29" data-name="Rectangle 1" width="665" height="1" transform="translate(0 200)" fill="rgba(255,255,255,0.4)"/>
      <rect id="Rectangle_1-30" data-name="Rectangle 1" width="665" height="1" transform="translate(0 225)" fill="rgba(255,255,255,0.4)"/>
      <rect id="Rectangle_1-31" data-name="Rectangle 1" width="665" height="1" transform="translate(0 250)" fill="rgba(255,255,255,0.4)"/>
      <rect id="Rectangle_1-32" data-name="Rectangle 1" width="665" height="1" transform="translate(0 275)" fill="rgba(255,255,255,0.4)"/>
      <rect id="Rectangle_1-33" data-name="Rectangle 1" width="665" height="1" transform="translate(0 300)" fill="rgba(255,255,255,0.4)"/>
      <rect id="Rectangle_1-34" data-name="Rectangle 1" width="665" height="1" transform="translate(0 325)" fill="rgba(255,255,255,0.4)"/>
      <rect id="Rectangle_1-35" data-name="Rectangle 1" width="665" height="1" transform="translate(0 350)" fill="rgba(255,255,255,0.4)"/>
      <rect id="Rectangle_1-36" data-name="Rectangle 1" width="665" height="1" transform="translate(0 375)" fill="rgba(255,255,255,0.4)"/>
      <rect id="Rectangle_1-37" data-name="Rectangle 1" width="665" height="1" transform="translate(0 400)" fill="rgba(255,255,255,0.4)"/>
      <rect id="Rectangle_1-38" data-name="Rectangle 1" width="665" height="1" transform="translate(0 425)" fill="rgba(255,255,255,0.4)"/>
      <rect id="Rectangle_1-39" data-name="Rectangle 1" width="665" height="1" transform="translate(0 450)" fill="rgba(255,255,255,0.4)"/>
      <rect id="Rectangle_1-40" data-name="Rectangle 1" width="665" height="1" transform="translate(0 475)" fill="rgba(255,255,255,0.4)"/>
    </g>
  </g>
</svg>
