<svg xmlns="http://www.w3.org/2000/svg" width="719.999" height="719.999" viewBox="0 0 719.999 719.999">
  <defs>
    <style>
      .cls-1 {
        fill: #19191a;
      }
    </style>
  </defs>
  <path id="Intersection_190" data-name="Intersection 190" class="cls-1" d="M-7168-2147l120-60,120,60Zm-.008,0-120-60,120-60v120ZM-7648-2267l120,60-120,60Zm0-120v-120l360,180-120,60Zm600,60,120-60v120Zm-240-120-240-120,120-60,120,60v120l240-120v120l-120,60Zm240-120,120-60v120Zm-240-120-240-120,120-60h.008L-7288-2807v120l120-60,120,60-120,60Zm-360-60,120,60-120,60Zm600-60,120-60h0v120Z" transform="translate(7647.999 2866.999)"/>
</svg>
