<svg xmlns="http://www.w3.org/2000/svg" width="961" height="1440.5" viewBox="0 0 961 1440.5">
  <g id="grid" transform="translate(-1199.5)">
    <line id="Line_37" data-name="Line 37" y1="239" transform="translate(1440 720.5)" fill="none" stroke="#bebdc1" stroke-linecap="square" stroke-width="1"/>
    <circle id="Ellipse_298" data-name="Ellipse 298" cx="240" cy="240" r="240" transform="translate(1680 240)" fill="none" stroke="#bebdc1" stroke-width="1"/>
    <circle id="Ellipse_299" data-name="Ellipse 299" cx="119.5" cy="119.5" r="119.5" transform="translate(1319 601)" fill="none" stroke="#bebdc1" stroke-width="1"/>
    <line id="Line_47" data-name="Line 47" x2="480" y2="240" transform="translate(1440 960)" fill="none" stroke="#bebdc1" stroke-width="1"/>
    <line id="Line_48" data-name="Line 48" x1="480" y2="240" transform="translate(1200 240)" fill="none" stroke="#bebdc1" stroke-width="1"/>
    <path id="Path_1881" data-name="Path 1881" d="M0,0V240" transform="translate(1200)" fill="none" stroke="#bebdc1" stroke-width="1"/>
    <path id="Path_1881-2" data-name="Path 1881" d="M0,0V240" transform="translate(1920)" fill="none" stroke="#bebdc1" stroke-width="1"/>
    <path id="Path_1881-3" data-name="Path 1881" d="M0,0V240" transform="translate(1680 240)" fill="none" stroke="#bebdc1" stroke-width="1"/>
    <path id="Path_1881-4" data-name="Path 1881" d="M0,0V240" transform="translate(1920 240)" fill="none" stroke="#bebdc1" stroke-width="1"/>
    <path id="Path_1881-5" data-name="Path 1881" d="M0,0V240" transform="translate(1680 480)" fill="none" stroke="#bebdc1" stroke-width="1"/>
    <path id="Path_1881-6" data-name="Path 1881" d="M0,0V240" transform="translate(1200 720)" fill="none" stroke="#bebdc1" stroke-width="1"/>
    <path id="Path_1881-7" data-name="Path 1881" d="M0,0V240" transform="translate(1440 720)" fill="none" stroke="#bebdc1" stroke-width="1"/>
    <path id="Path_1881-8" data-name="Path 1881" d="M0,0V240" transform="translate(1680 720)" fill="none" stroke="#bebdc1" stroke-width="1"/>
    <path id="Path_1881-9" data-name="Path 1881" d="M0,0V240" transform="translate(1440 1200)" fill="none" stroke="#bebdc1" stroke-width="1"/>
    <path id="Path_1881-10" data-name="Path 1881" d="M0,0V240" transform="translate(1920 1200)" fill="none" stroke="#bebdc1" stroke-width="1"/>
    <path id="Path_1882" data-name="Path 1882" d="M-.5,0h240" transform="translate(1200.5 240)" fill="none" stroke="#bebdc1" stroke-width="1"/>
    <path id="Path_1882-2" data-name="Path 1882" d="M-.5,0h240" transform="translate(1440.5 240)" fill="none" stroke="#bebdc1" stroke-width="1"/>
    <path id="Path_1882-3" data-name="Path 1882" d="M-.5,0h240" transform="translate(1200.5 480)" fill="none" stroke="#bebdc1" stroke-width="1"/>
    <path id="Path_1882-4" data-name="Path 1882" d="M-.5,0h240" transform="translate(1440.5 480)" fill="none" stroke="#bebdc1" stroke-width="1"/>
    <path id="Path_1882-5" data-name="Path 1882" d="M-.5,0h240" transform="translate(1680.5 480)" fill="none" stroke="#bebdc1" stroke-width="1"/>
    <path id="Path_1882-6" data-name="Path 1882" d="M-.5,0h240" transform="translate(1920.5 480)" fill="none" stroke="#bebdc1" stroke-width="1"/>
    <path id="Path_1882-7" data-name="Path 1882" d="M-.5,0h240" transform="translate(1200.5 720)" fill="none" stroke="#bebdc1" stroke-width="1"/>
    <path id="Path_1882-8" data-name="Path 1882" d="M-.5,0h240" transform="translate(1200.5 960)" fill="none" stroke="#bebdc1" stroke-width="1"/>
    <path id="Path_1882-9" data-name="Path 1882" d="M-.5,0h240" transform="translate(1440.5 960)" fill="none" stroke="#bebdc1" stroke-width="1"/>
    <path id="Path_1882-10" data-name="Path 1882" d="M-.5,0h240" transform="translate(1680.5 960)" fill="none" stroke="#bebdc1" stroke-width="1"/>
    <path id="Path_1882-11" data-name="Path 1882" d="M-.5,0h240" transform="translate(1920.5 960)" fill="none" stroke="#bebdc1" stroke-width="1"/>
    <path id="Path_1882-12" data-name="Path 1882" d="M-.5,0h240" transform="translate(1440.5 1200)" fill="none" stroke="#bebdc1" stroke-width="1"/>
    <path id="Path_1882-13" data-name="Path 1882" d="M-.5,0h240" transform="translate(1680.5 1200)" fill="none" stroke="#bebdc1" stroke-width="1"/>
    <path id="Path_1882-14" data-name="Path 1882" d="M-.5,0h240" transform="translate(1920.5 1200)" fill="none" stroke="#bebdc1" stroke-width="1"/>
    <path id="Path_1882-15" data-name="Path 1882" d="M-.5,0h240" transform="translate(1200.5 1440)" fill="none" stroke="#bebdc1" stroke-width="1"/>
    <path id="Path_1882-16" data-name="Path 1882" d="M-.5,0h240" transform="translate(1440.5 1440)" fill="none" stroke="#bebdc1" stroke-width="1"/>
    <path id="Path_1882-17" data-name="Path 1882" d="M-.5,0h240" transform="translate(1680.5 1440)" fill="none" stroke="#bebdc1" stroke-width="1"/>
    <path id="Path_1882-18" data-name="Path 1882" d="M-.5,0h240" transform="translate(1920.5 1440)" fill="none" stroke="#bebdc1" stroke-width="1"/>
  </g>
</svg>
