<svg xmlns="http://www.w3.org/2000/svg" xmlns:xlink="http://www.w3.org/1999/xlink" width="1330" height="561.094" viewBox="0 0 1330 561.094">
  <defs>
    <style>
      .cls-1 {
        clip-path: url(#clip-Hello);
      }

      .cls-2 {
        fill: #4b4a4f;
      }
    </style>
    <clipPath id="clip-Hello">
      <rect width="1330" height="561.094"/>
    </clipPath>
  </defs>
  <g id="Hello" class="cls-1">
    <g id="Group_1" data-name="Group 1" transform="translate(0 -5)">
      <path id="Path_1" data-name="Path 1" class="cls-2" d="M260.784-223.6H215.341v121.181H70.243V-223.6H24.8v289H70.243V-64.149h145.1V65.4h45.443Zm63.779,0v289H524.671V26.736H370.006V-64.149H515.9v-38.268h-145.9v-82.515H524.671V-223.6ZM614.76,26.736V-223.6H569.317v289H763.844V26.736Zm226.417,0V-223.6H795.734v289H990.261V26.736Zm285.014,43.848C1209.9,70.585,1262.52,8.8,1262.52-79.3S1209.9-228.78,1126.191-228.78c-84.109,0-136.727,61.388-136.727,149.483S1042.082,70.585,1126.191,70.585Zm0-37.869c-50.625,0-90.089-39.464-90.089-112.013s39.463-111.614,90.089-111.614c50.226,0,89.69,39.065,89.69,111.614S1176.418,32.716,1126.191,32.716Zm190.541-51.821h26.708l7.972-121.181V-223.6h-43.051v83.312ZM1305.172,65.4H1355V15.575h-49.828Z" transform="translate(-25 171.78)"/>
      <path id="Path_1-2" data-name="Path 1" class="cls-2" d="M260.784-223.6H215.341v121.181H70.243V-223.6H24.8v289H70.243V-64.149h145.1V65.4h45.443Zm63.779,0v289H524.671V26.736H370.006V-64.149H515.9v-38.268h-145.9v-82.515H524.671V-223.6ZM614.76,26.736V-223.6H569.317v289H763.844V26.736Zm226.417,0V-223.6H795.734v289H990.261V26.736Zm285.014,43.848C1209.9,70.585,1262.52,8.8,1262.52-79.3S1209.9-228.78,1126.191-228.78c-84.109,0-136.727,61.388-136.727,149.483S1042.082,70.585,1126.191,70.585Zm0-37.869c-50.625,0-90.089-39.464-90.089-112.013s39.463-111.614,90.089-111.614c50.226,0,89.69,39.065,89.69,111.614S1176.418,32.716,1126.191,32.716Zm190.541-51.821h26.708l7.972-121.181V-223.6h-43.051v83.312ZM1305.172,65.4H1355V15.575h-49.828Z" transform="translate(-25 557.78)"/>
    </g>
  </g>
</svg>
