<svg id="Layer_1" data-name="Layer 1" xmlns="http://www.w3.org/2000/svg" xmlns:xlink="http://www.w3.org/1999/xlink" viewBox="0 0 2560 500"><defs><linearGradient id="linear-gradient" x1="639.69" y1="842.51" x2="1920.26" y2="-438.07" gradientUnits="userSpaceOnUse"><stop offset="0.2" stop-color="#0a0a10" stop-opacity="0.05"/><stop offset="0.8" stop-color="#0a0a10" stop-opacity="0.1"/></linearGradient><linearGradient id="linear-gradient-2" x1="639.69" y1="854.81" x2="1920.26" y2="-425.76" xlink:href="#linear-gradient"/><linearGradient id="linear-gradient-3" x1="639.7" y1="867.12" x2="1920.26" y2="-413.45" xlink:href="#linear-gradient"/><linearGradient id="linear-gradient-4" x1="639.7" y1="879.42" x2="1920.26" y2="-401.14" xlink:href="#linear-gradient"/><linearGradient id="linear-gradient-5" x1="639.7" y1="891.73" x2="1920.26" y2="-388.83" xlink:href="#linear-gradient"/><linearGradient id="linear-gradient-6" x1="639.71" y1="904.03" x2="1920.26" y2="-376.52" xlink:href="#linear-gradient"/><linearGradient id="linear-gradient-7" x1="639.71" y1="916.33" x2="1920.26" y2="-364.21" xlink:href="#linear-gradient"/><linearGradient id="linear-gradient-8" x1="639.72" y1="928.64" x2="1920.26" y2="-351.9" xlink:href="#linear-gradient"/><linearGradient id="linear-gradient-9" x1="639.72" y1="940.94" x2="1920.26" y2="-339.59" xlink:href="#linear-gradient"/><linearGradient id="linear-gradient-10" x1="639.72" y1="953.25" x2="1920.25" y2="-327.28" xlink:href="#linear-gradient"/><linearGradient id="linear-gradient-11" x1="639.73" y1="965.55" x2="1920.25" y2="-314.97" xlink:href="#linear-gradient"/><linearGradient id="linear-gradient-12" x1="639.73" y1="977.85" x2="1920.25" y2="-302.67" xlink:href="#linear-gradient"/><linearGradient id="linear-gradient-13" x1="639.73" y1="990.16" x2="1920.25" y2="-290.36" xlink:href="#linear-gradient"/><linearGradient id="linear-gradient-14" x1="639.74" y1="1002.46" x2="1920.25" y2="-278.05" xlink:href="#linear-gradient"/><linearGradient id="linear-gradient-15" x1="639.74" y1="1014.76" x2="1920.25" y2="-265.74" xlink:href="#linear-gradient"/><linearGradient id="linear-gradient-16" x1="639.75" y1="1027.07" x2="1920.25" y2="-253.43" xlink:href="#linear-gradient"/><linearGradient id="linear-gradient-17" x1="639.75" y1="1039.37" x2="1920.24" y2="-241.13" xlink:href="#linear-gradient"/><linearGradient id="linear-gradient-18" x1="639.75" y1="1051.67" x2="1920.24" y2="-228.82" xlink:href="#linear-gradient"/><linearGradient id="linear-gradient-19" x1="639.76" y1="1063.97" x2="1920.24" y2="-216.51" xlink:href="#linear-gradient"/><linearGradient id="linear-gradient-20" x1="639.76" y1="1076.28" x2="1920.24" y2="-204.2" xlink:href="#linear-gradient"/><linearGradient id="linear-gradient-21" x1="639.76" y1="1088.58" x2="1920.24" y2="-191.9" xlink:href="#linear-gradient"/></defs><title>stripes-3</title><path id="Line_1" data-name="Line 1" d="M0,202.33c108.66-3.27,215.55,1.58,321.65,26.38,45,10.51,112.13,39.92,156,14.11,45-26.46,66.29-85.53,95.32-126.41,23.09-32.52,61.52-69.49,102.33-41.66,58.58,40,83.94,171.9,177.24,144.55,46.24-13.55,41.6-75.42,89.54-87.22,42.49-10.46,81.93,14.78,114.38,39.23,31.71,23.88,67.82,62.49,110.09,63.6,16.71.43,31.6-7.92,48-9.86,19.82-2.35,39.37,1.46,58.35,6.95,43.74,12.65,84.42,32.67,130.84,34.18,45.39,1.47,89.61-13.72,129.62-34.1,19.4-9.88,37.32-24.85,57.78-32.35,26.58-9.76,56.14-.2,83.45-.44,42.29-.37,78.48-13.48,114-35.77,33.85-21.27,73.77-55.63,116.18-41.65,25.54,8.43,48,26.85,69.71,41.93,34.21,23.75,69.82,45.82,110.45,56.69,80.41,21.49,155.91-11.6,233.15-29.87,82-19.39,163.81-24.07,241.92,11.71" fill="none" stroke="url(#linear-gradient)"/><path id="Line_1-2" data-name="Line 1-2" d="M0,214.64c108.53-4.54,215.12-.24,321,25.29,45.41,10.95,112.25,40.86,157.18,15.9,45.13-25.08,66.85-83.15,96.18-123,23.45-31.89,62.57-67,103-40.46,60,39.35,82,165.72,175.61,139.36,46.54-13.1,44.06-73.83,92.49-85.92,43-10.74,82.75,13.11,116.12,37.61,31.83,23.36,68.1,61.33,110.24,61.59,16.91.11,31.83-8.71,48.4-10.95,19.8-2.69,39.34.84,58.33,6.39,42.87,12.53,82.38,33.51,127.85,36.11,43.74,2.5,87.65-11.49,126.8-30.06,18.66-8.85,35.91-23.17,55.56-29.58,26.62-8.68,57.06,1.7,84.29.61,42.91-1.72,78.48-17.37,113.68-41,34.4-23.05,74.42-56.48,118.31-41.71,25.66,8.63,48.29,26.64,70.36,41.64,34.16,23.22,69.64,44.84,109.94,55.58,79.51,21.18,153.11-10.83,229.37-29.12,83.22-20,165.76-23.79,245.29,11.72" fill="none" stroke="url(#linear-gradient-2)"/><path id="Line_1-3" data-name="Line 1-3" d="M0,227c111.26-6,220-1.52,328.23,26.17,45,11.51,110.35,40.62,154.4,13.46,54.19-33.4,110.61-214.6,198.06-156,59.61,39.93,78.64,156.48,170.54,134,46.84-11.48,46.52-70.21,92.18-84.31,43.16-13.32,83.58,7.6,118,31.93,32.16,22.7,67.91,60.4,109.83,62.78,20.44,1.16,38.12-10.37,58.19-12.49,16.43-1.74,32.73.73,48.58,5,41.93,11.2,80,33.5,123.61,38.76,43.29,5.21,87.4-6.95,127.08-23.75,19.53-8.27,37.22-23,57.45-29.22,28-8.6,60.46,3.18,89.31.73,42.48-3.61,76.85-22.31,110.85-46.66,34.9-25,74.68-56.21,119.67-39.53,25.65,9.51,48.06,27,70.58,42,33.92,22.69,69.24,43.66,109.12,53.94,75.63,19.51,144.39-8.84,216.68-26.84,87.37-21.75,173.53-26.4,257.6,10.08" fill="none" stroke="url(#linear-gradient-3)"/><path id="Line_1-4" data-name="Line 1-4" d="M0,239.25c111.16-7.32,219.57-3.32,327.62,25.15,45.17,11.91,110.55,41.67,155.23,15.05,55.74-33.21,109.33-209.91,198.06-152.72,60.62,39.08,78.81,152.32,170.55,130.06,46.93-11.39,47.9-69.63,93.94-83.86,43.55-13.46,84.15,6.42,119.25,30.85,32,22.27,67.66,59.62,109.28,61.38,20.71.87,38.49-11.19,58.78-13.65,16.58-2,33,.23,49.08,4.46,41.61,11,79,34.1,122,40.43,42.1,6.18,86-4.8,125.05-20.36,19.14-7.61,36.24-22,55.91-27.76,8.54-2.5,17.17-2.48,26-1.73,21.84,1.87,42.09,5.15,64.27,2.63,42.54-4.84,75.8-25.7,109.11-51,34.95-26.53,74.43-56.25,120.11-38.73,25.48,9.76,47.82,26.94,70.35,41.91,33.47,22.25,68.31,42.86,107.54,53.11,74.63,19.51,142.37-8,213.79-25.68,89.67-22.18,177.58-25.91,264.06,10.45" fill="none" stroke="url(#linear-gradient-4)"/><path id="Line_1-5" data-name="Line 1-5" d="M0,251.56c110.74-8.66,218.58-5.2,326.15,23.9,45.15,12.21,110.5,42.75,155.78,17.33C541.15,259.54,588.09,88,678.9,141.38c62.75,36.85,79.38,147.78,170.59,128.09,47.51-10.26,49-66.88,93-82.77,47.3-17.11,91.81,5.29,130,32.32,30.87,21.87,66.8,58.18,107.63,56.47,17.4-.72,32.57-10.76,49.53-13.9,20.12-3.72,40.11-1.25,59.62,4.32,41.3,11.81,78.21,35.2,121.29,41.52,39.91,5.85,84-4.33,121.24-19,17.71-7,33.28-20.3,51.41-25.81,26.13-7.94,55.74,4.15,82.82,1.63,43.4-4,77-24.71,110.16-51.34,32.93-26.45,71.46-58.92,116.56-45.44,29.55,8.83,55.18,29.5,80.5,46.28,27.77,18.39,56.54,35.69,88.24,46.45,79.33,26.93,150.86-1.21,227.71-19.87,92.09-22.35,181.93-25,270.87,11.22" fill="none" stroke="url(#linear-gradient-5)"/><path id="Line_1-6" data-name="Line 1-6" d="M0,263.87c110-10,217-7.15,323.82,22.39C369.31,298.84,433.94,330,479.9,306.51c63.31-32.39,102-198.25,194.82-151.73C741.93,188.45,757.59,305.37,852.57,281c45.63-11.72,48.35-68,93.11-83,43.19-14.48,84.36,2.48,120.14,26.64,33.19,22.4,71.5,63.7,115,61.27,17.48-1,32.73-11.34,49.74-14.77,20.25-4.09,40.46-2.09,60.23,3.38,41,11.35,77.18,35.23,119.36,43,39.64,7.29,82.62-1.49,120.15-15.2,18.94-6.93,35.24-21.93,54.61-27,8.11-2.11,16.61-1.73,24.86-.91,21.8,2.16,41.21,5.49,63.42,2.07,42-6.46,72.37-29.95,103.74-56.75,33-28.17,70.67-56.75,116-40.33,59.85,21.69,104.51,72.11,166,92.28,74.49,24.42,142.55-.45,214.74-18.18,97.18-23.85,192-26.82,286.29,10.34" fill="none" stroke="url(#linear-gradient-6)"/><path id="Line_1-7" data-name="Line 1-7" d="M0,276.18c109.52-11.33,216-9,322.34,21.1,45.46,12.87,109.87,44.37,156.45,22.26,64.46-30.6,101.88-200.09,196.34-148.84,64.68,35.09,84.24,144.3,175.42,122.94,21.92-5.14,34.24-18.4,45.48-36.83,14.89-24.42,28.76-41.82,58-49.24,43.29-11,83.23,7.72,118.19,32.08,30,20.9,64.78,56.79,104.16,57,21.14.08,39.28-13.29,59.88-16.82,17.06-2.92,34.24-1.65,51,2.33,44.71,10.6,83.29,38.41,128.84,46.72,38.25,7,81.05-.86,117.14-14.45,17.27-6.51,31.51-20,48.85-25.62,28.05-9.11,59.88,4.86,89.13.13,43.53-7.05,73.16-33.15,104.7-61.64,32.61-29.45,69.66-54.83,114.82-36.62,58.23,23.49,101.77,71.82,162.58,91.69,73,23.86,140.52-.63,211.43-17.5C2365.08,241,2462.61,239,2560,276.18" fill="none" stroke="url(#linear-gradient-7)"/><path id="Line_1-8" data-name="Line 1-8" d="M0,288.48c108.74-12.65,214.39-10.91,320,19.57,44.64,12.88,109.65,45.42,156.64,24.86,66.54-29.12,99.66-199.45,197-147.82,65.44,34.7,87.41,145.59,179.83,120,44.24-12.25,47.48-67.15,91-82.82,47-16.92,91.09,2.83,129.49,29.6,29.34,20.46,63.21,55.86,101.79,55.59,21.24-.15,39.52-13.92,60.18-17.8,19-3.58,38.06-2.09,56.7,2.74,42.59,11,79.6,37.29,122.8,46.63,37.47,8.11,80.58,1.76,116.59-11.19,18.78-6.75,33.64-22.14,52.44-27.75,8.36-2.5,17.31-2.2,25.9-1.51,21.69,1.77,40.64,5.69,62.68,1.56,40.5-7.59,68.22-33.36,96.64-60.95,34.31-33.31,71.87-58.77,120-36.67,55.93,25.67,98.86,71.75,158.72,90.82,71.49,22.77,138.12-1.64,207.69-17.55,103.33-23.62,203.55-24.37,303.89,12.7" fill="none" stroke="url(#linear-gradient-8)"/><path id="Line_1-9" data-name="Line 1-9" d="M0,300.79c107.94-14,212.77-12.82,317.68,18,45.3,13.3,108.83,46.71,156.81,27.33,69.93-28.24,94.44-194.1,193.4-148.92,68.46,31.25,89.71,142.2,181.46,121,48.14-11.1,50.57-69.52,97.74-85.12,46.9-15.51,90.21,4.24,128.16,31.07,28.82,20.37,61.42,55,99.34,54.37,21.33-.36,39.79-14.53,60.49-18.77,20.92-4.28,42.13-2.69,62.61,3,40.61,11.27,76,36.11,117,46.4,39.1,9.82,85.26,4.55,122.67-10.47,16.62-6.67,29.3-20.78,45.93-26.68,27.23-9.68,57.84,4.43,86.13-.44,43.88-7.55,70.82-36.93,100.45-67.18,30.5-31.13,64.72-52.71,108.29-34.63,58.94,24.45,102,75,164.36,94.39,69.81,21.75,136.11-2.52,204.4-17.47,106.51-23.32,209.62-23,313.05,14.09" fill="none" stroke="url(#linear-gradient-9)"/><path id="Line_1-10" data-name="Line 1-10" d="M0,313.1c107.13-15.31,211.15-14.71,315.35,16.41,47.26,14.11,117.72,52.21,166.4,25.18,62.93-34.94,90-193.56,187.83-141.78,65.16,34.5,92.4,141.37,182.66,116.79,20.63-5.62,31.83-18.5,42.17-36.18,13.84-23.67,27.73-41.17,55.29-49.45,46.7-14,89.1,5.75,126.48,32.6,27.9,20,59.66,54.25,96.83,53.27,21.42-.56,40.08-15.15,60.82-19.73,21.25-4.69,42.76-3.53,63.73,1.9,40.77,10.55,76,35.71,116.42,47.21,38.93,11.08,84.66,7.31,122.4-7.44,17.34-6.77,29.32-21.1,46-28.22,29.32-12.54,63.74,4.18,94.7-3.28,38.16-9.2,61.76-36.71,86.92-64.54,31.42-34.75,66.23-56.2,112.41-34.29,51.53,24.44,91.17,67.75,145.22,88.41,73,27.88,143.42,2.8,215.88-12.37,109.77-23,215.9-21.58,322.51,15.51" fill="none" stroke="url(#linear-gradient-10)"/><path id="Line_1-11" data-name="Line 1-11" d="M0,325.41C106,308.82,209,308.77,312.19,340c46.91,14.17,117.42,53.41,166.46,28.51,65.4-33.21,83.9-188.25,183-144.92C731.74,254.17,760,368.42,853,341.67c20-5.76,30.74-18.46,40.67-35.78,13.25-23.09,26.87-40.56,53.41-49.16,46-14.89,88.84,3.3,126,29.93,28.83,20.62,63,59,102.05,54.72,17.85-2,34-14,51.12-18.83a137,137,0,0,1,65.56-2.11c44.61,9.26,82.15,37.64,125.59,50.33,38,11.11,83.42,8.21,120.28-6.72,17.37-7,28.54-21.79,45-29.53,29-13.65,63.62,3.27,94.27-4.2,40.47-9.87,62.32-41.47,88.13-71.05,27.8-31.87,60.46-48.57,101.39-29.62,53.61,24.83,93.69,71,150,91.8,71.14,26.23,141.73.9,212.42-13.17,112.71-22.43,221.64-19.91,331.06,17.13" fill="none" stroke="url(#linear-gradient-11)"/><path id="Line_1-12" data-name="Line 1-12" d="M0,337.71c104.82-17.85,206.76-18.54,309,12.68,46.75,14.27,117.11,54.52,166.58,31.65,68.47-31.66,83.31-193.64,186-144.24,67.73,32.6,101,143.32,192.09,115.86,19.41-5.85,29.65-18.33,39.18-35.25,12.64-22.46,26-39.84,51.46-48.71,45.26-15.76,88.7,1,125.73,27.34,28.44,20.23,61.13,58.5,99.33,56.71,21.47-1,40.41-16.32,61.07-21.6a140.76,140.76,0,0,1,65.65-.77c44.28,9.8,81.51,38.05,124.67,51,37.18,11.14,82.27,9,118.28-6.24,17.44-7.37,27.8-22.59,44-31,28.71-14.84,63.58,2.22,94-5.19,39.39-9.6,59.69-41.21,83.55-70.79,29-36,62.42-49.35,105.17-26.56,50.72,27,90,70.64,145.2,90.27,69.51,24.71,140.39-.8,209.49-13.88,115.59-21.88,227.3-18.28,339.5,18.72" fill="none" stroke="url(#linear-gradient-12)"/><path id="Line_1-13" data-name="Line 1-13" d="M0,350c107-19.73,210.26-19.73,314.36,13.49,44.56,14.22,110.62,52,158.32,31.92,70.77-29.78,77.74-188.85,180.7-147.33C725.05,277,756.44,387.9,847.72,367.4c23.09-5.19,34.51-18.46,45.34-38.26,11.62-21.26,25.46-37.58,49-46.22,46.25-17,91.51.44,129.09,28,26.64,19.52,57,54.86,92.66,55.42,22.65.35,43.33-16.59,64.82-22.47a144.53,144.53,0,0,1,71.74-1.23c42.17,9.91,78,36.06,118.78,49.81,37.8,12.75,84.27,12,121.19-4.29,18-7.95,28.07-24.89,45-33.49,31-15.73,68.26,3.49,101-7.85,34.44-11.94,51.7-43.42,72.46-70.79,27.61-36.4,61.22-45.32,101.74-22.36,48,27.2,86.2,68.47,138.64,88.29,67.33,25.46,136.34,2.19,203.83-10.42,121.48-22.7,238.75-19.55,357,18.51" fill="none" stroke="url(#linear-gradient-13)"/><path id="Line_1-14" data-name="Line 1-14" d="M0,362.33c105.78-21,208.08-21.65,311.25,11.6,45.71,14.74,114.37,55.58,162.84,32.68,68.14-32.2,73.07-186.2,175.13-146.41C722,288.58,756.73,400.94,848.55,379.5c22.43-5.24,33.15-18.12,43.66-37.36,12.59-23.05,27.9-39.42,53.82-47.37,46.41-14.23,89.11,2.55,126.31,30.36,25.77,19.26,55,53.86,89.85,54,22.91.11,43.25-17.18,64.89-23.5A147.42,147.42,0,0,1,1299.7,353c42.26,9.07,77.86,34.81,118,49.58,37.87,13.94,83.2,14.62,120.85-1.22,19.87-8.36,29.25-26.51,47.23-36.44,30.73-17,68.27,2.49,100.7-8.69,33.44-11.52,49.33-42.87,68.29-70C1781.6,247.77,1815,241,1855.5,265c45.61,26.93,82.55,66.41,132.45,86.41,67.82,27.18,138.79,3.15,207.21-9.08,124.15-22.18,244.06-18,364.84,20" fill="none" stroke="url(#linear-gradient-14)"/><path id="Line_1-15" data-name="Line 1-15" d="M0,374.64c108-23,211.48-23.09,316.63,12.47,43.33,14.65,108,52.79,154.68,32.8,71-30.4,72-192.12,178.1-146.14C720,304.38,759,413.68,849.34,391.66c21.68-5.29,31.91-17.52,42.06-36.22C903.61,333,918.74,317.05,943.85,309c47.6-15.34,91.73,1.89,129.73,31,24.66,18.86,53.43,53,87.24,52.85,22.6-.11,43.63-17.95,64.86-24.55a151,151,0,0,1,73.61-4.56c43.88,8.4,80.47,35.5,121.72,50.93,37.07,13.87,82,15,118.81-1.2,19.77-8.72,28.52-27.53,46.2-38.1,31.61-18.88,71,2.35,104.39-11,31.55-12.65,44.87-44.16,62.54-70.62,25.84-38.67,59.59-40.17,97.78-16.69,45,27.69,82.23,66.93,132.38,86.26,63.73,24.58,131,3.08,195.19-8.36,130-23.16,255.12-19.27,381.7,19.79" fill="none" stroke="url(#linear-gradient-15)"/><path id="Line_1-16" data-name="Line 1-16" d="M0,386.94c106.14-24.22,209.18-24.94,312.75,10.3C357,412.3,424.41,453.69,472.1,431.81,541.53,400,538.87,243,644.09,284.73c73.06,28.94,112.76,140,204.11,119.59,22.12-4.95,32.51-16.87,42.77-35.8,11.66-21.5,26.91-36.6,50.55-44.87,47-16.44,92.58.39,130.25,29,24.81,18.84,53.91,54.71,88.18,54.11,22.53-.4,43.61-18.62,64.66-25.6,24-7.94,49.17-10.62,74.17-6.48,43.71,7.25,80,33.51,120.29,49.91,37.61,15.31,83.41,18.22,121.3,1.19,20.19-9.08,27.62-28.1,45-39.63,30.87-20.44,70.36.48,103.35-11.35,32.38-11.61,44.48-44.75,61.34-71.48,25.66-40.69,59.72-37.24,97.58-13,42.75,27.35,79.09,64.49,127.09,83.24,64.6,25.23,132.68,3.28,198-7.9,131.48-22.52,259.13-17.51,387.23,21.31" fill="none" stroke="url(#linear-gradient-16)"/><path id="Line_1-17" data-name="Line 1-17" d="M0,399.25c105-25.55,207-26.84,309.7,8.38,44,15.1,116.27,59.64,163.77,35.35,66.83-34.18,63-186.71,167.2-146.43C715.33,325.43,756.53,437,849,416.63c21.21-4.67,31.35-15.87,41.34-34,12.68-23.07,30-37.72,55.79-45.12,47.14-13.5,90,2.17,127.49,31.16,24.29,18.79,52.31,53.58,85.93,52.53,22.87-.71,43.48-19.27,64.71-26.76,25.66-9,53-12.11,79.92-7.4,43,7.54,78.72,33.47,118.38,49.83,36.81,15.18,82,18.34,119,1,20.06-9.42,26.76-29,43.8-41,31.64-22.38,73.26.78,106.83-13.41,30.4-12.85,40.28-45.44,56.22-71.45,25-40.88,59.86-31.46,95.41-8.34,41,26.64,76.76,61.72,122.64,80.29,65,26.33,134.76,3.78,200.71-7.17C2300.51,354.58,2430,360.5,2560,399.25" fill="none" stroke="url(#linear-gradient-17)"/><path id="Line_1-18" data-name="Line 1-18" d="M0,411.56c107.2-27.73,209.37-28.16,313.93,9.06,43.77,15.58,113.38,59.56,160.29,34.2C540.4,419,534.43,266.11,640.3,309.31,714.08,339.42,756.48,447,848,429.4c21.94-4.22,31.62-14.34,42.21-32.79,12.69-22.14,30.13-35.67,55-43.09,46.44-13.88,90.4.89,127.65,29.29,24.55,18.71,53.23,55.1,87.16,53.52,22.85-1.06,43.42-20,64.48-27.91,25.57-9.6,53.06-13.64,80.2-9.64,44.15,6.51,80.56,33.07,120.8,50.1,36,15.22,80.15,18.63,116.33,1.44,21-10,26.62-30.85,44.47-43.43,32-22.58,73.74,1.22,107.42-13.65,28.93-12.78,37.5-45.13,52.15-70.31,23.41-40.23,58.07-28.78,92.17-6.91,41,26.28,77.15,60.55,122.79,79,63.07,25.52,129.43,5,193.56-5.66,138-23,271-17.42,405.7,22.18" fill="none" stroke="url(#linear-gradient-18)"/><path id="Line_1-19" data-name="Line 1-19" d="M0,423.87c106.08-29.09,207.05-30.13,310.92,7.14,43.08,15.45,113.85,60.37,161,37.13,68.69-33.86,58.51-189.79,166-147.15,75.75,30.06,117.77,137.45,210.89,120.92,21.07-3.75,30.51-12.82,41.05-30.24,12.67-20.94,29.86-33.34,53.5-40.71,48.38-15.08,93.52-.55,132.3,29.32,23.56,18.15,52.34,54,85.38,52,22.6-1.38,43.75-20.93,64.42-29.17,25.66-10.23,53-15.26,80.53-11.93,43.9,5.31,79.6,30.81,119,48.45,36,16.17,81.12,21.09,117.78,3,20.72-10.23,25.49-31.46,42.88-44.41,31.76-23.65,73.75.38,107.44-13.75,29.52-12.38,36.68-46.08,51.14-71.28,23-40.17,59.35-22.38,91.28-2.09,39.84,25.32,75.89,57.52,120.14,75.32,63.69,25.62,130.66,5,195.41-5.58,139.13-22.8,273.22-16.35,409,23.08" fill="none" stroke="url(#linear-gradient-19)"/><path id="Line_1-20" data-name="Line 1-20" d="M0,436.18c104.85-30.42,204.89-31.85,307.92,5.2,44.62,16,117.33,64,165.47,38C539.53,443.63,530,291.59,636.09,333c77.2,30.12,119.36,136.71,213.56,121.57,20.13-3.24,29.36-11,40.11-27.26,13-19.61,29.88-30.76,52.47-37.91,49.95-15.8,96.72-1.91,137,29.17,23.37,18,51.15,52.66,83.89,50.07,23-1.82,43.53-21.69,64.42-30.55,25.43-10.79,53-16.68,80.6-14.21,44.78,4,80.95,30.39,120.68,48.44,34.67,15.76,79.61,20.83,114.73,2.69,20.27-10.47,24.28-31.82,41.09-45.09,31.25-24.68,73.77-.42,107.5-13.61,30.19-11.8,35.84-46.76,50.56-71.8,23.12-39.33,60.8-16.26,91.09,2.67,40.27,25.17,77.88,56.22,122.94,72.74,60.35,22.13,122,4.29,183-6,142.79-24.05,280.64-17.87,420.22,22.26" fill="none" stroke="url(#linear-gradient-20)"/><path id="Line_1-21" data-name="Line 1-21" d="M0,448.48c106.63-32.64,208.46-33.27,313,6.2,43.18,16.31,111,61,158.29,38C540.13,459.13,527.71,304,635,344.94c79.28,30.22,119.57,135,215.5,122.4,19-2.49,28.38-9,39.37-23.82,15-20.12,34-30,58.32-36.45,48.43-12.87,92.26-1.55,131.8,28,24.14,18,52.82,54.18,86.27,50.92,22.85-2.23,43.8-22.71,64.31-32,26.84-12.12,55.93-19.28,85.49-16.4,41.85,4.07,76.1,27.94,113,45.7,34.62,16.69,79.67,23,115.2,4.3,19.92-10.49,22.78-32,39-45.39,32-26.22,76.41.61,110.64-14.29,27.39-11.93,32.85-44.86,46-68.38,22.89-40.95,62.85-13.35,93.15,4.87,39.92,24,78.07,52.41,122.42,67.89,61.23,21.38,122.34,3.87,184.06-6.56,142.79-24.13,280.88-17,420.43,22.77" fill="none" stroke="url(#linear-gradient-21)"/></svg>