<svg id="Layer_1" data-name="Layer 1" xmlns="http://www.w3.org/2000/svg" xmlns:xlink="http://www.w3.org/1999/xlink" viewBox="0 0 7919.35 994.19"><defs><linearGradient id="linear-gradient" x1="639.75" y1="767.17" x2="1920.25" y2="-513.33" gradientUnits="userSpaceOnUse"><stop offset="0.2" stop-color="#7b68ee" stop-opacity="0.7"/><stop offset="0.8" stop-color="#f08080" stop-opacity="0.7"/></linearGradient><linearGradient id="linear-gradient-2" x1="639.75" y1="779.48" x2="1920.25" y2="-501.02" xlink:href="#linear-gradient"/><linearGradient id="linear-gradient-3" x1="639.75" y1="791.79" x2="1920.25" y2="-488.71" xlink:href="#linear-gradient"/><linearGradient id="linear-gradient-4" x1="639.75" y1="804.1" x2="1920.25" y2="-476.4" xlink:href="#linear-gradient"/><linearGradient id="linear-gradient-5" x1="639.75" y1="816.4" x2="1920.25" y2="-464.1" xlink:href="#linear-gradient"/><linearGradient id="linear-gradient-6" x1="639.75" y1="828.71" x2="1920.25" y2="-451.79" xlink:href="#linear-gradient"/><linearGradient id="linear-gradient-7" x1="639.75" y1="841.02" x2="1920.25" y2="-439.48" xlink:href="#linear-gradient"/><linearGradient id="linear-gradient-8" x1="639.75" y1="853.33" x2="1920.25" y2="-427.17" xlink:href="#linear-gradient"/><linearGradient id="linear-gradient-9" x1="639.75" y1="865.63" x2="1920.25" y2="-414.87" xlink:href="#linear-gradient"/><linearGradient id="linear-gradient-10" x1="639.75" y1="877.94" x2="1920.25" y2="-402.56" xlink:href="#linear-gradient"/><linearGradient id="linear-gradient-11" x1="639.75" y1="890.25" x2="1920.25" y2="-390.25" xlink:href="#linear-gradient"/><linearGradient id="linear-gradient-12" x1="639.75" y1="902.56" x2="1920.25" y2="-377.94" xlink:href="#linear-gradient"/><linearGradient id="linear-gradient-13" x1="639.75" y1="914.87" x2="1920.25" y2="-365.63" xlink:href="#linear-gradient"/><linearGradient id="linear-gradient-14" x1="639.75" y1="927.17" x2="1920.25" y2="-353.33" xlink:href="#linear-gradient"/><linearGradient id="linear-gradient-15" x1="639.75" y1="939.48" x2="1920.25" y2="-341.02" xlink:href="#linear-gradient"/><linearGradient id="linear-gradient-16" x1="639.75" y1="951.79" x2="1920.25" y2="-328.71" xlink:href="#linear-gradient"/><linearGradient id="linear-gradient-17" x1="639.75" y1="964.1" x2="1920.25" y2="-316.4" xlink:href="#linear-gradient"/><linearGradient id="linear-gradient-18" x1="639.75" y1="976.4" x2="1920.25" y2="-304.1" xlink:href="#linear-gradient"/><linearGradient id="linear-gradient-19" x1="639.75" y1="988.71" x2="1920.25" y2="-291.79" xlink:href="#linear-gradient"/><linearGradient id="linear-gradient-20" x1="639.75" y1="1001.02" x2="1920.25" y2="-279.48" xlink:href="#linear-gradient"/><linearGradient id="linear-gradient-21" x1="639.75" y1="1013.33" x2="1920.25" y2="-267.17" xlink:href="#linear-gradient"/><linearGradient id="linear-gradient-22" x1="639.69" y1="1401.51" x2="1920.26" y2="120.93" xlink:href="#linear-gradient"/><linearGradient id="linear-gradient-23" x1="639.69" y1="1413.81" x2="1920.26" y2="133.24" xlink:href="#linear-gradient"/><linearGradient id="linear-gradient-24" x1="639.7" y1="1426.12" x2="1920.26" y2="145.55" xlink:href="#linear-gradient"/><linearGradient id="linear-gradient-25" x1="639.7" y1="1438.42" x2="1920.26" y2="157.86" xlink:href="#linear-gradient"/><linearGradient id="linear-gradient-26" x1="639.7" y1="1450.73" x2="1920.26" y2="170.17" xlink:href="#linear-gradient"/><linearGradient id="linear-gradient-27" x1="639.71" y1="1463.03" x2="1920.26" y2="182.48" xlink:href="#linear-gradient"/><linearGradient id="linear-gradient-28" x1="639.71" y1="1475.33" x2="1920.26" y2="194.79" xlink:href="#linear-gradient"/><linearGradient id="linear-gradient-29" x1="639.72" y1="1487.64" x2="1920.26" y2="207.1" xlink:href="#linear-gradient"/><linearGradient id="linear-gradient-30" x1="639.72" y1="1499.94" x2="1920.26" y2="219.41" xlink:href="#linear-gradient"/><linearGradient id="linear-gradient-31" x1="639.72" y1="1512.25" x2="1920.25" y2="231.72" xlink:href="#linear-gradient"/><linearGradient id="linear-gradient-32" x1="639.73" y1="1524.55" x2="1920.25" y2="244.03" xlink:href="#linear-gradient"/><linearGradient id="linear-gradient-33" x1="639.73" y1="1536.85" x2="1920.25" y2="256.33" xlink:href="#linear-gradient"/><linearGradient id="linear-gradient-34" x1="639.73" y1="1549.16" x2="1920.25" y2="268.64" xlink:href="#linear-gradient"/><linearGradient id="linear-gradient-35" x1="639.74" y1="1561.46" x2="1920.25" y2="280.95" xlink:href="#linear-gradient"/><linearGradient id="linear-gradient-36" x1="639.74" y1="1573.76" x2="1920.25" y2="293.26" xlink:href="#linear-gradient"/><linearGradient id="linear-gradient-37" x1="639.75" y1="1586.07" x2="1920.25" y2="305.57" xlink:href="#linear-gradient"/><linearGradient id="linear-gradient-38" x1="639.75" y1="1598.37" x2="1920.24" y2="317.87" xlink:href="#linear-gradient"/><linearGradient id="linear-gradient-39" x1="639.75" y1="1610.67" x2="1920.24" y2="330.18" xlink:href="#linear-gradient"/><linearGradient id="linear-gradient-40" x1="639.76" y1="1622.97" x2="1920.24" y2="342.49" xlink:href="#linear-gradient"/><linearGradient id="linear-gradient-41" x1="639.76" y1="1635.28" x2="1920.24" y2="354.8" xlink:href="#linear-gradient"/><linearGradient id="linear-gradient-42" x1="639.76" y1="1647.58" x2="1920.24" y2="367.1" xlink:href="#linear-gradient"/><linearGradient id="linear-gradient-43" x1="5998.69" y1="842.51" x2="7279.26" y2="-438.07" gradientUnits="userSpaceOnUse"><stop offset="0.2" stop-color="#7b68ee" stop-opacity="0.5"/><stop offset="0.8" stop-color="#f08080" stop-opacity="0.5"/></linearGradient><linearGradient id="linear-gradient-44" x1="5998.69" y1="854.81" x2="7279.26" y2="-425.76" xlink:href="#linear-gradient-43"/><linearGradient id="linear-gradient-45" x1="5998.7" y1="867.12" x2="7279.26" y2="-413.45" xlink:href="#linear-gradient-43"/><linearGradient id="linear-gradient-46" x1="5998.7" y1="879.42" x2="7279.26" y2="-401.14" xlink:href="#linear-gradient-43"/><linearGradient id="linear-gradient-47" x1="5998.7" y1="891.73" x2="7279.26" y2="-388.83" xlink:href="#linear-gradient-43"/><linearGradient id="linear-gradient-48" x1="5998.71" y1="904.03" x2="7279.26" y2="-376.52" xlink:href="#linear-gradient-43"/><linearGradient id="linear-gradient-49" x1="5998.71" y1="916.33" x2="7279.26" y2="-364.21" xlink:href="#linear-gradient-43"/><linearGradient id="linear-gradient-50" x1="5998.72" y1="928.64" x2="7279.26" y2="-351.9" xlink:href="#linear-gradient-43"/><linearGradient id="linear-gradient-51" x1="5998.72" y1="940.94" x2="7279.26" y2="-339.59" xlink:href="#linear-gradient-43"/><linearGradient id="linear-gradient-52" x1="5998.72" y1="953.25" x2="7279.25" y2="-327.28" xlink:href="#linear-gradient-43"/><linearGradient id="linear-gradient-53" x1="5998.73" y1="965.55" x2="7279.25" y2="-314.97" xlink:href="#linear-gradient-43"/><linearGradient id="linear-gradient-54" x1="5998.73" y1="977.85" x2="7279.25" y2="-302.67" xlink:href="#linear-gradient-43"/><linearGradient id="linear-gradient-55" x1="5998.73" y1="990.16" x2="7279.25" y2="-290.36" xlink:href="#linear-gradient-43"/><linearGradient id="linear-gradient-56" x1="5998.74" y1="1002.46" x2="7279.25" y2="-278.05" xlink:href="#linear-gradient-43"/><linearGradient id="linear-gradient-57" x1="5998.74" y1="1014.76" x2="7279.25" y2="-265.74" xlink:href="#linear-gradient-43"/><linearGradient id="linear-gradient-58" x1="5998.75" y1="1027.07" x2="7279.25" y2="-253.43" xlink:href="#linear-gradient-43"/><linearGradient id="linear-gradient-59" x1="5998.75" y1="1039.37" x2="7279.24" y2="-241.13" xlink:href="#linear-gradient-43"/><linearGradient id="linear-gradient-60" x1="5998.75" y1="1051.67" x2="7279.24" y2="-228.82" xlink:href="#linear-gradient-43"/><linearGradient id="linear-gradient-61" x1="5998.76" y1="1063.97" x2="7279.24" y2="-216.51" xlink:href="#linear-gradient-43"/><linearGradient id="linear-gradient-62" x1="5998.76" y1="1076.28" x2="7279.24" y2="-204.2" xlink:href="#linear-gradient-43"/><linearGradient id="linear-gradient-63" x1="5998.76" y1="1088.58" x2="7279.24" y2="-191.9" xlink:href="#linear-gradient-43"/><linearGradient id="linear-gradient-64" x1="3418.75" y1="1323.16" x2="4699.25" y2="42.67" xlink:href="#linear-gradient"/><linearGradient id="linear-gradient-65" x1="3418.75" y1="1335.47" x2="4699.25" y2="54.98" xlink:href="#linear-gradient"/><linearGradient id="linear-gradient-66" x1="3418.75" y1="1347.78" x2="4699.25" y2="67.28" xlink:href="#linear-gradient"/><linearGradient id="linear-gradient-67" x1="3418.75" y1="1360.08" x2="4699.25" y2="79.59" xlink:href="#linear-gradient"/><linearGradient id="linear-gradient-68" x1="3418.75" y1="1372.39" x2="4699.25" y2="91.9" xlink:href="#linear-gradient"/><linearGradient id="linear-gradient-69" x1="3418.75" y1="1384.7" x2="4699.25" y2="104.21" xlink:href="#linear-gradient"/><linearGradient id="linear-gradient-70" x1="3418.75" y1="1397.01" x2="4699.25" y2="116.51" xlink:href="#linear-gradient"/><linearGradient id="linear-gradient-71" x1="3418.75" y1="1409.32" x2="4699.25" y2="128.82" xlink:href="#linear-gradient"/><linearGradient id="linear-gradient-72" x1="3418.75" y1="1421.62" x2="4699.25" y2="141.13" xlink:href="#linear-gradient"/><linearGradient id="linear-gradient-73" x1="3418.75" y1="1433.93" x2="4699.25" y2="153.44" xlink:href="#linear-gradient"/><linearGradient id="linear-gradient-74" x1="3418.75" y1="1446.24" x2="4699.25" y2="165.74" xlink:href="#linear-gradient"/><linearGradient id="linear-gradient-75" x1="3418.75" y1="1458.55" x2="4699.25" y2="178.05" xlink:href="#linear-gradient"/><linearGradient id="linear-gradient-76" x1="3418.75" y1="1470.85" x2="4699.25" y2="190.36" xlink:href="#linear-gradient"/><linearGradient id="linear-gradient-77" x1="3418.75" y1="1483.16" x2="4699.25" y2="202.67" xlink:href="#linear-gradient"/><linearGradient id="linear-gradient-78" x1="3418.75" y1="1495.47" x2="4699.25" y2="214.97" xlink:href="#linear-gradient"/><linearGradient id="linear-gradient-79" x1="3418.75" y1="1507.78" x2="4699.25" y2="227.28" xlink:href="#linear-gradient"/><linearGradient id="linear-gradient-80" x1="3418.75" y1="1520.08" x2="4699.25" y2="239.59" xlink:href="#linear-gradient"/><linearGradient id="linear-gradient-81" x1="3418.75" y1="1532.39" x2="4699.25" y2="251.9" xlink:href="#linear-gradient"/><linearGradient id="linear-gradient-82" x1="3418.75" y1="1544.7" x2="4699.25" y2="264.2" xlink:href="#linear-gradient"/><linearGradient id="linear-gradient-83" x1="3418.75" y1="1557.01" x2="4699.25" y2="276.51" xlink:href="#linear-gradient"/><linearGradient id="linear-gradient-84" x1="3418.75" y1="1569.31" x2="4699.25" y2="288.82" xlink:href="#linear-gradient"/><linearGradient id="linear-gradient-85" x1="3418.75" y1="1329.16" x2="4699.25" y2="48.67" xlink:href="#linear-gradient"/><linearGradient id="linear-gradient-86" x1="3418.75" y1="1341.47" x2="4699.25" y2="60.98" xlink:href="#linear-gradient"/><linearGradient id="linear-gradient-87" x1="3418.75" y1="1353.78" x2="4699.25" y2="73.28" xlink:href="#linear-gradient"/><linearGradient id="linear-gradient-88" x1="3418.75" y1="1366.08" x2="4699.25" y2="85.59" xlink:href="#linear-gradient"/><linearGradient id="linear-gradient-89" x1="3418.75" y1="1378.39" x2="4699.25" y2="97.9" xlink:href="#linear-gradient"/><linearGradient id="linear-gradient-90" x1="3418.75" y1="1390.7" x2="4699.25" y2="110.21" xlink:href="#linear-gradient"/><linearGradient id="linear-gradient-91" x1="3418.75" y1="1403.01" x2="4699.25" y2="122.51" xlink:href="#linear-gradient"/><linearGradient id="linear-gradient-92" x1="3418.75" y1="1415.32" x2="4699.25" y2="134.82" xlink:href="#linear-gradient"/><linearGradient id="linear-gradient-93" x1="3418.75" y1="1427.62" x2="4699.25" y2="147.13" xlink:href="#linear-gradient"/><linearGradient id="linear-gradient-94" x1="3418.75" y1="1439.93" x2="4699.25" y2="159.44" xlink:href="#linear-gradient"/><linearGradient id="linear-gradient-95" x1="3418.75" y1="1452.24" x2="4699.25" y2="171.74" xlink:href="#linear-gradient"/><linearGradient id="linear-gradient-96" x1="3418.75" y1="1464.55" x2="4699.25" y2="184.05" xlink:href="#linear-gradient"/><linearGradient id="linear-gradient-97" x1="3418.75" y1="1476.85" x2="4699.25" y2="196.36" xlink:href="#linear-gradient"/><linearGradient id="linear-gradient-98" x1="3418.75" y1="1489.16" x2="4699.25" y2="208.67" xlink:href="#linear-gradient"/><linearGradient id="linear-gradient-99" x1="3418.75" y1="1501.47" x2="4699.25" y2="220.97" xlink:href="#linear-gradient"/><linearGradient id="linear-gradient-100" x1="3418.75" y1="1513.78" x2="4699.25" y2="233.28" xlink:href="#linear-gradient"/><linearGradient id="linear-gradient-101" x1="3418.75" y1="1526.08" x2="4699.25" y2="245.59" xlink:href="#linear-gradient"/><linearGradient id="linear-gradient-102" x1="3418.75" y1="1538.39" x2="4699.25" y2="257.9" xlink:href="#linear-gradient"/><linearGradient id="linear-gradient-103" x1="3418.75" y1="1550.7" x2="4699.25" y2="270.2" xlink:href="#linear-gradient"/><linearGradient id="linear-gradient-104" x1="3418.75" y1="1563.01" x2="4699.25" y2="282.51" xlink:href="#linear-gradient"/><linearGradient id="linear-gradient-105" x1="3418.75" y1="1575.31" x2="4699.25" y2="294.82" xlink:href="#linear-gradient"/><linearGradient id="linear-gradient-106" x1="3418.75" y1="767.17" x2="4699.25" y2="-513.33" xlink:href="#linear-gradient"/><linearGradient id="linear-gradient-107" x1="3418.75" y1="779.48" x2="4699.25" y2="-501.02" xlink:href="#linear-gradient"/><linearGradient id="linear-gradient-108" x1="3418.75" y1="791.79" x2="4699.25" y2="-488.71" xlink:href="#linear-gradient"/><linearGradient id="linear-gradient-109" x1="3418.75" y1="804.1" x2="4699.25" y2="-476.4" xlink:href="#linear-gradient"/><linearGradient id="linear-gradient-110" x1="3418.75" y1="816.4" x2="4699.25" y2="-464.1" xlink:href="#linear-gradient"/><linearGradient id="linear-gradient-111" x1="3418.75" y1="828.71" x2="4699.25" y2="-451.79" xlink:href="#linear-gradient"/><linearGradient id="linear-gradient-112" x1="3418.75" y1="841.02" x2="4699.25" y2="-439.48" xlink:href="#linear-gradient"/><linearGradient id="linear-gradient-113" x1="3418.75" y1="853.33" x2="4699.25" y2="-427.17" xlink:href="#linear-gradient"/><linearGradient id="linear-gradient-114" x1="3418.75" y1="865.63" x2="4699.25" y2="-414.87" xlink:href="#linear-gradient"/><linearGradient id="linear-gradient-115" x1="3418.75" y1="877.94" x2="4699.25" y2="-402.56" xlink:href="#linear-gradient"/><linearGradient id="linear-gradient-116" x1="3418.75" y1="890.25" x2="4699.25" y2="-390.25" xlink:href="#linear-gradient"/><linearGradient id="linear-gradient-117" x1="3418.75" y1="902.56" x2="4699.25" y2="-377.94" xlink:href="#linear-gradient"/><linearGradient id="linear-gradient-118" x1="3418.75" y1="914.87" x2="4699.25" y2="-365.63" xlink:href="#linear-gradient"/><linearGradient id="linear-gradient-119" x1="3418.75" y1="927.17" x2="4699.25" y2="-353.33" xlink:href="#linear-gradient"/><linearGradient id="linear-gradient-120" x1="3418.75" y1="939.48" x2="4699.25" y2="-341.02" xlink:href="#linear-gradient"/><linearGradient id="linear-gradient-121" x1="3418.75" y1="951.79" x2="4699.25" y2="-328.71" xlink:href="#linear-gradient"/><linearGradient id="linear-gradient-122" x1="3418.75" y1="964.1" x2="4699.25" y2="-316.4" xlink:href="#linear-gradient"/><linearGradient id="linear-gradient-123" x1="3418.75" y1="976.4" x2="4699.25" y2="-304.1" xlink:href="#linear-gradient"/><linearGradient id="linear-gradient-124" x1="3418.75" y1="988.71" x2="4699.25" y2="-291.79" xlink:href="#linear-gradient"/><linearGradient id="linear-gradient-125" x1="3418.75" y1="1001.02" x2="4699.25" y2="-279.48" xlink:href="#linear-gradient"/><linearGradient id="linear-gradient-126" x1="3418.75" y1="1013.33" x2="4699.25" y2="-267.17" xlink:href="#linear-gradient"/><linearGradient id="linear-gradient-127" x1="3418.75" y1="773.17" x2="4699.25" y2="-507.33" xlink:href="#linear-gradient"/><linearGradient id="linear-gradient-128" x1="3418.75" y1="785.48" x2="4699.25" y2="-495.02" xlink:href="#linear-gradient"/><linearGradient id="linear-gradient-129" x1="3418.75" y1="797.79" x2="4699.25" y2="-482.71" xlink:href="#linear-gradient"/><linearGradient id="linear-gradient-130" x1="3418.75" y1="810.1" x2="4699.25" y2="-470.4" xlink:href="#linear-gradient"/><linearGradient id="linear-gradient-131" x1="3418.75" y1="822.4" x2="4699.25" y2="-458.1" xlink:href="#linear-gradient"/><linearGradient id="linear-gradient-132" x1="3418.75" y1="834.71" x2="4699.25" y2="-445.79" xlink:href="#linear-gradient"/><linearGradient id="linear-gradient-133" x1="3418.75" y1="847.02" x2="4699.25" y2="-433.48" xlink:href="#linear-gradient"/><linearGradient id="linear-gradient-134" x1="3418.75" y1="859.33" x2="4699.25" y2="-421.17" xlink:href="#linear-gradient"/><linearGradient id="linear-gradient-135" x1="3418.75" y1="871.63" x2="4699.25" y2="-408.87" xlink:href="#linear-gradient"/><linearGradient id="linear-gradient-136" x1="3418.75" y1="883.94" x2="4699.25" y2="-396.56" xlink:href="#linear-gradient"/><linearGradient id="linear-gradient-137" x1="3418.75" y1="896.25" x2="4699.25" y2="-384.25" xlink:href="#linear-gradient"/><linearGradient id="linear-gradient-138" x1="3418.75" y1="908.56" x2="4699.25" y2="-371.94" xlink:href="#linear-gradient"/><linearGradient id="linear-gradient-139" x1="3418.75" y1="920.87" x2="4699.25" y2="-359.63" xlink:href="#linear-gradient"/><linearGradient id="linear-gradient-140" x1="3418.75" y1="933.17" x2="4699.25" y2="-347.33" xlink:href="#linear-gradient"/><linearGradient id="linear-gradient-141" x1="3418.75" y1="945.48" x2="4699.25" y2="-335.02" xlink:href="#linear-gradient"/><linearGradient id="linear-gradient-142" x1="3418.75" y1="957.79" x2="4699.25" y2="-322.71" xlink:href="#linear-gradient"/><linearGradient id="linear-gradient-143" x1="3418.75" y1="970.1" x2="4699.25" y2="-310.4" xlink:href="#linear-gradient"/><linearGradient id="linear-gradient-144" x1="3418.75" y1="982.4" x2="4699.25" y2="-298.1" xlink:href="#linear-gradient"/><linearGradient id="linear-gradient-145" x1="3418.75" y1="994.71" x2="4699.25" y2="-285.79" xlink:href="#linear-gradient"/><linearGradient id="linear-gradient-146" x1="3418.75" y1="1007.02" x2="4699.25" y2="-273.48" xlink:href="#linear-gradient"/><linearGradient id="linear-gradient-147" x1="3418.75" y1="1019.33" x2="4699.25" y2="-261.17" xlink:href="#linear-gradient"/></defs><title>stripes</title><path id="Line_1" data-name="Line 1" d="M0,126.92H2560" transform="translate(0.15 -64.45)" fill="none" stroke="url(#linear-gradient)"/><path id="Line_1-2" data-name="Line 1-2" d="M0,139.23H2560" transform="translate(0.15 -64.45)" fill="none" stroke="url(#linear-gradient-2)"/><path id="Line_1-3" data-name="Line 1-3" d="M0,151.54H2560" transform="translate(0.15 -64.45)" fill="none" stroke="url(#linear-gradient-3)"/><path id="Line_1-4" data-name="Line 1-4" d="M0,163.85H2560" transform="translate(0.15 -64.45)" fill="none" stroke="url(#linear-gradient-4)"/><path id="Line_1-5" data-name="Line 1-5" d="M0,176.15H2560" transform="translate(0.15 -64.45)" fill="none" stroke="url(#linear-gradient-5)"/><path id="Line_1-6" data-name="Line 1-6" d="M0,188.46H2560" transform="translate(0.15 -64.45)" fill="none" stroke="url(#linear-gradient-6)"/><path id="Line_1-7" data-name="Line 1-7" d="M0,200.77H2560" transform="translate(0.15 -64.45)" fill="none" stroke="url(#linear-gradient-7)"/><path id="Line_1-8" data-name="Line 1-8" d="M0,213.08H2560" transform="translate(0.15 -64.45)" fill="none" stroke="url(#linear-gradient-8)"/><path id="Line_1-9" data-name="Line 1-9" d="M0,225.38H2560" transform="translate(0.15 -64.45)" fill="none" stroke="url(#linear-gradient-9)"/><path id="Line_1-10" data-name="Line 1-10" d="M0,237.69H2560" transform="translate(0.15 -64.45)" fill="none" stroke="url(#linear-gradient-10)"/><path id="Line_1-11" data-name="Line 1-11" d="M0,250H2560" transform="translate(0.15 -64.45)" fill="none" stroke="url(#linear-gradient-11)"/><path id="Line_1-12" data-name="Line 1-12" d="M0,262.31H2560" transform="translate(0.15 -64.45)" fill="none" stroke="url(#linear-gradient-12)"/><path id="Line_1-13" data-name="Line 1-13" d="M0,274.62H2560" transform="translate(0.15 -64.45)" fill="none" stroke="url(#linear-gradient-13)"/><path id="Line_1-14" data-name="Line 1-14" d="M0,286.92H2560" transform="translate(0.15 -64.45)" fill="none" stroke="url(#linear-gradient-14)"/><path id="Line_1-15" data-name="Line 1-15" d="M0,299.23H2560" transform="translate(0.15 -64.45)" fill="none" stroke="url(#linear-gradient-15)"/><path id="Line_1-16" data-name="Line 1-16" d="M0,311.54H2560" transform="translate(0.15 -64.45)" fill="none" stroke="url(#linear-gradient-16)"/><path id="Line_1-17" data-name="Line 1-17" d="M0,323.85H2560" transform="translate(0.15 -64.45)" fill="none" stroke="url(#linear-gradient-17)"/><path id="Line_1-18" data-name="Line 1-18" d="M0,336.15H2560" transform="translate(0.15 -64.45)" fill="none" stroke="url(#linear-gradient-18)"/><path id="Line_1-19" data-name="Line 1-19" d="M0,348.46H2560" transform="translate(0.15 -64.45)" fill="none" stroke="url(#linear-gradient-19)"/><path id="Line_1-20" data-name="Line 1-20" d="M0,360.77H2560" transform="translate(0.15 -64.45)" fill="none" stroke="url(#linear-gradient-20)"/><path id="Line_1-21" data-name="Line 1-21" d="M0,373.08H2560" transform="translate(0.15 -64.45)" fill="none" stroke="url(#linear-gradient-21)"/><path id="Line_1-2-2" data-name="Line 1" d="M0,761.33c108.66-3.27,215.55,1.58,321.65,26.38,45,10.51,112.13,39.92,156,14.11,45-26.46,66.29-85.53,95.32-126.41,23.09-32.52,61.52-69.49,102.33-41.66,58.58,40,83.94,171.9,177.24,144.55,46.24-13.55,41.6-75.42,89.54-87.22,42.49-10.46,81.93,14.78,114.38,39.23,31.71,23.88,67.82,62.49,110.09,63.6,16.71.43,31.6-7.92,48-9.86,19.82-2.35,39.37,1.46,58.35,7,43.74,12.65,84.42,32.67,130.84,34.18,45.39,1.47,89.61-13.72,129.62-34.1,19.4-9.88,37.32-24.85,57.78-32.35,26.58-9.76,56.14-.2,83.45-.44,42.29-.37,78.48-13.48,114-35.77,33.85-21.27,73.77-55.63,116.18-41.65,25.54,8.43,48,26.85,69.71,41.93,34.21,23.75,69.82,45.82,110.45,56.69,80.41,21.49,155.91-11.6,233.15-29.87,82-19.39,163.81-24.07,241.92,11.71" transform="translate(0.15 -64.45)" fill="none" stroke="url(#linear-gradient-22)"/><path id="Line_1-2-3" data-name="Line 1-2" d="M0,773.64c108.53-4.54,215.12-.24,321,25.29,45.41,11,112.25,40.86,157.18,15.9,45.13-25.08,66.85-83.15,96.18-123,23.45-31.89,62.57-67,103-40.46,60,39.35,82,165.72,175.61,139.36,46.54-13.1,44.06-73.83,92.49-85.92,43-10.74,82.75,13.11,116.12,37.61,31.83,23.36,68.1,61.33,110.24,61.59,16.91.11,31.83-8.71,48.4-11,19.8-2.69,39.34.84,58.33,6.39,42.87,12.53,82.38,33.51,127.85,36.11,43.74,2.5,87.65-11.49,126.8-30.06,18.66-8.85,35.91-23.17,55.56-29.58,26.62-8.68,57.06,1.7,84.29.61,42.91-1.72,78.48-17.37,113.68-41,34.4-23,74.42-56.48,118.31-41.71,25.66,8.63,48.29,26.64,70.36,41.64,34.16,23.22,69.64,44.84,109.94,55.58,79.51,21.18,153.11-10.83,229.37-29.12,83.22-20,165.76-23.79,245.29,11.72" transform="translate(0.15 -64.45)" fill="none" stroke="url(#linear-gradient-23)"/><path id="Line_1-3-2" data-name="Line 1-3" d="M0,786c111.26-6,220-1.52,328.23,26.17,45,11.51,110.35,40.62,154.4,13.46,54.19-33.4,110.61-214.6,198.06-156,59.61,39.93,78.64,156.48,170.54,134,46.84-11.48,46.52-70.21,92.18-84.31,43.16-13.32,83.58,7.6,118,31.93,32.16,22.7,67.91,60.4,109.83,62.78,20.44,1.16,38.12-10.37,58.19-12.49,16.43-1.74,32.73.73,48.58,5,41.93,11.2,80,33.5,123.61,38.76,43.29,5.21,87.4-6.95,127.08-23.75,19.53-8.27,37.22-23,57.45-29.22,28-8.6,60.46,3.18,89.31.73,42.48-3.61,76.85-22.31,110.85-46.66,34.9-25,74.68-56.21,119.67-39.53,25.65,9.51,48.06,27,70.58,42,33.92,22.69,69.24,43.66,109.12,53.94,75.63,19.51,144.39-8.84,216.68-26.84,87.37-21.75,173.53-26.4,257.6,10.08" transform="translate(0.15 -64.45)" fill="none" stroke="url(#linear-gradient-24)"/><path id="Line_1-4-2" data-name="Line 1-4" d="M0,798.25c111.16-7.32,219.57-3.32,327.62,25.15,45.17,11.91,110.55,41.67,155.23,15.05,55.74-33.21,109.33-209.91,198.06-152.72,60.62,39.08,78.81,152.32,170.55,130.06,46.93-11.39,47.9-69.63,93.94-83.86,43.55-13.46,84.15,6.42,119.25,30.85,32,22.27,67.66,59.62,109.28,61.38,20.71.87,38.49-11.19,58.78-13.65,16.58-2,33,.23,49.08,4.46,41.61,11,79,34.1,122,40.43,42.1,6.18,86-4.8,125.05-20.36,19.14-7.61,36.24-22,55.91-27.76,8.54-2.5,17.17-2.48,26-1.73,21.84,1.87,42.09,5.15,64.27,2.63,42.54-4.84,75.8-25.7,109.11-51,34.95-26.53,74.43-56.25,120.11-38.73,25.48,9.76,47.82,26.94,70.35,41.91,33.47,22.25,68.31,42.86,107.54,53.11,74.63,19.51,142.37-8,213.79-25.68,89.67-22.18,177.58-25.91,264.06,10.45" transform="translate(0.15 -64.45)" fill="none" stroke="url(#linear-gradient-25)"/><path id="Line_1-5-2" data-name="Line 1-5" d="M0,810.56c110.74-8.66,218.58-5.2,326.15,23.9,45.15,12.21,110.5,42.75,155.78,17.33,59.22-33.25,106.16-204.75,197-151.41,62.75,36.85,79.38,147.78,170.59,128.09,47.51-10.26,49-66.88,93-82.77,47.3-17.11,91.81,5.29,130,32.32,30.87,21.87,66.8,58.18,107.63,56.47,17.4-.72,32.57-10.76,49.53-13.9,20.12-3.72,40.11-1.25,59.62,4.32,41.3,11.81,78.21,35.2,121.29,41.52,39.91,5.85,84-4.33,121.24-19,17.71-7,33.28-20.3,51.41-25.81,26.13-7.94,55.74,4.15,82.82,1.63,43.4-4,77-24.71,110.16-51.34,32.93-26.45,71.46-58.92,116.56-45.44,29.55,8.83,55.18,29.5,80.5,46.28,27.77,18.39,56.54,35.69,88.24,46.45,79.33,26.93,150.86-1.21,227.71-19.87,92.09-22.35,181.93-25,270.87,11.22" transform="translate(0.15 -64.45)" fill="none" stroke="url(#linear-gradient-26)"/><path id="Line_1-6-2" data-name="Line 1-6" d="M0,822.87c110-10,217-7.15,323.82,22.39C369.31,857.84,433.94,889,479.9,865.51c63.31-32.39,102-198.25,194.82-151.73C741.93,747.45,757.59,864.37,852.57,840c45.63-11.72,48.35-68,93.11-83,43.19-14.48,84.36,2.48,120.14,26.64,33.19,22.4,71.5,63.7,115,61.27,17.48-1,32.73-11.34,49.74-14.77,20.25-4.09,40.46-2.09,60.23,3.38,41,11.35,77.18,35.23,119.36,43,39.64,7.29,82.62-1.49,120.15-15.2,18.94-6.93,35.24-21.93,54.61-27,8.11-2.11,16.61-1.73,24.86-.91,21.8,2.16,41.21,5.49,63.42,2.07,42-6.46,72.37-30,103.74-56.75,33-28.17,70.67-56.75,116-40.33,59.85,21.69,104.51,72.11,166,92.28,74.49,24.42,142.55-.45,214.74-18.18,97.18-23.85,192-26.82,286.29,10.34" transform="translate(0.15 -64.45)" fill="none" stroke="url(#linear-gradient-27)"/><path id="Line_1-7-2" data-name="Line 1-7" d="M0,835.18c109.52-11.33,216-9,322.34,21.1,45.46,12.87,109.87,44.37,156.45,22.26,64.46-30.6,101.88-200.09,196.34-148.84,64.68,35.09,84.24,144.3,175.42,122.94,21.92-5.14,34.24-18.4,45.48-36.83,14.89-24.42,28.76-41.82,58-49.24,43.29-11,83.23,7.72,118.19,32.08,30,20.9,64.78,56.79,104.16,57,21.14.08,39.28-13.29,59.88-16.82,17.06-2.92,34.24-1.65,51,2.33,44.71,10.6,83.29,38.41,128.84,46.72,38.25,7,81.05-.86,117.14-14.45,17.27-6.51,31.51-20,48.85-25.62,28.05-9.11,59.88,4.86,89.13.13,43.53-7,73.16-33.15,104.7-61.64,32.61-29.45,69.66-54.83,114.82-36.62,58.23,23.49,101.77,71.82,162.58,91.69,73,23.86,140.53-.63,211.43-17.5C2365.08,800,2462.61,798,2560,835.18" transform="translate(0.15 -64.45)" fill="none" stroke="url(#linear-gradient-28)"/><path id="Line_1-8-2" data-name="Line 1-8" d="M0,847.48c108.74-12.65,214.39-10.91,320,19.57,44.64,12.88,109.66,45.42,156.64,24.86,66.54-29.12,99.66-199.45,197-147.82,65.44,34.7,87.41,145.59,179.83,120,44.24-12.25,47.48-67.15,91-82.82,47-16.92,91.09,2.83,129.49,29.6,29.34,20.46,63.21,55.86,101.79,55.59,21.24-.15,39.52-13.92,60.18-17.8,19-3.58,38.06-2.09,56.7,2.74,42.59,11,79.6,37.29,122.8,46.63,37.47,8.11,80.58,1.76,116.59-11.19,18.78-6.75,33.64-22.14,52.44-27.75,8.36-2.5,17.31-2.2,25.9-1.51,21.69,1.77,40.64,5.69,62.68,1.56,40.5-7.59,68.22-33.36,96.64-61,34.31-33.31,71.87-58.77,120-36.67,55.93,25.67,98.86,71.75,158.72,90.82,71.49,22.77,138.12-1.64,207.69-17.55,103.33-23.62,203.55-24.37,303.89,12.7" transform="translate(0.15 -64.45)" fill="none" stroke="url(#linear-gradient-29)"/><path id="Line_1-9-2" data-name="Line 1-9" d="M0,859.79c107.94-14,212.77-12.82,317.68,18,45.3,13.3,108.83,46.71,156.81,27.33,69.93-28.24,94.44-194.1,193.4-148.92,68.46,31.25,89.71,142.2,181.46,121,48.14-11.1,50.57-69.52,97.74-85.12,46.9-15.51,90.21,4.24,128.16,31.07,28.82,20.37,61.42,55,99.34,54.37,21.33-.36,39.79-14.53,60.49-18.77,20.92-4.28,42.13-2.69,62.61,3,40.61,11.27,76,36.11,117,46.4,39.1,9.82,85.26,4.55,122.67-10.47,16.62-6.67,29.3-20.78,45.93-26.68,27.23-9.68,57.84,4.43,86.13-.44,43.88-7.55,70.82-36.93,100.45-67.18,30.5-31.13,64.72-52.71,108.29-34.63,58.94,24.45,102,75,164.36,94.39,69.81,21.75,136.11-2.52,204.4-17.47,106.51-23.32,209.62-23,313.05,14.09" transform="translate(0.15 -64.45)" fill="none" stroke="url(#linear-gradient-30)"/><path id="Line_1-10-2" data-name="Line 1-10" d="M0,872.1c107.13-15.31,211.15-14.71,315.35,16.41,47.26,14.11,117.72,52.21,166.4,25.18,62.93-34.94,90-193.56,187.83-141.78,65.16,34.5,92.4,141.37,182.66,116.79,20.63-5.62,31.83-18.5,42.17-36.18,13.84-23.67,27.73-41.17,55.29-49.45,46.7-14,89.1,5.75,126.48,32.6,27.9,20,59.66,54.25,96.83,53.27,21.42-.56,40.08-15.15,60.82-19.73,21.25-4.69,42.76-3.53,63.73,1.9,40.77,10.55,76,35.71,116.42,47.21,38.93,11.08,84.66,7.31,122.4-7.44,17.34-6.77,29.32-21.1,46-28.22,29.32-12.54,63.74,4.18,94.7-3.28,38.16-9.2,61.76-36.71,86.92-64.54,31.42-34.75,66.23-56.2,112.41-34.29,51.53,24.44,91.17,67.75,145.22,88.41,73,27.88,143.42,2.8,215.88-12.37,109.77-23,215.9-21.58,322.51,15.51" transform="translate(0.15 -64.45)" fill="none" stroke="url(#linear-gradient-31)"/><path id="Line_1-11-2" data-name="Line 1-11" d="M0,884.41C106,867.82,209,867.77,312.19,899c46.91,14.17,117.42,53.41,166.46,28.51,65.4-33.21,83.9-188.25,183-144.92C731.74,813.17,760,927.42,853,900.67c20-5.76,30.74-18.46,40.67-35.78,13.25-23.09,26.87-40.56,53.41-49.16,46-14.89,88.84,3.3,126,29.93,28.83,20.62,63,59,102.05,54.72,17.85-2,34-14,51.12-18.83a137,137,0,0,1,65.56-2.11c44.61,9.26,82.15,37.64,125.59,50.33,38,11.11,83.42,8.21,120.28-6.72,17.37-7,28.54-21.79,45-29.53,29-13.65,63.62,3.27,94.27-4.2,40.47-9.87,62.32-41.47,88.13-71.05,27.8-31.87,60.46-48.57,101.39-29.62,53.61,24.83,93.69,71,150,91.8,71.14,26.23,141.73.9,212.42-13.17,112.71-22.43,221.64-19.91,331.06,17.13" transform="translate(0.15 -64.45)" fill="none" stroke="url(#linear-gradient-32)"/><path id="Line_1-12-2" data-name="Line 1-12" d="M0,896.71c104.82-17.85,206.76-18.54,309,12.68,46.75,14.27,117.11,54.52,166.58,31.65,68.47-31.66,83.31-193.64,186-144.24,67.73,32.6,101,143.32,192.09,115.86,19.41-5.85,29.65-18.33,39.18-35.25,12.64-22.46,26-39.84,51.46-48.71,45.26-15.76,88.7,1,125.73,27.34,28.44,20.23,61.13,58.5,99.33,56.71,21.47-1,40.41-16.32,61.07-21.6a140.76,140.76,0,0,1,65.65-.77c44.28,9.8,81.51,38,124.67,51,37.18,11.14,82.27,9,118.28-6.24,17.44-7.37,27.8-22.59,44-31,28.71-14.84,63.58,2.22,94-5.19,39.39-9.6,59.69-41.21,83.55-70.79,29-36,62.42-49.35,105.17-26.56,50.72,27,90,70.64,145.2,90.27,69.51,24.71,140.39-.8,209.49-13.88,115.59-21.88,227.3-18.28,339.5,18.72" transform="translate(0.15 -64.45)" fill="none" stroke="url(#linear-gradient-33)"/><path id="Line_1-13-2" data-name="Line 1-13" d="M0,909c107-19.73,210.26-19.73,314.36,13.49,44.56,14.22,110.62,52,158.32,31.92,70.77-29.78,77.74-188.85,180.7-147.33C725.05,836,756.44,946.9,847.72,926.4c23.09-5.19,34.51-18.46,45.34-38.26,11.62-21.26,25.46-37.58,49-46.22,46.25-17,91.51.44,129.09,28,26.64,19.52,57,54.86,92.66,55.42,22.65.35,43.33-16.59,64.82-22.47a144.53,144.53,0,0,1,71.74-1.23c42.17,9.91,78,36.06,118.78,49.81,37.8,12.75,84.27,12,121.19-4.29,18-8,28.07-24.89,45-33.49,31-15.73,68.26,3.49,101-7.85,34.44-11.94,51.7-43.42,72.46-70.79,27.61-36.4,61.22-45.32,101.74-22.36,48,27.2,86.2,68.47,138.64,88.29,67.33,25.46,136.34,2.19,203.83-10.42,121.48-22.7,238.75-19.55,357,18.51" transform="translate(0.15 -64.45)" fill="none" stroke="url(#linear-gradient-34)"/><path id="Line_1-14-2" data-name="Line 1-14" d="M0,921.33c105.78-21,208.08-21.65,311.25,11.6,45.71,14.74,114.37,55.58,162.84,32.68,68.14-32.2,73.07-186.2,175.13-146.41C722,847.58,756.73,959.94,848.55,938.5c22.43-5.24,33.15-18.12,43.66-37.36,12.59-23,27.9-39.42,53.82-47.37,46.41-14.23,89.11,2.55,126.31,30.36,25.77,19.26,55,53.86,89.85,54,22.91.11,43.25-17.18,64.89-23.5A147.42,147.42,0,0,1,1299.7,912c42.26,9.07,77.86,34.81,118,49.58,37.87,13.94,83.2,14.62,120.85-1.22,19.87-8.36,29.25-26.51,47.23-36.44,30.73-17,68.27,2.49,100.7-8.69,33.44-11.52,49.33-42.87,68.29-70C1781.6,806.77,1815,800,1855.5,824c45.61,26.93,82.55,66.41,132.45,86.41,67.82,27.18,138.79,3.15,207.21-9.08,124.15-22.18,244.06-18,364.84,20" transform="translate(0.15 -64.45)" fill="none" stroke="url(#linear-gradient-35)"/><path id="Line_1-15-2" data-name="Line 1-15" d="M0,933.64c108-23,211.48-23.09,316.63,12.47,43.33,14.65,108,52.79,154.68,32.8,71-30.4,72-192.12,178.1-146.14C720,863.38,759,972.68,849.34,950.66c21.68-5.29,31.91-17.52,42.06-36.22C903.61,892,918.74,876.05,943.85,868c47.6-15.34,91.73,1.89,129.73,30.95,24.66,18.86,53.43,53,87.24,52.85,22.6-.11,43.63-18,64.86-24.55a151,151,0,0,1,73.61-4.56c43.88,8.4,80.47,35.5,121.72,50.93,37.07,13.87,82,15,118.81-1.2,19.77-8.72,28.52-27.53,46.2-38.1,31.61-18.88,71,2.35,104.39-11,31.55-12.65,44.87-44.16,62.54-70.62,25.84-38.67,59.59-40.17,97.78-16.69,45,27.69,82.23,66.93,132.38,86.26,63.73,24.58,131,3.08,195.19-8.36,130-23.16,255.12-19.27,381.7,19.79" transform="translate(0.15 -64.45)" fill="none" stroke="url(#linear-gradient-36)"/><path id="Line_1-16-2" data-name="Line 1-16" d="M0,945.94c106.14-24.22,209.18-24.94,312.75,10.3C357,971.3,424.41,1012.69,472.1,990.81,541.53,959,538.87,802,644.09,843.73c73.06,28.94,112.76,140,204.11,119.59,22.12-5,32.51-16.87,42.77-35.8,11.66-21.5,26.91-36.6,50.55-44.87,47-16.44,92.58.39,130.25,29,24.81,18.84,53.91,54.71,88.18,54.11,22.53-.4,43.61-18.62,64.66-25.6,24-7.94,49.17-10.62,74.17-6.48,43.71,7.25,80,33.51,120.29,49.91,37.61,15.31,83.41,18.22,121.3,1.19,20.19-9.08,27.62-28.1,45-39.63,30.87-20.44,70.36.47,103.35-11.35,32.38-11.61,44.48-44.75,61.34-71.48,25.66-40.69,59.72-37.24,97.58-13,42.75,27.35,79.09,64.49,127.09,83.24,64.6,25.23,132.68,3.28,198-7.9,131.48-22.52,259.13-17.51,387.23,21.31" transform="translate(0.15 -64.45)" fill="none" stroke="url(#linear-gradient-37)"/><path id="Line_1-17-2" data-name="Line 1-17" d="M0,958.25c105-25.55,207-26.84,309.7,8.38,44,15.1,116.27,59.64,163.77,35.35,66.83-34.18,63-186.71,167.2-146.43C715.33,884.43,756.53,996,849,975.63c21.21-4.67,31.35-15.87,41.34-34,12.68-23.07,30-37.72,55.79-45.12,47.14-13.5,90,2.17,127.49,31.16,24.29,18.79,52.31,53.58,85.93,52.53,22.87-.71,43.48-19.27,64.71-26.76,25.66-9,53-12.11,79.92-7.4,43,7.54,78.72,33.47,118.38,49.83,36.81,15.18,82,18.34,119,1,20.06-9.42,26.76-29,43.8-41,31.64-22.38,73.26.78,106.83-13.41,30.4-12.85,40.28-45.44,56.22-71.45,25-40.88,59.86-31.46,95.41-8.34,41,26.64,76.76,61.72,122.64,80.29,65,26.33,134.76,3.78,200.71-7.17C2300.51,913.58,2430,919.5,2560,958.25" transform="translate(0.15 -64.45)" fill="none" stroke="url(#linear-gradient-38)"/><path id="Line_1-18-2" data-name="Line 1-18" d="M0,970.56c107.2-27.73,209.37-28.16,313.93,9.06,43.77,15.58,113.38,59.56,160.29,34.2C540.4,978,534.43,825.12,640.3,868.31,714.08,898.42,756.48,1006,848,988.4c21.94-4.22,31.62-14.34,42.21-32.79,12.69-22.14,30.13-35.67,55-43.09,46.44-13.88,90.4.89,127.65,29.29,24.55,18.71,53.23,55.1,87.16,53.52,22.85-1.06,43.42-20,64.48-27.91,25.57-9.6,53.06-13.64,80.2-9.64,44.15,6.51,80.56,33.07,120.8,50.1,36,15.22,80.15,18.63,116.33,1.44,21-10,26.62-30.85,44.47-43.43,32-22.58,73.74,1.22,107.42-13.65,28.93-12.78,37.5-45.13,52.15-70.31,23.41-40.23,58.07-28.78,92.17-6.91,41,26.28,77.15,60.55,122.79,79,63.07,25.52,129.43,5,193.56-5.66,138-23,271-17.42,405.7,22.18" transform="translate(0.15 -64.45)" fill="none" stroke="url(#linear-gradient-39)"/><path id="Line_1-19-2" data-name="Line 1-19" d="M0,982.87c106.08-29.09,207.05-30.13,310.92,7.14,43.08,15.45,113.85,60.37,161,37.13,68.69-33.86,58.51-189.79,166-147.15,75.75,30.06,117.77,137.45,210.89,120.92,21.07-3.75,30.51-12.82,41.05-30.24,12.67-20.94,29.86-33.34,53.5-40.71,48.38-15.08,93.52-.55,132.3,29.32,23.56,18.15,52.34,54,85.38,52,22.6-1.38,43.75-20.93,64.42-29.17,25.66-10.23,53-15.26,80.53-11.93,43.9,5.31,79.6,30.81,119,48.45,36,16.17,81.12,21.09,117.78,3,20.72-10.23,25.49-31.46,42.88-44.41,31.76-23.65,73.75.38,107.44-13.75,29.52-12.38,36.68-46.08,51.14-71.28,23-40.17,59.35-22.38,91.28-2.09,39.84,25.32,75.89,57.52,120.14,75.32,63.69,25.62,130.66,5,195.41-5.58,139.13-22.8,273.22-16.35,409,23.08" transform="translate(0.15 -64.45)" fill="none" stroke="url(#linear-gradient-40)"/><path id="Line_1-20-2" data-name="Line 1-20" d="M0,995.18c104.85-30.42,204.89-31.85,307.92,5.2,44.62,16,117.33,64,165.47,38C539.53,1002.63,530,850.59,636.09,892c77.2,30.12,119.36,136.71,213.56,121.57,20.13-3.24,29.36-11,40.11-27.26,13-19.61,29.88-30.76,52.47-37.91,49.95-15.8,96.72-1.91,137,29.17,23.37,18,51.15,52.66,83.89,50.07,23-1.82,43.53-21.69,64.42-30.55,25.43-10.79,53-16.68,80.6-14.21,44.78,4,80.95,30.39,120.68,48.44,34.67,15.76,79.61,20.83,114.73,2.69,20.27-10.47,24.28-31.82,41.09-45.09,31.25-24.68,73.77-.42,107.5-13.61,30.19-11.8,35.84-46.76,50.56-71.8,23.12-39.33,60.8-16.26,91.09,2.67,40.27,25.17,77.88,56.22,122.94,72.74,60.35,22.13,122,4.29,183-6,142.79-24,280.64-17.87,420.22,22.26" transform="translate(0.15 -64.45)" fill="none" stroke="url(#linear-gradient-41)"/><path id="Line_1-21-2" data-name="Line 1-21" d="M0,1007.48c106.63-32.64,208.46-33.27,313,6.2,43.18,16.31,111,61,158.29,38C540.13,1018.13,527.71,863,635,903.94c79.28,30.22,119.57,135,215.5,122.4,19-2.49,28.38-9,39.37-23.82,15-20.12,34-30,58.32-36.45,48.43-12.87,92.26-1.55,131.8,28,24.14,18,52.82,54.18,86.27,50.92,22.85-2.23,43.8-22.71,64.31-32,26.84-12.12,55.93-19.28,85.49-16.4,41.85,4.07,76.1,27.94,113,45.7,34.62,16.69,79.67,23,115.2,4.3,19.92-10.49,22.78-32,39-45.39,32-26.22,76.41.61,110.64-14.29,27.39-11.93,32.85-44.86,46-68.38,22.89-41,62.85-13.35,93.15,4.87,39.92,24,78.07,52.41,122.42,67.89,61.23,21.38,122.34,3.87,184.06-6.56,142.79-24.13,280.88-17,420.43,22.77" transform="translate(0.15 -64.45)" fill="none" stroke="url(#linear-gradient-42)"/><path id="Line_1-3-3" data-name="Line 1" d="M5359,202.33c108.66-3.27,215.55,1.58,321.65,26.38,45,10.51,112.13,39.92,156,14.11,45-26.46,66.29-85.53,95.32-126.41,23.09-32.52,61.52-69.49,102.33-41.66,58.58,40,83.94,171.9,177.24,144.55,46.24-13.55,41.6-75.42,89.54-87.22,42.49-10.46,81.93,14.78,114.38,39.23,31.71,23.88,67.82,62.49,110.09,63.6,16.71.43,31.6-7.92,48-9.86,19.82-2.35,39.37,1.46,58.35,6.95,43.74,12.65,84.42,32.67,130.84,34.18,45.39,1.47,89.61-13.72,129.62-34.1,19.4-9.88,37.32-24.85,57.78-32.35,26.58-9.76,56.14-.2,83.45-.44,42.29-.37,78.48-13.48,114-35.77,33.85-21.27,73.77-55.63,116.18-41.65,25.54,8.43,48,26.85,69.71,41.93,34.21,23.75,69.82,45.82,110.45,56.69,80.41,21.49,155.91-11.6,233.15-29.87,82-19.39,163.81-24.07,241.92,11.71" transform="translate(0.15 -64.45)" fill="none" stroke="url(#linear-gradient-43)"/><path id="Line_1-2-4" data-name="Line 1-2" d="M5359,214.64c108.53-4.54,215.12-.24,321,25.29,45.41,10.95,112.25,40.86,157.18,15.9,45.13-25.08,66.85-83.15,96.18-123,23.45-31.89,62.57-67,103-40.46,60,39.35,82,165.72,175.61,139.36,46.54-13.1,44.06-73.83,92.49-85.92,43-10.74,82.75,13.11,116.12,37.61,31.83,23.36,68.1,61.33,110.24,61.59,16.91.11,31.83-8.71,48.4-10.95,19.8-2.69,39.34.84,58.33,6.39,42.87,12.53,82.38,33.51,127.85,36.11,43.74,2.5,87.65-11.49,126.8-30.06,18.66-8.85,35.91-23.17,55.56-29.58,26.62-8.68,57.06,1.7,84.29.61,42.91-1.72,78.48-17.37,113.68-41,34.4-23.05,74.42-56.48,118.31-41.71,25.66,8.63,48.29,26.64,70.36,41.64,34.16,23.22,69.64,44.84,109.94,55.58,79.51,21.18,153.12-10.83,229.37-29.12,83.22-20,165.76-23.79,245.29,11.72" transform="translate(0.15 -64.45)" fill="none" stroke="url(#linear-gradient-44)"/><path id="Line_1-3-4" data-name="Line 1-3" d="M5359,227c111.26-6,220-1.52,328.23,26.17,45,11.51,110.35,40.62,154.4,13.46,54.19-33.4,110.61-214.6,198.06-156,59.61,39.93,78.64,156.48,170.54,134,46.84-11.48,46.52-70.21,92.18-84.31,43.16-13.32,83.58,7.6,118,31.93,32.16,22.7,67.91,60.4,109.83,62.78,20.44,1.16,38.12-10.37,58.19-12.49,16.43-1.74,32.73.73,48.58,5,41.93,11.2,80,33.5,123.61,38.76,43.29,5.21,87.4-6.95,127.08-23.75,19.53-8.27,37.22-23,57.45-29.22,28-8.6,60.46,3.18,89.31.73,42.48-3.61,76.85-22.31,110.85-46.66,34.9-25,74.68-56.21,119.67-39.53,25.65,9.51,48.06,27,70.58,42,33.92,22.69,69.24,43.66,109.12,53.94,75.63,19.51,144.39-8.84,216.68-26.84,87.37-21.75,173.53-26.4,257.6,10.08" transform="translate(0.15 -64.45)" fill="none" stroke="url(#linear-gradient-45)"/><path id="Line_1-4-3" data-name="Line 1-4" d="M5359,239.25c111.16-7.32,219.57-3.32,327.62,25.15,45.17,11.91,110.55,41.67,155.23,15.05,55.74-33.21,109.33-209.91,198.06-152.72,60.62,39.08,78.81,152.32,170.55,130.06,46.93-11.4,47.9-69.63,93.94-83.86,43.55-13.46,84.15,6.42,119.25,30.85,32,22.27,67.66,59.62,109.28,61.38,20.71.87,38.49-11.19,58.78-13.65,16.58-2,33,.23,49.08,4.46,41.61,11,79,34.1,122.05,40.43,42.1,6.18,86-4.8,125.05-20.36,19.14-7.61,36.24-22,55.91-27.76,8.54-2.5,17.17-2.48,26-1.73,21.84,1.87,42.08,5.15,64.27,2.63,42.54-4.84,75.8-25.7,109.11-51,35-26.53,74.43-56.25,120.11-38.73,25.48,9.77,47.82,26.94,70.35,41.91,33.47,22.25,68.31,42.86,107.54,53.11,74.63,19.51,142.37-8,213.79-25.68,89.67-22.18,177.58-25.91,264.06,10.45" transform="translate(0.15 -64.45)" fill="none" stroke="url(#linear-gradient-46)"/><path id="Line_1-5-3" data-name="Line 1-5" d="M5359,251.56c110.74-8.66,218.58-5.2,326.15,23.9,45.15,12.21,110.5,42.75,155.78,17.33,59.22-33.25,106.16-204.75,197-151.41,62.75,36.85,79.38,147.78,170.59,128.09,47.51-10.26,49.05-66.88,93-82.77,47.3-17.11,91.81,5.29,130,32.32,30.87,21.87,66.8,58.18,107.63,56.47,17.4-.72,32.57-10.76,49.53-13.9,20.12-3.72,40.11-1.25,59.62,4.32,41.3,11.81,78.21,35.2,121.29,41.52,39.91,5.85,83.95-4.33,121.24-19,17.71-7,33.28-20.3,51.41-25.81,26.13-7.94,55.74,4.15,82.82,1.63,43.4-4,77-24.71,110.16-51.34,32.93-26.45,71.46-58.92,116.56-45.44,29.55,8.83,55.18,29.5,80.5,46.28,27.77,18.39,56.54,35.69,88.24,46.45,79.33,26.93,150.86-1.21,227.71-19.87,92.09-22.35,181.93-25,270.87,11.22" transform="translate(0.15 -64.45)" fill="none" stroke="url(#linear-gradient-47)"/><path id="Line_1-6-3" data-name="Line 1-6" d="M5359,263.87c110-10,217-7.15,323.82,22.39,45.49,12.58,110.12,43.76,156.08,20.25,63.31-32.39,102-198.25,194.82-151.73,67.21,33.67,82.87,150.59,177.85,126.21,45.63-11.72,48.35-68,93.11-83,43.19-14.48,84.36,2.48,120.14,26.64,33.19,22.4,71.5,63.7,115,61.27,17.48-1,32.73-11.34,49.74-14.77,20.25-4.09,40.46-2.09,60.23,3.38,40.95,11.35,77.18,35.23,119.36,43,39.64,7.29,82.62-1.49,120.15-15.2,18.94-6.93,35.24-21.93,54.61-27,8.11-2.11,16.61-1.73,24.86-.91,21.8,2.16,41.21,5.49,63.42,2.07,42-6.46,72.37-29.95,103.74-56.75,33-28.17,70.67-56.75,116-40.33,59.85,21.69,104.51,72.11,166,92.28,74.49,24.42,142.55-.45,214.74-18.18,97.18-23.85,192-26.82,286.29,10.34" transform="translate(0.15 -64.45)" fill="none" stroke="url(#linear-gradient-48)"/><path id="Line_1-7-3" data-name="Line 1-7" d="M5359,276.18c109.52-11.33,216-9,322.34,21.1,45.46,12.87,109.87,44.37,156.45,22.26,64.46-30.6,101.88-200.09,196.34-148.84,64.68,35.09,84.24,144.3,175.42,122.94,21.92-5.14,34.24-18.4,45.48-36.83,14.89-24.42,28.76-41.82,58-49.24,43.29-11,83.23,7.72,118.19,32.08,30,20.9,64.78,56.79,104.16,57,21.14.08,39.28-13.29,59.88-16.82,17.06-2.92,34.24-1.65,51,2.33,44.71,10.6,83.29,38.41,128.84,46.72,38.25,7,81.05-.86,117.14-14.45,17.27-6.51,31.51-20,48.85-25.62,28.05-9.11,59.88,4.86,89.13.13,43.53-7.05,73.16-33.15,104.7-61.64,32.61-29.45,69.66-54.83,114.82-36.62,58.23,23.49,101.77,71.82,162.58,91.69,73,23.86,140.53-.63,211.43-17.5C7724.08,241,7821.61,239,7919,276.18" transform="translate(0.15 -64.45)" fill="none" stroke="url(#linear-gradient-49)"/><path id="Line_1-8-3" data-name="Line 1-8" d="M5359,288.48c108.74-12.65,214.39-10.91,320,19.57,44.64,12.88,109.66,45.42,156.64,24.86,66.54-29.12,99.66-199.45,197-147.82,65.44,34.7,87.41,145.59,179.83,120,44.24-12.25,47.48-67.15,91-82.82,47-16.92,91.09,2.83,129.49,29.6,29.34,20.46,63.21,55.86,101.79,55.59,21.24-.15,39.52-13.92,60.18-17.8,19-3.58,38.06-2.09,56.7,2.74,42.59,11,79.6,37.29,122.8,46.63,37.47,8.11,80.58,1.76,116.59-11.19,18.78-6.75,33.64-22.14,52.44-27.75,8.36-2.5,17.31-2.2,25.9-1.51,21.69,1.77,40.64,5.69,62.68,1.56,40.5-7.59,68.22-33.36,96.64-60.95,34.31-33.31,71.87-58.77,120-36.67,55.93,25.67,98.86,71.75,158.72,90.82,71.49,22.77,138.12-1.64,207.69-17.55,103.33-23.62,203.55-24.37,303.89,12.7" transform="translate(0.15 -64.45)" fill="none" stroke="url(#linear-gradient-50)"/><path id="Line_1-9-3" data-name="Line 1-9" d="M5359,300.79c107.94-14,212.77-12.82,317.68,18,45.3,13.3,108.83,46.71,156.81,27.33,69.93-28.24,94.44-194.1,193.4-148.92,68.46,31.25,89.71,142.2,181.46,121,48.14-11.1,50.57-69.52,97.74-85.12,46.9-15.51,90.21,4.24,128.16,31.07,28.82,20.37,61.42,55,99.34,54.37,21.33-.36,39.79-14.53,60.49-18.77,20.92-4.28,42.13-2.69,62.61,3,40.61,11.27,76.05,36.11,117,46.4,39.1,9.82,85.26,4.55,122.67-10.47,16.62-6.67,29.3-20.78,45.93-26.68,27.23-9.68,57.84,4.43,86.13-.44,43.88-7.55,70.82-36.93,100.45-67.18,30.5-31.13,64.72-52.71,108.29-34.63,58.94,24.45,102.05,75,164.36,94.39,69.81,21.75,136.12-2.52,204.4-17.47,106.51-23.32,209.62-23,313.05,14.09" transform="translate(0.15 -64.45)" fill="none" stroke="url(#linear-gradient-51)"/><path id="Line_1-10-3" data-name="Line 1-10" d="M5359,313.1c107.13-15.31,211.15-14.71,315.35,16.41,47.26,14.11,117.72,52.21,166.4,25.18,62.93-34.94,90-193.56,187.83-141.78,65.16,34.5,92.4,141.37,182.66,116.79,20.63-5.62,31.83-18.5,42.17-36.18,13.84-23.67,27.73-41.17,55.29-49.45,46.7-14,89.1,5.75,126.48,32.6,27.9,20,59.66,54.25,96.83,53.27,21.42-.56,40.08-15.15,60.82-19.73,21.25-4.69,42.76-3.53,63.73,1.9,40.77,10.55,76,35.71,116.42,47.21,38.93,11.08,84.66,7.31,122.4-7.44,17.34-6.77,29.32-21.1,46-28.22,29.32-12.54,63.74,4.18,94.7-3.28,38.16-9.2,61.76-36.71,86.92-64.54,31.42-34.75,66.23-56.2,112.41-34.29,51.53,24.44,91.17,67.75,145.22,88.41,73,27.88,143.42,2.8,215.88-12.37,109.77-23,215.91-21.58,322.51,15.51" transform="translate(0.15 -64.45)" fill="none" stroke="url(#linear-gradient-52)"/><path id="Line_1-11-3" data-name="Line 1-11" d="M5359,325.41c106-16.59,209-16.64,312.19,14.55,46.91,14.17,117.42,53.41,166.46,28.51,65.4-33.21,83.9-188.25,183-144.92C6090.74,254.17,6119,368.42,6212,341.66c20-5.75,30.74-18.45,40.67-35.77,13.25-23.09,26.87-40.56,53.41-49.16,46-14.89,88.84,3.3,126,29.93,28.83,20.62,63,59,102.05,54.72,17.85-2,34-14,51.12-18.83a137,137,0,0,1,65.56-2.11c44.61,9.26,82.15,37.64,125.59,50.33,38,11.11,83.42,8.21,120.28-6.72,17.37-7,28.54-21.79,45-29.53,29-13.65,63.62,3.27,94.27-4.2,40.47-9.87,62.32-41.47,88.13-71.05,27.8-31.87,60.46-48.57,101.39-29.62,53.61,24.83,93.69,71,150,91.8,71.14,26.23,141.73.9,212.42-13.17,112.71-22.43,221.64-19.91,331.06,17.13" transform="translate(0.15 -64.45)" fill="none" stroke="url(#linear-gradient-53)"/><path id="Line_1-12-3" data-name="Line 1-12" d="M5359,337.71c104.82-17.85,206.76-18.54,309,12.68,46.75,14.27,117.11,54.52,166.58,31.65,68.47-31.66,83.31-193.64,186-144.24,67.73,32.6,101,143.32,192.09,115.86,19.41-5.85,29.65-18.33,39.18-35.25,12.64-22.46,26-39.84,51.46-48.71,45.26-15.76,88.7,1,125.73,27.34,28.44,20.23,61.13,58.5,99.33,56.71,21.47-1,40.41-16.32,61.07-21.6a140.76,140.76,0,0,1,65.65-.77c44.28,9.8,81.51,38.05,124.67,51,37.18,11.14,82.27,9,118.28-6.24,17.44-7.37,27.8-22.59,44-31,28.71-14.84,63.58,2.22,94-5.19,39.39-9.6,59.7-41.21,83.55-70.79,29-36,62.42-49.35,105.17-26.56,50.72,27,90,70.64,145.2,90.27,69.51,24.71,140.39-.8,209.49-13.88,115.59-21.88,227.3-18.28,339.5,18.72" transform="translate(0.15 -64.45)" fill="none" stroke="url(#linear-gradient-54)"/><path id="Line_1-13-3" data-name="Line 1-13" d="M5359,350c106.95-19.73,210.26-19.73,314.36,13.49,44.56,14.22,110.62,52,158.32,31.92,70.77-29.78,77.74-188.85,180.7-147.33,71.67,28.9,103.06,139.8,194.34,119.3,23.09-5.19,34.51-18.46,45.34-38.26,11.62-21.26,25.46-37.58,49-46.22,46.25-17,91.51.44,129.09,28,26.64,19.52,57,54.86,92.66,55.42,22.65.35,43.33-16.59,64.82-22.47a144.53,144.53,0,0,1,71.74-1.23c42.17,9.91,78,36.06,118.78,49.81,37.8,12.75,84.27,12,121.19-4.29,18-7.95,28.07-24.89,45-33.49,31-15.73,68.26,3.49,101-7.85,34.44-11.94,51.7-43.42,72.46-70.79,27.61-36.4,61.22-45.32,101.74-22.36,48,27.2,86.2,68.47,138.64,88.29,67.33,25.46,136.34,2.19,203.83-10.42,121.48-22.7,238.75-19.55,357,18.51" transform="translate(0.15 -64.45)" fill="none" stroke="url(#linear-gradient-55)"/><path id="Line_1-14-3" data-name="Line 1-14" d="M5359,362.33c105.78-21,208.08-21.65,311.25,11.6,45.71,14.74,114.37,55.58,162.84,32.68,68.14-32.2,73.07-186.2,175.13-146.41,72.78,28.38,107.51,140.74,199.33,119.3,22.43-5.24,33.15-18.12,43.66-37.36,12.59-23.05,27.9-39.42,53.82-47.37,46.41-14.23,89.11,2.55,126.31,30.36,25.77,19.26,55,53.86,89.85,54,22.91.11,43.25-17.18,64.89-23.5A147.42,147.42,0,0,1,6658.7,353c42.26,9.07,77.86,34.81,118,49.58,37.87,13.94,83.2,14.62,120.85-1.22,19.87-8.36,29.25-26.51,47.23-36.44,30.73-17,68.27,2.49,100.71-8.69,33.43-11.52,49.32-42.87,68.28-70C7140.6,247.77,7174,241,7214.5,265c45.61,26.93,82.55,66.41,132.45,86.41,67.82,27.18,138.79,3.15,207.21-9.08,124.15-22.18,244.06-18,364.84,20" transform="translate(0.15 -64.45)" fill="none" stroke="url(#linear-gradient-56)"/><path id="Line_1-15-3" data-name="Line 1-15" d="M5359,374.64c108-23,211.48-23.09,316.63,12.47,43.33,14.65,108,52.79,154.68,32.8,71-30.4,72-192.12,178.1-146.14,70.6,30.61,109.6,139.91,199.93,117.89,21.68-5.29,31.91-17.52,42.06-36.22,12.21-22.47,27.34-38.39,52.45-46.48,47.6-15.34,91.73,1.89,129.73,31,24.66,18.86,53.43,53,87.24,52.85,22.6-.11,43.63-17.95,64.86-24.55a151,151,0,0,1,73.61-4.56c43.88,8.4,80.47,35.5,121.72,50.93,37.07,13.87,82,15,118.81-1.2,19.77-8.72,28.52-27.53,46.2-38.1,31.61-18.88,71,2.35,104.39-11,31.55-12.65,44.87-44.16,62.54-70.62,25.84-38.67,59.59-40.17,97.78-16.69,45,27.69,82.23,66.93,132.38,86.26,63.73,24.58,131,3.08,195.19-8.36,130-23.16,255.12-19.27,381.7,19.79" transform="translate(0.15 -64.45)" fill="none" stroke="url(#linear-gradient-57)"/><path id="Line_1-16-3" data-name="Line 1-16" d="M5359,386.94c106.14-24.22,209.18-24.94,312.75,10.3,44.27,15.06,111.66,56.45,159.35,34.57,69.43-31.85,66.77-188.77,172-147.08,73.06,28.94,112.76,140,204.11,119.59,22.12-4.95,32.51-16.87,42.77-35.8,11.66-21.5,26.91-36.6,50.54-44.87,47-16.44,92.59.39,130.26,29,24.81,18.84,53.91,54.71,88.18,54.11,22.53-.4,43.61-18.62,64.66-25.6,24-7.94,49.17-10.62,74.17-6.48,43.71,7.25,80,33.51,120.29,49.91,37.61,15.31,83.41,18.22,121.3,1.19,20.19-9.08,27.62-28.1,45-39.63,30.87-20.44,70.36.48,103.35-11.35,32.38-11.61,44.48-44.75,61.34-71.48,25.66-40.69,59.72-37.24,97.58-13,42.75,27.35,79.09,64.49,127.09,83.24,64.6,25.23,132.68,3.28,198-7.9,131.48-22.52,259.13-17.51,387.23,21.31" transform="translate(0.15 -64.45)" fill="none" stroke="url(#linear-gradient-58)"/><path id="Line_1-17-3" data-name="Line 1-17" d="M5359,399.25c105-25.55,207-26.84,309.7,8.38,44,15.1,116.27,59.64,163.77,35.35,66.83-34.18,63.05-186.71,167.2-146.43C6074.33,325.43,6115.53,437,6208,416.63c21.21-4.67,31.35-15.87,41.34-34,12.68-23.07,30-37.72,55.79-45.12,47.14-13.5,90,2.17,127.49,31.16,24.29,18.79,52.31,53.58,85.93,52.53,22.87-.71,43.48-19.27,64.71-26.76,25.66-9,53-12.11,79.92-7.4,43,7.54,78.72,33.47,118.38,49.83,36.81,15.18,82.05,18.34,119,1,20.06-9.42,26.76-29,43.8-41,31.64-22.38,73.26.78,106.83-13.41,30.4-12.85,40.28-45.44,56.22-71.45,25-40.88,59.86-31.46,95.41-8.34,41,26.64,76.76,61.72,122.64,80.29,65,26.33,134.76,3.78,200.71-7.17C7659.51,354.58,7789,360.5,7919,399.25" transform="translate(0.15 -64.45)" fill="none" stroke="url(#linear-gradient-59)"/><path id="Line_1-18-3" data-name="Line 1-18" d="M5359,411.56c107.2-27.73,209.37-28.16,313.93,9.06,43.77,15.58,113.38,59.56,160.29,34.2,66.18-35.78,60.21-188.7,166.08-145.51C6073.08,339.42,6115.48,447,6207,429.4c21.94-4.22,31.62-14.34,42.21-32.79,12.69-22.14,30.13-35.67,55-43.09,46.44-13.88,90.4.89,127.65,29.29,24.55,18.71,53.23,55.1,87.16,53.52,22.85-1.06,43.42-20,64.48-27.91,25.57-9.6,53.06-13.64,80.2-9.64,44.15,6.51,80.56,33.07,120.8,50.1,36,15.22,80.15,18.63,116.33,1.44,21-10,26.62-30.85,44.47-43.43,32.05-22.58,73.74,1.22,107.42-13.65,28.93-12.78,37.5-45.13,52.15-70.31,23.41-40.23,58.07-28.78,92.17-6.91,41,26.28,77.15,60.55,122.79,79,63.07,25.52,129.43,5,193.56-5.66,138-23,271-17.42,405.7,22.18" transform="translate(0.15 -64.45)" fill="none" stroke="url(#linear-gradient-60)"/><path id="Line_1-19-3" data-name="Line 1-19" d="M5359,423.87c106.08-29.09,207.05-30.13,310.92,7.14,43.08,15.45,113.85,60.37,161,37.13,68.69-33.86,58.51-189.79,166-147.15,75.75,30.06,117.77,137.45,210.89,120.92,21.07-3.75,30.51-12.82,41.05-30.24,12.67-20.94,29.86-33.34,53.5-40.71,48.38-15.08,93.52-.55,132.3,29.32,23.56,18.15,52.34,54,85.38,52,22.6-1.38,43.75-20.93,64.42-29.17,25.66-10.23,53-15.26,80.53-11.93,43.9,5.31,79.6,30.81,119,48.45,36.05,16.17,81.12,21.09,117.78,3,20.72-10.23,25.49-31.46,42.88-44.41,31.76-23.65,73.75.38,107.44-13.75,29.52-12.38,36.68-46.08,51.14-71.28,23-40.17,59.35-22.38,91.28-2.09,39.84,25.32,75.89,57.52,120.14,75.32,63.69,25.62,130.66,5,195.41-5.58,139.13-22.8,273.22-16.35,409,23.08" transform="translate(0.15 -64.45)" fill="none" stroke="url(#linear-gradient-61)"/><path id="Line_1-20-3" data-name="Line 1-20" d="M5359,436.18c104.85-30.42,204.89-31.85,307.92,5.2,44.62,16,117.33,64,165.47,38,66.14-35.72,56.62-187.76,162.7-146.37,77.2,30.12,119.36,136.71,213.56,121.57,20.13-3.24,29.36-11,40.11-27.26,13-19.61,29.88-30.76,52.47-37.91,50-15.8,96.72-1.91,137,29.17,23.37,18,51.15,52.66,83.89,50.07,23-1.82,43.53-21.69,64.42-30.55,25.43-10.79,52.95-16.68,80.6-14.21,44.78,4,81,30.39,120.68,48.44,34.67,15.76,79.61,20.83,114.73,2.69,20.27-10.47,24.28-31.82,41.09-45.09,31.25-24.68,73.77-.42,107.5-13.61,30.19-11.8,35.84-46.76,50.56-71.8,23.12-39.33,60.79-16.26,91.09,2.67,40.27,25.17,77.88,56.22,122.94,72.74,60.35,22.13,122.05,4.29,183-6,142.79-24.05,280.64-17.87,420.22,22.26" transform="translate(0.15 -64.45)" fill="none" stroke="url(#linear-gradient-62)"/><path id="Line_1-21-3" data-name="Line 1-21" d="M5359,448.48c106.63-32.64,208.46-33.27,313,6.2,43.18,16.31,111,61,158.29,38,68.82-33.54,56.4-188.65,163.73-147.73,79.28,30.22,119.57,135,215.5,122.4,19-2.49,28.38-9,39.37-23.82,14.95-20.12,34-30,58.32-36.45,48.43-12.87,92.26-1.55,131.8,28,24.14,18,52.82,54.18,86.27,50.92,22.85-2.23,43.8-22.71,64.31-32,26.84-12.12,55.93-19.28,85.49-16.4,41.85,4.07,76.1,27.93,112.94,45.7,34.63,16.69,79.68,23,115.21,4.3,19.92-10.49,22.78-32,39.05-45.39,32-26.22,76.41.61,110.64-14.29,27.39-11.93,32.85-44.86,46-68.38,22.89-40.95,62.85-13.35,93.15,4.87,39.92,24,78.07,52.41,122.42,67.89,61.23,21.38,122.34,3.87,184.06-6.56,142.79-24.13,280.88-17,420.43,22.77" transform="translate(0.15 -64.45)" fill="none" stroke="url(#linear-gradient-63)"/><path id="Line_1-4-4" data-name="Line 1" d="M2779,682.92c61.54-1.83,121.42-18.14,181.24-31.35,48.27-10.65,108.31-28.68,157.69-14.15,31.45,9.26,53.91,32.68,80.14,50.84,32.12,22.25,69.18,30.25,107.44,20,33.84-9,61.15-31.8,90.56-49.57,36.59-22.11,67.74-22.48,108.9-28,48.61-6.48,95.67-23.66,142.25-38.28,42.57-13.37,93.53-34,139.09-29.46,41.21,4.13,68.1,42.91,90.2,74,25.73,36.23,51.47,87,92.73,108,36.72,18.7,80.84-.11,114.14-17.83,40.16-21.36,76.44-49.2,116.28-71.11,84.83-46.63,179.84-28.34,271-14.06,22,3.45,44.08,6.92,66.27,9,20.59,2,41.6.48,61.83,5.2,38.09,8.9,68.46,34.63,100.58,55.36,40.63,26.22,79.5,36.86,127.59,26.63,51.36-10.93,97.81-37.11,147.59-52.94,54.07-17.2,109.39-12.16,165.29-9.76,66.38,2.85,132.72,7,199.18,7.35" transform="translate(0.15 -64.45)" fill="none" stroke="url(#linear-gradient-64)"/><path id="Line_1-2-5" data-name="Line 1-2" d="M2779,695.23c61.54-1.83,121.42-18.14,181.24-31.35,48.27-10.66,108.31-28.68,157.69-14.15,31.45,9.26,53.91,32.68,80.14,50.84,32.12,22.25,69.18,30.25,107.44,20,33.84-9,61.15-31.8,90.56-49.57,36.59-22.11,67.74-22.48,108.9-28,48.61-6.48,95.67-23.66,142.25-38.29,42.57-13.36,93.53-34,139.09-29.45,41.21,4.13,68.1,42.9,90.2,74,25.73,36.24,51.47,87,92.73,108,36.78,18.73,80.83-.2,114.11-18.05,40.12-21.5,76.33-49.48,116.26-71.29,84.45-46.14,180.3-27.24,270.93-13.39,22.06,3.37,44.15,6.75,66.38,8.81,20.6,1.92,41.62.43,61.85,5.16,38.09,8.9,68.46,34.63,100.58,55.36,40.63,26.22,79.5,36.85,127.59,26.62,51.36-10.92,97.81-37.1,147.59-52.94,54.07-17.19,109.39-12.15,165.29-9.75,66.38,2.85,132.72,7,199.18,7.35" transform="translate(0.15 -64.45)" fill="none" stroke="url(#linear-gradient-65)"/><path id="Line_1-3-5" data-name="Line 1-3" d="M2779,707.54c61.54-1.84,121.42-18.15,181.24-31.35,48.27-10.66,108.31-28.69,157.69-14.15,31.45,9.25,53.91,32.68,80.14,50.84,32.12,22.24,69.18,30.25,107.44,20,33.84-9,61.15-31.79,90.56-49.56,36.59-22.11,67.74-22.49,108.9-28,48.61-6.48,95.67-23.66,142.25-38.29,42.57-13.36,93.53-34,139.09-29.46,41.21,4.14,68.1,42.91,90.2,74,25.73,36.24,51.47,87,92.73,108,36.84,18.76,80.83-.29,114.09-18.27,40.06-21.64,76.22-49.75,116.23-71.48,84.06-45.64,180.75-26.13,270.85-12.71,22.1,3.29,44.23,6.58,66.48,8.59,20.61,1.86,41.64.38,61.88,5.11,38.09,8.89,68.46,34.63,100.58,55.36,40.63,26.22,79.5,36.85,127.59,26.62,51.36-10.93,97.81-37.1,147.59-52.94,54.07-17.2,109.39-12.15,165.29-9.75,66.38,2.85,132.72,6.95,199.18,7.35" transform="translate(0.15 -64.45)" fill="none" stroke="url(#linear-gradient-66)"/><path id="Line_1-4-5" data-name="Line 1-4" d="M2779,719.85c61.54-1.84,121.42-18.15,181.24-31.35,48.27-10.66,108.31-28.69,157.69-14.15,31.45,9.25,53.91,32.68,80.14,50.84,32.12,22.24,69.18,30.25,107.44,20,33.84-9,61.15-31.8,90.56-49.57,36.59-22.1,67.74-22.48,108.9-28,48.61-6.47,95.67-23.66,142.25-38.28,42.57-13.36,93.53-34,139.09-29.46,41.21,4.13,68.1,42.91,90.2,74,25.73,36.23,51.47,87,92.73,108,36.9,18.8,80.82-.38,114.06-18.48,40-21.78,76.11-50,116.21-71.67,83.67-45.14,181.21-25,270.77-12,22.14,3.21,44.3,6.42,66.59,8.37,20.62,1.81,41.65.34,61.9,5.07,38.09,8.89,68.46,34.63,100.58,55.36,40.63,26.22,79.5,36.85,127.59,26.62,51.36-10.93,97.81-37.11,147.59-52.94,54.07-17.2,109.39-12.16,165.29-9.76,66.38,2.85,132.72,7,199.18,7.36" transform="translate(0.15 -64.45)" fill="none" stroke="url(#linear-gradient-67)"/><path id="Line_1-5-4" data-name="Line 1-5" d="M2779,732.15c61.54-1.83,121.42-18.14,181.24-31.35,48.27-10.65,108.31-28.68,157.69-14.15,31.45,9.26,53.91,32.68,80.14,50.84,32.12,22.25,69.18,30.25,107.44,20,33.84-9,61.15-31.8,90.56-49.57,36.59-22.1,67.74-22.48,108.9-28,48.61-6.48,95.67-23.66,142.25-38.28,42.57-13.37,93.53-34,139.09-29.46,41.21,4.13,68.1,42.91,90.2,74,25.73,36.23,51.47,87,92.73,108,37,18.83,80.82-.47,114-18.7,40-21.92,76-50.31,116.19-71.85,83.28-44.65,181.65-23.94,270.69-11.37,22.17,3.13,44.38,6.25,66.7,8.15,20.62,1.76,41.67.28,61.92,5,38.09,8.9,68.46,34.63,100.58,55.36,40.63,26.22,79.5,36.86,127.59,26.63,51.36-10.93,97.81-37.11,147.59-52.94,54.07-17.2,109.39-12.16,165.29-9.76,66.38,2.85,132.72,7,199.18,7.35" transform="translate(0.15 -64.45)" fill="none" stroke="url(#linear-gradient-68)"/><path id="Line_1-6-4" data-name="Line 1-6" d="M2779,744.46c61.54-1.83,121.42-18.14,181.24-31.35,48.27-10.66,108.31-28.68,157.69-14.15,31.45,9.26,53.91,32.68,80.14,50.84,32.12,22.25,69.18,30.25,107.44,20,33.84-9,61.15-31.8,90.56-49.57,36.59-22.11,67.74-22.48,108.9-28,48.61-6.48,95.67-23.66,142.25-38.29,42.57-13.36,93.53-34,139.09-29.45,41.21,4.13,68.1,42.9,90.2,74,25.73,36.24,51.47,87,92.73,108,37,18.86,80.81-.57,114-18.92,39.91-22.06,75.9-50.58,116.16-72,82.89-44.16,182.1-22.85,270.61-10.69,22.21,3.05,44.46,6.08,66.8,7.93,20.64,1.7,41.69.23,62,5,38.09,8.9,68.46,34.63,100.58,55.36,40.63,26.22,79.5,36.85,127.59,26.62,51.36-10.92,97.81-37.1,147.59-52.94,54.07-17.19,109.39-12.15,165.29-9.75,66.38,2.85,132.72,6.95,199.18,7.35" transform="translate(0.15 -64.45)" fill="none" stroke="url(#linear-gradient-69)"/><path id="Line_1-7-4" data-name="Line 1-7" d="M2779,756.77c61.54-1.84,121.42-18.15,181.24-31.35,48.27-10.66,108.31-28.69,157.69-14.15,31.45,9.25,53.91,32.68,80.14,50.84,32.12,22.24,69.18,30.25,107.44,20,33.84-9,61.15-31.8,90.56-49.57,36.59-22.11,67.74-22.49,108.9-28,48.61-6.48,95.67-23.66,142.25-38.29,42.57-13.36,93.53-34,139.09-29.46,41.21,4.14,68.1,42.91,90.2,74,25.73,36.24,51.47,87,92.73,108,37.09,18.89,80.81-.66,114-19.14,39.86-22.19,75.79-50.86,116.14-72.22,82.49-43.67,182.54-21.78,270.53-10,22.25,3,44.53,5.92,66.91,7.71,20.64,1.66,41.7.18,62,4.92,38.09,8.89,68.46,34.63,100.58,55.36,40.63,26.22,79.5,36.85,127.59,26.62,51.36-10.93,97.81-37.1,147.59-52.94,54.07-17.2,109.39-12.15,165.29-9.75,66.38,2.85,132.72,7,199.18,7.35" transform="translate(0.15 -64.45)" fill="none" stroke="url(#linear-gradient-70)"/><path id="Line_1-8-4" data-name="Line 1-8" d="M2779,769.08c61.54-1.84,121.42-18.15,181.24-31.35,48.27-10.66,108.31-28.69,157.69-14.15,31.45,9.25,53.91,32.68,80.14,50.84,32.12,22.24,69.18,30.25,107.44,20,33.84-9,61.15-31.8,90.56-49.57,36.59-22.1,67.74-22.48,108.9-28,48.61-6.48,95.67-23.67,142.25-38.29,42.57-13.36,93.53-34,139.09-29.46,41.21,4.13,68.1,42.91,90.2,74,25.73,36.23,51.47,87,92.73,108,37.15,18.93,80.8-.75,114-19.35,39.81-22.33,75.69-51.14,116.12-72.41,82.09-43.18,183-20.7,270.45-9.35,22.29,2.89,44.61,5.75,67,7.49,20.65,1.6,41.72.13,62,4.87,38.09,8.89,68.46,34.63,100.58,55.36,40.63,26.22,79.5,36.85,127.59,26.62,51.36-10.93,97.81-37.11,147.59-52.94,54.07-17.2,109.39-12.16,165.29-9.76,66.38,2.85,132.72,7,199.18,7.36" transform="translate(0.15 -64.45)" fill="none" stroke="url(#linear-gradient-71)"/><path id="Line_1-9-4" data-name="Line 1-9" d="M2779,781.38c61.54-1.83,121.42-18.14,181.24-31.35,48.27-10.65,108.31-28.68,157.69-14.15,31.45,9.26,53.91,32.68,80.14,50.85,32.12,22.24,69.18,30.24,107.44,20,33.84-9,61.15-31.8,90.56-49.57,36.59-22.1,67.74-22.48,108.9-28,48.61-6.48,95.67-23.66,142.25-38.28,42.57-13.37,93.53-34,139.09-29.46,41.21,4.13,68.1,42.91,90.2,74,25.73,36.23,51.47,87,92.73,108,37.21,19,80.8-.84,113.93-19.57,39.75-22.47,75.57-51.42,116.09-72.6,81.68-42.69,183.41-19.63,270.37-8.67,22.33,2.81,44.68,5.58,67.13,7.26,20.66,1.56,41.73.09,62,4.82,38.09,8.9,68.46,34.63,100.58,55.36,40.63,26.22,79.5,36.86,127.59,26.63,51.36-10.93,97.81-37.11,147.59-52.94,54.07-17.2,109.39-12.16,165.29-9.76,66.38,2.85,132.72,7,199.18,7.35" transform="translate(0.15 -64.45)" fill="none" stroke="url(#linear-gradient-72)"/><path id="Line_1-10-4" data-name="Line 1-10" d="M2779,793.69c61.54-1.83,121.42-18.14,181.24-31.35,48.27-10.66,108.31-28.68,157.69-14.15,31.45,9.26,53.91,32.68,80.14,50.84,32.12,22.25,69.18,30.25,107.44,20,33.84-9,61.15-31.8,90.56-49.57,36.59-22.11,67.74-22.48,108.9-28,48.61-6.48,95.67-23.66,142.25-38.29,42.57-13.36,93.53-34,139.09-29.45,41.21,4.13,68.1,42.9,90.2,74,25.73,36.24,51.47,87,92.73,108,37.28,19,80.79-.94,113.9-19.79,39.7-22.6,75.47-51.7,116.07-72.78,81.28-42.2,183.84-18.57,270.29-8,22.37,2.74,44.76,5.42,67.23,7,20.67,1.5,41.75,0,62,4.77,38.09,8.9,68.46,34.63,100.58,55.36,40.63,26.22,79.5,36.85,127.59,26.62,51.36-10.92,97.81-37.1,147.59-52.94,54.07-17.19,109.39-12.15,165.29-9.75,66.38,2.85,132.72,6.95,199.18,7.35" transform="translate(0.15 -64.45)" fill="none" stroke="url(#linear-gradient-73)"/><path id="Line_1-11-4" data-name="Line 1-11" d="M2779,806c61.54-1.83,121.42-18.15,181.24-31.35C3008.51,764,3068.55,746,3117.93,760.5c31.45,9.25,53.91,32.68,80.14,50.84,32.12,22.24,69.18,30.25,107.44,20,33.84-9,61.15-31.8,90.56-49.57,36.59-22.11,67.74-22.49,108.9-28,48.61-6.48,95.67-23.66,142.25-38.29,42.57-13.36,93.53-34,139.09-29.45,41.21,4.13,68.1,42.9,90.2,74,25.73,36.24,51.47,87,92.73,108,37.34,19,80.79-1,113.87-20,39.65-22.73,75.37-52,116-73,80.87-41.71,184.26-17.51,270.21-7.33,22.4,2.66,44.83,5.25,67.34,6.82,20.68,1.45,41.76,0,62.06,4.73,38.09,8.9,68.46,34.63,100.58,55.36,40.63,26.22,79.5,36.85,127.59,26.62,51.36-10.93,97.81-37.1,147.59-52.94,54.07-17.2,109.39-12.15,165.29-9.75,66.38,2.85,132.72,7,199.18,7.35" transform="translate(0.15 -64.45)" fill="none" stroke="url(#linear-gradient-74)"/><path id="Line_1-12-4" data-name="Line 1-12" d="M2779,818.31c61.54-1.84,121.42-18.15,181.24-31.35,48.27-10.66,108.31-28.69,157.69-14.15,31.45,9.25,53.91,32.68,80.14,50.84,32.12,22.24,69.18,30.25,107.44,20,33.84-9,61.15-31.8,90.56-49.57,36.59-22.1,67.74-22.48,108.9-28,48.61-6.48,95.67-23.67,142.25-38.29,42.57-13.36,93.53-34,139.09-29.46,41.21,4.14,68.1,42.91,90.2,74,25.73,36.23,51.47,87,92.73,108,37.4,19.05,80.79-1.12,113.85-20.22,39.59-22.87,75.25-52.26,116-73.16,80.44-41.23,184.67-16.46,270.12-6.65,22.44,2.57,44.91,5.08,67.45,6.6,20.68,1.4,41.78-.07,62.08,4.68,38.09,8.89,68.46,34.63,100.58,55.36,40.63,26.22,79.5,36.85,127.59,26.62,51.36-10.93,97.81-37.11,147.59-52.94,54.07-17.2,109.39-12.16,165.29-9.76,66.38,2.85,132.72,7,199.18,7.36" transform="translate(0.15 -64.45)" fill="none" stroke="url(#linear-gradient-75)"/><path id="Line_1-13-4" data-name="Line 1-13" d="M2779,830.62c61.54-1.84,121.42-18.15,181.24-31.35,48.27-10.66,108.31-28.69,157.69-14.16,31.45,9.26,53.91,32.68,80.14,50.85,32.12,22.24,69.18,30.24,107.44,20,33.84-9,61.15-31.8,90.56-49.57,36.59-22.1,67.74-22.48,108.9-28,48.61-6.48,95.67-23.66,142.25-38.28,42.57-13.37,93.53-34,139.09-29.46,41.21,4.13,68.1,42.91,90.2,74,25.73,36.23,51.47,87,92.73,108,37.47,19.08,80.78-1.21,113.82-20.44,39.54-23,75.15-52.54,116-73.34,80-40.75,185.08-15.42,270-6,41.9,4.65,88.83,1.47,129.66,11,38.09,8.9,68.46,34.63,100.58,55.36,40.63,26.22,79.5,36.86,127.59,26.63,51.36-10.93,97.81-37.11,147.59-52.94,54.07-17.2,109.39-12.16,165.29-9.76,66.38,2.85,132.72,7,199.18,7.36" transform="translate(0.15 -64.45)" fill="none" stroke="url(#linear-gradient-76)"/><path id="Line_1-14-4" data-name="Line 1-14" d="M2779,842.92c61.54-1.83,121.42-18.14,181.24-31.35,48.27-10.65,108.31-28.68,157.69-14.15,31.45,9.26,53.91,32.68,80.14,50.84,32.12,22.25,69.18,30.25,107.44,20,33.84-9,61.15-31.8,90.56-49.57,36.59-22.11,67.74-22.48,108.9-28,48.61-6.48,95.67-23.66,142.25-38.29,42.57-13.36,93.53-34,139.09-29.45,41.21,4.13,68.1,42.9,90.2,74,25.73,36.24,51.47,87,92.73,108,37.53,19.11,80.78-1.31,113.79-20.66,39.49-23.13,75-52.82,116-73.53,36.2-18.31,73.73-20.54,113.64-19.3C4365,793.17,4417,800,4469,805.54c41.91,4.5,88.94,1.2,129.79,10.74,38.09,8.9,68.46,34.63,100.58,55.36,40.63,26.22,79.5,36.85,127.59,26.62,51.36-10.92,97.81-37.1,147.59-52.94,54.07-17.19,109.39-12.15,165.29-9.75,66.38,2.85,132.72,6.95,199.18,7.35" transform="translate(0.15 -64.45)" fill="none" stroke="url(#linear-gradient-77)"/><path id="Line_1-15-4" data-name="Line 1-15" d="M2779,855.23c61.54-1.83,121.42-18.14,181.24-31.35,48.27-10.66,108.31-28.68,157.69-14.15,31.45,9.25,53.91,32.68,80.14,50.84,32.12,22.24,69.18,30.25,107.44,20,33.84-9,61.15-31.8,90.56-49.57,36.59-22.11,67.74-22.49,108.9-28,48.61-6.48,95.67-23.66,142.25-38.29,42.57-13.36,93.53-34,139.09-29.45,41.21,4.13,68.1,42.9,90.2,74,25.73,36.24,51.47,87,92.73,108,37.59,19.14,80.78-1.41,113.77-20.88,39.43-23.27,74.93-53.11,116-73.72,36.2-18.18,73.67-19.83,113.48-18.45,52.32,1.83,104.37,8.43,156.4,13.82,41.93,4.34,89,.92,129.92,10.47,38.09,8.9,68.46,34.63,100.58,55.36,40.63,26.22,79.5,36.85,127.59,26.62,51.36-10.93,97.81-37.1,147.59-52.94,54.07-17.2,109.39-12.15,165.29-9.75,66.38,2.85,132.72,7,199.18,7.35" transform="translate(0.15 -64.45)" fill="none" stroke="url(#linear-gradient-78)"/><path id="Line_1-16-4" data-name="Line 1-16" d="M2779,867.54c61.54-1.84,121.42-18.15,181.24-31.35,48.27-10.66,108.31-28.69,157.69-14.15,31.45,9.25,53.91,32.68,80.14,50.84,32.12,22.24,69.18,30.25,107.44,20,33.84-9,61.15-31.79,90.56-49.56,36.59-22.11,67.74-22.49,108.9-28,48.61-6.48,95.67-23.67,142.25-38.29,42.57-13.36,93.53-34,139.09-29.46,41.21,4.14,68.1,42.91,90.2,74,25.73,36.23,51.47,87,92.73,108,37.66,19.18,80.78-1.49,113.74-21.09,39.37-23.4,74.83-53.39,115.94-73.9,36.21-18.07,73.61-19.14,113.31-17.6,52.34,2,104.41,8.43,156.49,13.64,41.95,4.19,89.16.65,130.05,10.2,38.09,8.89,68.46,34.63,100.58,55.36,40.63,26.22,79.5,36.85,127.59,26.62,51.36-10.93,97.81-37.11,147.59-52.94,54.07-17.2,109.39-12.16,165.29-9.76,66.38,2.85,132.72,7,199.18,7.36" transform="translate(0.15 -64.45)" fill="none" stroke="url(#linear-gradient-79)"/><path id="Line_1-17-4" data-name="Line 1-17" d="M2779,879.85c61.54-1.84,121.42-18.15,181.24-31.35,48.27-10.66,108.31-28.69,157.69-14.16,31.45,9.26,53.91,32.68,80.14,50.85,32.12,22.24,69.18,30.24,107.44,20,33.84-9,61.15-31.8,90.56-49.57,36.59-22.1,67.74-22.48,108.9-28,48.61-6.47,95.67-23.66,142.25-38.28,42.57-13.37,93.53-34,139.09-29.46,41.21,4.13,68.1,42.91,90.2,74,25.73,36.23,51.47,87,92.73,108C4007,961.17,4050,940.37,4083,920.65c39.32-23.53,74.73-53.67,115.92-74.09,36.22-17.95,73.54-18.43,113.15-16.75,52.35,2.23,104.45,8.45,156.57,13.46,42,4,89.27.38,130.18,9.93,38.09,8.9,68.46,34.64,100.58,55.37,40.63,26.22,79.5,36.85,127.59,26.62,51.36-10.93,97.81-37.11,147.59-52.94,54.07-17.2,109.39-12.16,165.29-9.76,66.38,2.85,132.72,7,199.18,7.36" transform="translate(0.15 -64.45)" fill="none" stroke="url(#linear-gradient-80)"/><path id="Line_1-18-4" data-name="Line 1-18" d="M2779,892.15c61.54-1.83,121.42-18.14,181.24-31.35,48.27-10.65,108.31-28.68,157.69-14.15,31.45,9.26,53.91,32.68,80.14,50.84,32.12,22.25,69.18,30.25,107.44,20,33.84-9,61.15-31.8,90.56-49.57,36.59-22.11,67.74-22.48,108.9-28,48.61-6.48,95.67-23.66,142.25-38.28,42.57-13.37,93.53-34,139.09-29.46,41.21,4.13,68.1,42.9,90.2,74,25.73,36.24,51.47,87,92.73,108,37.78,19.24,80.77-1.69,113.69-21.53,39.25-23.66,74.62-54,115.89-74.27,36.23-17.84,73.47-17.73,113-15.9,52.36,2.43,104.49,8.45,156.66,13.28,42,3.89,89.38.1,130.31,9.66,38.09,8.9,68.46,34.63,100.58,55.36,40.63,26.22,79.5,36.85,127.59,26.62,51.36-10.92,97.81-37.1,147.59-52.93,54.07-17.2,109.39-12.16,165.29-9.76,66.38,2.85,132.72,7,199.18,7.35" transform="translate(0.15 -64.45)" fill="none" stroke="url(#linear-gradient-81)"/><path id="Line_1-19-4" data-name="Line 1-19" d="M2779,904.46c61.54-1.83,121.42-18.14,181.24-31.35,48.27-10.66,108.31-28.68,157.69-14.15,31.45,9.26,53.91,32.68,80.14,50.84,32.12,22.25,69.18,30.25,107.44,20,33.84-9,61.15-31.8,90.56-49.57,36.59-22.11,67.74-22.48,108.9-28,48.61-6.48,95.67-23.66,142.25-38.29,42.57-13.36,93.53-34,139.09-29.45,41.21,4.13,68.1,42.9,90.2,74,25.73,36.24,51.47,87,92.73,108,37.85,19.27,80.77-1.79,113.66-21.75,39.2-23.79,74.51-54.24,115.87-74.46,36.25-17.72,73.4-17,112.81-15,52.38,2.63,104.54,8.46,156.75,13.11,42,3.73,89.49-.17,130.44,9.39,38.09,8.9,68.46,34.63,100.58,55.36,40.63,26.22,79.5,36.85,127.59,26.62,51.36-10.93,97.81-37.1,147.59-52.94,54.07-17.2,109.39-12.15,165.29-9.75,66.38,2.85,132.72,6.95,199.18,7.35" transform="translate(0.15 -64.45)" fill="none" stroke="url(#linear-gradient-82)"/><path id="Line_1-20-4" data-name="Line 1-20" d="M2779,916.77c61.54-1.84,121.42-18.15,181.24-31.35,48.27-10.66,108.31-28.69,157.69-14.15,31.45,9.25,53.91,32.68,80.14,50.84,32.12,22.24,69.18,30.25,107.44,20,33.84-9,61.15-31.79,90.56-49.56,36.59-22.11,67.74-22.49,108.9-28,48.61-6.48,95.67-23.67,142.25-38.29,42.57-13.36,93.53-34,139.09-29.46,41.21,4.14,68.1,42.91,90.2,74,25.73,36.24,51.47,87,92.73,108,37.91,19.31,80.77-1.87,113.63-22,39.14-23.91,74.41-54.53,115.85-74.65,36.27-17.61,73.33-16.32,112.65-14.19,52.38,2.83,104.57,8.47,156.83,12.92,42,3.59,89.6-.44,130.57,9.13,38.09,8.89,68.46,34.63,100.58,55.36,40.63,26.22,79.5,36.85,127.59,26.62,51.36-10.93,97.81-37.1,147.59-52.94,54.07-17.2,109.39-12.16,165.29-9.76,66.38,2.85,132.72,7,199.18,7.36" transform="translate(0.15 -64.45)" fill="none" stroke="url(#linear-gradient-83)"/><path id="Line_1-21-4" data-name="Line 1-21" d="M2779,929.08c61.54-1.84,121.42-18.15,181.24-31.35,48.27-10.66,108.31-28.69,157.69-14.16,31.45,9.26,53.91,32.69,80.14,50.85,32.12,22.24,69.18,30.24,107.44,20,33.84-9,61.15-31.8,90.56-49.57,36.59-22.1,67.74-22.48,108.9-28,48.61-6.47,95.67-23.66,142.25-38.28,42.57-13.36,93.53-34,139.09-29.46,41.21,4.13,68.1,42.91,90.2,74,25.73,36.23,51.47,87,92.73,108,38,19.34,80.77-2,113.61-22.18,39.07-24,74.3-54.81,115.82-74.83,36.29-17.51,73.25-15.62,112.48-13.35,52.4,3,104.62,8.48,156.92,12.75,42.06,3.43,89.7-.72,130.7,8.85,38.09,8.9,68.46,34.64,100.58,55.37,40.63,26.22,79.5,36.85,127.59,26.62,51.36-10.93,97.81-37.11,147.59-52.94,54.07-17.2,109.39-12.16,165.29-9.76,66.38,2.85,132.72,7,199.18,7.36" transform="translate(0.15 -64.45)" fill="none" stroke="url(#linear-gradient-84)"/><path id="Line_1-5-5" data-name="Line 1" d="M2779,688.92c61.54-1.83,121.42-18.14,181.24-31.35,48.27-10.65,108.31-28.68,157.69-14.15,31.45,9.26,53.91,32.68,80.14,50.84,32.12,22.25,69.18,30.25,107.44,20,33.84-9,61.15-31.8,90.56-49.57,36.59-22.11,67.74-22.48,108.9-28,48.61-6.48,95.67-23.66,142.25-38.28,42.57-13.37,93.53-34,139.09-29.46,41.21,4.13,68.1,42.91,90.2,74,25.73,36.23,51.47,87,92.73,108,36.75,18.72,80.84-.15,114.13-17.93,40.13-21.44,76.38-49.34,116.27-71.2,84.64-46.39,180.06-27.8,271-13.74,22,3.41,44.11,6.84,66.32,8.93,20.59,1.94,41.61.46,61.84,5.18,38.09,8.9,68.46,34.63,100.58,55.36,40.63,26.22,79.5,36.86,127.59,26.63,51.36-10.93,97.81-37.11,147.59-52.94,54.07-17.2,109.39-12.16,165.29-9.76,66.38,2.85,132.72,7,199.18,7.35" transform="translate(0.15 -64.45)" fill="none" stroke="url(#linear-gradient-85)"/><path id="Line_1-2-6" data-name="Line 1-2" d="M2779,701.23c61.54-1.83,121.42-18.14,181.24-31.35,48.27-10.66,108.31-28.68,157.69-14.15,31.45,9.26,53.91,32.68,80.14,50.84,32.12,22.25,69.18,30.25,107.44,20,33.84-9,61.15-31.8,90.56-49.57,36.59-22.11,67.74-22.48,108.9-28,48.61-6.48,95.67-23.66,142.25-38.29,42.57-13.36,93.53-34,139.09-29.45,41.21,4.13,68.1,42.9,90.2,74,25.73,36.24,51.47,87,92.73,108,36.81,18.75,80.83-.24,114.1-18.15,40.09-21.58,76.28-49.62,116.25-71.39,84.26-45.89,180.52-26.69,270.89-13.06,22.08,3.33,44.19,6.67,66.43,8.71,20.6,1.89,41.62.4,61.86,5.13,38.09,8.9,68.46,34.63,100.58,55.36,40.63,26.22,79.5,36.85,127.59,26.62,51.36-10.92,97.81-37.1,147.59-52.94,54.07-17.19,109.39-12.15,165.29-9.75,66.38,2.85,132.72,7,199.18,7.35" transform="translate(0.15 -64.45)" fill="none" stroke="url(#linear-gradient-86)"/><path id="Line_1-3-6" data-name="Line 1-3" d="M2779,713.54c61.54-1.84,121.42-18.15,181.24-31.35,48.27-10.66,108.31-28.69,157.69-14.15,31.45,9.25,53.91,32.68,80.14,50.84,32.12,22.24,69.18,30.25,107.44,20,33.84-9,61.15-31.79,90.56-49.56,36.59-22.11,67.74-22.49,108.9-28,48.61-6.48,95.67-23.66,142.25-38.29,42.57-13.36,93.53-34,139.09-29.46,41.21,4.14,68.1,42.91,90.2,74,25.73,36.24,51.47,87,92.73,108,36.87,18.78,80.82-.34,114.07-18.37,40-21.72,76.17-49.89,116.23-71.58,83.87-45.4,181-25.59,270.81-12.38,22.11,3.25,44.26,6.5,66.53,8.48,20.61,1.84,41.65.36,61.89,5.09,38.09,8.89,68.46,34.63,100.58,55.36,40.63,26.22,79.5,36.85,127.59,26.62,51.36-10.93,97.81-37.1,147.59-52.94,54.07-17.2,109.39-12.15,165.29-9.75,66.38,2.85,132.72,6.95,199.18,7.35" transform="translate(0.15 -64.45)" fill="none" stroke="url(#linear-gradient-87)"/><path id="Line_1-4-6" data-name="Line 1-4" d="M2779,725.85c61.54-1.84,121.42-18.15,181.24-31.35,48.27-10.66,108.31-28.69,157.69-14.15,31.45,9.25,53.91,32.68,80.14,50.84,32.12,22.24,69.18,30.25,107.44,20,33.84-9,61.15-31.8,90.56-49.57,36.59-22.1,67.74-22.48,108.9-28,48.61-6.47,95.67-23.66,142.25-38.28,42.57-13.36,93.53-34,139.09-29.46,41.21,4.13,68.1,42.91,90.2,74,25.73,36.23,51.47,87,92.73,108,36.93,18.81,80.82-.42,114.05-18.58,40-21.85,76.06-50.17,116.2-71.76,83.48-44.91,181.42-24.5,270.73-11.72,22.15,3.18,44.34,6.34,66.64,8.27,20.62,1.78,41.66.31,61.91,5,38.09,8.89,68.46,34.63,100.58,55.36,40.63,26.22,79.5,36.85,127.59,26.62,51.36-10.93,97.81-37.11,147.59-52.94,54.07-17.2,109.39-12.16,165.29-9.76,66.38,2.85,132.72,7,199.18,7.36" transform="translate(0.15 -64.45)" fill="none" stroke="url(#linear-gradient-88)"/><path id="Line_1-5-6" data-name="Line 1-5" d="M2779,738.15c61.54-1.83,121.42-18.14,181.24-31.35,48.27-10.65,108.31-28.68,157.69-14.15,31.45,9.26,53.91,32.68,80.14,50.84,32.12,22.25,69.18,30.25,107.44,20,33.84-9,61.15-31.8,90.56-49.57,36.59-22.1,67.74-22.48,108.9-28,48.61-6.48,95.67-23.66,142.25-38.28,42.57-13.37,93.53-34,139.09-29.46,41.21,4.13,68.1,42.91,90.2,74,25.73,36.23,51.47,87,92.73,108,37,18.84,80.81-.52,114-18.8,39.94-22,75.95-50.45,116.18-72,83.09-44.41,181.87-23.41,270.65-11,22.19,3.09,44.41,6.17,66.75,8,20.63,1.74,41.67.26,61.93,5,38.09,8.9,68.46,34.63,100.58,55.36,40.63,26.22,79.5,36.86,127.59,26.63,51.36-10.93,97.81-37.11,147.59-52.94,54.07-17.2,109.39-12.16,165.29-9.76,66.38,2.85,132.72,7,199.18,7.35" transform="translate(0.15 -64.45)" fill="none" stroke="url(#linear-gradient-89)"/><path id="Line_1-6-5" data-name="Line 1-6" d="M2779,750.46c61.54-1.83,121.42-18.14,181.24-31.35,48.27-10.66,108.31-28.68,157.69-14.15,31.45,9.26,53.91,32.68,80.14,50.84,32.12,22.25,69.18,30.25,107.44,20,33.84-9,61.15-31.8,90.56-49.57,36.59-22.11,67.74-22.48,108.9-28,48.61-6.48,95.67-23.66,142.25-38.29,42.57-13.36,93.53-34,139.09-29.45,41.21,4.13,68.1,42.9,90.2,74,25.73,36.24,51.47,87,92.73,108,37.06,18.87,80.81-.61,114-19,39.89-22.13,75.85-50.73,116.16-72.13,82.69-43.92,182.31-22.33,270.57-10.37,22.23,3,44.49,6,66.85,7.82,20.64,1.68,41.7.21,62,4.94,38.09,8.9,68.46,34.63,100.58,55.36,40.63,26.22,79.5,36.85,127.59,26.62,51.36-10.92,97.81-37.1,147.59-52.94,54.07-17.19,109.39-12.15,165.29-9.75,66.38,2.85,132.72,6.95,199.18,7.35" transform="translate(0.15 -64.45)" fill="none" stroke="url(#linear-gradient-90)"/><path id="Line_1-7-5" data-name="Line 1-7" d="M2779,762.77c61.54-1.84,121.42-18.15,181.24-31.35,48.27-10.66,108.31-28.69,157.69-14.15,31.45,9.25,53.91,32.68,80.14,50.84,32.12,22.24,69.18,30.25,107.44,20,33.84-9,61.15-31.8,90.56-49.57,36.59-22.11,67.74-22.49,108.9-28,48.61-6.48,95.67-23.66,142.25-38.29,42.57-13.36,93.53-34,139.09-29.46,41.21,4.14,68.1,42.91,90.2,74,25.73,36.24,51.47,87,92.73,108,37.12,18.9,80.8-.71,114-19.24,39.83-22.27,75.74-51,116.13-72.32,82.29-43.43,182.75-21.25,270.49-9.69,22.27,2.93,44.56,5.83,67,7.59,20.65,1.64,41.71.16,62,4.9,38.09,8.89,68.46,34.63,100.58,55.36,40.63,26.22,79.5,36.85,127.59,26.62,51.36-10.93,97.81-37.1,147.59-52.94,54.07-17.2,109.39-12.15,165.29-9.75,66.38,2.85,132.72,7,199.18,7.35" transform="translate(0.15 -64.45)" fill="none" stroke="url(#linear-gradient-91)"/><path id="Line_1-8-5" data-name="Line 1-8" d="M2779,775.08c61.54-1.84,121.42-18.15,181.24-31.35,48.27-10.66,108.31-28.69,157.69-14.15,31.45,9.25,53.91,32.68,80.14,50.84,32.12,22.24,69.18,30.25,107.44,20,33.84-9,61.15-31.8,90.56-49.57,36.59-22.1,67.74-22.48,108.9-28,48.61-6.48,95.67-23.67,142.25-38.29,42.57-13.36,93.53-34,139.09-29.46,41.21,4.13,68.1,42.91,90.2,74,25.73,36.23,51.47,87,92.73,108,37.18,18.94,80.8-.79,113.94-19.45,39.78-22.4,75.63-51.28,116.11-72.51,81.89-42.94,183.19-20.18,270.41-9,22.3,2.86,44.64,5.67,67.07,7.38,20.65,1.58,41.72.11,62,4.85,38.09,8.89,68.46,34.63,100.58,55.36,40.63,26.22,79.5,36.85,127.59,26.62,51.36-10.93,97.81-37.11,147.59-52.94,54.07-17.2,109.39-12.16,165.29-9.76,66.38,2.85,132.72,7,199.18,7.36" transform="translate(0.15 -64.45)" fill="none" stroke="url(#linear-gradient-92)"/><path id="Line_1-9-5" data-name="Line 1-9" d="M2779,787.38c61.54-1.83,121.42-18.14,181.24-31.35,48.27-10.65,108.31-28.68,157.69-14.15,31.45,9.26,53.91,32.68,80.14,50.85,32.12,22.24,69.18,30.24,107.44,20,33.84-9,61.15-31.8,90.56-49.57,36.59-22.1,67.74-22.48,108.9-28,48.61-6.48,95.67-23.66,142.25-38.28,42.57-13.37,93.53-34,139.09-29.46,41.21,4.13,68.1,42.91,90.2,74,25.73,36.23,51.47,87,92.73,108,37.25,19,80.79-.89,113.91-19.67,39.74-22.54,75.53-51.56,116.09-72.69,81.48-42.45,183.62-19.12,270.33-8.35,22.34,2.77,44.71,5.5,67.17,7.16,20.67,1.52,41.74.06,62,4.79,38.09,8.9,68.46,34.63,100.58,55.36,40.63,26.22,79.5,36.86,127.59,26.63,51.36-10.93,97.81-37.11,147.59-52.94,54.07-17.2,109.39-12.16,165.29-9.76,66.38,2.85,132.72,7,199.18,7.35" transform="translate(0.15 -64.45)" fill="none" stroke="url(#linear-gradient-93)"/><path id="Line_1-10-5" data-name="Line 1-10" d="M2779,799.69c61.54-1.83,121.42-18.14,181.24-31.35,48.27-10.66,108.31-28.68,157.69-14.15,31.45,9.26,53.91,32.68,80.14,50.84,32.12,22.25,69.18,30.25,107.44,20,33.84-9,61.15-31.8,90.56-49.57,36.59-22.11,67.74-22.48,108.9-28,48.61-6.48,95.67-23.66,142.25-38.29,42.57-13.36,93.53-34,139.09-29.45,41.21,4.13,68.1,42.9,90.2,74,25.73,36.24,51.47,87,92.73,108,37.31,19,80.79-1,113.89-19.89,39.68-22.67,75.41-51.84,116.06-72.88,81.07-42,184-18,270.25-7.67,22.38,2.69,44.79,5.33,67.28,6.93,20.68,1.48,41.76,0,62.05,4.75,38.09,8.9,68.46,34.63,100.58,55.36,40.63,26.22,79.5,36.85,127.59,26.62,51.36-10.92,97.81-37.1,147.59-52.94,54.07-17.19,109.39-12.15,165.29-9.75,66.38,2.85,132.72,6.95,199.18,7.35" transform="translate(0.15 -64.45)" fill="none" stroke="url(#linear-gradient-94)"/><path id="Line_1-11-5" data-name="Line 1-11" d="M2779,812c61.54-1.83,121.42-18.15,181.24-31.35C3008.51,770,3068.55,752,3117.93,766.5c31.45,9.25,53.91,32.68,80.14,50.84,32.12,22.24,69.18,30.25,107.44,20,33.84-9,61.15-31.8,90.56-49.57,36.59-22.11,67.74-22.49,108.9-28,48.61-6.48,95.67-23.66,142.25-38.29,42.57-13.36,93.53-34,139.09-29.45,41.21,4.13,68.1,42.9,90.2,74,25.73,36.24,51.47,87,92.73,108,37.37,19,80.79-1.08,113.86-20.11,39.62-22.81,75.31-52.12,116-73.07,80.66-41.47,184.46-17,270.17-7,22.42,2.62,44.87,5.17,67.39,6.72,20.68,1.42,41.77,0,62.07,4.7,38.09,8.9,68.46,34.63,100.58,55.36,40.63,26.22,79.5,36.85,127.59,26.62,51.36-10.93,97.81-37.1,147.59-52.94,54.07-17.2,109.39-12.15,165.29-9.75,66.38,2.85,132.72,7,199.18,7.35" transform="translate(0.15 -64.45)" fill="none" stroke="url(#linear-gradient-95)"/><path id="Line_1-12-5" data-name="Line 1-12" d="M2779,824.31c61.54-1.84,121.42-18.15,181.24-31.35,48.27-10.66,108.31-28.69,157.69-14.15,31.45,9.25,53.91,32.68,80.14,50.84,32.12,22.24,69.18,30.25,107.44,20,33.84-9,61.15-31.8,90.56-49.57,36.59-22.1,67.74-22.48,108.9-28,48.61-6.48,95.67-23.67,142.25-38.29,42.57-13.36,93.53-34,139.09-29.46,41.21,4.14,68.1,42.91,90.2,74,25.73,36.23,51.47,87,92.73,108,37.43,19.07,80.78-1.16,113.83-20.32,39.57-22.94,75.21-52.4,116-73.25,80.25-41,184.88-16,270.09-6.33,22.46,2.54,44.94,5,67.49,6.49,20.7,1.38,41.79-.09,62.1,4.66,38.09,8.89,68.46,34.63,100.58,55.36,40.63,26.22,79.5,36.85,127.59,26.62,51.36-10.93,97.81-37.11,147.59-52.94,54.07-17.2,109.39-12.16,165.29-9.76,66.38,2.85,132.72,7,199.18,7.36" transform="translate(0.15 -64.45)" fill="none" stroke="url(#linear-gradient-96)"/><path id="Line_1-13-5" data-name="Line 1-13" d="M2779,836.62c61.54-1.84,121.42-18.15,181.24-31.35,48.27-10.66,108.31-28.69,157.69-14.16,31.45,9.26,53.91,32.68,80.14,50.85,32.12,22.24,69.18,30.24,107.44,20,33.84-9,61.15-31.8,90.56-49.57,36.59-22.1,67.74-22.48,108.9-28,48.61-6.48,95.67-23.66,142.25-38.28,42.57-13.37,93.53-34,139.09-29.46,41.21,4.13,68.1,42.91,90.2,74,25.73,36.23,51.47,87,92.73,108,37.5,19.1,80.78-1.26,113.81-20.54,39.51-23.07,75.09-52.69,116-73.44,79.83-40.51,185.29-14.91,270-5.65,41.9,4.57,88.88,1.33,129.72,10.87,38.09,8.9,68.46,34.63,100.58,55.36,40.63,26.22,79.5,36.86,127.59,26.63,51.36-10.93,97.81-37.11,147.59-52.94,54.07-17.2,109.39-12.16,165.29-9.76,66.38,2.85,132.72,7,199.18,7.36" transform="translate(0.15 -64.45)" fill="none" stroke="url(#linear-gradient-97)"/><path id="Line_1-14-5" data-name="Line 1-14" d="M2779,848.92c61.54-1.83,121.42-18.14,181.24-31.35,48.27-10.65,108.31-28.68,157.69-14.15,31.45,9.26,53.91,32.68,80.14,50.84,32.12,22.25,69.18,30.25,107.44,20,33.84-9,61.15-31.8,90.56-49.57,36.59-22.11,67.74-22.48,108.9-28,48.61-6.48,95.67-23.66,142.25-38.29,42.57-13.36,93.53-34,139.09-29.45,41.21,4.13,68.1,42.9,90.2,74,25.73,36.24,51.47,87,92.73,108,37.56,19.13,80.78-1.36,113.78-20.76,39.46-23.2,75-53,116-73.63,36.2-18.24,73.71-20.19,113.57-18.88,52.32,1.72,104.35,8.42,156.36,13.9,41.92,4.43,89,1.07,129.85,10.61,38.09,8.9,68.46,34.63,100.58,55.36,40.63,26.22,79.5,36.85,127.59,26.62,51.36-10.92,97.81-37.1,147.59-52.94,54.07-17.19,109.39-12.15,165.29-9.75,66.38,2.85,132.72,6.95,199.18,7.35" transform="translate(0.15 -64.45)" fill="none" stroke="url(#linear-gradient-98)"/><path id="Line_1-15-5" data-name="Line 1-15" d="M2779,861.23c61.54-1.83,121.42-18.14,181.24-31.35,48.27-10.66,108.31-28.68,157.69-14.15,31.45,9.25,53.91,32.68,80.14,50.84,32.12,22.24,69.18,30.25,107.44,20,33.84-9,61.15-31.8,90.56-49.57,36.59-22.11,67.74-22.49,108.9-28,48.61-6.48,95.67-23.66,142.25-38.29,42.57-13.36,93.53-34,139.09-29.45,41.21,4.13,68.1,42.9,90.2,74,25.73,36.24,51.47,87,92.73,108,37.62,19.16,80.78-1.45,113.75-21,39.41-23.34,74.89-53.25,115.95-73.81,36.21-18.13,73.64-19.5,113.4-18,52.33,1.92,104.39,8.43,156.45,13.73,41.94,4.27,89.1.79,130,10.34,38.09,8.9,68.46,34.63,100.58,55.36,40.63,26.22,79.5,36.85,127.59,26.62,51.36-10.93,97.81-37.1,147.59-52.94,54.07-17.2,109.39-12.15,165.29-9.75,66.38,2.85,132.72,7,199.18,7.35" transform="translate(0.15 -64.45)" fill="none" stroke="url(#linear-gradient-99)"/><path id="Line_1-16-5" data-name="Line 1-16" d="M2779,873.54c61.54-1.84,121.42-18.15,181.24-31.35,48.27-10.66,108.31-28.69,157.69-14.15,31.45,9.25,53.91,32.68,80.14,50.84,32.12,22.24,69.18,30.25,107.44,20,33.84-9,61.15-31.79,90.56-49.56,36.59-22.11,67.74-22.49,108.9-28,48.61-6.48,95.67-23.67,142.25-38.29,42.57-13.36,93.53-34,139.09-29.46,41.21,4.14,68.1,42.91,90.2,74,25.73,36.23,51.47,87,92.73,108,37.69,19.2,80.78-1.54,113.73-21.19,39.34-23.47,74.78-53.53,115.92-74,36.22-18,73.58-18.79,113.24-17.18,52.34,2.12,104.43,8.44,156.53,13.55,42,4.11,89.21.51,130.11,10.07,38.09,8.89,68.46,34.63,100.58,55.36,40.63,26.22,79.5,36.85,127.59,26.62,51.36-10.93,97.81-37.11,147.59-52.94,54.07-17.2,109.39-12.16,165.29-9.76,66.38,2.85,132.72,7,199.18,7.36" transform="translate(0.15 -64.45)" fill="none" stroke="url(#linear-gradient-100)"/><path id="Line_1-17-5" data-name="Line 1-17" d="M2779,885.85c61.54-1.84,121.42-18.15,181.24-31.35,48.27-10.66,108.31-28.69,157.69-14.16,31.45,9.26,53.91,32.68,80.14,50.85,32.12,22.24,69.18,30.24,107.44,20,33.84-9,61.15-31.8,90.56-49.57,36.59-22.1,67.74-22.48,108.9-28,48.61-6.47,95.67-23.66,142.25-38.28,42.57-13.37,93.53-34,139.09-29.46,41.21,4.13,68.1,42.91,90.2,74,25.73,36.23,51.47,87,92.73,108,37.75,19.23,80.77-1.64,113.7-21.41,39.29-23.6,74.67-53.82,115.9-74.18,36.23-17.9,73.51-18.09,113.07-16.34,52.36,2.33,104.47,8.45,156.62,13.37,42,4,89.32.25,130.24,9.8,38.09,8.9,68.46,34.64,100.58,55.37,40.63,26.22,79.5,36.85,127.59,26.62,51.36-10.93,97.81-37.11,147.59-52.94,54.07-17.2,109.39-12.16,165.29-9.76,66.38,2.85,132.72,7,199.18,7.36" transform="translate(0.15 -64.45)" fill="none" stroke="url(#linear-gradient-101)"/><path id="Line_1-18-5" data-name="Line 1-18" d="M2779,898.15c61.54-1.83,121.42-18.14,181.24-31.35,48.27-10.65,108.31-28.68,157.69-14.15,31.45,9.26,53.91,32.68,80.14,50.84,32.12,22.25,69.18,30.25,107.44,20,33.84-9,61.15-31.8,90.56-49.57,36.59-22.11,67.74-22.48,108.9-28,48.61-6.48,95.67-23.66,142.25-38.28,42.57-13.37,93.53-34,139.09-29.46,41.21,4.13,68.1,42.9,90.2,74,25.73,36.24,51.47,87,92.73,108,37.81,19.26,80.77-1.73,113.67-21.63,39.23-23.73,74.57-54.1,115.88-74.37,36.24-17.78,73.44-17.39,112.91-15.48,52.36,2.52,104.51,8.45,156.7,13.19,42,3.81,89.43,0,130.37,9.53,38.09,8.9,68.46,34.63,100.58,55.36,40.63,26.22,79.5,36.85,127.59,26.62,51.36-10.92,97.81-37.1,147.59-52.93,54.07-17.2,109.39-12.16,165.29-9.76,66.38,2.85,132.72,7,199.18,7.35" transform="translate(0.15 -64.45)" fill="none" stroke="url(#linear-gradient-102)"/><path id="Line_1-19-5" data-name="Line 1-19" d="M2779,910.46c61.54-1.83,121.42-18.14,181.24-31.35,48.27-10.66,108.31-28.68,157.69-14.15,31.45,9.26,53.91,32.68,80.14,50.84,32.12,22.25,69.18,30.25,107.44,20,33.84-9,61.15-31.8,90.56-49.57,36.59-22.11,67.74-22.48,108.9-28,48.61-6.48,95.67-23.66,142.25-38.29,42.57-13.36,93.53-34,139.09-29.45,41.21,4.13,68.1,42.9,90.2,74,25.73,36.24,51.47,87,92.73,108,37.88,19.29,80.77-1.83,113.65-21.85,39.17-23.85,74.46-54.39,115.85-74.56,36.26-17.67,73.37-16.68,112.74-14.63,52.38,2.73,104.55,8.47,156.79,13,42,3.66,89.54-.31,130.5,9.26,38.09,8.9,68.46,34.63,100.58,55.36,40.63,26.22,79.5,36.85,127.59,26.62,51.36-10.93,97.81-37.1,147.59-52.94,54.07-17.2,109.39-12.15,165.29-9.75,66.38,2.85,132.72,6.95,199.18,7.35" transform="translate(0.15 -64.45)" fill="none" stroke="url(#linear-gradient-103)"/><path id="Line_1-20-5" data-name="Line 1-20" d="M2779,922.77c61.54-1.84,121.42-18.15,181.24-31.35,48.27-10.66,108.31-28.69,157.69-14.15,31.45,9.25,53.91,32.68,80.14,50.84,32.12,22.24,69.18,30.25,107.44,20,33.84-9,61.15-31.79,90.56-49.56,36.59-22.11,67.74-22.49,108.9-28,48.61-6.48,95.67-23.67,142.25-38.29,42.57-13.36,93.53-34,139.09-29.46,41.21,4.14,68.1,42.91,90.2,74,25.73,36.24,51.47,87,92.73,108,37.94,19.33,80.77-1.92,113.62-22.06,39.11-24,74.36-54.67,115.83-74.74,36.29-17.56,73.3-16,112.57-13.78,52.39,2.93,104.6,8.47,156.88,12.84,42,3.51,89.65-.59,130.63,9,38.09,8.89,68.46,34.63,100.58,55.36,40.63,26.22,79.5,36.85,127.59,26.62,51.36-10.93,97.81-37.1,147.59-52.94,54.07-17.2,109.39-12.16,165.29-9.76,66.38,2.85,132.72,7,199.18,7.36" transform="translate(0.15 -64.45)" fill="none" stroke="url(#linear-gradient-104)"/><path id="Line_1-21-5" data-name="Line 1-21" d="M2779,935.08c61.54-1.84,121.42-18.15,181.24-31.35,48.27-10.66,108.31-28.69,157.69-14.16,31.45,9.26,53.91,32.69,80.14,50.85,32.12,22.24,69.18,30.24,107.44,20,33.84-9,61.15-31.8,90.56-49.57,36.59-22.1,67.74-22.48,108.9-28,48.61-6.47,95.67-23.66,142.25-38.28,42.57-13.36,93.53-34,139.09-29.46,41.21,4.13,68.1,42.91,90.2,74,25.73,36.23,51.47,87,92.73,108,38,19.36,80.77-2,113.59-22.28,39.05-24.11,74.26-55,115.81-74.93,36.31-17.45,73.22-15.28,112.41-12.93,52.4,3.14,104.64,8.48,157,12.66,42.07,3.36,89.75-.85,130.76,8.72,38.09,8.9,68.46,34.64,100.58,55.37,40.63,26.22,79.5,36.85,127.59,26.62,51.36-10.93,97.81-37.11,147.59-52.94,54.07-17.2,109.39-12.16,165.29-9.76,66.38,2.85,132.72,7,199.18,7.36" transform="translate(0.15 -64.45)" fill="none" stroke="url(#linear-gradient-105)"/><path id="Line_1-6-6" data-name="Line 1" d="M2779,126.92H5339" transform="translate(0.15 -64.45)" fill="none" stroke="url(#linear-gradient-106)"/><path id="Line_1-2-7" data-name="Line 1-2" d="M2779,139.23H5339" transform="translate(0.15 -64.45)" fill="none" stroke="url(#linear-gradient-107)"/><path id="Line_1-3-7" data-name="Line 1-3" d="M2779,151.54H5339" transform="translate(0.15 -64.45)" fill="none" stroke="url(#linear-gradient-108)"/><path id="Line_1-4-7" data-name="Line 1-4" d="M2779,163.85H5339" transform="translate(0.15 -64.45)" fill="none" stroke="url(#linear-gradient-109)"/><path id="Line_1-5-7" data-name="Line 1-5" d="M2779,176.15H5339" transform="translate(0.15 -64.45)" fill="none" stroke="url(#linear-gradient-110)"/><path id="Line_1-6-7" data-name="Line 1-6" d="M2779,188.46H5339" transform="translate(0.15 -64.45)" fill="none" stroke="url(#linear-gradient-111)"/><path id="Line_1-7-6" data-name="Line 1-7" d="M2779,200.77H5339" transform="translate(0.15 -64.45)" fill="none" stroke="url(#linear-gradient-112)"/><path id="Line_1-8-6" data-name="Line 1-8" d="M2779,213.08H5339" transform="translate(0.15 -64.45)" fill="none" stroke="url(#linear-gradient-113)"/><path id="Line_1-9-6" data-name="Line 1-9" d="M2779,225.38H5339" transform="translate(0.15 -64.45)" fill="none" stroke="url(#linear-gradient-114)"/><path id="Line_1-10-6" data-name="Line 1-10" d="M2779,237.69H5339" transform="translate(0.15 -64.45)" fill="none" stroke="url(#linear-gradient-115)"/><path id="Line_1-11-6" data-name="Line 1-11" d="M2779,250H5339" transform="translate(0.15 -64.45)" fill="none" stroke="url(#linear-gradient-116)"/><path id="Line_1-12-6" data-name="Line 1-12" d="M2779,262.31H5339" transform="translate(0.15 -64.45)" fill="none" stroke="url(#linear-gradient-117)"/><path id="Line_1-13-6" data-name="Line 1-13" d="M2779,274.62H5339" transform="translate(0.15 -64.45)" fill="none" stroke="url(#linear-gradient-118)"/><path id="Line_1-14-6" data-name="Line 1-14" d="M2779,286.92H5339" transform="translate(0.15 -64.45)" fill="none" stroke="url(#linear-gradient-119)"/><path id="Line_1-15-6" data-name="Line 1-15" d="M2779,299.23H5339" transform="translate(0.15 -64.45)" fill="none" stroke="url(#linear-gradient-120)"/><path id="Line_1-16-6" data-name="Line 1-16" d="M2779,311.54H5339" transform="translate(0.15 -64.45)" fill="none" stroke="url(#linear-gradient-121)"/><path id="Line_1-17-6" data-name="Line 1-17" d="M2779,323.85H5339" transform="translate(0.15 -64.45)" fill="none" stroke="url(#linear-gradient-122)"/><path id="Line_1-18-6" data-name="Line 1-18" d="M2779,336.15H5339" transform="translate(0.15 -64.45)" fill="none" stroke="url(#linear-gradient-123)"/><path id="Line_1-19-6" data-name="Line 1-19" d="M2779,348.46H5339" transform="translate(0.15 -64.45)" fill="none" stroke="url(#linear-gradient-124)"/><path id="Line_1-20-6" data-name="Line 1-20" d="M2779,360.77H5339" transform="translate(0.15 -64.45)" fill="none" stroke="url(#linear-gradient-125)"/><path id="Line_1-21-6" data-name="Line 1-21" d="M2779,373.08H5339" transform="translate(0.15 -64.45)" fill="none" stroke="url(#linear-gradient-126)"/><path id="Line_1-7-7" data-name="Line 1" d="M2779,132.92H5339" transform="translate(0.15 -64.45)" fill="none" stroke="url(#linear-gradient-127)"/><path id="Line_1-2-8" data-name="Line 1-2" d="M2779,145.23H5339" transform="translate(0.15 -64.45)" fill="none" stroke="url(#linear-gradient-128)"/><path id="Line_1-3-8" data-name="Line 1-3" d="M2779,157.54H5339" transform="translate(0.15 -64.45)" fill="none" stroke="url(#linear-gradient-129)"/><path id="Line_1-4-8" data-name="Line 1-4" d="M2779,169.85H5339" transform="translate(0.15 -64.45)" fill="none" stroke="url(#linear-gradient-130)"/><path id="Line_1-5-8" data-name="Line 1-5" d="M2779,182.15H5339" transform="translate(0.15 -64.45)" fill="none" stroke="url(#linear-gradient-131)"/><path id="Line_1-6-8" data-name="Line 1-6" d="M2779,194.46H5339" transform="translate(0.15 -64.45)" fill="none" stroke="url(#linear-gradient-132)"/><path id="Line_1-7-8" data-name="Line 1-7" d="M2779,206.77H5339" transform="translate(0.15 -64.45)" fill="none" stroke="url(#linear-gradient-133)"/><path id="Line_1-8-7" data-name="Line 1-8" d="M2779,219.08H5339" transform="translate(0.15 -64.45)" fill="none" stroke="url(#linear-gradient-134)"/><path id="Line_1-9-7" data-name="Line 1-9" d="M2779,231.38H5339" transform="translate(0.15 -64.45)" fill="none" stroke="url(#linear-gradient-135)"/><path id="Line_1-10-7" data-name="Line 1-10" d="M2779,243.69H5339" transform="translate(0.15 -64.45)" fill="none" stroke="url(#linear-gradient-136)"/><path id="Line_1-11-7" data-name="Line 1-11" d="M2779,256H5339" transform="translate(0.15 -64.45)" fill="none" stroke="url(#linear-gradient-137)"/><path id="Line_1-12-7" data-name="Line 1-12" d="M2779,268.31H5339" transform="translate(0.15 -64.45)" fill="none" stroke="url(#linear-gradient-138)"/><path id="Line_1-13-7" data-name="Line 1-13" d="M2779,280.62H5339" transform="translate(0.15 -64.45)" fill="none" stroke="url(#linear-gradient-139)"/><path id="Line_1-14-7" data-name="Line 1-14" d="M2779,292.92H5339" transform="translate(0.15 -64.45)" fill="none" stroke="url(#linear-gradient-140)"/><path id="Line_1-15-7" data-name="Line 1-15" d="M2779,305.23H5339" transform="translate(0.15 -64.45)" fill="none" stroke="url(#linear-gradient-141)"/><path id="Line_1-16-7" data-name="Line 1-16" d="M2779,317.54H5339" transform="translate(0.15 -64.45)" fill="none" stroke="url(#linear-gradient-142)"/><path id="Line_1-17-7" data-name="Line 1-17" d="M2779,329.85H5339" transform="translate(0.15 -64.45)" fill="none" stroke="url(#linear-gradient-143)"/><path id="Line_1-18-7" data-name="Line 1-18" d="M2779,342.15H5339" transform="translate(0.15 -64.45)" fill="none" stroke="url(#linear-gradient-144)"/><path id="Line_1-19-7" data-name="Line 1-19" d="M2779,354.46H5339" transform="translate(0.15 -64.45)" fill="none" stroke="url(#linear-gradient-145)"/><path id="Line_1-20-7" data-name="Line 1-20" d="M2779,366.77H5339" transform="translate(0.15 -64.45)" fill="none" stroke="url(#linear-gradient-146)"/><path id="Line_1-21-7" data-name="Line 1-21" d="M2779,379.08H5339" transform="translate(0.15 -64.45)" fill="none" stroke="url(#linear-gradient-147)"/></svg>