<svg xmlns="http://www.w3.org/2000/svg" width="1800" height="2496.001" viewBox="0 0 1800 2496.001">
  <path id="Subtraction_91" data-name="Subtraction 91" d="M-7994-431H-9794V-2927h1800V-431Zm-990-654a90.653,90.653,0,0,0-18.138,1.828,89.573,89.573,0,0,0-16.895,5.244,89.922,89.922,0,0,0-15.286,8.3,90.613,90.613,0,0,0-13.32,10.99,90.691,90.691,0,0,0-10.989,13.32,89.969,89.969,0,0,0-8.3,15.288,89.6,89.6,0,0,0-5.244,16.894A90.719,90.719,0,0,0-9074-995v180a90.7,90.7,0,0,0,1.828,18.138,89.589,89.589,0,0,0,5.244,16.894,89.955,89.955,0,0,0,8.3,15.287,90.669,90.669,0,0,0,10.989,13.32,90.646,90.646,0,0,0,13.32,10.989,89.985,89.985,0,0,0,15.286,8.3,89.574,89.574,0,0,0,16.895,5.244A90.653,90.653,0,0,0-8984-725a90.656,90.656,0,0,0,18.139-1.828,89.6,89.6,0,0,0,16.9-5.244,90.064,90.064,0,0,0,15.287-8.3,90.6,90.6,0,0,0,13.319-10.989,90.614,90.614,0,0,0,10.99-13.32,90.116,90.116,0,0,0,8.3-15.287,89.6,89.6,0,0,0,5.244-16.894A90.7,90.7,0,0,0-8894-815V-995a90.719,90.719,0,0,0-1.828-18.139,89.6,89.6,0,0,0-5.244-16.894,90.055,90.055,0,0,0-8.3-15.288,90.636,90.636,0,0,0-10.99-13.32,90.615,90.615,0,0,0-13.319-10.99,90,90,0,0,0-15.287-8.3,89.609,89.609,0,0,0-16.9-5.244A90.656,90.656,0,0,0-8984-1085Zm90-360h0l180,180,180-180h-360Zm-720-540h0v360h360l-360-360Zm1260-180v360h.013a181.282,181.282,0,0,0,36.264-3.656,179.094,179.094,0,0,0,33.788-10.488,180.02,180.02,0,0,0,30.574-16.6,181.261,181.261,0,0,0,26.64-21.979,181.275,181.275,0,0,0,21.98-26.639,180.052,180.052,0,0,0,16.6-30.575,179.1,179.1,0,0,0,10.489-33.788A181.345,181.345,0,0,0-8174-1985a181.354,181.354,0,0,0-3.657-36.276,179.112,179.112,0,0,0-10.489-33.788,180.06,180.06,0,0,0-16.6-30.576,181.269,181.269,0,0,0-21.98-26.64,181.234,181.234,0,0,0-26.64-21.98,179.964,179.964,0,0,0-30.574-16.6,179.087,179.087,0,0,0-33.788-10.489A181.334,181.334,0,0,0-8354-2165Zm-900-360v180a181.323,181.323,0,0,1,36.274,3.658,178.975,178.975,0,0,1,33.79,10.488,180.036,180.036,0,0,1,30.574,16.594,181.353,181.353,0,0,1,26.64,21.982,181.349,181.349,0,0,1,21.979,26.64,179.94,179.94,0,0,1,16.6,30.575,178.947,178.947,0,0,1,10.488,33.787A181.433,181.433,0,0,1-9074-2165h180a362.887,362.887,0,0,0-7.312-72.552,358.418,358.418,0,0,0-20.979-67.577,360.13,360.13,0,0,0-33.192-61.152,362.582,362.582,0,0,0-43.956-53.277,362.554,362.554,0,0,0-53.281-43.961,360.268,360.268,0,0,0-61.149-33.193,358.486,358.486,0,0,0-67.577-20.976A362.755,362.755,0,0,0-9254-2525Z" transform="translate(9794 2927)" fill="#fff"/>
</svg>
