<svg xmlns="http://www.w3.org/2000/svg" width="1680" height="2496.001" viewBox="0 0 1680 2496.001">
  <path id="Subtraction_90" data-name="Subtraction 90" d="M-8114-431H-9794V-2927h1680V-431Zm-1020-654a181.325,181.325,0,0,0-36.276,3.657,179.157,179.157,0,0,0-33.788,10.488,180,180,0,0,0-30.574,16.6,181.3,181.3,0,0,0-26.64,21.979,181.334,181.334,0,0,0-21.98,26.64,180.082,180.082,0,0,0-16.6,30.575,179.046,179.046,0,0,0-10.488,33.788A181.3,181.3,0,0,0-9314-905a181.3,181.3,0,0,0,3.657,36.276,179.017,179.017,0,0,0,10.488,33.788,180.082,180.082,0,0,0,16.6,30.575,181.3,181.3,0,0,0,21.98,26.64,181.28,181.28,0,0,0,26.64,21.979,180.019,180.019,0,0,0,30.574,16.6,179.166,179.166,0,0,0,33.788,10.488A181.334,181.334,0,0,0-9134-725a181.351,181.351,0,0,0,36.277-3.657,179.166,179.166,0,0,0,33.788-10.488,179.948,179.948,0,0,0,30.575-16.6,181.255,181.255,0,0,0,26.64-21.979,181.262,181.262,0,0,0,21.98-26.64,180.055,180.055,0,0,0,16.6-30.575,179.017,179.017,0,0,0,10.488-33.788A181.3,181.3,0,0,0-8954-905a181.3,181.3,0,0,0-3.657-36.276,179.044,179.044,0,0,0-10.488-33.788,180.055,180.055,0,0,0-16.6-30.575,181.3,181.3,0,0,0-21.98-26.64,181.3,181.3,0,0,0-26.64-21.979,180.015,180.015,0,0,0-30.575-16.6,179.157,179.157,0,0,0-33.788-10.488A181.342,181.342,0,0,0-9134-1085Zm360-540a181.337,181.337,0,0,0-36.277,3.657,179.138,179.138,0,0,0-33.788,10.488,179.97,179.97,0,0,0-30.574,16.6,181.151,181.151,0,0,0-26.64,21.979,181.218,181.218,0,0,0-21.979,26.64,180,180,0,0,0-16.6,30.575,179.088,179.088,0,0,0-10.487,33.788A181.328,181.328,0,0,0-8954-1445a181.326,181.326,0,0,0,3.657,36.276,179.157,179.157,0,0,0,10.487,33.788,180.092,180.092,0,0,0,16.6,30.575,181.251,181.251,0,0,0,21.979,26.64,181.2,181.2,0,0,0,26.64,21.979,179.96,179.96,0,0,0,30.574,16.6,179.166,179.166,0,0,0,33.788,10.489A181.337,181.337,0,0,0-8774-1265a181.334,181.334,0,0,0,36.276-3.657,179.144,179.144,0,0,0,33.788-10.489,180,180,0,0,0,30.574-16.6,181.3,181.3,0,0,0,26.64-21.979,181.275,181.275,0,0,0,21.979-26.64,179.957,179.957,0,0,0,16.6-30.575,179.044,179.044,0,0,0,10.488-33.788A181.3,181.3,0,0,0-8594-1445a181.31,181.31,0,0,0-3.657-36.276,179.057,179.057,0,0,0-10.488-33.788,180,180,0,0,0-16.6-30.575,181.249,181.249,0,0,0-21.979-26.64,181.253,181.253,0,0,0-26.64-21.979,180.03,180.03,0,0,0-30.574-16.6,179.138,179.138,0,0,0-33.788-10.488A181.334,181.334,0,0,0-8774-1625Zm-720-360a181.334,181.334,0,0,0-36.276,3.657,179.165,179.165,0,0,0-33.788,10.488,180.035,180.035,0,0,0-30.574,16.6,181.255,181.255,0,0,0-26.64,21.979,181.239,181.239,0,0,0-21.98,26.64,180.025,180.025,0,0,0-16.6,30.575,179,179,0,0,0-10.488,33.788A181.319,181.319,0,0,0-9674-1805a181.328,181.328,0,0,0,3.657,36.276,179.011,179.011,0,0,0,10.488,33.789,180.05,180.05,0,0,0,16.6,30.576,181.247,181.247,0,0,0,21.98,26.64,181.21,181.21,0,0,0,26.64,21.98,180.077,180.077,0,0,0,30.574,16.6,179.157,179.157,0,0,0,33.788,10.489A181.334,181.334,0,0,0-9494-1625a181.334,181.334,0,0,0,36.276-3.657,179.113,179.113,0,0,0,33.788-10.489,180,180,0,0,0,30.575-16.6,181.185,181.185,0,0,0,26.639-21.98,181.247,181.247,0,0,0,21.98-26.64,180.027,180.027,0,0,0,16.6-30.576,179.107,179.107,0,0,0,10.487-33.789A181.3,181.3,0,0,0-9314-1805a181.3,181.3,0,0,0-3.657-36.276,179.1,179.1,0,0,0-10.487-33.788,180.061,180.061,0,0,0-16.6-30.575,181.239,181.239,0,0,0-21.98-26.64,181.172,181.172,0,0,0-26.639-21.979,179.953,179.953,0,0,0-30.575-16.6,179.121,179.121,0,0,0-33.788-10.488A181.334,181.334,0,0,0-9494-1985Zm1080-180a181.351,181.351,0,0,0-36.277,3.657,179.165,179.165,0,0,0-33.788,10.488,180.01,180.01,0,0,0-30.574,16.6,181.191,181.191,0,0,0-26.64,21.979,181.269,181.269,0,0,0-21.979,26.64,179.985,179.985,0,0,0-16.6,30.575,179.032,179.032,0,0,0-10.488,33.788A181.3,181.3,0,0,0-8594-1985a181.307,181.307,0,0,0,3.657,36.277,179.029,179.029,0,0,0,10.488,33.788,179.916,179.916,0,0,0,16.6,30.575,181.2,181.2,0,0,0,21.979,26.639,181.2,181.2,0,0,0,26.64,21.979,179.94,179.94,0,0,0,30.574,16.6,179.094,179.094,0,0,0,33.788,10.488A181.351,181.351,0,0,0-8414-1805a181.334,181.334,0,0,0,36.276-3.657,179.138,179.138,0,0,0,33.788-10.488,180.046,180.046,0,0,0,30.574-16.6,181.3,181.3,0,0,0,26.64-21.979,181.228,181.228,0,0,0,21.979-26.639,179.957,179.957,0,0,0,16.6-30.575,179.056,179.056,0,0,0,10.488-33.788A181.312,181.312,0,0,0-8234-1985a181.3,181.3,0,0,0-3.657-36.276,179.043,179.043,0,0,0-10.488-33.788,179.967,179.967,0,0,0-16.6-30.575,181.281,181.281,0,0,0-21.979-26.64,181.293,181.293,0,0,0-26.64-21.979,180.038,180.038,0,0,0-30.574-16.6,179.165,179.165,0,0,0-33.788-10.488A181.334,181.334,0,0,0-8414-2165Zm-720-360a181.317,181.317,0,0,0-36.276,3.657,179.138,179.138,0,0,0-33.788,10.488,180.006,180.006,0,0,0-30.574,16.6,181.293,181.293,0,0,0-26.64,21.979,181.306,181.306,0,0,0-21.98,26.639,180.08,180.08,0,0,0-16.6,30.575,179.053,179.053,0,0,0-10.488,33.788A181.308,181.308,0,0,0-9314-2345a181.3,181.3,0,0,0,3.657,36.276,179.024,179.024,0,0,0,10.488,33.788,180.088,180.088,0,0,0,16.6,30.575,181.3,181.3,0,0,0,21.98,26.64,181.288,181.288,0,0,0,26.64,21.979,180.014,180.014,0,0,0,30.574,16.6,179.166,179.166,0,0,0,33.788,10.489A181.334,181.334,0,0,0-9134-2165a181.351,181.351,0,0,0,36.277-3.657,179.166,179.166,0,0,0,33.788-10.489,179.935,179.935,0,0,0,30.575-16.6,181.248,181.248,0,0,0,26.64-21.979,181.255,181.255,0,0,0,21.98-26.64,180.063,180.063,0,0,0,16.6-30.575,179.019,179.019,0,0,0,10.488-33.788A181.3,181.3,0,0,0-8954-2345a181.308,181.308,0,0,0-3.657-36.277,179.038,179.038,0,0,0-10.488-33.788,180.056,180.056,0,0,0-16.6-30.575,181.266,181.266,0,0,0-21.98-26.639,181.293,181.293,0,0,0-26.64-21.979,180.018,180.018,0,0,0-30.575-16.6,179.075,179.075,0,0,0-33.788-10.488A181.333,181.333,0,0,0-9134-2525Z" transform="translate(9794 2927)" fill="#fff"/>
</svg>
