<svg xmlns="http://www.w3.org/2000/svg" width="1710.002" height="2495.999" viewBox="0 0 1710.002 2495.999">
  <path id="holes" d="M-8204-431H-9914V-2927h1710V-431Zm-1245-678a151.1,151.1,0,0,0-30.23,3.047,149.227,149.227,0,0,0-28.156,8.74,150.063,150.063,0,0,0-25.479,13.83,151.041,151.041,0,0,0-22.2,18.317,151.087,151.087,0,0,0-18.316,22.2,150.046,150.046,0,0,0-13.83,25.48,149.3,149.3,0,0,0-8.739,28.157A151.079,151.079,0,0,0-9599-959a151.07,151.07,0,0,0,3.048,30.229,149.264,149.264,0,0,0,8.739,28.156,150.037,150.037,0,0,0,13.83,25.479,151.044,151.044,0,0,0,18.316,22.2,151.06,151.06,0,0,0,22.2,18.316,150.022,150.022,0,0,0,25.479,13.83,149.222,149.222,0,0,0,28.156,8.74A151.1,151.1,0,0,0-9449-809a151.116,151.116,0,0,0,30.23-3.048,149.266,149.266,0,0,0,28.156-8.74,150.04,150.04,0,0,0,25.479-13.83,151.06,151.06,0,0,0,22.2-18.316,151.044,151.044,0,0,0,18.316-22.2,149.9,149.9,0,0,0,13.83-25.479,149.2,149.2,0,0,0,8.74-28.156A151.07,151.07,0,0,0-9299-959a151.079,151.079,0,0,0-3.048-30.23,149.235,149.235,0,0,0-8.74-28.157,149.909,149.909,0,0,0-13.83-25.48,151.087,151.087,0,0,0-18.316-22.2,151.041,151.041,0,0,0-22.2-18.317,150.06,150.06,0,0,0-25.479-13.83,149.271,149.271,0,0,0-28.156-8.74A151.116,151.116,0,0,0-9449-1109Zm300-480a151.1,151.1,0,0,0-30.23,3.047,149.253,149.253,0,0,0-28.157,8.74,149.992,149.992,0,0,0-25.479,13.83,151.021,151.021,0,0,0-22.2,18.316,151.143,151.143,0,0,0-18.316,22.2,150.115,150.115,0,0,0-13.83,25.479,149.271,149.271,0,0,0-8.739,28.157A151.08,151.08,0,0,0-9299-1439a151.07,151.07,0,0,0,3.048,30.229,149.282,149.282,0,0,0,8.739,28.156,150.08,150.08,0,0,0,13.83,25.479,151.135,151.135,0,0,0,18.316,22.2,151.013,151.013,0,0,0,22.2,18.316,150.008,150.008,0,0,0,25.479,13.83,149.272,149.272,0,0,0,28.157,8.74A151.1,151.1,0,0,0-9149-1289a151.118,151.118,0,0,0,30.231-3.047,149.272,149.272,0,0,0,28.157-8.74,149.911,149.911,0,0,0,25.479-13.83,151.013,151.013,0,0,0,22.2-18.316,151.049,151.049,0,0,0,18.316-22.2,150.011,150.011,0,0,0,13.83-25.479,149.282,149.282,0,0,0,8.739-28.156A151.07,151.07,0,0,0-8999-1439a151.08,151.08,0,0,0-3.048-30.23,149.271,149.271,0,0,0-8.739-28.157,150.046,150.046,0,0,0-13.83-25.479,151.057,151.057,0,0,0-18.316-22.2,151.021,151.021,0,0,0-22.2-18.316,149.992,149.992,0,0,0-25.479-13.83,149.253,149.253,0,0,0-28.157-8.74A151.118,151.118,0,0,0-9149-1589Zm660-180a151.134,151.134,0,0,0-30.231,3.047,149.271,149.271,0,0,0-28.156,8.74,150.063,150.063,0,0,0-25.479,13.83,151.086,151.086,0,0,0-22.2,18.317,151.052,151.052,0,0,0-18.316,22.2,150.04,150.04,0,0,0-13.83,25.48,149.236,149.236,0,0,0-8.74,28.157A151.08,151.08,0,0,0-8639-1619a151.078,151.078,0,0,0,3.048,30.23,149.211,149.211,0,0,0,8.74,28.157,149.977,149.977,0,0,0,13.83,25.48,151.089,151.089,0,0,0,18.316,22.2,151.069,151.069,0,0,0,22.2,18.316,150.071,150.071,0,0,0,25.479,13.83,149.271,149.271,0,0,0,28.156,8.74A151.125,151.125,0,0,0-8489-1469a151.1,151.1,0,0,0,30.229-3.047,149.227,149.227,0,0,0,28.156-8.74,150,150,0,0,0,25.479-13.83,151.162,151.162,0,0,0,22.2-18.316,151.11,151.11,0,0,0,18.315-22.2,149.953,149.953,0,0,0,13.83-25.48,149.147,149.147,0,0,0,8.74-28.157A151.078,151.078,0,0,0-8339-1619a151.08,151.08,0,0,0-3.048-30.23,149.181,149.181,0,0,0-8.74-28.157,149.947,149.947,0,0,0-13.83-25.48,151.073,151.073,0,0,0-18.315-22.2,151.164,151.164,0,0,0-22.2-18.317,149.994,149.994,0,0,0-25.479-13.83,149.227,149.227,0,0,0-28.156-8.74A151.108,151.108,0,0,0-8489-1769Zm-1140-240a151.1,151.1,0,0,0-30.23,3.047,149.236,149.236,0,0,0-28.157,8.74,150,150,0,0,0-25.479,13.83,151.106,151.106,0,0,0-22.2,18.316,151.1,151.1,0,0,0-18.316,22.2,150.041,150.041,0,0,0-13.83,25.48,149.236,149.236,0,0,0-8.74,28.157A151.078,151.078,0,0,0-9779-1859a151.07,151.07,0,0,0,3.048,30.229,149.2,149.2,0,0,0,8.74,28.156,150.037,150.037,0,0,0,13.83,25.479,151.088,151.088,0,0,0,18.316,22.2,151.056,151.056,0,0,0,22.2,18.316,150.017,150.017,0,0,0,25.479,13.83,149.262,149.262,0,0,0,28.157,8.74A151.11,151.11,0,0,0-9629-1709a151.11,151.11,0,0,0,30.23-3.047,149.262,149.262,0,0,0,28.157-8.74,150.059,150.059,0,0,0,25.479-13.83,151.028,151.028,0,0,0,22.2-18.316,151.076,151.076,0,0,0,18.316-22.2,149.939,149.939,0,0,0,13.83-25.479,149.139,149.139,0,0,0,8.74-28.156A151.07,151.07,0,0,0-9479-1859a151.078,151.078,0,0,0-3.048-30.23,149.178,149.178,0,0,0-8.74-28.157,149.948,149.948,0,0,0-13.83-25.48,151.077,151.077,0,0,0-18.316-22.2,151.012,151.012,0,0,0-22.2-18.316,149.994,149.994,0,0,0-25.479-13.83,149.281,149.281,0,0,0-28.157-8.74A151.1,151.1,0,0,0-9629-2009Zm780-240a151.119,151.119,0,0,0-30.23,3.047,149.281,149.281,0,0,0-28.157,8.74,149.994,149.994,0,0,0-25.479,13.83,151.083,151.083,0,0,0-22.2,18.316,151.067,151.067,0,0,0-18.316,22.2,150.02,150.02,0,0,0-13.83,25.479,149.242,149.242,0,0,0-8.74,28.157A151.08,151.08,0,0,0-8999-2099a151.079,151.079,0,0,0,3.048,30.23,149.228,149.228,0,0,0,8.74,28.157,150,150,0,0,0,13.83,25.479,151.111,151.111,0,0,0,18.316,22.2,151.1,151.1,0,0,0,22.2,18.316,150,150,0,0,0,25.479,13.83,149.253,149.253,0,0,0,28.157,8.74A151.1,151.1,0,0,0-8849-1949a151.1,151.1,0,0,0,30.229-3.048,149.218,149.218,0,0,0,28.156-8.74,149.975,149.975,0,0,0,25.479-13.83,151.073,151.073,0,0,0,22.2-18.316,151.152,151.152,0,0,0,18.315-22.2,150.075,150.075,0,0,0,13.83-25.479,149.286,149.286,0,0,0,8.739-28.157A151.079,151.079,0,0,0-8699-2099a151.08,151.08,0,0,0-3.048-30.23,149.305,149.305,0,0,0-8.739-28.157,150.044,150.044,0,0,0-13.83-25.479,151.114,151.114,0,0,0-18.315-22.2,151.178,151.178,0,0,0-22.2-18.316,149.945,149.945,0,0,0-25.479-13.83,149.228,149.228,0,0,0-28.156-8.74A151.116,151.116,0,0,0-8849-2249Zm-540-300a151.1,151.1,0,0,0-30.229,3.048,149.218,149.218,0,0,0-28.156,8.74,149.967,149.967,0,0,0-25.479,13.83,151.07,151.07,0,0,0-22.2,18.316,151.064,151.064,0,0,0-18.316,22.2,150.081,150.081,0,0,0-13.83,25.479,149.273,149.273,0,0,0-8.739,28.157A151.08,151.08,0,0,0-9539-2399a151.068,151.068,0,0,0,3.048,30.229,149.289,149.289,0,0,0,8.739,28.157,150.039,150.039,0,0,0,13.83,25.479,151.119,151.119,0,0,0,18.316,22.2,151.085,151.085,0,0,0,22.2,18.316,149.911,149.911,0,0,0,25.479,13.83,149.209,149.209,0,0,0,28.156,8.74A151.1,151.1,0,0,0-9389-2249a151.1,151.1,0,0,0,30.23-3.048,149.263,149.263,0,0,0,28.157-8.74,149.959,149.959,0,0,0,25.479-13.83,151.112,151.112,0,0,0,22.2-18.316,151.122,151.122,0,0,0,18.315-22.2,150.032,150.032,0,0,0,13.83-25.479,149.221,149.221,0,0,0,8.74-28.157A151.068,151.068,0,0,0-9239-2399a151.08,151.08,0,0,0-3.048-30.23,149.215,149.215,0,0,0-8.74-28.157,149.965,149.965,0,0,0-13.83-25.479,151.142,151.142,0,0,0-18.315-22.2,151.1,151.1,0,0,0-22.2-18.316,150,150,0,0,0-25.479-13.83,149.253,149.253,0,0,0-28.157-8.74A151.1,151.1,0,0,0-9389-2549Z" transform="translate(9914.001 2927)" fill="#fff"/>
</svg>
