<svg xmlns="http://www.w3.org/2000/svg" width="1800" height="2460.001" viewBox="0 0 1800 2460.001">
  <path id="Subtraction_91" data-name="Subtraction 91" d="M-7994-467H-9794V-2927h1800V-467Zm-540-960-360,180v180l360-180v-180Zm-1080-360v360h360a365.807,365.807,0,0,0-1.858-36.811,361.065,361.065,0,0,0-5.455-35.744,358.285,358.285,0,0,0-20.977-67.576,360.029,360.029,0,0,0-33.191-61.151,362.638,362.638,0,0,0-43.958-53.279,362.615,362.615,0,0,0-53.28-43.959,360.052,360.052,0,0,0-61.15-33.192,358.2,358.2,0,0,0-67.576-20.977,360.966,360.966,0,0,0-35.744-5.455A365.865,365.865,0,0,0-9614-1787Zm1260-180v360h.013a181.284,181.284,0,0,0,36.265-3.656,179.112,179.112,0,0,0,33.787-10.488,180.03,180.03,0,0,0,30.575-16.6,181.286,181.286,0,0,0,26.64-21.979,181.274,181.274,0,0,0,21.979-26.64,180.084,180.084,0,0,0,16.6-30.575,179.1,179.1,0,0,0,10.488-33.788A181.317,181.317,0,0,0-8174-1787a181.32,181.32,0,0,0-3.657-36.277,179.106,179.106,0,0,0-10.488-33.788,180.033,180.033,0,0,0-16.6-30.576,181.227,181.227,0,0,0-21.979-26.639,181.286,181.286,0,0,0-26.64-21.979,179.978,179.978,0,0,0-30.575-16.6,179.12,179.12,0,0,0-33.787-10.488A181.351,181.351,0,0,0-8354-1967Zm-900-360v180a181.366,181.366,0,0,1,36.274,3.657,179.073,179.073,0,0,1,33.79,10.488,179.922,179.922,0,0,1,30.574,16.6,181.305,181.305,0,0,1,26.64,21.979,181.283,181.283,0,0,1,21.979,26.64,179.991,179.991,0,0,1,16.6,30.575,178.964,178.964,0,0,1,10.488,33.79A181.338,181.338,0,0,1-9074-1967h180a362.8,362.8,0,0,0-7.314-72.552,358.144,358.144,0,0,0-20.977-67.574,359.929,359.929,0,0,0-33.192-61.152,362.328,362.328,0,0,0-43.958-53.279,362.282,362.282,0,0,0-53.279-43.961,360.294,360.294,0,0,0-61.149-33.19,358.228,358.228,0,0,0-67.577-20.979A362.737,362.737,0,0,0-9254-2327Z" transform="translate(9794 2927)" fill="#fff"/>
</svg>
