<svg xmlns="http://www.w3.org/2000/svg" xmlns:xlink="http://www.w3.org/1999/xlink" width="30" height="30" viewBox="0 0 30 30">
  <defs>
    <clipPath id="clip-s">
      <rect width="30" height="30"/>
    </clipPath>
  </defs>
  <g id="s" clip-path="url(#clip-s)">
    <path id="Path_21" data-name="Path 21" d="M-1175.283,37.809a11.354,11.354,0,0,1-2.736-4.468,11.32,11.32,0,0,1-4.506-2.774,11.39,11.39,0,0,1,0-16.092,11.3,11.3,0,0,1,8.046-3.334,11.3,11.3,0,0,1,8.047,3.334,11.357,11.357,0,0,1,2.736,4.467,11.325,11.325,0,0,1,4.505,2.775,11.392,11.392,0,0,1,0,16.092,11.3,11.3,0,0,1-8.046,3.333A11.3,11.3,0,0,1-1175.283,37.809Zm1.609-1.609a9.044,9.044,0,0,0,6.438,2.666A9.043,9.043,0,0,0-1160.8,36.2a9.114,9.114,0,0,0,0-12.874,9.044,9.044,0,0,0-6.437-2.667,9.045,9.045,0,0,0-6.438,2.667,1.137,1.137,0,0,1-1.609,0,1.137,1.137,0,0,1,0-1.609,11.3,11.3,0,0,1,8.047-3.334q.432,0,.86.032a8.68,8.68,0,0,0-1.665-2.331,9.045,9.045,0,0,0-6.438-2.667,9.044,9.044,0,0,0-6.437,2.667,9.114,9.114,0,0,0,0,12.874,9.043,9.043,0,0,0,6.437,2.666,9.044,9.044,0,0,0,6.438-2.666,1.137,1.137,0,0,1,1.609,0,1.137,1.137,0,0,1,0,1.609,11.3,11.3,0,0,1-8.047,3.333q-.433,0-.86-.032A8.7,8.7,0,0,0-1173.675,36.2Z" transform="translate(1185.853 -11.142)" fill="#707070"/>
  </g>
</svg>
