<svg xmlns="http://www.w3.org/2000/svg" width="26" height="26" viewBox="0 0 26 26">
  <path id="Path_76" data-name="Path 76" d="M-1789-366a9.01,9.01,0,0,1-9-9v-8a9.01,9.01,0,0,1,9-9h8a9.01,9.01,0,0,1,9,9v8a9.01,9.01,0,0,1-9,9Zm-7-9a7.008,7.008,0,0,0,7,7h8a7.008,7.008,0,0,0,7-7,7.008,7.008,0,0,0-7-7h-8a1,1,0,0,1-1-1,1,1,0,0,1,1-1h8a8.988,8.988,0,0,1,7,3.349V-383a7.008,7.008,0,0,0-7-7h-8a7.008,7.008,0,0,0-7,7,7.008,7.008,0,0,0,7,7h8a1,1,0,0,1,1,1,1,1,0,0,1-1,1h-8a8.988,8.988,0,0,1-7-3.349Z" transform="translate(1798 392)" fill="#707070"/>
</svg>
