<svg xmlns="http://www.w3.org/2000/svg" width="880" height="348.592" viewBox="0 0 880 348.592">
  <defs>
    <style>
      .cls-1 {
        fill: #00008b;
      }
    </style>
  </defs>
  <g id="Group_4" data-name="Group 4" transform="translate(-232.471 -403.979)">
    <path id="Path_10" data-name="Path 10" class="cls-1" d="M232.471,645.531h75.78c1.422,32.68,12.789,48.783,45.943,48.783,24.629,0,38.837-13.26,38.837-37.889,0-27.945-15.63-36.469-54.467-47.837C270.835,588.222,239.1,562.645,239.1,500.6c0-57.784,42.152-96.621,110.829-96.621s109.408,31.26,112.724,98.516H388.769c-1.895-29.365-16.1-40.259-39.312-40.259-22.734,0-35.048,12.314-35.048,32.68,0,23.209,10.894,32.681,50.678,44.522,62.52,17.523,104.673,39.312,104.673,109.41,0,62.993-42.627,103.724-115.566,103.724C276.518,752.571,234.364,717.05,232.471,645.531Z" transform="translate(0 0)"/>
    <path id="Path_11" data-name="Path 11" class="cls-1" d="M564.879,675.843H472.521l-15.63,69.624H383.952l86.2-338.646H576.719l85.727,338.646H580.507Zm-79.571-55.414h66.784l-33.63-147.774Z" transform="translate(100.96 1.894)"/>
    <path id="Path_12" data-name="Path 12" class="cls-1" d="M571.529,406.821H672.411l56.837,189.453,56.362-189.453H886.494V745.467h-78.15V519.545L736.827,745.467H712.2L641.153,519.545V745.467H571.529Z" transform="translate(225.977 1.894)"/>
  </g>
</svg>
