<svg xmlns="http://www.w3.org/2000/svg" width="880" height="510.564" viewBox="0 0 880 510.564">
  <defs>
    <style>
      .cls-1 {
        fill: #00008b;
      }
    </style>
  </defs>
  <g id="Group_3" data-name="Group 3" transform="translate(-231.049 -408.242)">
    <path id="Path_7" data-name="Path 7" class="cls-1" d="M231.049,794V765.637H304.8v34.037c0,35.457,15.6,48.219,40.42,48.219s41.131-12.762,41.131-49.637c0-41.131-17.019-66.658-68.077-111.331-65.238-57.438-87.222-98.567-87.222-155.3,0-78,40.422-123.385,116.3-123.385s113.46,45.385,113.46,124.8v20.564H387.057V528.081c0-35.455-14.182-48.928-39-48.928s-39.711,13.473-39.711,47.511c0,36.166,17.73,61.7,68.786,106.369,65.238,57.436,86.513,97.858,86.513,159.551,0,80.84-41.131,126.222-117.714,126.222S231.049,873.423,231.049,794Z" transform="translate(0 0)"/>
    <path id="Path_8" data-name="Path 8" class="cls-1" d="M508.086,810.319H418.027l-13.473,97.147H332.225l80.839-496.382H518.722l80.84,496.382h-78Zm-9.928-67.366L462.7,492.635,427.955,742.952Z" transform="translate(151.263 4.249)"/>
    <path id="Path_9" data-name="Path 9" class="cls-1" d="M454.147,411.084H564.061l51.765,360.232,51.767-360.232H777.507V907.466H703.756V531.632L645.612,907.466h-65.24L522.224,531.632V907.466H454.147Z" transform="translate(333.542 4.249)"/>
  </g>
</svg>
