<?xml version="1.0" encoding="utf-8"?>
<!-- Generator: Adobe Illustrator 25.3.1, SVG Export Plug-In . SVG Version: 6.00 Build 0)  -->
<svg version="1.1" id="Layer_1" xmlns="http://www.w3.org/2000/svg" xmlns:xlink="http://www.w3.org/1999/xlink" x="0px" y="0px"
	 viewBox="0 0 1152 660.4" style="enable-background:new 0 0 1152 660.4;" xml:space="preserve">
<style type="text/css">
	.st0{display:none;fill:#00307F;}
	.st1{display:none;}
	.st2{display:inline;fill:#231F20;}
	.st3{fill:#231F20;}
</style>
<path id="Path_5" class="st0" d="M143.1,660.4c93.6,0,145.8-56.9,145.8-156.8c0-78-28.4-129.3-116.5-202.7
	C96.3,238.5,70.6,201.8,70.6,148.6c0-55.9,27.5-83.5,73.4-83.5c46.8,0,73.4,27.5,73.4,85.3v30.3h67.9V155C285.2,56.9,236.6,0,144,0
	S0,56.9,0,153.2C0,225.6,29.3,277,118.3,350.4c74.3,61.5,99.1,99.1,99.1,158.7c0,58.7-28.4,86.2-75.2,86.2
	c-45.9,0-74.3-27.5-74.3-85.3v-41.3H0v35.8C0,603.5,49.5,660.4,143.1,660.4z M619.1,651.2c-6.4-26.6-10.1-67.9-10.1-125.7V320.1
	c0-91.7-39.4-139.4-127.5-139.4c-82.5,0-130.2,47.7-130.2,133.9v10.1h65.1v-13.8c0-45.9,23.8-70.6,64.2-70.6
	c39.4,0,59.6,22.9,59.6,68.8v11c0,31.2-10.1,40.4-87.1,75.2c-83.5,39.4-114.6,79.8-114.6,151.3c0,69.7,39.4,113.7,102.7,113.7
	c51.4,0,89-25.7,107.3-71.5c1.8,29.3,4.6,53.2,7.3,62.4L619.1,651.2z M465,599.8c-37.6,0-56.9-22.9-56.9-63.3
	c0-40.4,19.3-67.9,65.1-90.8c39.4-20.2,57.8-31.2,67-43.1v92.6C540.2,561.3,511.8,599.8,465,599.8z M1048.3,180.7
	c-44.9,0-79.8,24.8-98.1,67.9c-14.7-46.8-47.7-67.9-95.4-67.9c-45.9,0-80.7,25.7-99.1,69.7l-0.9-60.5h-59.6v461.3H764V344.9
	c0-67.9,29.3-102.7,69.7-102.7c39.4,0,55,28.4,55,72.5v336.6h69.7V344.9c0-67.9,29.3-102.7,69.7-102.7c39.4,0,55,28.4,55,72.5v336.6
	h68.8V310C1152,221,1113.5,180.7,1048.3,180.7L1048.3,180.7z"/>
<g>
	<g class="st1">
		<path class="st2" d="M86.1,482.3V502c2.3,63.2,28.2,104.9,84.8,104.9c55.7,0,81.1-34.4,81.1-107.3c0-71.1-21.4-103.7-97.3-150.9
			C71.6,297.8,32.9,260.3,32.9,167C32.9,83,72,9.5,172.9,9.8c106.7,0.3,136.2,73.6,137,152.9v15.6h-67v-14.7
			c-1.5-43.6-11.6-96-71.8-96c-52.3,0-70.4,40.5-70.4,91.3c0,60.7,19,85.9,87.3,127.5c98.6,60.2,132.7,104.5,132.7,205.6
			c0,94.6-39.7,172.5-151.3,172.5C55.7,664.5,20.5,590,18.2,501.9v-19.6H86.1z"/>
		<path class="st2" d="M643.7,572.5c0,31.6,1.4,68.9,2.8,83.4h-62c-2.5-11.4-4.6-33.5-4.8-46.2c-16.4,37.5-49.2,54.2-94.4,54.2
			c-79.7,0-109.9-66.1-109.9-137.1v-4.6c0-98.8,63.1-150.2,167-150.2c13.9,0,23.4,0,34.7,0.7v-71.5c0-41-7.4-77.7-57.8-77.7
			c-52.4,0-60.4,38.4-61.7,74.2v7.4H392v-7c0.9-67.7,30.2-130.8,129.5-130.8c87.8,0,122.2,49.3,122.2,127.9V572.5z M578.6,426.2
			c-8.8-0.9-21.2-1.1-34.7-1.1c-68.8,0-102.3,31.3-102.3,93.8v4.4c0,43.8,17.7,81.9,62,81.9c56.7,0,75.1-42.8,75.1-127.8V426.2z"/>
		<path class="st2" d="M745.4,316.1c0-86,0-118-0.9-141.1h64.2c2.1,13.9,2.4,33.9,2.6,52.4c16.4-36.7,46.2-60.2,93.6-60.2
			c43,0,73.4,18.1,85.8,63c15.8-33.8,46-63,101.1-63c52.7,0,102.1,24.5,102.1,125.3v363.3h-66.8V305.3c0-42.7-10.3-77.5-55.6-77.5
			c-52.8,0-68,47.1-68,105.1v323.1h-67.1V308.4c0-55.5-16.1-80.5-55.7-80.5c-50.5,0-68.3,46.8-68.3,110.4v317.6h-66.9V316.1z"/>
	</g>
</g>
<g>
	<g class="st1">
		<path class="st2" d="M89.1,648.3c-19-6.8-34.9-17.3-47.8-31.5c-12.9-14.2-22.5-31.3-28.9-51.3c-6.4-20-9.4-42.9-9.1-68.7v-34.8
			h17.4v33.9c0,25.5,3,47.5,9.1,66.1c6.1,18.6,14.9,33.9,26.5,46.1c11.6,12.2,25.8,21.2,42.6,27c16.8,5.8,35.8,8.7,57,8.7
			c10.7,0,21.4-0.9,32-2.6c10.6-1.7,20.4-4.4,29.4-8c9-3.6,17.5-8.7,25.4-15.2c8-6.5,14.7-14.5,20.2-23.9c5.5-9.4,10-20.4,13.5-33
			c3.5-12.6,5.2-27,5.2-43.3v-33.9c0-20.3-2.3-37.8-7-52.4c-4.6-14.6-11.3-27.4-20-38.3c-8.7-10.9-19.4-20.7-32-29.4
			c-12.6-8.7-27.3-17.1-44.1-25.2l-62.6-33.5c-16.8-8.4-31.6-17.1-44.4-26.1c-12.8-9-23.4-19-32-30c-8.6-11-15-23.8-19.4-38.5
			c-4.3-14.6-6.5-31.7-6.5-51.1v-31.3c0-13.6,1.6-26.2,4.8-37.8c3.2-11.6,7.7-22.1,13.5-31.5c5.8-9.4,12.8-17.7,21.1-24.8
			c8.3-7.1,17.5-12.9,27.6-17.4c10.1-4.5,21.2-7.9,33.3-10.2c12-2.3,24.4-3.5,37.2-3.5c20.3,0,38.9,2.6,55.9,7.8
			s31.5,13.4,43.5,24.6c12,11.2,21.4,25.7,28,43.5c6.7,17.8,10,38.9,10,63.3v34.4h-17.4v-34.4c0.6-23.5-2.4-43.2-8.9-59.1
			c-6.5-15.9-15.4-28.8-26.5-38.5c-11.2-9.7-24.1-16.6-38.7-20.7c-14.6-4.1-29.9-6.1-45.9-6.1c-11.3,0-22.1,0.9-32.4,2.8
			c-10.3,1.9-19.9,4.7-28.9,8.5c-9,3.8-17,8.8-24.1,15c-7.1,6.2-13.1,13.5-18,21.7c-4.9,8.3-8.8,17.5-11.5,27.6
			c-2.8,10.2-4.1,22-4.1,35.7v30.4c0,16.5,1.6,31.1,4.8,43.7c3.2,12.6,8.5,24.1,16.1,34.4c7.5,10.3,17.2,19.6,29.1,27.8
			c11.9,8.3,26.1,16.6,42.6,25l62.6,33.5c16.5,8.1,31.8,16.8,45.9,26.1c14.1,9.3,26,20.1,35.9,32.4c9.9,12.3,17.2,26.5,22.2,42.6
			c4.9,16.1,7.4,35.4,7.4,58.1v33.5c0,25.8-3.5,47.6-10.4,65.4c-7,17.8-16.7,32.5-29.4,43.9c-12.6,11.5-27.8,19.8-45.7,25
			c-17.8,5.2-36.7,7.8-56.7,7.8C130.5,658.5,108.1,655.1,89.1,648.3z"/>
		<path class="st2" d="M445,651.5c-13.3-4.6-25-11.7-35-21.3c-10-9.6-17.6-21.5-22.8-35.7c-5.2-14.2-7.8-30.9-7.8-50v-32.2
			c0-11.6,0.9-22.1,2.6-31.5c1.7-9.4,4.6-18,8.7-25.9c4.1-7.8,9.2-14.9,15.4-21.3c6.2-6.4,13.8-12,22.6-17c8.8-4.9,19.1-9.3,30.7-13
			c11.6-3.8,24.8-7.4,39.6-10.9c18.3-3.8,34.4-7.3,48.5-10.7c14.1-3.3,25.7-7.2,34.8-11.5c9.1-4.3,16.2-9.3,21.1-14.8
			c4.9-5.5,7.4-12.3,7.4-20.4v-33.9c0.3-19.1-2.2-34.9-7.4-47.2c-5.2-12.3-12.1-22.1-20.7-29.4c-8.6-7.2-18.9-12.4-31.1-15.4
			c-12.2-3-24.9-4.6-38.3-4.6c-12.8,0-25.4,1.5-38,4.3c-12.6,2.9-23.8,8.3-33.5,16.1c-9.7,7.8-17.7,18.6-23.9,32.2
			c-6.2,13.6-9.3,30.9-9.3,51.7v16.1H392v-15.7c0-23.2,3.3-42.2,10-57.2c6.7-14.9,15.6-27,26.7-36.1c11.2-9.1,24.1-15.7,38.7-19.6
			c14.6-3.9,29.9-5.9,45.9-5.9c17.4,0,33.1,1.9,47.2,5.7c14.1,3.8,25.9,10.1,35.7,18.9c9.7,8.8,17.2,20.4,22.4,34.6
			c5.2,14.2,8,32,8.3,53.5l-0.9,232.7c0.6,13.3,0.9,25.5,0.9,36.5c0,11,0,21.2,0,30.4c0,9.3,0.4,17.7,1.1,25.2
			c0.7,7.5,0.9,14.8,0.7,21.7h-16.1c-0.3-6.7-0.5-12.9-0.7-18.7c-0.1-5.8-0.4-11.5-0.7-17.2c-0.3-5.7-0.5-11.6-0.7-17.8
			c-0.1-6.2-0.2-12.4-0.2-18.5c-4.9,13-11.4,24.6-19.4,34.8c-8,10.2-17.3,18.7-27.8,25.7c-10.6,7-22,12-34.1,15.2
			c-12.2,3.2-24.8,4.8-37.8,4.8C473.7,658.5,458.4,656.2,445,651.5z M523.8,640.6c9.6-2.3,18.6-5.7,27.2-10.2
			c8.5-4.5,16.4-10.4,23.7-17.8c7.2-7.4,13.4-16,18.5-25.9c5.1-9.9,9.1-20.9,12-33.3c2.9-12.3,4.3-25.7,4.3-40.2l0.4-145.2
			c-3.8,4.3-8.9,8.3-15.4,12c-6.5,3.6-14.3,7-23.3,10c-9,3-19.3,5.9-30.9,8.5c-11.6,2.6-24.4,5.4-38.3,8.3
			c-13,3.2-24.4,6.3-34.1,9.3c-9.7,3-18.5,6.7-26.3,10.9c-7.8,4.2-14.6,9-20.4,14.4c-5.8,5.4-10.5,11.5-14.1,18.5
			c-3.6,7-6.3,14.7-8,23.3c-1.7,8.6-2.6,18.5-2.6,29.8v30.9c0,17.1,2.5,31.8,7.4,44.1c4.9,12.3,11.5,22.8,19.8,31.3
			c8.3,8.6,18.5,14.9,30.9,18.9c12.3,4.1,25.9,6.1,40.7,6.1C504.6,644.1,514.2,643,523.8,640.6z"/>
		<path class="st2" d="M706.8,197.1h17v70.4c3.5-11.6,8.4-22.2,14.8-32c6.4-9.7,13.8-17.8,22.4-24.4c8.5-6.5,18.5-11.5,30-15
			c11.4-3.5,24.4-5.2,38.9-5.2c13,0,25.4,1.8,37.2,5.4c11.7,3.6,22.2,9.1,31.5,16.5c9.3,7.4,17.3,17.1,24.1,29.1
			c6.8,12,12.1,26.3,15.9,42.8c3.5-16.2,8.8-30.2,15.9-42c7.1-11.7,15.6-21.5,25.4-29.4c9.9-7.8,20.7-13.5,32.4-17.2
			c11.7-3.6,24.9-5.4,39.4-5.4c16.8,0,32.3,2.8,46.5,8.3c14.2,5.5,26.3,14.4,36.3,26.7c10,12.3,17.9,28.1,23.7,47.4
			c5.8,19.3,8.7,43,8.7,71.1v305.7h-16.5V345.8c0-24.6-2.5-45.9-7.4-63.7c-4.9-17.8-11.8-32.4-20.7-43.7
			c-8.8-11.3-19.6-19.6-32.4-24.8c-12.8-5.2-26.8-7.8-42.2-7.8c-15.7,0-29.7,2.5-42.2,7.6c-12.5,5.1-23.3,13.4-32.4,25
			c-9.1,11.6-16.1,26.2-20.9,43.7c-4.8,17.5-7.2,38.9-7.2,64.1v130.9v173.1h-16.5V477.1V345.8c0-24.6-2.5-45.9-7.4-63.7
			c-4.9-17.8-11.9-32.4-20.9-43.7c-9-11.3-19.7-19.6-32.2-24.8c-12.5-5.2-26.5-7.8-42.2-7.8c-15.4,0-29.3,2.6-41.7,7.8
			c-12.5,5.2-23.3,13.6-32.6,25.2c-9.3,11.6-16.2,26.1-20.9,43.5c-4.6,17.4-7,38.7-7,63.9v304h-17V197.1z"/>
	</g>
</g>
<g>
	<g>
		<path class="st3" d="M81.9,650.9c-20.6-6.8-37.7-17.1-51.3-30.9c-13.6-13.8-24-30.9-31.1-51.3c-7.1-20.4-10.8-43.8-11.1-70.2
			v-57.8h94.8v57c0,16.2,1.8,30,5.4,41.3c3.6,11.3,8.5,20.4,14.8,27.4c6.2,7,13.6,12.1,22.2,15.4c8.5,3.3,17.8,5,27.6,5
			c5.8,0,11.4-0.4,16.7-1.3c5.4-0.9,10.6-2.4,15.7-4.6c5.1-2.2,9.7-4.9,13.9-8c4.2-3.2,7.8-7.4,10.9-12.6c3-5.2,5.4-11.2,7.2-18
			c1.7-6.8,2.6-14.6,2.6-23.3v-48.7c0-12.5-1.3-23.3-3.9-32.4c-2.6-9.1-6.5-17.3-11.5-24.6c-5.1-7.2-11.5-13.6-19.1-19.1
			c-7.7-5.5-16.6-11-26.7-16.5l-61.8-29.1C80.9,340.6,66.2,332.1,53,323c-13.2-9.1-24.4-19.9-33.5-32.4c-9.1-12.5-15.9-27-20.4-43.7
			c-4.5-16.7-6.7-36.2-6.7-58.5v-49.1c0-14.8,1.5-28.4,4.6-40.9c3-12.5,7.8-23.8,14.1-34.1C17.4,54,25,44.8,33.9,36.8
			c8.8-8,19-14.7,30.4-20.2C75.8,11.1,88.4,7,102.2,4.2c13.8-2.8,28.5-4.1,44.1-4.1c24.6,0,46.7,2.8,66.1,8.3
			c19.4,5.5,35.9,14.6,49.6,27.4c13.6,12.8,23.8,28.9,30.4,48.3c6.7,19.4,10.1,42.9,10.4,70.4v57.8h-93.9v-57
			c0-15.7-1.7-28.7-5-39.1c-3.3-10.4-8-18.8-13.9-25c-5.9-6.2-13-10.6-21.1-13c-8.1-2.5-16.2-3.7-24.4-3.7c-4.9,0-10,0.5-15.2,1.5
			c-5.2,1-10.1,2.6-14.6,4.8c-4.5,2.2-8.4,4.8-11.7,7.8c-3.3,3-6.3,6.7-8.9,11.1s-4.8,9.6-6.5,15.7c-1.7,6.1-2.6,13-2.6,20.9v45.2
			c0,11.6,1.2,21.7,3.5,30.2c2.3,8.6,6,16.2,11.1,23c5.1,6.8,11,13,17.8,18.5c6.8,5.5,15,10.6,24.6,15.2l61.3,29.1
			c16.8,8.1,32.1,16.8,45.9,26.1c13.8,9.3,25.4,20.1,35,32.4c9.6,12.3,16.8,26.9,21.7,43.7c4.9,16.8,7.4,37.1,7.4,60.9v52.2
			c0,23.8-3.4,44.8-10.2,63.1c-6.8,18.3-17,33.7-30.7,46.3c-13.6,12.6-30.4,22.3-50.2,28.9c-19.9,6.7-42.8,10-68.9,10
			C126.3,661.1,102.5,657.7,81.9,650.9z"/>
		<path class="st3" d="M429.6,652.6c-13.5-4.8-25-12-34.6-21.7c-9.6-9.7-16.8-22-21.7-36.7c-4.9-14.8-7.4-31.6-7.4-50.4v-53.9
			c0-11,1.1-21.3,3.3-30.9c2.2-9.6,5.5-18.3,10-26.1c4.5-7.8,10.2-14.9,17.2-21.3c7-6.4,15.3-12,25-17c9.7-4.9,20.9-9.4,33.7-13.5
			c12.8-4.1,27.1-7.7,43.1-10.9c14.5-2.6,26.1-5.2,34.8-7.8c8.7-2.6,15.3-5.7,19.8-9.1c4.5-3.5,7.3-7.9,8.5-13.3
			c1.2-5.4,1.7-12.2,1.7-20.7v-29.1c0-8.4-1.1-15.4-3.3-21.1s-5.3-10.1-9.3-13.5c-4.1-3.3-8.8-5.7-14.4-7c-5.5-1.3-11.6-2-18.3-2
			c-6.4,0-12.5,0.9-18.3,2.6c-5.8,1.7-10.9,4.9-15.2,9.3c-4.3,4.5-7.9,10.7-10.7,18.5c-2.8,7.8-4.1,17.7-4.1,29.6v20h-90.5v-18.3
			c0-20.3,3.3-38.1,9.8-53.5c6.5-15.4,15.7-28.2,27.4-38.5c11.7-10.3,26.2-18.1,43.3-23.5c17.1-5.4,36.4-8,57.8-8
			c23.5,0,43.7,2,60.7,6.1c17,4.1,31,10.8,42.2,20.2c11.2,9.4,19.4,21.6,24.6,36.5c5.2,14.9,7.8,33.7,7.8,56.3v240
			c0,11.6-0.1,22.3-0.2,32.2c-0.1,9.9,0,19,0.4,27.4c0.4,8.4,0.9,16.4,1.5,23.9c0.6,7.5,1.3,15.1,2.2,22.6h-88.3
			c-0.3-3.8-0.6-7.3-0.9-10.7c-0.3-3.3-0.4-6.7-0.4-10c0-3.3-0.1-6.6-0.2-9.8c-0.1-3.2-0.4-6.8-0.7-10.9
			c-3.8,7.5-8.5,14.5-14.1,20.9c-5.7,6.4-12.3,11.7-19.8,15.9c-7.5,4.2-16.2,7.6-25.9,10.2c-9.7,2.6-20.1,3.9-31.1,3.9
			C458.2,659.8,443.1,657.4,429.6,652.6z M524.8,593.7c4.8-1.4,9.2-3.6,13.3-6.5c4.1-2.9,7.6-6.4,10.7-10.4c3-4.1,5.6-8.5,7.6-13.5
			c2-4.9,3.5-10.4,4.6-16.5c1-6.1,1.5-12.5,1.5-19.1V414.5c-2.6,0.3-5.5,0.9-8.7,2c-3.2,1-6.8,2.2-10.9,3.5
			c-4.1,1.3-8.5,2.7-13.3,4.1c-4.8,1.5-10.5,3.2-17.2,5.2c-6.4,2-12,4.1-17,6.1c-4.9,2-9.3,4.3-13,6.7c-3.8,2.5-6.9,5.1-9.3,7.8
			c-2.5,2.8-4.6,6-6.3,9.8c-1.7,3.8-3,7.9-3.9,12.4c-0.9,4.5-1.3,9.5-1.3,15v52.2c0,10.2,1.2,18.8,3.7,26.1
			c2.5,7.2,5.8,13.1,10,17.6c4.2,4.5,9.2,7.8,15,9.8c5.8,2,11.9,3,18.3,3C514.6,595.9,520.1,595.1,524.8,593.7z"/>
		<path class="st3" d="M733.8,197.1H826v36.5c3.8-6.7,8.5-12.8,14.1-18.5c5.7-5.7,12-10.4,19.1-14.4c7.1-3.9,15.2-7.2,24.4-9.8
			c9.1-2.6,18.6-3.9,28.5-3.9c11,0,21.2,1.1,30.4,3.3c9.3,2.2,17.6,5.5,25,10c7.4,4.5,13.9,10.1,19.6,16.7
			c5.7,6.7,10.4,14.8,14.1,24.4c5.2-9,11.3-16.9,18.3-23.7c7-6.8,14.6-12.6,23-17.4c8.4-4.8,17.3-8.2,26.7-10.2c9.4-2,18.9-3,28.5-3
			c17.1,0,31.9,2.4,44.4,7.2c12.5,4.8,23,12.5,31.5,23c8.5,10.6,14.9,23.9,19.1,40c4.2,16.1,6.3,36,6.3,59.8v333.1H1106V332.3
			c0-12.8-1-23.8-3-33c-2-9.3-4.9-16.9-8.7-22.8c-3.8-5.9-8.6-10.3-14.6-13c-5.9-2.8-12.8-4.1-20.7-4.1c-7.8,0-14.7,1.4-20.7,4.1
			c-5.9,2.8-10.8,7.1-14.6,13c-3.8,5.9-6.7,13.6-8.7,22.8c-2,9.3-3,20.3-3,33v137.4v180.5h-92.6V469.7V332.3c0-12.8-0.9-23.8-2.8-33
			c-1.9-9.3-4.7-16.9-8.5-22.8c-3.8-5.9-8.5-10.3-14.1-13c-5.7-2.8-12.7-4.1-21.1-4.1c-7.8,0-14.8,1.4-20.9,4.1
			c-6.1,2.8-11,7.1-14.8,13c-3.8,5.9-6.6,13.6-8.5,22.8c-1.9,9.3-2.8,20.3-2.8,33v317.9h-92.2V197.1z"/>
	</g>
</g>
</svg>
