<svg xmlns="http://www.w3.org/2000/svg" width="880" height="510.072" viewBox="0 0 880 510.072">
  <defs>
    <style>
      .cls-1 {
        fill: #00008b;
      }
    </style>
  </defs>
  <g id="Group_6" data-name="Group 6" transform="translate(-236.165 -407.105)">
    <path id="Path_16" data-name="Path 16" class="cls-1" d="M236.165,789.66V745.52h47.646v44.14c0,56.052,20.319,81.974,62.356,81.974,23.122,0,39.937-8.407,50.449-26.625,8.406-14.71,12.61-33.629,12.61-58.853,0-24.522-1.4-45.54-11.91-62.358-7.709-14.013-20.319-25.222-41.34-33.631l-40.637-17.516c-26.625-11.212-43.44-25.925-55.35-45.541-14.015-23.824-17.518-51.852-17.518-86.883,0-34.331,6.306-63.059,18.218-84.077,18.916-32.231,50.446-49.046,94.587-49.046,70.765,0,105.8,41.34,105.8,124.014v44.14H413.429v-44.14c0-53.247-18.916-78.471-58.153-78.471-23.122,0-39.937,8.406-50.446,26.625-8.409,14.715-11.91,33.631-11.91,58.855,0,23.122,1.4,43.438,11.209,59.553,7.706,14.015,20.319,25.224,41.337,33.633L386.1,649.528c26.625,10.512,43.44,26.627,55.352,48.348,13.312,23.122,17.516,53.247,17.516,86.178,0,34.333-6.306,63.059-18.216,84.077-18.918,32.231-50.449,49.046-95.289,49.046C271.9,917.177,236.165,874.44,236.165,789.66Z" transform="translate(0 0)"/>
    <path id="Path_17" data-name="Path 17" class="cls-1" d="M548.527,581.359V811.17H507.19l18.216-84.077H514.9c-13.312,58.855-39.937,91.784-86.88,91.784-21.019,0-38.537-6.3-51.149-18.916-14.713-15.415-23.119-39.237-23.119-69.365,0-28.728,9.107-53.249,27.325-70.765,15.413-15.413,37.134-25.925,65.159-30.128l56.752-7.006V581.359c0-46.243-16.815-67.964-52.547-67.964-56.052,0-56.753,60.256-56.753,67.964v12.61H348.142V582.06c0-13.315.7-109.3,103.7-109.3C515.6,472.758,548.527,509.192,548.527,581.359Zm-45.543,99.49V654.225l-47.643,7.006c-16.115,1.4-28.725,7.709-37.834,16.815q-16.818,17.868-16.815,48.346c0,18.216,3.5,31.53,11.91,40.637,8.409,7.706,17.518,11.912,30.128,11.912C494.578,778.942,502.984,703.971,502.984,680.85Z" transform="translate(164.074 96.198)"/>
    <path id="Path_18" data-name="Path 18" class="cls-1" d="M453.58,811.17V480.464h45.543l-15.415,83.377h10.509c16.818-60.956,42.04-91.083,81.974-91.083,49.048,0,58.855,36.434,56.755,91.083h10.512c10.507-63.759,42.735-91.083,82.675-91.083,45.541,0,71.465,34.331,71.465,97.39V811.17H752.055V575.051c0-39.935-14.01-59.553-42.74-59.553-36.431,0-60.953,39.937-60.953,100.893V811.17H602.819V575.051c0-39.935-14.012-59.553-42.74-59.553-36.434,0-60.956,39.937-60.956,100.893V811.17Z" transform="translate(318.567 96.198)"/>
  </g>
</svg>
