<svg xmlns="http://www.w3.org/2000/svg" width="1151.985" height="660.374" viewBox="0 0 1151.985 660.374">
  <defs>
    <style>
      .cls-1 {
        fill: #00307f;
      }
    </style>
  </defs>
  <path id="Path_5" data-name="Path 5" class="cls-1" d="M157.445,296.144c93.553,0,145.833-56.866,145.833-156.839,0-77.961-28.433-129.323-116.483-202.7C110.669-125.762,84.987-162.449,84.987-215.646c0-55.948,27.516-83.464,73.375-83.464,46.776,0,73.375,27.516,73.375,85.3v30.267h67.872v-25.681c0-98.139-48.611-155-141.247-155s-144,56.865-144,153.17c0,72.458,29.35,123.82,118.317,197.195,74.292,61.451,99.056,99.056,99.056,158.673,0,58.7-28.433,86.215-75.209,86.215-45.859,0-74.292-27.516-74.292-85.3V104.452H14.364v35.77C14.364,239.278,63.892,296.144,157.445,296.144Zm476.019-9.172c-6.42-26.6-10.089-67.872-10.089-125.654V-44.132c0-91.719-39.439-139.412-127.489-139.412-82.547,0-130.24,47.694-130.24,133.909v10.089h65.12V-53.3c0-45.859,23.847-70.623,64.2-70.623,39.439,0,59.617,22.93,59.617,68.789v11.006c0,31.184-10.089,40.356-87.133,75.209-83.464,39.439-114.648,79.8-114.648,151.336,0,69.706,39.439,113.731,102.725,113.731,51.362,0,88.967-25.681,107.311-71.54,1.834,29.35,4.586,53.2,7.337,62.369ZM479.377,235.609c-37.6,0-56.866-22.93-56.866-63.286s19.261-67.872,65.12-90.8c39.439-20.178,57.783-31.184,66.955-43.108V131.05C554.586,197.088,526.154,235.609,479.377,235.609Zm583.33-419.154c-44.942,0-79.8,24.764-98.139,67.872-14.675-46.776-47.694-67.872-95.387-67.872-45.859,0-80.712,25.681-99.056,69.706l-.917-60.534H709.591V286.972H778.38V-19.368c0-67.872,29.35-102.725,69.706-102.725,39.439,0,55.031,28.433,55.031,72.458V286.972h69.706V-19.368c0-67.872,29.35-102.725,69.706-102.725,39.439,0,55.031,28.433,55.031,72.458V286.972h68.789V-54.221C1166.349-143.188,1127.828-183.544,1062.707-183.544Z" transform="translate(-14.364 364.23)"/>
</svg>
