<svg xmlns="http://www.w3.org/2000/svg" xmlns:xlink="http://www.w3.org/1999/xlink" width="480" height="960" viewBox="0 0 480 960"><defs><linearGradient id="a" x1="0.5" y1="1" x2="0.5" gradientUnits="objectBoundingBox"><stop offset="0" stop-color="salmon"/><stop offset="1" stop-color="#252527"/></linearGradient><linearGradient id="c" x1="0.5" y1="1" x2="0.5" gradientUnits="objectBoundingBox"><stop offset="0" stop-color="#d8d8da"/><stop offset="1" stop-color="#7b68ee"/></linearGradient><linearGradient id="d" x1="1" y1="0.5" x2="0" y2="0.5" gradientUnits="objectBoundingBox"><stop offset="0" stop-color="#7b68ee"/><stop offset="1" stop-color="#19191a"/></linearGradient><linearGradient id="e" x2="1" gradientUnits="objectBoundingBox"><stop offset="0" stop-color="#ffb6c1"/><stop offset="1" stop-color="#252527"/></linearGradient><clipPath id="f"><rect width="374" height="141" fill="none"/></clipPath></defs><g transform="translate(942 -120) rotate(90)"><rect width="240" height="480" transform="translate(120 462)" fill="#7b68ee"/><rect width="240" height="240" transform="translate(360 702)" fill="#252527"/><circle cx="120" cy="120" r="120" transform="translate(720 702) rotate(90)" fill="url(#a)"/><circle cx="120" cy="120" r="120" transform="translate(720 702) rotate(90)" fill="url(#a)"/><rect width="240" height="240" transform="translate(840 462)" fill="#252527"/><rect width="240" height="240" transform="translate(600 462)" fill="#252527"/><rect width="240" height="240" transform="translate(840 702)" fill="#d8d8da"/><rect width="240" height="240" transform="translate(360 462)" fill="#ffb6c1"/><rect width="240" height="240" transform="translate(600 702)" fill="salmon"/><circle cx="60" cy="60" r="60" transform="translate(899.814 761.814)" fill="url(#c)"/><circle cx="60" cy="60" r="60" transform="translate(181 762)" fill="url(#d)"/><path d="M0,0,240,240H0Z" transform="translate(360 702) rotate(-90)" fill="url(#e)"/><g transform="translate(658 520)" clip-path="url(#f)"><g transform="translate(-1258 -520)"><circle cx="2" cy="2" r="2" transform="translate(1258 520)" fill="#40e0d0"/></g><g transform="translate(-1198 -520)"><circle cx="2" cy="2" r="2" transform="translate(1258 520)" fill="#40e0d0"/></g><g transform="translate(-1138 -520)"><circle cx="2" cy="2" r="2" transform="translate(1258 520)" fill="#40e0d0"/></g><g transform="translate(-1078 -520)"><circle cx="2" cy="2" r="2" transform="translate(1258 520)" fill="#40e0d0"/></g><g transform="translate(-1018 -520)"><circle cx="2" cy="2" r="2" transform="translate(1258 520)" fill="#40e0d0"/></g><g transform="translate(-958 -520)"><circle cx="2" cy="2" r="2" transform="translate(1258 520)" fill="#40e0d0"/></g><g transform="translate(-898 -520)"><circle cx="2" cy="2" r="2" transform="translate(1258 520)" fill="#40e0d0"/></g><g transform="translate(-1258 -460)"><circle cx="2" cy="2" r="2" transform="translate(1258 520)" fill="#40e0d0"/></g><g transform="translate(-1198 -460)"><circle cx="2" cy="2" r="2" transform="translate(1258 520)" fill="#40e0d0"/></g><g transform="translate(-1138 -460)"><circle cx="2" cy="2" r="2" transform="translate(1258 520)" fill="#40e0d0"/></g><g transform="translate(-1078 -460)"><circle cx="2" cy="2" r="2" transform="translate(1258 520)" fill="#40e0d0"/></g><g transform="translate(-1018 -460)"><circle cx="2" cy="2" r="2" transform="translate(1258 520)" fill="#40e0d0"/></g><g transform="translate(-958 -460)"><circle cx="2" cy="2" r="2" transform="translate(1258 520)" fill="#40e0d0"/></g><g transform="translate(-898 -460)"><circle cx="2" cy="2" r="2" transform="translate(1258 520)" fill="#40e0d0"/></g><g transform="translate(-1258 -400)"><circle cx="2" cy="2" r="2" transform="translate(1258 520)" fill="#40e0d0"/></g><g transform="translate(-1198 -400)"><circle cx="2" cy="2" r="2" transform="translate(1258 520)" fill="#40e0d0"/></g><g transform="translate(-1138 -400)"><circle cx="2" cy="2" r="2" transform="translate(1258 520)" fill="#40e0d0"/></g><g transform="translate(-1078 -400)"><circle cx="2" cy="2" r="2" transform="translate(1258 520)" fill="#40e0d0"/></g><g transform="translate(-1018 -400)"><circle cx="2" cy="2" r="2" transform="translate(1258 520)" fill="#40e0d0"/></g><g transform="translate(-958 -400)"><circle cx="2" cy="2" r="2" transform="translate(1258 520)" fill="#40e0d0"/></g><g transform="translate(-898 -400)"><circle cx="2" cy="2" r="2" transform="translate(1258 520)" fill="#40e0d0"/></g></g></g></svg>