<?xml version="1.0" encoding="utf-8"?>
<!-- Generator: Adobe Illustrator 23.1.1, SVG Export Plug-In . SVG Version: 6.00 Build 0)  -->
<svg version="1.1" id="Layer_1" xmlns="http://www.w3.org/2000/svg" xmlns:xlink="http://www.w3.org/1999/xlink" x="0px" y="0px"
	 viewBox="0 0 2560 500" style="enable-background:new 0 0 2560 500;" xml:space="preserve">
<style type="text/css">
	.st0{fill:none;stroke:url(#Line_1_1_);}
	.st1{fill:none;stroke:url(#Line_1-2_1_);}
	.st2{fill:none;stroke:url(#Line_1-3_1_);}
	.st3{fill:none;stroke:url(#Line_1-4_1_);}
	.st4{fill:none;stroke:url(#Line_1-5_1_);}
	.st5{fill:none;stroke:url(#Line_1-6_1_);}
	.st6{fill:none;stroke:url(#Line_1-7_1_);}
	.st7{fill:none;stroke:url(#Line_1-8_1_);}
	.st8{fill:none;stroke:url(#Line_1-9_1_);}
	.st9{fill:none;stroke:url(#Line_1-10_1_);}
	.st10{fill:none;stroke:url(#Line_1-11_1_);}
	.st11{fill:none;stroke:url(#Line_1-12_1_);}
	.st12{fill:none;stroke:url(#Line_1-13_1_);}
	.st13{fill:none;stroke:url(#Line_1-14_1_);}
	.st14{fill:none;stroke:url(#Line_1-15_1_);}
	.st15{fill:none;stroke:url(#Line_1-16_1_);}
	.st16{fill:none;stroke:url(#Line_1-17_1_);}
	.st17{fill:none;stroke:url(#Line_1-18_1_);}
	.st18{fill:none;stroke:url(#Line_1-19_1_);}
	.st19{fill:none;stroke:url(#Line_1-20_1_);}
	.st20{fill:none;stroke:url(#Line_1-21_1_);}
</style>
<g>
	<g>
		<linearGradient id="Line_1_1_" gradientUnits="userSpaceOnUse" x1="639.7551" y1="767.1642" x2="1920.245" y2="-513.3257">
			<stop  offset="0.2" style="stop-color:#7B68EE;stop-opacity:0.7"/>
			<stop  offset="0.8" style="stop-color:#F08080;stop-opacity:0.7"/>
		</linearGradient>
		<path id="Line_1_2_" class="st0" d="M0,126.9c110.7-3.2,219,1.9,326.9,27.6c46.7,11.1,103.8,33.8,151.8,16.8
			c69.2-24.7,108-124.1,193.8-98.1c30.5,9.2,53.6,33.3,80,50c26.4,16.8,69.3,34.6,99.9,18.1C900.5,115.3,881.5-11,953.2,6.7
			c46.6,11.5,83.4,52.5,115.3,85.7c25.2,26.2,56.9,65.8,96.8,67.4c17.9,0.7,34.9-8.5,52.4-11.1c20.4-3,41.3-1.9,61.6,0.7
			c47.2,6,92.6,21.2,139.7,28c40.9,5.9,78.9,0.4,116.6-16.7c20.2-9.2,36.4-24.3,56-33.9c24.8-12.1,51.9-2.9,78.2-3.9
			c43.5-1.7,76.5-20.7,111.4-44.6c40-27.3,74.6-37.7,123.3-26.9c73.2,16.2,141.6,50.4,212.4,74c32.9,10.9,65.6,19.7,100.4,19.6
			c34.4-0.1,68.9-2.6,103.2-4.7c79.7-5,159.4-12.3,239.3-13.2"/>
		<linearGradient id="Line_1-2_1_" gradientUnits="userSpaceOnUse" x1="639.7571" y1="779.4678" x2="1920.2433" y2="-501.0183">
			<stop  offset="0.2" style="stop-color:#7B68EE;stop-opacity:0.7"/>
			<stop  offset="0.8" style="stop-color:#F08080;stop-opacity:0.7"/>
		</linearGradient>
		<path id="Line_1-2_2_" class="st1" d="M0,139.2c110.3-4.5,217.9,0,325.3,26.3c47.7,11.7,103.5,34.5,152.8,19.1
			c72.2-22.7,111-119.9,198.8-93c54.6,16.7,108.5,93.1,173.1,63.1c54.5-25.3,29.9-159.3,110.6-133.6c42,13.4,74.1,47.2,103.8,78.2
			c25.7,26.9,56.9,67.8,96.6,72.4c20,2.3,38.1-8.3,57.5-11.6c22.6-3.9,45.6-2.8,68.3,0.4c46.5,6.4,91.3,21.9,137.7,28.7
			c36.8,5.4,72.2,0.8,106.7-13.4c22.4-9.1,39.1-24.7,59.9-36c25.8-13.9,54.9-3.6,82.6-5.3c42.1-2.6,74.6-22.7,108.4-45.7
			c40.1-27.3,76.9-35.9,125-24.9c72.5,16.6,140,50.7,210.3,74.1c30.1,10,60.9,18.9,92.8,19c33.3,0.1,66.8-2.3,100.1-4.3
			c83.2-4.9,166.4-12.4,249.8-13.5"/>
		<linearGradient id="Line_1-3_1_" gradientUnits="userSpaceOnUse" x1="639.7591" y1="791.7712" x2="1920.2416" y2="-488.7113">
			<stop  offset="0.2" style="stop-color:#7B68EE;stop-opacity:0.7"/>
			<stop  offset="0.8" style="stop-color:#F08080;stop-opacity:0.7"/>
		</linearGradient>
		<path id="Line_1-3_2_" class="st2" d="M0,151.5c109.7-5.8,217-1.9,323.8,25c48.2,12.2,103.4,35.2,153.6,21.3
			c74.5-20.7,113.7-116.4,203-88.7c53.8,16.7,108.1,88.4,171.1,57.1C902.8,140.7,881.2,15.5,955.8,32c44.3,9.8,79,47.8,108.9,79.2
			c25.9,27.3,59.2,71.9,101,73.5c18.4,0.7,35.6-9.7,53.3-13.1c20.5-3.9,41.6-3.7,62.3-1.4c48.4,5.4,94.5,22.3,142.4,30.1
			c37.9,6.2,75.2,2.3,110.8-12.4c21-8.7,36.7-23.7,56.1-34.8c27-15.4,57.4-4.3,86.9-6.9c41.2-3.6,71.9-24.4,104.9-46.9
			c40.1-27.4,78.4-34.3,126-22.9c71.4,17,137.7,51,207.1,74.1c65.2,21.6,124.7,17.9,192.4,14.1c84-4.7,168-11.7,252.1-13"/>
		<linearGradient id="Line_1-4_1_" gradientUnits="userSpaceOnUse" x1="639.7609" y1="804.0743" x2="1920.24" y2="-476.4048">
			<stop  offset="0.2" style="stop-color:#7B68EE;stop-opacity:0.7"/>
			<stop  offset="0.8" style="stop-color:#F08080;stop-opacity:0.7"/>
		</linearGradient>
		<path id="Line_1-4_2_" class="st3" d="M0,163.8c109.6-7.1,216.6-3.7,323.2,24c48.7,12.6,103.5,35.9,154.4,22.8
			c37.4-9.7,63.6-39.4,93.7-61.4c31.5-23.1,70.6-34.9,109.3-23.9c54.4,15.5,108.3,83.9,170.9,53.3C903.4,153.2,881.2,30,955.7,44.2
			c44.4,8.5,79.3,46.9,108.7,78.1c25.9,27.4,59.4,73.2,101.3,74.8c18.7,0.7,36.1-10.3,54-14.1c20.6-4.3,42-4.5,62.9-2.3
			c48.2,5,93.9,22.3,141.4,30.8c37.7,6.8,75.3,3.8,111-10.5c21.4-8.6,36.8-23.7,56.2-35.2c26.9-16.1,57.1-5.1,86.7-7.9
			c40.5-3.8,70.4-24.7,102.7-47.1c39.7-27.5,78.3-34.2,125.5-22.8c70.3,16.9,135.4,51,203.7,74.1c65.2,22,125.2,17.8,193.1,14.2
			c85.6-4.5,171.3-11,257.1-12.4"/>
		<linearGradient id="Line_1-5_1_" gradientUnits="userSpaceOnUse" x1="639.7628" y1="816.3772" x2="1920.2386" y2="-464.0986">
			<stop  offset="0.2" style="stop-color:#7B68EE;stop-opacity:0.7"/>
			<stop  offset="0.8" style="stop-color:#F08080;stop-opacity:0.7"/>
		</linearGradient>
		<path id="Line_1-5_2_" class="st4" d="M0,176.2c109.2-8.4,215.5-5.6,321.6,22.7c48.9,13,103.6,36.7,155,24.7
			c39-9.1,65.3-40,97-61.8c30.6-20.9,68.3-30.1,104.9-21.3c26.2,6.3,47.8,23.2,71.1,35.9c28.2,15.4,72.6,30.8,103.6,14
			C903.8,163,881.8,43.4,957.3,57c44.2,7.9,78.4,45.9,107.5,77.1c25.3,27.1,56.8,70.4,96.7,75.1c20.9,2.5,39.2-10,59-14.5
			c22.9-5.3,46.3-5.5,69.5-2.8c45.6,5.4,88.7,21.8,133.5,30.8c38.8,7.8,78.2,5.6,115.1-9.6c21.1-8.6,35.7-24,54.8-35.5
			c23.8-14.3,49.5-6.2,75.8-7.4c45.1-2.1,75.8-24.4,111.1-49.3c39.9-28.1,78-32.9,125.2-21c68.7,17.3,132,51.3,199,74.1
			c64.7,22,126.1,17,193.4,13.8c87.3-4.2,174.7-10.1,262.1-11.6"/>
		<linearGradient id="Line_1-6_1_" gradientUnits="userSpaceOnUse" x1="639.7646" y1="828.6799" x2="1920.2373" y2="-451.7928">
			<stop  offset="0.2" style="stop-color:#7B68EE;stop-opacity:0.7"/>
			<stop  offset="0.8" style="stop-color:#F08080;stop-opacity:0.7"/>
		</linearGradient>
		<path id="Line_1-6_2_" class="st5" d="M0,188.5c108.7-9.7,214.5-7.4,320.1,21.4c49.2,13.4,103.5,37.5,155.4,26.5
			c38.6-8.2,64.5-38,95.7-59.3c30.6-20.9,67.7-29.4,104.5-21.9c57,11.8,112,77.7,175.3,48.7c54.9-25.2,29.8-147.5,107.3-134.8
			c41.9,6.9,74.8,42.3,102.3,71.8c26.4,28.3,62,79.5,105.5,81c19.1,0.6,36.8-11.5,54.9-16c20.8-5.2,42.3-6.1,63.6-4.3
			c49.5,4.2,95.6,23.4,143.9,33.2c35.3,7.2,71.6,5.3,105.8-6.8c24.6-8.7,39.8-25.9,61.4-38.8c24.3-14.5,51.3-5.8,78-7.8
			c41.3-3.1,70.1-24.1,102.2-47.9c40.4-30,79.4-34.7,128.1-21.8c66.9,17.7,128.3,51.6,193.6,74c64.3,22.1,127.2,16.2,194.1,13.4
			c89.4-3.8,178.8-9.2,268.3-10.6"/>
		<linearGradient id="Line_1-7_1_" gradientUnits="userSpaceOnUse" x1="639.7664" y1="840.9825" x2="1920.2362" y2="-439.4873">
			<stop  offset="0.2" style="stop-color:#7B68EE;stop-opacity:0.7"/>
			<stop  offset="0.8" style="stop-color:#F08080;stop-opacity:0.7"/>
		</linearGradient>
		<path id="Line_1-7_2_" class="st6" d="M0,200.8c108.6-11.1,214-9.2,319.4,20.3c49.4,13.8,103.7,38.5,156,27.8
			c38.1-7.8,63.4-36.9,94.2-57.8c30.6-20.8,67.6-28.3,104.2-21.3c57.6,11,114,75,177.1,46.5c55.5-25,29.9-145.3,107.3-135
			c42,5.6,74.9,41.5,102.1,70.8c26.3,28.4,62.2,80.8,105.8,82.3c19.4,0.7,37.4-12.2,55.6-17c20.9-5.6,42.7-6.9,64.2-5.3
			c49.3,3.8,95,23.4,142.8,34c35.2,7.8,71.8,6.7,106.1-5c25.2-8.6,40.1-26,61.9-39.4c24.3-15,51-6.5,77.9-8.8
			c40.3-3.4,67.8-24.6,98.6-48.3c96-74,219,18.6,314.2,52.1c64.4,22.7,128.5,16.2,195.7,13.7c92.2-3.4,184.4-8.3,276.6-9.6"/>
		<linearGradient id="Line_1-8_1_" gradientUnits="userSpaceOnUse" x1="639.7681" y1="853.285" x2="1920.2351" y2="-427.1819">
			<stop  offset="0.2" style="stop-color:#7B68EE;stop-opacity:0.7"/>
			<stop  offset="0.8" style="stop-color:#F08080;stop-opacity:0.7"/>
		</linearGradient>
		<path id="Line_1-8_2_" class="st7" d="M0,213.1C108.1,200.7,212.9,202,317.9,232c49.3,14.1,103.8,39.5,156.3,29.5
			c37.5-7.2,62.3-35.3,92.3-56c30.6-21.1,66.5-28,103.3-22c59.5,9.8,114,71,178.8,46.1c58.5-22.5,31.2-138.9,105.1-136.6
			c45.9,1.4,83.2,44.7,111.6,75.7c25.5,27.9,56.2,72.3,96.7,77.6c23.5,3,45-14,67.1-19.3c21-5.1,42.8-6.1,64.2-4
			c44.7,4.3,86.3,21.5,129.5,32.7c38.1,9.9,78.5,10.7,116-2.6c22.7-8.1,37.5-23.7,56.7-37.1c26.3-18.3,53.7-8.7,83.8-12.1
			c36.5-4.2,62.2-24.7,89.7-47c39.2-31.8,78.8-36.6,127.6-22.7c63.1,17.9,120.3,51.8,181.9,73.9c64.1,23,130.2,15.6,197.1,13.5
			c94.8-3,189.5-7.4,284.4-8.5"/>
		<linearGradient id="Line_1-9_1_" gradientUnits="userSpaceOnUse" x1="639.77" y1="865.5873" x2="1920.234" y2="-414.8767">
			<stop  offset="0.2" style="stop-color:#7B68EE;stop-opacity:0.7"/>
			<stop  offset="0.8" style="stop-color:#F08080;stop-opacity:0.7"/>
		</linearGradient>
		<path id="Line_1-9_2_" class="st8" d="M0,225.4c107.5-13.7,212-12.9,316.3,17.6c50.9,14.9,107.7,42.4,161.8,29.9
			c34.3-8,57.3-33.7,85.1-53.2c31.5-22.2,68.4-28.7,106.4-21.9c28.6,5.1,53.2,20.6,79.4,32.1c29.7,13,74.2,25.7,105.1,9.8
			c53.1-27.5,28.6-142.1,106.5-133.8c41.6,4.5,73.9,40.7,100.5,69.7c25.9,28.3,62,82.4,105.5,83.6c19.8,0.6,38.2-13.4,56.5-18.9
			c21-6.3,43-8.6,64.9-7.3c48.6,2.9,93.1,22.9,139.6,35.2c36.4,9.6,74.7,10.3,110.8-1.7c24.7-8.2,39.2-24.8,59.8-39.1
			c24.9-17.2,51.2-9,79.6-12.1c37.9-4.1,62.1-25.5,89.9-48.8c90.8-76.1,210.7,19.9,300.9,52.8c64,23.4,131.9,15.1,198.8,13.3
			c97.5-2.6,195-6.4,292.6-7.3"/>
		<linearGradient id="Line_1-10_1_" gradientUnits="userSpaceOnUse" x1="639.7719" y1="877.8895" x2="1920.233" y2="-402.5715">
			<stop  offset="0.2" style="stop-color:#7B68EE;stop-opacity:0.7"/>
			<stop  offset="0.8" style="stop-color:#F08080;stop-opacity:0.7"/>
		</linearGradient>
		<path id="Line_1-10_2_" class="st9" d="M0,237.7c106.9-15.1,210.8-14.7,314.7,16.2c51.8,15.4,111.8,45.7,167.2,30.4
			c31.1-8.6,52.5-32.6,77.7-50.8c32.2-23.3,70.6-29.6,109.5-22c57.7,11.2,120.8,69.5,182.7,41.7c56.2-25.3,29.7-135.3,104.3-135.4
			c45.4,0,82.4,44.2,109.8,74.7c25.3,28.1,55.7,73.6,96.4,78.9c23.9,3.1,45.9-15.4,68.1-21.5c21-5.8,43-7.6,64.7-5.9
			c46,3.7,88,22.8,131.8,35.3c36.2,10.3,74.9,12.2,111.2,0.8c26.5-8.3,40.8-26.1,62.8-41.1c23.8-16.3,48.9-9.1,75.8-11.9
			c39-3.9,61.6-26.5,89.4-50.8c86.7-75.6,206.2,22.6,291.8,54.5c63.8,23.8,134,14.6,200.8,13.1c100.4-2.2,200.7-5.4,301.1-6"/>
		<linearGradient id="Line_1-11_1_" gradientUnits="userSpaceOnUse" x1="639.7739" y1="890.1917" x2="1920.2319" y2="-390.2663">
			<stop  offset="0.2" style="stop-color:#7B68EE;stop-opacity:0.7"/>
			<stop  offset="0.8" style="stop-color:#F08080;stop-opacity:0.7"/>
		</linearGradient>
		<path id="Line_1-11_2_" class="st10" d="M0,250c106.4-16.4,209.7-16.5,313.2,14.8c51.5,15.6,112.1,47.2,167.4,32
			c30.4-8.4,51.1-31.6,75.5-49.8c31.7-23.7,69.4-29.6,108.2-22.9c59.8,10.3,121.5,67.1,185.4,42.3c60.1-23.3,31.2-135.9,107.9-136.2
			c43.4-0.2,77.6,39.3,104.3,69c25.4,28.2,62,83.9,105.1,84.9c20.1,0.5,39-14.7,57.4-20.8c23.2-7.8,47.4-10.6,71.8-8.9
			c45.8,3.2,87.1,22.6,130.4,35.7c37.4,11.3,77.8,14.4,115.6,1.9c23.7-7.8,38.4-24.1,57.5-38.7c26.1-19.8,51.4-11.2,81.6-15.5
			c37-5.2,57.1-28.4,83.3-52.2c81-73.6,196.8,21.7,275.8,53.4c66.4,26.6,139.7,16.9,209.8,15.7c103.2-1.8,206.5-4.4,309.7-4.8"/>
		<linearGradient id="Line_1-12_1_" gradientUnits="userSpaceOnUse" x1="639.776" y1="902.4938" x2="1920.231" y2="-377.9611">
			<stop  offset="0.2" style="stop-color:#7B68EE;stop-opacity:0.7"/>
			<stop  offset="0.8" style="stop-color:#F08080;stop-opacity:0.7"/>
		</linearGradient>
		<path id="Line_1-12_2_" class="st11" d="M0,262.3c105.8-17.8,208.6-18.3,311.6,13.5c51.6,15.9,111.9,48.3,167.6,33.5
			c31.2-8.3,51.8-32.9,76.7-51.6c30.1-22.6,66.7-26.9,103.3-21.2c61.5,9.6,127.1,68.2,192,41.6c58.8-24.1,31-134.1,107.4-135.9
			c45.1-1.1,81.4,43.7,108.2,73.9c24.7,27.9,55.6,74.9,96.1,80.1c24.3,3.1,46.8-16.8,69.1-23.7c21.1-6.5,43.2-9.1,65.3-7.7
			c47.4,3,89.4,24.2,134,38c34.4,10.6,71.3,13.4,106.4,3.9c28.1-7.6,43-25.4,64.9-42c26.1-19.7,52.6-10.5,82.9-16
			c31.6-5.8,50.5-26.3,72.1-48.1c77.7-78.6,188,13.4,265.7,47c68.5,29.7,145.6,19.2,218.5,18.3c106.1-1.3,212.2-3.5,318.2-3.5"/>
		<linearGradient id="Line_1-13_1_" gradientUnits="userSpaceOnUse" x1="639.7783" y1="914.7959" x2="1920.2299" y2="-365.6557">
			<stop  offset="0.2" style="stop-color:#7B68EE;stop-opacity:0.7"/>
			<stop  offset="0.8" style="stop-color:#F08080;stop-opacity:0.7"/>
		</linearGradient>
		<path id="Line_1-13_2_" class="st12" d="M0,274.6c105.2-19.1,207.5-20.1,310,12.1c51.6,16.2,111.8,49.7,167.8,35.1
			c32.3-8.4,51.9-34.5,77.6-53.4c28.8-21.2,63.7-24.5,98.5-19.6c32,4.5,60.7,19.7,90.6,31c31,11.7,76.2,24.6,108.3,10.3
			c56.5-25.2,30.5-125.9,101.5-135.3c44.5-5.9,82,38.6,108.2,68.1c25,28.1,61.8,85.4,104.8,86.2c20.4,0.4,39.8-15.9,58.3-22.7
			c23.3-8.5,47.8-12.3,72.6-11c45.2,2.4,85.4,22.2,127.4,36.7c37.2,12.9,77.6,17.9,116.1,6.9c27.7-7.9,42-26.2,63.8-42.9
			c24.4-18.6,50.7-11,79-15.8c32.7-5.5,50.2-27.3,71.5-50c73.6-78.4,183.8,16.2,257,48.7c68.1,30.3,148,18.7,220.6,18.1
			c108.8-0.9,217.7-2.5,326.5-2.3"/>
		<linearGradient id="Line_1-14_1_" gradientUnits="userSpaceOnUse" x1="639.7806" y1="927.0979" x2="1920.2288" y2="-353.3503">
			<stop  offset="0.2" style="stop-color:#7B68EE;stop-opacity:0.7"/>
			<stop  offset="0.8" style="stop-color:#F08080;stop-opacity:0.7"/>
		</linearGradient>
		<path id="Line_1-14_2_" class="st13" d="M0,286.9c104.7-20.5,206.3-21.9,308.4,10.6c51.7,16.5,111.8,51.1,168.1,36.6
			c31.8-8.2,50.4-33.7,75.2-52.8c29.4-22.7,65.6-25.6,101.6-19.9c61.9,9.9,132.3,66.8,197.3,41.8c60.6-23.3,32.6-134,110.2-137
			c42.8-1.6,76.6,39.5,102.1,68.3c25.2,28.5,58.2,81.7,100.3,86.5c24.9,2.8,47.5-18.1,70.1-25.8c21.2-7.2,43.5-10.6,65.9-9.6
			c46.9,2.1,87.7,23.7,131,39.1c36.7,13,77.5,17.9,115.4,6.3c24.7-7.5,39.4-24.1,58.4-40.2c25-21.2,50.1-13.9,79.8-18.9
			c33.8-5.7,49.3-28.4,70.6-52.1c69.9-78.1,179.6,18.9,248.6,50.4c67.9,31,150.4,18.2,222.8,17.9c111.4-0.5,222.9-1.6,334.3-1.2"/>
		<linearGradient id="Line_1-15_1_" gradientUnits="userSpaceOnUse" x1="639.7831" y1="939.3999" x2="1920.2277" y2="-341.0446">
			<stop  offset="0.2" style="stop-color:#7B68EE;stop-opacity:0.7"/>
			<stop  offset="0.8" style="stop-color:#F08080;stop-opacity:0.7"/>
		</linearGradient>
		<path id="Line_1-15_2_" class="st14" d="M0,299.2c104.1-21.9,205.1-23.7,306.8,9.2c51.6,16.7,112,52.5,168.4,38.1
			c31.3-8,49.1-33,72.9-52.3c30.2-24.4,67.4-26.7,104.7-20.2c62.2,10.8,129.8,63.9,195.4,42.4c62.8-20.6,35.1-126.7,108.3-137.6
			c44.2-6.6,81.2,38.4,106.6,67.6c24.8,28.3,61.6,86.9,104.4,87.5c20.7,0.3,40.7-17.2,59.1-24.5c25.3-10,52.3-14.8,79.4-12.9
			c42.3,3,79.7,22.1,118.4,37.3c37.1,14.5,76.8,21.3,116.2,11.8c29-6.9,44.2-25.4,65.7-43.5c25.4-21.4,50.7-12.9,80.9-19.2
			c32-6.8,45.4-30.2,65.2-53.3c66.7-77.8,175.4,21.5,240.9,52.1c25.3,11.8,49.5,17.3,77.3,17.7c49.2,0.7,98.5,0.1,147.7,0.1
			c113.8-0.1,227.6-0.7,341.5-0.1"/>
		<linearGradient id="Line_1-16_1_" gradientUnits="userSpaceOnUse" x1="639.7857" y1="951.702" x2="1920.2264" y2="-328.7388">
			<stop  offset="0.2" style="stop-color:#7B68EE;stop-opacity:0.7"/>
			<stop  offset="0.8" style="stop-color:#F08080;stop-opacity:0.7"/>
		</linearGradient>
		<path id="Line_1-16_2_" class="st15" d="M0,311.5c103.6-23.3,203.9-25.5,305.3,7.8c51.7,17,112.2,53.9,168.8,39.6
			c30.8-7.8,47.9-32.4,70.8-51.8c29.6-25.2,66-27.5,103.2-21.3c33.2,5.5,63.7,20.1,95.2,31.1c32,11.1,77.7,24.5,110.3,10
			c57.4-25.6,32-124,104.1-135.8c42-6.9,76.5,33.8,101.3,61.9c26.1,29.6,60.6,88.1,104.5,92.9c25.2,2.8,48.4-19.6,71.1-27.9
			c21.2-7.8,43.8-12.1,66.5-11.4c46.4,1.3,86.1,23.2,128,40c36.5,14.7,76.9,21.5,115.7,11.3c28.6-7.5,42.7-26.5,64.3-44.5
			c25-20.9,52.4-12,81.6-19.6c28.6-7.5,40.9-30.1,58.2-51.6c64.8-80.8,171.5,20.3,235.9,51.1c21.9,10.5,44,16.6,68.3,17
			c53,0.9,106,0.4,159,0.5c115.9,0.2,231.9,0.1,347.8,0.8"/>
		<linearGradient id="Line_1-17_1_" gradientUnits="userSpaceOnUse" x1="639.7885" y1="964.004" x2="1920.2252" y2="-316.4327">
			<stop  offset="0.2" style="stop-color:#7B68EE;stop-opacity:0.7"/>
			<stop  offset="0.8" style="stop-color:#F08080;stop-opacity:0.7"/>
		</linearGradient>
		<path id="Line_1-17_2_" class="st16" d="M0,323.8c103.1-24.7,202.4-27.4,303.7,6.3c51.8,17.2,112.6,55.3,169.3,41.1
			c30.3-7.6,46.9-31.7,69-51.3c28.9-25.6,64.8-28.2,101.7-22.5c33.7,5.3,64.8,19.6,96.8,30.7c32,11.1,77.6,24.7,111.1,12
			c60.5-23,34.3-124.7,107.3-137.3c43.9-7.6,80.2,38.3,105.1,67.2c24.7,28.7,61.1,88.3,104.1,88.7c21,0.2,41.6-18.6,60-26.3
			c25.4-10.7,52.6-16.6,80.2-15.1c45.4,2.5,84.2,25.4,125.3,42.3c35.8,14.7,77.2,21.4,115.2,10.6c25.5-7.2,39.9-24.5,58.6-41.6
			c24.4-22.3,48.5-16.1,78.4-22c30.8-6,43.1-28.6,60-51.9c61.6-84.4,169.4,19.9,231.7,50.2c21.7,10.6,43.2,16.1,67.2,16.4
			c54.1,0.8,108.1,0.6,162.2,0.8c117.7,0.5,235.5,0.8,353.2,1.7"/>
		<linearGradient id="Line_1-18_1_" gradientUnits="userSpaceOnUse" x1="639.7914" y1="976.306" x2="1920.224" y2="-304.1265">
			<stop  offset="0.2" style="stop-color:#7B68EE;stop-opacity:0.7"/>
			<stop  offset="0.8" style="stop-color:#F08080;stop-opacity:0.7"/>
		</linearGradient>
		<path id="Line_1-18_2_" class="st17" d="M0,336.2c102.5-26.1,201.2-29.2,302.1,4.9c52.1,17.6,112.7,56.3,169.9,42.6
			c30-7.2,46.1-31.1,67.5-50.9c28.3-26.2,63.3-28.9,100.1-23.5c65.9,9.6,141.5,66.3,209.8,44c61.4-20,38.3-118.6,105.5-137.3
			c43.4-12.1,79.8,31.7,105,60.6c25.5,29.4,60.5,89.5,104.2,94.2c25.5,2.7,49.3-21.1,72-30c21.3-8.4,44.1-13.5,67.1-13.3
			c45.8,0.4,84.6,22.6,125.2,40.8c36,16.2,76.2,25,115.6,16.3c29.8-6.6,44.5-25.5,65.6-44.8c24.8-22.6,49.5-15,79.2-22.2
			c29.6-7.1,39.8-30.3,55.8-52.9c59.5-83.8,167.6,22.9,226.6,52c21.6,10.7,42.5,15.6,66.5,15.9c55,0.7,110,0.8,164.9,1.1
			c119.2,0.8,238.3,1.5,357.5,2.4"/>
		<linearGradient id="Line_1-19_1_" gradientUnits="userSpaceOnUse" x1="639.7946" y1="988.6081" x2="1920.2227" y2="-291.8199">
			<stop  offset="0.2" style="stop-color:#7B68EE;stop-opacity:0.7"/>
			<stop  offset="0.8" style="stop-color:#F08080;stop-opacity:0.7"/>
		</linearGradient>
		<path id="Line_1-19_2_" class="st18" d="M0,348.5c105.9-28.5,206.1-30.1,309.9,6.8c50.3,17.9,110,55.8,165.4,39.4
			c30.1-8.9,44.8-34.7,67.3-54.1c27.8-24,63.5-24.5,98.2-18.8c35.8,5.9,68.8,20.8,103,32c32.2,10.5,77.8,24.1,110.7,10
			c57.9-24.9,34.1-123.6,106.3-137.3c43.5-8.2,79.3,38.4,103.8,67.2c24.6,29.1,60.6,89.7,103.7,89.8c21.2,0.1,42.5-19.9,60.8-28.1
			c25.5-11.4,52.9-18.4,81-17.3c45,1.7,82.6,25,122.3,43.3c35.6,16.4,76.3,25.1,115.2,15.7c29-7,42.8-26.8,63.8-45.8
			c24.4-22.1,50.6-13.9,79.9-22.3c28.2-8.1,36.8-31.8,52.2-53.8c58.2-83.1,166.4,25.7,222.9,53.8c21.2,10.5,42.4,15.1,66,15.3
			c55.7,0.6,111.4,0.9,167.1,1.3c120.1,1,240.3,2.1,360.4,3"/>
		<linearGradient id="Line_1-20_1_" gradientUnits="userSpaceOnUse" x1="639.798" y1="1000.9102" x2="1920.2212" y2="-279.513">
			<stop  offset="0.2" style="stop-color:#7B68EE;stop-opacity:0.7"/>
			<stop  offset="0.8" style="stop-color:#F08080;stop-opacity:0.7"/>
		</linearGradient>
		<path id="Line_1-20_2_" class="st19" d="M0,360.8c109.1-31.1,211.4-31.3,317.8,8.8c48.6,18.3,107.3,55.1,160.9,36.3
			c27.4-9.6,41.4-33.9,62-52.3c28.5-25.5,65.9-25.5,102-19.1c34.1,6.1,66,20,98.8,30.7c32.5,10.6,77.4,24.3,110.9,11.8
			c59.3-22.1,37.9-117.1,104.5-137.3c42.7-13,79.4,32.3,103.5,60.5c25.1,29.4,60.2,90.9,103.9,95.5c25.8,2.7,50.3-22.5,73-32
			c21.4-9,44.4-14.9,67.7-15.1c45.3-0.5,83.2,21.9,122.4,41.5c35.6,17.9,74.8,28.5,115,21.3c32.1-5.7,46.4-25.8,68.6-46.6
			c25.5-23.8,52.3-14.4,82.5-24.6c26.8-9,34.5-33.4,49.3-54.5c58.2-82.6,165.5,28.6,220.8,55.6c21.3,10.4,42.3,14.6,66,14.8
			c51.1,0.4,102.2,0.8,153.4,1.3c125.7,1.2,251.3,2.8,377,3.5"/>
		<linearGradient id="Line_1-21_1_" gradientUnits="userSpaceOnUse" x1="639.8015" y1="1013.2125" x2="1920.2196" y2="-267.2056">
			<stop  offset="0.2" style="stop-color:#7B68EE;stop-opacity:0.7"/>
			<stop  offset="0.8" style="stop-color:#F08080;stop-opacity:0.7"/>
		</linearGradient>
		<path id="Line_1-21_2_" class="st20" d="M0,373.1c108.4-32.6,210.2-33.1,316.3,7.5c48.8,18.7,107.6,56.4,161.8,37.8
			c27.3-9.4,41.2-33.2,61.5-51.7c28.2-25.9,64.7-26.3,100.9-20.1c34.2,5.8,66.2,19.4,99.1,30.2c32.5,10.7,76.5,24.4,110.7,13.5
			c27.4-8.8,36.8-35.3,45.9-59.9c11.1-30.4,24.8-63.4,57.1-76.7c46.4-19.2,86.3,33,112.1,63.9c23.8,28.4,60.4,91.1,103.3,91
			c21.4-0.1,43.4-21.2,61.6-29.9c25.6-12,53.3-20.2,81.8-19.6c44.7,1,81,24.4,119.5,44.2c35.1,18,75,28.6,114.6,20.8
			c30.2-6,43.8-25.4,64.1-45.6c23.6-23.5,48.5-17.3,77.8-24.6c28.1-7,36.9-30.1,51.1-52.1c55.1-86,159.7,17.1,214,47.2
			c24.4,13.6,48.1,19.2,75.9,19.3c51.3,0.2,102.6,0.8,153.9,1.3c125.6,1.3,251.3,3.3,376.9,3.6"/>
	</g>
</g>
</svg>
