<svg id="Layer_1" data-name="Layer 1" xmlns="http://www.w3.org/2000/svg" xmlns:xlink="http://www.w3.org/1999/xlink" viewBox="0 0 2560 500">
  <defs>
    <linearGradient id="linear-gradient" x1="639.69" y1="840.59" x2="1920.26" y2="-439.99" gradientUnits="userSpaceOnUse">
      <stop offset="0.2" stop-color="#7b68ee" stop-opacity="0.7"/>
      <stop offset="0.8" stop-color="#f08080" stop-opacity="0.7"/>
    </linearGradient>
    <linearGradient id="linear-gradient-2" x1="639.69" y1="852.89" x2="1920.26" y2="-427.68" xlink:href="#linear-gradient"/>
    <linearGradient id="linear-gradient-3" x1="639.7" y1="865.19" x2="1920.26" y2="-415.37" xlink:href="#linear-gradient"/>
    <linearGradient id="linear-gradient-4" x1="639.7" y1="877.5" x2="1920.26" y2="-403.06" xlink:href="#linear-gradient"/>
    <linearGradient id="linear-gradient-5" x1="639.7" y1="889.8" x2="1920.26" y2="-390.75" xlink:href="#linear-gradient"/>
    <linearGradient id="linear-gradient-6" x1="639.71" y1="902.11" x2="1920.26" y2="-378.44" xlink:href="#linear-gradient"/>
    <linearGradient id="linear-gradient-7" x1="639.71" y1="914.41" x2="1920.26" y2="-366.13" xlink:href="#linear-gradient"/>
    <linearGradient id="linear-gradient-8" x1="639.72" y1="926.72" x2="1920.26" y2="-353.82" xlink:href="#linear-gradient"/>
    <linearGradient id="linear-gradient-9" x1="639.72" y1="939.02" x2="1920.26" y2="-341.51" xlink:href="#linear-gradient"/>
    <linearGradient id="linear-gradient-10" x1="639.72" y1="951.33" x2="1920.25" y2="-329.2" xlink:href="#linear-gradient"/>
    <linearGradient id="linear-gradient-11" x1="639.73" y1="963.63" x2="1920.25" y2="-316.9" xlink:href="#linear-gradient"/>
    <linearGradient id="linear-gradient-12" x1="639.73" y1="975.93" x2="1920.25" y2="-304.59" xlink:href="#linear-gradient"/>
    <linearGradient id="linear-gradient-13" x1="639.73" y1="988.24" x2="1920.25" y2="-292.28" xlink:href="#linear-gradient"/>
    <linearGradient id="linear-gradient-14" x1="639.74" y1="1000.54" x2="1920.25" y2="-279.97" xlink:href="#linear-gradient"/>
    <linearGradient id="linear-gradient-15" x1="639.74" y1="1012.84" x2="1920.25" y2="-267.66" xlink:href="#linear-gradient"/>
    <linearGradient id="linear-gradient-16" x1="639.75" y1="1025.15" x2="1920.25" y2="-255.35" xlink:href="#linear-gradient"/>
    <linearGradient id="linear-gradient-17" x1="639.75" y1="1037.45" x2="1920.24" y2="-243.05" xlink:href="#linear-gradient"/>
    <linearGradient id="linear-gradient-18" x1="639.75" y1="1049.75" x2="1920.24" y2="-230.74" xlink:href="#linear-gradient"/>
    <linearGradient id="linear-gradient-19" x1="639.76" y1="1062.05" x2="1920.24" y2="-218.43" xlink:href="#linear-gradient"/>
    <linearGradient id="linear-gradient-20" x1="639.76" y1="1074.36" x2="1920.24" y2="-206.12" xlink:href="#linear-gradient"/>
    <linearGradient id="linear-gradient-21" x1="639.76" y1="1086.66" x2="1920.24" y2="-193.82" xlink:href="#linear-gradient"/>
  </defs>
  <title>stripes-1</title>
  <g>
    <path id="Line_1" data-name="Line 1" d="M0,200.41c108.66-3.27,215.55,1.58,321.65,26.38,48.21,11.27,106.6,35.14,156,18.17,66.86-23,114.82-132.18,197.93-95.62,30.76,13.53,51.66,41.75,79.44,59.81,37.67,24.49,75.73,15.22,113.09-6.5,28.66-16.66,46.43-40.48,55.43-72C930.39,106.7,934,84.34,961.92,78.2c44.73-9.82,80.41,30.55,105.89,61.22s55.92,86.31,99,92.35c16.39,2.29,31.48-6.64,47.51-8.54,19.84-2.35,39.42,1.44,58.41,6.92,43.78,12.63,84.5,32.64,131,34.13,45.4,1.46,89.64-13.73,129.67-34.12,19.4-9.88,37.32-24.85,57.78-32.36,26.58-9.75,56.14-.19,83.45-.43,42.29-.37,78.48-13.48,114-35.77,33.85-21.27,73.77-55.63,116.18-41.65,25.54,8.43,48,26.85,69.71,41.93,34.21,23.75,69.82,45.82,110.45,56.69,80.41,21.49,155.91-11.6,233.15-29.87,82-19.39,163.81-24.07,241.92,11.71" fill="none" stroke="url(#linear-gradient)"/>
    <path id="Line_1-2" data-name="Line 1-2" d="M0,212.72c108.53-4.55,215.12-.24,321,25.29,48.87,11.79,106.7,35.78,157.18,20C547,236.39,593.52,132.6,677.62,166.83c30.25,12.31,51.16,39.22,78.51,56.14,37.07,22.95,75,13.63,111.32-7.41,28.68-16.6,45.65-40.72,54.69-72.12,7-24.25,11.24-47.11,39.77-52.84,44.94-9,80.31,31.05,106,61.92,25.29,30.37,56,86.15,99,91.79,16.7,2.18,32-7.31,48.22-9.63,20.17-2.89,40.15.39,59.6,5.74,43.75,12,84.24,32.61,130.41,34.81,44.15,2.1,88.48-11.94,128-30.69,18.66-8.85,35.91-23.17,55.56-29.58,26.62-8.68,57.06,1.7,84.29.61,42.91-1.72,78.48-17.37,113.68-41,34.4-23.05,74.42-56.48,118.31-41.71,25.66,8.63,48.29,26.64,70.36,41.64,34.16,23.22,69.64,44.84,109.94,55.58,79.51,21.17,153.12-10.83,229.37-29.12,83.22-20,165.76-23.79,245.29,11.72" fill="none" stroke="url(#linear-gradient-2)"/>
    <path id="Line_1-3" data-name="Line 1-3" d="M0,225c111.26-6,220-1.52,328.23,26.17,48.31,12.36,104.46,35.07,154.4,18.52C551.44,246.91,596.56,150.43,681,184.44c28.14,11.33,48.57,35.53,74.15,51,36.18,21.94,72.32,14.52,108.55-5.28,29.57-16.17,46.93-39.9,56.41-71.74,7-23.55,10.34-47.11,37.37-54.44,44.52-12.06,81.07,26.81,106.85,57.17s55.81,85.82,98.58,94.88c20.24,4.3,38.41-8.26,58.2-10.68,17-2.07,33.85,0,50.37,3.93,43.33,10.25,83.07,31.78,127.92,36.25,44.08,4.4,89-8,129.36-25.07,19.53-8.27,37.22-23,57.45-29.22,28-8.6,60.46,3.18,89.31.73,42.48-3.61,76.85-22.31,110.85-46.66,34.9-25,74.68-56.21,119.67-39.53,25.65,9.51,48.06,27,70.58,42,33.92,22.69,69.24,43.65,109.12,53.94C2161.35,261.3,2230.11,233,2302.4,215c87.37-21.75,173.53-26.4,257.6,10.08" fill="none" stroke="url(#linear-gradient-3)"/>
    <path id="Line_1-4" data-name="Line 1-4" d="M0,237.33C111.16,230,219.57,234,327.62,262.48c48.66,12.83,104.62,35.91,155.23,20.11C553,260.67,596,168.73,681.17,200.51c28,10.43,48.74,33.59,74.26,48.27,35.87,20.63,72,13.62,107.61-5.71C892.63,227,909.18,203,918.65,171.32c7.2-24.07,11.11-47.86,38.81-54.95,44.65-11.42,81.07,27.49,106.94,57.92,25.64,30.16,55.9,85.69,98.6,94.36,20.62,4.19,39-9.06,59-12,17.22-2.49,34.46-.81,51.35,2.95,43.37,9.64,83,31.6,127.55,36.77,43.11,5,88-6.39,128-22.29,19.14-7.61,36.24-22,55.91-27.76,8.54-2.5,17.17-2.48,26-1.73,21.84,1.87,42.09,5.15,64.27,2.63,42.54-4.84,75.8-25.7,109.11-51,34.95-26.53,74.43-56.25,120.11-38.73,25.48,9.76,47.82,26.94,70.35,41.91,33.47,22.25,68.31,42.85,107.54,53.11,74.63,19.51,142.37-8,213.79-25.68C2385.61,204.7,2473.52,201,2560,237.33" fill="none" stroke="url(#linear-gradient-4)"/>
    <path id="Line_1-5" data-name="Line 1-5" d="M0,249.64c110.74-8.66,218.58-5.2,326.15,23.9,48.89,13.22,104.58,36.82,155.78,22.1,35.57-10.22,60.61-38.6,90-59.19,30.81-21.56,70.09-33.09,107.16-21,28,9.16,49.32,31.21,74.61,45.4,35.43,19.89,70.13,14.69,105.61-3.34,30-15.26,47.49-39.59,57.19-71.1,7.12-23.11,10.85-48.27,36.89-56.63,48.37-15.54,88.5,30.49,115.83,63.27,24.34,29.2,55.85,84.67,98.17,88.87,17.43,1.74,33.34-9.32,50-12.87,20.91-4.47,42-2.85,62.66,2,43.27,10.09,82.7,32,127.41,36.8,40.9,4.4,86.13-6.32,124.28-21.32,17.71-7,33.28-20.3,51.41-25.81,26.13-7.94,55.74,4.14,82.82,1.63,43.4-4,77-24.71,110.16-51.34,32.93-26.45,71.46-58.92,116.56-45.44,29.55,8.83,55.18,29.5,80.5,46.27,27.77,18.4,56.54,35.7,88.24,46.46,79.33,26.93,150.86-1.22,227.71-19.87,92.09-22.35,181.93-25,270.87,11.22" fill="none" stroke="url(#linear-gradient-5)"/>
    <path id="Line_1-6" data-name="Line 1-6" d="M0,262c110-10,217-7.15,323.82,22.39C373,298,428.18,322.09,479.9,308.82c35.27-9,60-36.1,88.69-56.39,30.63-21.64,69.11-32.79,106.31-22.87,30.81,8.21,54,32,82,46,35.18,17.59,72.14,11.28,106-7.35,28.72-15.78,43.53-40.4,52.79-71,7.33-24.23,12.2-48.44,39.79-55.64,44.17-11.51,80.36,25.68,106.46,55.88,26.35,30.5,60.45,93.17,105.73,97.08,17.57,1.52,33.64-10,50.25-13.92,21-5,42.37-4,63.36.57,42.89,9.31,81.77,31.41,125.62,37.34,40.76,5.52,85-4.06,123.37-18.1,18.94-6.93,35.24-21.93,54.61-27,8.11-2.11,16.61-1.73,24.86-.91,21.8,2.16,41.21,5.49,63.42,2.07,42-6.47,72.37-29.95,103.74-56.75,33-28.17,70.67-56.76,116-40.33,59.85,21.69,104.51,72.11,166,92.28,74.49,24.42,142.55-.45,214.74-18.18,97.18-23.86,192-26.82,286.29,10.34" fill="none" stroke="url(#linear-gradient-6)"/>
    <path id="Line_1-7" data-name="Line 1-7" d="M0,274.26c109.52-11.33,216-9,322.34,21.1,49.18,13.93,104.43,38.69,156.45,26.24,34.76-8.32,59.06-34.49,87.17-54.44,31.61-22.43,71.1-33,109.36-22.41,29.39,8.12,52.35,29.28,79.31,42.48,34.87,17.08,70.4,13,104.77-4.65,29.32-15,44.77-39.77,54.2-70.26,8.66-28,14.88-55.42,48.7-59.76,44.35-5.69,78.71,33,104.52,63.54,24.28,28.73,55.71,83.48,96.94,90.38,21.33,3.56,40.25-11.45,60.56-15.75,17.7-3.75,35.74-3.45,53.5-.37,46.6,8.09,88.17,33.64,135.38,39.69,39.25,5,83.26-3.73,120.06-17.59,17.27-6.51,31.51-20,48.85-25.62,28.05-9.11,59.88,4.86,89.13.13,43.53-7.05,73.16-33.16,104.7-61.64,32.61-29.45,69.66-54.83,114.82-36.62,58.23,23.49,101.77,71.82,162.58,91.69,73,23.86,140.52-.63,211.43-17.51C2365.08,239,2462.61,237.11,2560,274.26" fill="none" stroke="url(#linear-gradient-7)"/>
    <path id="Line_1-8" data-name="Line 1-8" d="M0,286.56c108.74-12.65,214.39-10.91,320,19.57,49.15,14.18,104.18,39.67,156.64,28.36,37.34-8.06,62.07-37,92.58-57.36s68.87-27.68,104.61-18.24c28.09,7.41,50.91,26.42,76.6,39,36.74,18.05,76.31,15.67,112.24-4.54,27.79-15.63,41.07-40.74,50.1-70.34,7.42-24.32,13.51-49.18,41-56.43,48-12.67,86.75,31.26,114.2,63.81,23.9,28.34,55.51,82.41,96.12,88.66,21.5,3.3,40.57-12.24,60.9-17,19.61-4.57,39.5-4.28,59.2-.54,44.22,8.37,83.89,32.11,128.52,39.13,38.22,6,82.89-1.69,119.34-14.8,18.78-6.75,33.64-22.14,52.44-27.75,8.36-2.5,17.31-2.21,25.9-1.51,21.69,1.77,40.64,5.69,62.68,1.56,40.5-7.59,68.22-33.36,96.64-60.95,34.31-33.31,71.87-58.77,120-36.67,55.93,25.67,98.86,71.75,158.72,90.82,71.49,22.77,138.12-1.64,207.69-17.55,103.33-23.62,203.55-24.37,303.89,12.7" fill="none" stroke="url(#linear-gradient-8)"/>
    <path id="Line_1-9" data-name="Line 1-9" d="M0,298.87c107.94-14,212.77-12.82,317.68,18,49.46,14.52,103.9,40.68,156.81,30.38,36.74-7.15,60.9-35,90.34-55.33A132,132,0,0,1,668,271.72c31.1,6.76,56.34,27.41,85,40.1,34.08,15.11,69.84,13.73,103.56-2.74,32-15.61,45.54-42.83,55.42-75.3,7.69-25.27,15-49.29,44.08-55.38,47.87-10,85.65,33.81,113,66.34,24.07,28.61,54.77,81.26,95.31,86.95,21.66,3,40.89-13,61.23-18.17,21.4-5.42,43.4-5.27,65-.87,41.89,8.55,79.58,30.93,121.72,38.64,39.78,7.28,87.5.6,125.11-14.5,16.62-6.67,29.3-20.78,45.93-26.68,27.23-9.68,57.84,4.43,86.13-.44,43.88-7.55,70.82-36.93,100.45-67.18,30.5-31.13,64.72-52.71,108.29-34.63,58.94,24.45,102,75,164.36,94.39,69.81,21.75,136.11-2.52,204.4-17.47,106.51-23.32,209.62-23,313.05,14.09" fill="none" stroke="url(#linear-gradient-9)"/>
    <path id="Line_1-10" data-name="Line 1-10" d="M0,311.18c107.13-15.31,211.15-14.71,315.35,16.41,51.79,15.46,111.08,45.46,166.4,30.22,31.38-8.65,53-33,78.61-51.41,31.67-22.81,71.33-29.83,109.39-20.34,28.32,7.06,52.32,24.48,78.66,36.22C784.47,338.36,824.18,339,859.74,320c27.79-14.79,40.48-40,49.42-68.82,8.72-28.06,16.06-55.71,49.28-60.92,47.59-7.46,84.5,36.32,111.74,68.74,23.64,28.14,54.12,80.13,94.51,85.26,21.8,2.76,41.21-13.83,61.56-19.37,21.55-5.87,43.69-6.23,65.58-2.18,41.65,7.72,78.77,30.28,120.14,39.05,39.47,8.36,86.76,2.87,124.41-11.84,17.34-6.77,29.32-21.1,46-28.22,29.32-12.54,63.74,4.18,94.7-3.28,38.16-9.2,61.76-36.71,86.92-64.54,31.42-34.75,66.23-56.2,112.41-34.29,51.53,24.44,91.17,67.75,145.22,88.41,73,27.88,143.42,2.8,215.88-12.37,109.77-23,215.9-21.58,322.51,15.51" fill="none" stroke="url(#linear-gradient-10)"/>
    <path id="Line_1-11" data-name="Line 1-11" d="M0,323.49C106,306.9,209,306.85,312.19,338,364,353.7,423,384.65,478.65,370.79c33.73-8.4,55.4-35.18,82.78-54.29C590.82,296,626.77,291,661.81,297.88c31.47,6.19,58.08,25,87.26,37.13,35.66,14.86,76.17,16.28,111-2.61,27.08-14.67,38.87-40.11,47.59-68.18,8.64-27.8,16.23-55.59,48.91-61.25,47-8.14,83.93,34.09,111.12,66.1,24.23,28.54,58.34,87.28,101.31,88.14,18.15.36,35.09-13.35,51.69-18.92a146.79,146.79,0,0,1,66.88-6.29c45,6.15,84.36,31.61,128.46,41.25,38.27,8.36,85.2,3.65,121.67-11.12,17.37-7,28.54-21.79,45-29.53,29-13.65,63.62,3.27,94.27-4.2,40.47-9.87,62.32-41.47,88.13-71,27.8-31.87,60.46-48.57,101.39-29.62,53.61,24.82,93.69,71,150,91.8,71.14,26.23,141.73.9,212.42-13.17,112.71-22.44,221.64-19.91,331.06,17.13" fill="none" stroke="url(#linear-gradient-11)"/>
    <path id="Line_1-12" data-name="Line 1-12" d="M0,335.79c104.82-17.86,206.76-18.54,309,12.67,51.93,15.86,110.62,47.76,166.58,35.19,33.2-7.45,54.17-33,80.24-52.49,30.62-22.84,68.78-28,105.85-20,68.45,14.71,125.39,74.12,198.64,33.62,26.36-14.58,37.32-40.21,45.83-67.57,8.58-27.56,16.4-55.5,48.57-61.59,46.45-8.78,83.37,32,110.5,63.55,24.82,28.89,57.71,86.25,100.22,90.31,21.93,2.1,41.53-15.34,61.73-21.62a147.92,147.92,0,0,1,66.42-5c44.33,6.68,82.91,32,126.35,41.83,37.17,8.41,83.73,4.39,119.07-10.54,17.44-7.37,27.8-22.59,44-31,28.71-14.84,63.58,2.22,94-5.2,39.39-9.59,59.69-41.2,83.55-70.78,29-36,62.42-49.35,105.17-26.56,50.72,27,90,70.64,145.2,90.27,69.51,24.71,140.39-.8,209.49-13.88,115.59-21.88,227.3-18.28,339.5,18.72" fill="none" stroke="url(#linear-gradient-12)"/>
    <path id="Line_1-13" data-name="Line 1-13" d="M0,348.1c107-19.73,210.26-19.74,314.36,13.49,49.52,15.8,104.71,45.51,158.32,34.81,33.9-6.77,54.78-33,80.83-53.09,28.89-22.22,64.49-26.79,100-20.69,68.88,11.86,125.22,70.22,198.93,38.56,32.12-13.79,43.6-43.19,53.31-74.32,8.21-26.34,17.14-52.75,47.55-58.63,47.9-9.27,85.71,33.3,113.59,65.85,24.39,28.46,54.78,80.44,95.2,87.48,23,4,44.55-15.11,65.56-22a150,150,0,0,1,72-5.72c41.9,7,78.54,30.37,119.29,41.15,37.63,10,85.5,7.13,121.45-8.75,18-7.95,28.07-24.89,45-33.49,31-15.73,68.26,3.49,101-7.86,34.44-11.94,51.7-43.41,72.46-70.78,27.61-36.4,61.22-45.33,101.74-22.36,48,27.2,86.2,68.47,138.64,88.29,67.33,25.45,136.34,2.19,203.83-10.42,121.48-22.7,238.75-19.55,357,18.51" fill="none" stroke="url(#linear-gradient-13)"/>
    <path id="Line_1-14" data-name="Line 1-14" d="M0,360.41c105.78-21,208.08-21.65,311.25,11.6,50.81,16.38,107.83,48.54,162.84,36.09,32.68-7.39,51.94-33.18,77-52.83,28.39-22.23,63.16-26.21,98.17-20.51,68.88,11.22,130.53,70.68,203.6,38.78,31.28-13.66,41.87-43.44,51.32-73.67,9-28.64,19.26-55.48,52.56-59.76,47.37-6.1,84.06,36.38,111.67,68.79,24,28.18,54,78.69,94,85.14,23.41,3.77,44.39-15.77,65.64-23.14a151.41,151.41,0,0,1,72.37-6.94c41.62,6.25,77.59,29.32,117.45,41.25,37.56,11.23,84.14,9.59,120.58-5.75,19.87-8.35,29.25-26.5,47.23-36.43,30.73-17,68.27,2.48,100.7-8.69,33.44-11.53,49.33-42.87,68.29-70,26.86-38.46,60.23-45.2,100.76-21.26,45.61,26.93,82.55,66.41,132.45,86.41,67.82,27.18,138.79,3.15,207.21-9.08,124.15-22.18,244.06-18,364.84,20" fill="none" stroke="url(#linear-gradient-14)"/>
    <path id="Line_1-15" data-name="Line 1-15" d="M0,372.72c108-23,211.48-23.09,316.63,12.47,48.23,16.31,102.1,46.37,154.68,35.61,33.59-6.88,52.34-33.36,77.57-53.59,28.91-23.18,64.9-26.27,100.61-19.79,67.13,12.19,132.87,70,203.84,38.51,58-25.8,35.28-124,101.91-133.3,48.84-6.82,86.42,37.81,114.74,71.08,23.47,27.57,53.52,77.35,92.91,83.15,23,3.37,44.94-16.76,65.62-24.28,23.42-8.5,48.13-11.89,72.91-8.61,42.94,5.7,79.56,30.17,120.31,42.82,36.6,11.36,82.65,10.3,118.09-5.33,19.77-8.72,28.52-27.53,46.2-38.1,31.61-18.88,71,2.35,104.39-11,31.55-12.65,44.87-44.16,62.54-70.62,25.84-38.67,59.59-40.17,97.78-16.7,45,27.7,82.23,66.94,132.38,86.27,63.73,24.57,131,3.08,195.19-8.36,130-23.16,255.12-19.28,381.7,19.79" fill="none" stroke="url(#linear-gradient-15)"/>
    <path id="Line_1-16" data-name="Line 1-16" d="M0,385c106.14-24.22,209.18-24.94,312.75,10.3,49.38,16.8,105.39,49.66,159.35,37.52,32.15-7.24,50-33.2,73.87-53.17,28-23.44,63.09-26.45,98.18-20.73,67.48,11,136.4,69.64,207.3,40.36C911,374.72,886.57,274.66,954.07,265c48.22-6.89,85.95,36.64,114,69.47,23.75,27.74,54.94,79.84,95.28,85,22.89,2.95,44.91-17.52,65.41-25.31,23.38-8.89,48.19-13,73.15-10.13,42.58,4.82,78.57,28.67,118.23,42.58,37,13,83.8,13.56,120.18-2.79,20.19-9.08,27.62-28.1,45-39.63,30.87-20.45,70.36.47,103.35-11.35,32.38-11.61,44.48-44.75,61.34-71.48,25.66-40.69,59.72-37.24,97.58-13,42.75,27.35,79.09,64.49,127.09,83.24,64.6,25.22,132.68,3.28,198-7.91C2304.25,341.19,2431.9,346.2,2560,385" fill="none" stroke="url(#linear-gradient-16)"/>
    <path id="Line_1-17" data-name="Line 1-17" d="M0,397.33c105-25.55,207-26.84,309.7,8.38,50,17.17,108.85,52.66,163.77,38.79,31-7.83,47.66-33.29,70.67-53,27.49-23.53,61.87-26.15,96.58-20.7,67.29,10.56,141,70.39,211.1,40.92,59.87-25.18,33-128.58,105.7-134.66,47.68-4,84.23,39.59,112.11,72.18,23.52,27.49,54.26,78.69,94.17,82.72,23.51,2.37,44.52-18.06,65.5-26.36,25-9.88,51.88-14.29,78.61-10.81,41.83,5.45,77,29.29,115.95,43.48,36.26,13.23,82.1,14.35,117.68-2.36,20.06-9.43,26.76-29,43.8-41,31.64-22.37,73.26.79,106.83-13.4,30.4-12.85,40.28-45.45,56.22-71.46,25-40.87,59.86-31.45,95.41-8.33,41,26.64,76.76,61.72,122.64,80.29,65,26.33,134.76,3.78,200.71-7.17C2300.51,352.66,2430,358.58,2560,397.33" fill="none" stroke="url(#linear-gradient-17)"/>
    <path id="Line_1-18" data-name="Line 1-18" d="M0,409.64c107.2-27.73,209.37-28.16,313.93,9.06,49.06,17.46,106.38,52.49,160.29,37.8,29.85-8.13,45.76-33.1,67.64-52.56,27.81-24.76,62.94-26.74,98.48-20.89,66.18,10.9,140.75,68.4,209.7,42,61.55-23.59,32.54-129.77,106.71-135.69,47-3.75,83.37,38.56,111.06,70.76,23.78,27.64,56,81.16,96.47,84.5,23.44,2,44.5-18.78,65.3-27.34,24.94-10.26,51.94-15.38,78.88-12.38,43,4.78,78.78,29.56,118.25,44.78,35.44,13.66,80,15.38,115-1.25,21-10,26.62-30.85,44.47-43.43,32-22.58,73.74,1.22,107.42-13.65,28.93-12.78,37.5-45.13,52.15-70.31,23.41-40.23,58.07-28.78,92.17-6.91,41,26.28,77.15,60.55,122.79,79,63.07,25.52,129.43,5,193.56-5.66,138-23,271-17.42,405.7,22.18" fill="none" stroke="url(#linear-gradient-18)"/>
    <path id="Line_1-19" data-name="Line 1-19" d="M0,422c106.08-29.09,207.05-30.13,310.92,7.14,48.94,17.55,106.84,53.65,161,40.13,31.1-7.77,46.48-33.23,68.82-53.39,27.39-24.72,62-26.51,97.21-20.93,65.74,10.42,144.46,69.11,212.43,42.59C911.06,413.81,881,309,955.09,301.83c48.35-4.67,86,40.18,114.21,73,22.93,26.69,55.68,79.82,95.35,82.54,23,1.58,45-19.74,65.29-28.37,25.15-10.7,52-16.49,79.4-13.9,42.94,4.08,78,28.28,116.76,44.63,35.56,15,81,18.55,116.62.94,20.72-10.23,25.49-31.46,42.88-44.41,31.76-23.65,73.75.38,107.44-13.75,29.52-12.38,36.68-46.08,51.14-71.28,23-40.17,59.35-22.38,91.28-2.09,39.84,25.32,75.89,57.52,120.14,75.32,63.69,25.62,130.66,5,195.41-5.58,139.13-22.81,273.22-16.35,409,23.08" fill="none" stroke="url(#linear-gradient-19)"/>
    <path id="Line_1-20" data-name="Line 1-20" d="M0,434.25c104.85-30.41,204.89-31.84,307.92,5.21,50.26,18.06,110,56.87,165.47,41.45,30.07-8.36,44.87-33.29,66.59-53.15,26.94-24.65,61.43-26.15,96.12-20.83,36.06,5.53,69.41,20.24,103.77,31.74C772,449.43,817.42,463.45,850.6,450,910,425.9,879.74,322.33,953.54,314.3c49.58-5.39,88.46,41.62,117.24,75.21,22.79,26.6,54.82,78.29,94.25,80.29,23.46,1.2,44.74-20.27,65.38-29.34,25.12-11,52.38-17.35,79.89-15.28,44.17,3.33,79.93,28.95,119.25,46.28,34.38,15.15,79.47,19.45,114,1.61,20.27-10.48,24.28-31.82,41.09-45.09,31.25-24.68,73.77-.42,107.5-13.61,30.19-11.8,35.84-46.76,50.56-71.8,23.12-39.33,60.8-16.26,91.09,2.67,40.27,25.17,77.88,56.21,122.94,72.74,60.35,22.13,122,4.29,183-6,142.79-24.06,280.64-17.87,420.22,22.25" fill="none" stroke="url(#linear-gradient-20)"/>
    <path id="Line_1-21" data-name="Line 1-21" d="M0,446.56c106.63-32.64,208.46-33.27,313,6.2,48.31,18.24,104.58,54.48,158.29,40.9,31.43-8,46-33.36,68.5-53.8,26.8-24.35,60.75-25.92,95.23-20.82,37.06,5.49,71.51,20.34,106.89,31.88,31.19,10.17,76.7,24.92,108.85,11.6,59.71-24.72,27.09-132,106-136,47.24-2.41,83.87,41,111.81,73.38,23.37,27.08,56.45,81.19,96.84,82.66,23,.84,45.23-21.21,65.36-30.32,26.82-12.13,55.9-19.31,85.45-16.45,41.82,4.05,76.06,27.88,112.88,45.62,34.61,16.67,79.67,22.93,115.17,4.25,19.92-10.49,22.78-32,39-45.39,32-26.22,76.41.61,110.64-14.29,27.39-11.93,32.85-44.86,46-68.38,22.89-40.95,62.85-13.35,93.15,4.87,39.92,24,78.07,52.41,122.42,67.89,61.23,21.38,122.34,3.87,184.06-6.56,142.79-24.13,280.88-17,420.43,22.77" fill="none" stroke="url(#linear-gradient-21)"/>
  </g>
</svg>
