<svg id="Layer_1" data-name="Layer 1" xmlns="http://www.w3.org/2000/svg" viewBox="0 0 279.38 329.08">
  <title>Untitled-1</title>
  <path d="M311.83,393.64l2.54-4.63a103.57,103.57,0,0,0,10.8-46.81,121.42,121.42,0,0,0-2.94-24.93,160.43,160.43,0,0,0-8.17-25.39c-4.68-12.08-12.11-24.25-20.83-35.49-4.35-5.63-9.08-11-13.88-16.18s-9.75-10.08-14.64-14.71a286,286,0,0,1,31.15,36.33c9.17,12.95,16.9,26.83,21.87,41.32a110,110,0,0,1,6.09,44,103.2,103.2,0,0,1-12,40.76A96.14,96.14,0,0,1,314,367.93a101,101,0,0,0,0-52.59l3.44-1a195.66,195.66,0,0,0-16.59-35.71,243.08,243.08,0,0,0-23.31-32.82A256.5,256.5,0,0,0,214,191.4c1.39,1.6,0,1.48-.71,1.7l-.33-.23.33.23c-.61.19-.65.65,2.25,2.75-2.9-2.1-2.86-2.56-2.25-2.75q8.74,6,17,12.38c5.49,4.25,10.88,8.56,16,13a296.6,296.6,0,0,1,28.86,28.24q6.59,7.49,12.47,15.36a190,190,0,0,1,10.79,16.26,157,157,0,0,1,8.79,17.11,129.75,129.75,0,0,1,6.23,17.88,121.89,121.89,0,0,0-4.83-13.91c-1.87-4.58-4.1-9.06-6.45-13.51a184.37,184.37,0,0,0-16.92-25.49,249.17,249.17,0,0,0-20.88-23.38c-7.48-7.44-15.4-14.56-23.67-21.39a520.05,520.05,0,0,0-53-38c-18.66-11.79-38.17-22.83-58.36-33.42-3.44-1.8-10.36-5.37-13.85-7.11-12.69-9.44-26.51-17-40.78-23.42,2.71-1.24,1.42-5.53,2.93-7.69s5.89-2.23,19.85,5.32L99,108.15C85.63,99.34,77.31,91.06,76.25,86c-.52-2.5.74-4.2,4.1-4.62s8.79.38,16.51,2.92c17.27,6,36.47,15.21,56.09,25.91s39.7,22.78,59.13,34.26c7,4.26,14,8.64,20.83,13.25s13.63,9.36,20.23,14.41a284.32,284.32,0,0,1,37.32,33.57c7.82,8.61,15.62,17.66,23.05,27.3A250.11,250.11,0,0,1,334,264a170.58,170.58,0,0,1,14.71,34.92,139.9,139.9,0,0,1,4,18.54A127.73,127.73,0,0,1,354,336.09c0,4.48.22,9.78,0,15.37a150.45,150.45,0,0,1-1.38,17c-1.6,11.05-4.63,20.64-7.32,24.33-3.34,5.49-5.24,4.94-6.9,3.33a143.85,143.85,0,0,0,6.28-19.91,134.91,134.91,0,0,0,3.36-20.7,139.36,139.36,0,0,0-2.86-41.64,171.5,171.5,0,0,0-17.64-47.39,271,271,0,0,0-28-41.39,312.28,312.28,0,0,1,27.39,41.18,179.89,179.89,0,0,1,18.28,47.6,133.92,133.92,0,0,1-1.59,61.53c-.81,3.32-1.87,6.56-2.89,9.8s-2.27,6.4-3.61,9.5c-1.38-1.58-2.86-3.08-5.09-2.2l-.46,1.24c-.28.77-.66,1.83-1.17,3-1,2.32-2.11,5.12-3,6.92a30.87,30.87,0,0,1-3.78,3.85,16.87,16.87,0,0,1-3.23,2.14c-1.93.94-3.45.94-4.64.3-2.38-1.29-3.44-5.1-3.8-9.35C311.86,398.46,311.83,396.14,311.83,393.64Z" transform="translate(-74.71 -81.28)"/>
</svg>
