<svg xmlns="http://www.w3.org/2000/svg" xmlns:xlink="http://www.w3.org/1999/xlink" width="660" height="540" viewBox="0 0 660 540">
  <defs>
    <clipPath id="clip-path">
      <rect width="516" height="540" fill="none"/>
    </clipPath>
    <clipPath id="clip-path-2">
      <rect width="696.242" height="30" fill="none"/>
    </clipPath>
    <clipPath id="clip-cover-7">
      <rect width="660" height="540"/>
    </clipPath>
  </defs>
  <g id="cover-7" clip-path="url(#clip-cover-7)">
    <g id="Repeat_Grid_4" data-name="Repeat Grid 4" transform="translate(0 29)" opacity="0.501" clip-path="url(#clip-path)">
      <g>
        <rect id="Rectangle_36" data-name="Rectangle 36" width="456" height="30" fill="#fff"/>
        <rect id="Rectangle_37" data-name="Rectangle 37" width="486" height="30" transform="translate(0 60)" fill="#fff"/>
        <rect id="Rectangle_38" data-name="Rectangle 38" width="516" height="30" transform="translate(0 120)" fill="#fff"/>
        <rect id="Rectangle_39" data-name="Rectangle 39" width="486" height="30" transform="translate(0 180)" fill="#fff"/>
        <rect id="Rectangle_40" data-name="Rectangle 40" width="330" height="30" transform="translate(0 240)" fill="#fff"/>
      </g>
      <g transform="translate(0 300)">
        <rect id="Rectangle_36-2" data-name="Rectangle 36" width="456" height="30" fill="#fff"/>
        <rect id="Rectangle_37-2" data-name="Rectangle 37" width="486" height="30" transform="translate(0 60)" fill="#fff"/>
        <rect id="Rectangle_38-2" data-name="Rectangle 38" width="516" height="30" transform="translate(0 120)" fill="#fff"/>
        <rect id="Rectangle_39-2" data-name="Rectangle 39" width="486" height="30" transform="translate(0 180)" fill="#fff"/>
        <rect id="Rectangle_40-2" data-name="Rectangle 40" width="330" height="30" transform="translate(0 240)" fill="#fff"/>
      </g>
    </g>
    <g id="Repeat_Grid_3" data-name="Repeat Grid 3" transform="translate(-28.242 299)" clip-path="url(#clip-path-2)">
      <g transform="translate(-66 -84)">
        <path id="Subtraction_2" data-name="Subtraction 2" d="M-884.758-848H-889l24-24h4.243l-24,24Z" transform="translate(955 956)" fill="#fff"/>
      </g>
      <g transform="translate(-48 -84)">
        <path id="Subtraction_2-2" data-name="Subtraction 2" d="M-884.758-848H-889l24-24h4.243l-24,24Z" transform="translate(955 956)" fill="#fff"/>
      </g>
      <g transform="translate(-30 -84)">
        <path id="Subtraction_2-3" data-name="Subtraction 2" d="M-884.758-848H-889l24-24h4.243l-24,24Z" transform="translate(955 956)" fill="#fff"/>
      </g>
      <g transform="translate(-12 -84)">
        <path id="Subtraction_2-4" data-name="Subtraction 2" d="M-884.758-848H-889l24-24h4.243l-24,24Z" transform="translate(955 956)" fill="#fff"/>
      </g>
      <g transform="translate(6 -84)">
        <path id="Subtraction_2-5" data-name="Subtraction 2" d="M-884.758-848H-889l24-24h4.243l-24,24Z" transform="translate(955 956)" fill="#fff"/>
      </g>
      <g transform="translate(24 -84)">
        <path id="Subtraction_2-6" data-name="Subtraction 2" d="M-884.758-848H-889l24-24h4.243l-24,24Z" transform="translate(955 956)" fill="#fff"/>
      </g>
      <g transform="translate(42 -84)">
        <path id="Subtraction_2-7" data-name="Subtraction 2" d="M-884.758-848H-889l24-24h4.243l-24,24Z" transform="translate(955 956)" fill="#fff"/>
      </g>
      <g transform="translate(60 -84)">
        <path id="Subtraction_2-8" data-name="Subtraction 2" d="M-884.758-848H-889l24-24h4.243l-24,24Z" transform="translate(955 956)" fill="#fff"/>
      </g>
      <g transform="translate(78 -84)">
        <path id="Subtraction_2-9" data-name="Subtraction 2" d="M-884.758-848H-889l24-24h4.243l-24,24Z" transform="translate(955 956)" fill="#fff"/>
      </g>
      <g transform="translate(96 -84)">
        <path id="Subtraction_2-10" data-name="Subtraction 2" d="M-884.758-848H-889l24-24h4.243l-24,24Z" transform="translate(955 956)" fill="#fff"/>
      </g>
      <g transform="translate(114 -84)">
        <path id="Subtraction_2-11" data-name="Subtraction 2" d="M-884.758-848H-889l24-24h4.243l-24,24Z" transform="translate(955 956)" fill="#fff"/>
      </g>
      <g transform="translate(132 -84)">
        <path id="Subtraction_2-12" data-name="Subtraction 2" d="M-884.758-848H-889l24-24h4.243l-24,24Z" transform="translate(955 956)" fill="#fff"/>
      </g>
      <g transform="translate(150 -84)">
        <path id="Subtraction_2-13" data-name="Subtraction 2" d="M-884.758-848H-889l24-24h4.243l-24,24Z" transform="translate(955 956)" fill="#fff"/>
      </g>
      <g transform="translate(168 -84)">
        <path id="Subtraction_2-14" data-name="Subtraction 2" d="M-884.758-848H-889l24-24h4.243l-24,24Z" transform="translate(955 956)" fill="#fff"/>
      </g>
      <g transform="translate(186 -84)">
        <path id="Subtraction_2-15" data-name="Subtraction 2" d="M-884.758-848H-889l24-24h4.243l-24,24Z" transform="translate(955 956)" fill="#fff"/>
      </g>
      <g transform="translate(204 -84)">
        <path id="Subtraction_2-16" data-name="Subtraction 2" d="M-884.758-848H-889l24-24h4.243l-24,24Z" transform="translate(955 956)" fill="#fff"/>
      </g>
      <g transform="translate(222 -84)">
        <path id="Subtraction_2-17" data-name="Subtraction 2" d="M-884.758-848H-889l24-24h4.243l-24,24Z" transform="translate(955 956)" fill="#fff"/>
      </g>
      <g transform="translate(240 -84)">
        <path id="Subtraction_2-18" data-name="Subtraction 2" d="M-884.758-848H-889l24-24h4.243l-24,24Z" transform="translate(955 956)" fill="#fff"/>
      </g>
      <g transform="translate(258 -84)">
        <path id="Subtraction_2-19" data-name="Subtraction 2" d="M-884.758-848H-889l24-24h4.243l-24,24Z" transform="translate(955 956)" fill="#fff"/>
      </g>
      <g transform="translate(276 -84)">
        <path id="Subtraction_2-20" data-name="Subtraction 2" d="M-884.758-848H-889l24-24h4.243l-24,24Z" transform="translate(955 956)" fill="#fff"/>
      </g>
      <g transform="translate(294 -84)">
        <path id="Subtraction_2-21" data-name="Subtraction 2" d="M-884.758-848H-889l24-24h4.243l-24,24Z" transform="translate(955 956)" fill="#fff"/>
      </g>
      <g transform="translate(312 -84)">
        <path id="Subtraction_2-22" data-name="Subtraction 2" d="M-884.758-848H-889l24-24h4.243l-24,24Z" transform="translate(955 956)" fill="#fff"/>
      </g>
      <g transform="translate(330 -84)">
        <path id="Subtraction_2-23" data-name="Subtraction 2" d="M-884.758-848H-889l24-24h4.243l-24,24Z" transform="translate(955 956)" fill="#fff"/>
      </g>
      <g transform="translate(348 -84)">
        <path id="Subtraction_2-24" data-name="Subtraction 2" d="M-884.758-848H-889l24-24h4.243l-24,24Z" transform="translate(955 956)" fill="#fff"/>
      </g>
      <g transform="translate(366 -84)">
        <path id="Subtraction_2-25" data-name="Subtraction 2" d="M-884.758-848H-889l24-24h4.243l-24,24Z" transform="translate(955 956)" fill="#fff"/>
      </g>
      <g transform="translate(384 -84)">
        <path id="Subtraction_2-26" data-name="Subtraction 2" d="M-884.758-848H-889l24-24h4.243l-24,24Z" transform="translate(955 956)" fill="#fff"/>
      </g>
      <g transform="translate(402 -84)">
        <path id="Subtraction_2-27" data-name="Subtraction 2" d="M-884.758-848H-889l24-24h4.243l-24,24Z" transform="translate(955 956)" fill="#fff"/>
      </g>
      <g transform="translate(420 -84)">
        <path id="Subtraction_2-28" data-name="Subtraction 2" d="M-884.758-848H-889l24-24h4.243l-24,24Z" transform="translate(955 956)" fill="#fff"/>
      </g>
      <g transform="translate(438 -84)">
        <path id="Subtraction_2-29" data-name="Subtraction 2" d="M-884.758-848H-889l24-24h4.243l-24,24Z" transform="translate(955 956)" fill="#fff"/>
      </g>
      <g transform="translate(456 -84)">
        <path id="Subtraction_2-30" data-name="Subtraction 2" d="M-884.758-848H-889l24-24h4.243l-24,24Z" transform="translate(955 956)" fill="#fff"/>
      </g>
      <g transform="translate(474 -84)">
        <path id="Subtraction_2-31" data-name="Subtraction 2" d="M-884.758-848H-889l24-24h4.243l-24,24Z" transform="translate(955 956)" fill="#fff"/>
      </g>
      <g transform="translate(492 -84)">
        <path id="Subtraction_2-32" data-name="Subtraction 2" d="M-884.758-848H-889l24-24h4.243l-24,24Z" transform="translate(955 956)" fill="#fff"/>
      </g>
      <g transform="translate(510 -84)">
        <path id="Subtraction_2-33" data-name="Subtraction 2" d="M-884.758-848H-889l24-24h4.243l-24,24Z" transform="translate(955 956)" fill="#fff"/>
      </g>
      <g transform="translate(528 -84)">
        <path id="Subtraction_2-34" data-name="Subtraction 2" d="M-884.758-848H-889l24-24h4.243l-24,24Z" transform="translate(955 956)" fill="#fff"/>
      </g>
      <g transform="translate(546 -84)">
        <path id="Subtraction_2-35" data-name="Subtraction 2" d="M-884.758-848H-889l24-24h4.243l-24,24Z" transform="translate(955 956)" fill="#fff"/>
      </g>
      <g transform="translate(564 -84)">
        <path id="Subtraction_2-36" data-name="Subtraction 2" d="M-884.758-848H-889l24-24h4.243l-24,24Z" transform="translate(955 956)" fill="#fff"/>
      </g>
      <g transform="translate(582 -84)">
        <path id="Subtraction_2-37" data-name="Subtraction 2" d="M-884.758-848H-889l24-24h4.243l-24,24Z" transform="translate(955 956)" fill="#fff"/>
      </g>
      <g transform="translate(600 -84)">
        <path id="Subtraction_2-38" data-name="Subtraction 2" d="M-884.758-848H-889l24-24h4.243l-24,24Z" transform="translate(955 956)" fill="#fff"/>
      </g>
      <g transform="translate(618 -84)">
        <path id="Subtraction_2-39" data-name="Subtraction 2" d="M-884.758-848H-889l24-24h4.243l-24,24Z" transform="translate(955 956)" fill="#fff"/>
      </g>
      <g transform="translate(-66 -66)">
        <path id="Subtraction_2-40" data-name="Subtraction 2" d="M-884.758-848H-889l24-24h4.243l-24,24Z" transform="translate(955 956)" fill="#fff"/>
      </g>
      <g transform="translate(-48 -66)">
        <path id="Subtraction_2-41" data-name="Subtraction 2" d="M-884.758-848H-889l24-24h4.243l-24,24Z" transform="translate(955 956)" fill="#fff"/>
      </g>
      <g transform="translate(-30 -66)">
        <path id="Subtraction_2-42" data-name="Subtraction 2" d="M-884.758-848H-889l24-24h4.243l-24,24Z" transform="translate(955 956)" fill="#fff"/>
      </g>
      <g transform="translate(-12 -66)">
        <path id="Subtraction_2-43" data-name="Subtraction 2" d="M-884.758-848H-889l24-24h4.243l-24,24Z" transform="translate(955 956)" fill="#fff"/>
      </g>
      <g transform="translate(6 -66)">
        <path id="Subtraction_2-44" data-name="Subtraction 2" d="M-884.758-848H-889l24-24h4.243l-24,24Z" transform="translate(955 956)" fill="#fff"/>
      </g>
      <g transform="translate(24 -66)">
        <path id="Subtraction_2-45" data-name="Subtraction 2" d="M-884.758-848H-889l24-24h4.243l-24,24Z" transform="translate(955 956)" fill="#fff"/>
      </g>
      <g transform="translate(42 -66)">
        <path id="Subtraction_2-46" data-name="Subtraction 2" d="M-884.758-848H-889l24-24h4.243l-24,24Z" transform="translate(955 956)" fill="#fff"/>
      </g>
      <g transform="translate(60 -66)">
        <path id="Subtraction_2-47" data-name="Subtraction 2" d="M-884.758-848H-889l24-24h4.243l-24,24Z" transform="translate(955 956)" fill="#fff"/>
      </g>
      <g transform="translate(78 -66)">
        <path id="Subtraction_2-48" data-name="Subtraction 2" d="M-884.758-848H-889l24-24h4.243l-24,24Z" transform="translate(955 956)" fill="#fff"/>
      </g>
      <g transform="translate(96 -66)">
        <path id="Subtraction_2-49" data-name="Subtraction 2" d="M-884.758-848H-889l24-24h4.243l-24,24Z" transform="translate(955 956)" fill="#fff"/>
      </g>
      <g transform="translate(114 -66)">
        <path id="Subtraction_2-50" data-name="Subtraction 2" d="M-884.758-848H-889l24-24h4.243l-24,24Z" transform="translate(955 956)" fill="#fff"/>
      </g>
      <g transform="translate(132 -66)">
        <path id="Subtraction_2-51" data-name="Subtraction 2" d="M-884.758-848H-889l24-24h4.243l-24,24Z" transform="translate(955 956)" fill="#fff"/>
      </g>
      <g transform="translate(150 -66)">
        <path id="Subtraction_2-52" data-name="Subtraction 2" d="M-884.758-848H-889l24-24h4.243l-24,24Z" transform="translate(955 956)" fill="#fff"/>
      </g>
      <g transform="translate(168 -66)">
        <path id="Subtraction_2-53" data-name="Subtraction 2" d="M-884.758-848H-889l24-24h4.243l-24,24Z" transform="translate(955 956)" fill="#fff"/>
      </g>
      <g transform="translate(186 -66)">
        <path id="Subtraction_2-54" data-name="Subtraction 2" d="M-884.758-848H-889l24-24h4.243l-24,24Z" transform="translate(955 956)" fill="#fff"/>
      </g>
      <g transform="translate(204 -66)">
        <path id="Subtraction_2-55" data-name="Subtraction 2" d="M-884.758-848H-889l24-24h4.243l-24,24Z" transform="translate(955 956)" fill="#fff"/>
      </g>
      <g transform="translate(222 -66)">
        <path id="Subtraction_2-56" data-name="Subtraction 2" d="M-884.758-848H-889l24-24h4.243l-24,24Z" transform="translate(955 956)" fill="#fff"/>
      </g>
      <g transform="translate(240 -66)">
        <path id="Subtraction_2-57" data-name="Subtraction 2" d="M-884.758-848H-889l24-24h4.243l-24,24Z" transform="translate(955 956)" fill="#fff"/>
      </g>
      <g transform="translate(258 -66)">
        <path id="Subtraction_2-58" data-name="Subtraction 2" d="M-884.758-848H-889l24-24h4.243l-24,24Z" transform="translate(955 956)" fill="#fff"/>
      </g>
      <g transform="translate(276 -66)">
        <path id="Subtraction_2-59" data-name="Subtraction 2" d="M-884.758-848H-889l24-24h4.243l-24,24Z" transform="translate(955 956)" fill="#fff"/>
      </g>
      <g transform="translate(294 -66)">
        <path id="Subtraction_2-60" data-name="Subtraction 2" d="M-884.758-848H-889l24-24h4.243l-24,24Z" transform="translate(955 956)" fill="#fff"/>
      </g>
      <g transform="translate(312 -66)">
        <path id="Subtraction_2-61" data-name="Subtraction 2" d="M-884.758-848H-889l24-24h4.243l-24,24Z" transform="translate(955 956)" fill="#fff"/>
      </g>
      <g transform="translate(330 -66)">
        <path id="Subtraction_2-62" data-name="Subtraction 2" d="M-884.758-848H-889l24-24h4.243l-24,24Z" transform="translate(955 956)" fill="#fff"/>
      </g>
      <g transform="translate(348 -66)">
        <path id="Subtraction_2-63" data-name="Subtraction 2" d="M-884.758-848H-889l24-24h4.243l-24,24Z" transform="translate(955 956)" fill="#fff"/>
      </g>
      <g transform="translate(366 -66)">
        <path id="Subtraction_2-64" data-name="Subtraction 2" d="M-884.758-848H-889l24-24h4.243l-24,24Z" transform="translate(955 956)" fill="#fff"/>
      </g>
      <g transform="translate(384 -66)">
        <path id="Subtraction_2-65" data-name="Subtraction 2" d="M-884.758-848H-889l24-24h4.243l-24,24Z" transform="translate(955 956)" fill="#fff"/>
      </g>
      <g transform="translate(402 -66)">
        <path id="Subtraction_2-66" data-name="Subtraction 2" d="M-884.758-848H-889l24-24h4.243l-24,24Z" transform="translate(955 956)" fill="#fff"/>
      </g>
      <g transform="translate(420 -66)">
        <path id="Subtraction_2-67" data-name="Subtraction 2" d="M-884.758-848H-889l24-24h4.243l-24,24Z" transform="translate(955 956)" fill="#fff"/>
      </g>
      <g transform="translate(438 -66)">
        <path id="Subtraction_2-68" data-name="Subtraction 2" d="M-884.758-848H-889l24-24h4.243l-24,24Z" transform="translate(955 956)" fill="#fff"/>
      </g>
      <g transform="translate(456 -66)">
        <path id="Subtraction_2-69" data-name="Subtraction 2" d="M-884.758-848H-889l24-24h4.243l-24,24Z" transform="translate(955 956)" fill="#fff"/>
      </g>
      <g transform="translate(474 -66)">
        <path id="Subtraction_2-70" data-name="Subtraction 2" d="M-884.758-848H-889l24-24h4.243l-24,24Z" transform="translate(955 956)" fill="#fff"/>
      </g>
      <g transform="translate(492 -66)">
        <path id="Subtraction_2-71" data-name="Subtraction 2" d="M-884.758-848H-889l24-24h4.243l-24,24Z" transform="translate(955 956)" fill="#fff"/>
      </g>
      <g transform="translate(510 -66)">
        <path id="Subtraction_2-72" data-name="Subtraction 2" d="M-884.758-848H-889l24-24h4.243l-24,24Z" transform="translate(955 956)" fill="#fff"/>
      </g>
      <g transform="translate(528 -66)">
        <path id="Subtraction_2-73" data-name="Subtraction 2" d="M-884.758-848H-889l24-24h4.243l-24,24Z" transform="translate(955 956)" fill="#fff"/>
      </g>
      <g transform="translate(546 -66)">
        <path id="Subtraction_2-74" data-name="Subtraction 2" d="M-884.758-848H-889l24-24h4.243l-24,24Z" transform="translate(955 956)" fill="#fff"/>
      </g>
      <g transform="translate(564 -66)">
        <path id="Subtraction_2-75" data-name="Subtraction 2" d="M-884.758-848H-889l24-24h4.243l-24,24Z" transform="translate(955 956)" fill="#fff"/>
      </g>
      <g transform="translate(582 -66)">
        <path id="Subtraction_2-76" data-name="Subtraction 2" d="M-884.758-848H-889l24-24h4.243l-24,24Z" transform="translate(955 956)" fill="#fff"/>
      </g>
      <g transform="translate(600 -66)">
        <path id="Subtraction_2-77" data-name="Subtraction 2" d="M-884.758-848H-889l24-24h4.243l-24,24Z" transform="translate(955 956)" fill="#fff"/>
      </g>
      <g transform="translate(618 -66)">
        <path id="Subtraction_2-78" data-name="Subtraction 2" d="M-884.758-848H-889l24-24h4.243l-24,24Z" transform="translate(955 956)" fill="#fff"/>
      </g>
    </g>
    <g id="Group_35" data-name="Group 35" transform="translate(29 -1)">
      <line id="Line_4" data-name="Line 4" x2="28" y2="28" transform="translate(602 2)" fill="none" stroke="#fff" stroke-width="3"/>
      <line id="Line_5" data-name="Line 5" x2="28" y2="28" transform="translate(630 2) rotate(90)" fill="none" stroke="#fff" stroke-width="3"/>
    </g>
  </g>
</svg>
