<svg xmlns="http://www.w3.org/2000/svg" xmlns:xlink="http://www.w3.org/1999/xlink" width="660" height="660" viewBox="0 0 660 660">
  <defs>
    <clipPath id="clip-cover-12">
      <rect width="660" height="660"/>
    </clipPath>
  </defs>
  <g id="cover-12" clip-path="url(#clip-cover-12)">
    <g id="Ellipse_16" data-name="Ellipse 16" transform="translate(240 480)" fill="none" stroke="#6495ed" stroke-width="6">
      <circle cx="90" cy="90" r="90" stroke="none"/>
      <circle cx="90" cy="90" r="87" fill="none"/>
    </g>
    <g id="Subtraction_3" data-name="Subtraction 3" transform="matrix(0.995, 0.105, -0.105, 0.995, 868.192, 820.796)" fill="none">
      <path d="M-611-545a90.669,90.669,0,0,1-18.138-1.828,89.619,89.619,0,0,1-16.895-5.244,89.982,89.982,0,0,1-15.287-8.3,90.691,90.691,0,0,1-13.32-10.99,90.6,90.6,0,0,1-10.989-13.32,89.946,89.946,0,0,1-8.3-15.287,89.536,89.536,0,0,1-5.244-16.894A90.674,90.674,0,0,1-701-635h45a44.705,44.705,0,0,0,3.537,17.516,44.833,44.833,0,0,0,9.643,14.3,44.846,44.846,0,0,0,14.3,9.644A44.719,44.719,0,0,0-611-590a44.719,44.719,0,0,0,17.516-3.536,44.834,44.834,0,0,0,14.3-9.644,44.834,44.834,0,0,0,9.644-14.3A44.721,44.721,0,0,0-566-635h45a90.666,90.666,0,0,1-1.828,18.139,89.59,89.59,0,0,1-5.244,16.894,90.111,90.111,0,0,1-8.3,15.287,90.659,90.659,0,0,1-10.99,13.32,90.688,90.688,0,0,1-13.32,10.99,89.984,89.984,0,0,1-15.287,8.3,89.631,89.631,0,0,1-16.894,5.244A90.674,90.674,0,0,1-611-545Z" stroke="none"/>
      <path d="M -611.0001220703125 -551.0003662109375 C -605.2953491210938 -551.0003662109375 -599.5972900390625 -551.5744018554688 -594.0645751953125 -552.7064819335938 C -588.67724609375 -553.80908203125 -583.3746337890625 -555.4552001953125 -578.3048706054688 -557.5986938476562 C -573.3287963867188 -559.7033081054688 -568.5291748046875 -562.30859375 -564.0390014648438 -565.3423461914062 C -559.592529296875 -568.34619140625 -555.4082641601562 -571.798583984375 -551.6028442382812 -575.6032104492188 C -547.8005981445312 -579.4054565429688 -544.3483276367188 -583.589599609375 -541.34228515625 -588.0388793945312 C -538.3091430664062 -592.529541015625 -535.70361328125 -597.3296508789062 -533.5985107421875 -602.3048095703125 C -531.454833984375 -607.3742065429688 -529.808837890625 -612.6765747070312 -528.7062377929688 -618.0645751953125 C -527.9716186523438 -621.6547241210938 -527.4719848632812 -625.3145751953125 -527.211669921875 -629.00048828125 L -560.3475341796875 -629.0004272460938 C -560.9046630859375 -624.2328491210938 -562.1299438476562 -619.5930786132812 -564.0100708007812 -615.1474609375 C -566.5791625976562 -609.0728759765625 -570.2559814453125 -603.619140625 -574.9375 -598.938720703125 C -579.6188354492188 -594.2562866210938 -585.0725708007812 -590.5794677734375 -591.1470947265625 -588.0104370117188 C -597.438232421875 -585.349609375 -604.1177368164062 -584.00048828125 -611.0001220703125 -584.00048828125 C -617.8825073242188 -584.00048828125 -624.56201171875 -585.349609375 -630.8529663085938 -588.0103759765625 C -636.9256591796875 -590.57861328125 -642.3792724609375 -594.2553100585938 -647.0618286132812 -598.9378662109375 C -651.7433471679688 -603.618408203125 -655.4198608398438 -609.0721435546875 -657.9888916015625 -615.1466674804688 C -659.8697509765625 -619.5921630859375 -661.0953979492188 -624.2319946289062 -661.6526489257812 -629.00048828125 L -694.7882690429688 -629.0004272460938 C -694.5277709960938 -625.3157958984375 -694.0279541015625 -621.6559448242188 -693.2931518554688 -618.06494140625 C -692.1893310546875 -612.6717529296875 -690.5433959960938 -607.3695678710938 -688.4009399414062 -602.30517578125 C -686.2955322265625 -597.3272094726562 -683.6903076171875 -592.5276489257812 -680.656982421875 -588.0388793945312 C -677.6521606445312 -583.590087890625 -674.2003173828125 -579.4061279296875 -670.3978271484375 -575.6036376953125 C -666.5918579101562 -571.7984619140625 -662.4075927734375 -568.3460693359375 -657.9609985351562 -565.3421630859375 C -653.4708251953125 -562.3084106445312 -648.671142578125 -559.7031860351562 -643.696044921875 -557.5989990234375 C -638.6254272460938 -555.4551391601562 -633.3226318359375 -553.8090209960938 -627.9351196289062 -552.70654296875 C -622.4020385742188 -551.5744018554688 -616.7042846679688 -551.0003662109375 -611.0001220703125 -551.0003662109375 M -611.0001220703125 -545.0003662109375 C -617.1077270507812 -545.0003662109375 -623.2100830078125 -545.6154174804688 -629.1378173828125 -546.8283081054688 C -634.9131469726562 -548.0101928710938 -640.5973510742188 -549.7745971679688 -646.0325927734375 -552.0726318359375 C -651.3653564453125 -554.3280639648438 -656.5087890625 -557.1199340820312 -661.3200073242188 -560.3705444335938 C -666.0824584960938 -563.5878295898438 -670.56396484375 -567.285400390625 -674.6400146484375 -571.3605346679688 C -678.7130126953125 -575.4335327148438 -682.4102783203125 -579.9149780273438 -685.6290893554688 -584.6805419921875 C -688.8786010742188 -589.4892578125 -691.6704711914062 -594.6326904296875 -693.927001953125 -599.9679565429688 C -696.2235717773438 -605.3966064453125 -697.988037109375 -611.08056640625 -699.1713256835938 -616.86181640625 C -700.3848266601562 -622.79248046875 -701.0001220703125 -628.8952026367188 -701.0001220703125 -635.0004272460938 L -656.0001220703125 -635.00048828125 C -656.0000610351562 -628.9253540039062 -654.8104248046875 -623.0325317382812 -652.463134765625 -617.484619140625 C -650.1963500976562 -612.124755859375 -646.9518432617188 -607.312255859375 -642.8196411132812 -603.180908203125 C -638.6858520507812 -599.047119140625 -633.8733520507812 -595.80224609375 -628.515869140625 -593.5364990234375 C -622.96826171875 -591.1901245117188 -617.0750732421875 -590.00048828125 -611.0001220703125 -590.00048828125 C -604.9251708984375 -590.00048828125 -599.031982421875 -591.1901245117188 -593.4843139648438 -593.5364990234375 C -588.1253662109375 -595.8029174804688 -583.3128662109375 -599.0477294921875 -579.1806030273438 -603.180908203125 C -575.0474243164062 -607.3131713867188 -571.8026123046875 -612.1256713867188 -569.5361938476562 -617.484619140625 C -567.1898803710938 -623.0324096679688 -566.0001220703125 -628.9255981445312 -566.0001220703125 -635.0004272460938 L -521.0001220703125 -635.00048828125 C -521.0000610351562 -628.8903198242188 -521.6154174804688 -622.7879028320312 -522.8280029296875 -616.86181640625 C -524.010009765625 -611.0859375 -525.7744140625 -605.4020385742188 -528.0723266601562 -599.9679565429688 C -530.3286743164062 -594.6351928710938 -533.1205444335938 -589.4917602539062 -536.3702392578125 -584.6805419921875 C -539.5903930664062 -579.914306640625 -543.2879638671875 -575.4328002929688 -547.3602294921875 -571.3605346679688 C -551.43603515625 -567.2855834960938 -555.9175415039062 -563.5880126953125 -560.6802368164062 -560.3705444335938 C -565.4913940429688 -557.1199340820312 -570.6348266601562 -554.328125 -575.9675903320312 -552.0726318359375 C -581.4024658203125 -549.7747802734375 -587.08642578125 -548.0103149414062 -592.8615112304688 -546.8283081054688 C -598.7892456054688 -545.6154174804688 -604.8919067382812 -545.0003662109375 -611.0001220703125 -545.0003662109375 Z" stroke="none" fill="#f08080"/>
    </g>
    <g id="Subtraction_1" data-name="Subtraction 1" transform="matrix(0.998, 0.07, -0.07, 0.998, 850.867, 1172.748)" fill="none">
      <path d="M-478-655H-658a90.662,90.662,0,0,1,1.828-18.138,89.552,89.552,0,0,1,5.244-16.894,90.012,90.012,0,0,1,8.3-15.288,90.644,90.644,0,0,1,10.99-13.32,90.65,90.65,0,0,1,13.32-10.99,90.009,90.009,0,0,1,15.288-8.3,89.551,89.551,0,0,1,16.894-5.244A90.667,90.667,0,0,1-568-745a90.665,90.665,0,0,1,18.138,1.828,89.549,89.549,0,0,1,16.894,5.244,90.012,90.012,0,0,1,15.288,8.3,90.653,90.653,0,0,1,13.32,10.99,90.647,90.647,0,0,1,10.99,13.32,90.009,90.009,0,0,1,8.3,15.288,89.548,89.548,0,0,1,5.244,16.894A90.665,90.665,0,0,1-478-655Z" stroke="none"/>
      <path d="M -484.211669921875 -661.000244140625 C -484.4720764160156 -664.685546875 -484.9718017578125 -668.3446655273438 -485.7066040039062 -671.9353637695312 C -486.8096313476562 -677.3258056640625 -488.45556640625 -682.6281127929688 -490.5986022949219 -687.69482421875 C -492.7032470703125 -692.6707153320312 -495.3086242675781 -697.4705810546875 -498.3423461914062 -701.9610595703125 C -501.3482360839844 -706.4103393554688 -504.8004760742188 -710.5944213867188 -508.6030578613281 -714.3970336914062 C -512.4060668945312 -718.1998901367188 -516.590087890625 -721.6521606445312 -521.0390625 -724.6578369140625 C -525.5293579101562 -727.69140625 -530.3292236328125 -730.2967529296875 -535.305419921875 -732.4015502929688 C -540.3716430664062 -734.54443359375 -545.673828125 -736.1903076171875 -551.0648193359375 -737.2935180664062 C -556.5990600585938 -738.426025390625 -562.2969360351562 -739.000244140625 -567.9999389648438 -739.000244140625 C -573.7030639648438 -739.000244140625 -579.4009399414062 -738.426025390625 -584.9352416992188 -737.2935791015625 C -590.326171875 -736.1903686523438 -595.6284790039062 -734.54443359375 -600.6948852539062 -732.4015502929688 C -605.6710815429688 -730.2967529296875 -610.4708862304688 -727.69140625 -614.9611206054688 -724.6578369140625 C -619.4100341796875 -721.6522216796875 -623.5940551757812 -718.199951171875 -627.3970336914062 -714.3970947265625 C -631.1996459960938 -710.594482421875 -634.6517944335938 -706.410400390625 -637.65771484375 -701.9610595703125 C -640.691162109375 -697.4710083007812 -643.2965087890625 -692.6710815429688 -645.4013061523438 -687.6948852539062 C -647.5443725585938 -682.6279907226562 -649.1903076171875 -677.3257446289062 -650.2933349609375 -671.9353637695312 C -651.0280151367188 -668.3449096679688 -651.5277709960938 -664.6854248046875 -651.7881469726562 -661.000244140625 L -484.211669921875 -661.000244140625 M -477.9998779296875 -655.000244140625 L -477.9999084472656 -655.000244140625 L -657.9999389648438 -655.000244140625 C -657.9999389648438 -661.1085205078125 -657.3844604492188 -667.210693359375 -656.1715087890625 -673.1382446289062 C -654.9890747070312 -678.9165649414062 -653.2247314453125 -684.6004638671875 -650.9273681640625 -690.0321655273438 C -648.671630859375 -695.3651733398438 -645.8798217773438 -700.5087280273438 -642.6294555664062 -705.3198852539062 C -639.4097900390625 -710.085693359375 -635.7122802734375 -714.567138671875 -631.6397094726562 -718.6397094726562 C -627.56689453125 -722.7124633789062 -623.0855102539062 -726.4100341796875 -618.3199462890625 -729.6295776367188 C -613.5087280273438 -732.8800048828125 -608.3651733398438 -735.671875 -603.0322265625 -737.9275512695312 C -597.6009521484375 -740.2247924804688 -591.9169311523438 -741.9891967773438 -586.13818359375 -743.1717529296875 C -580.208740234375 -744.3850708007812 -574.1061401367188 -745.000244140625 -567.9999389648438 -745.000244140625 C -561.8938598632812 -745.000244140625 -555.7913208007812 -744.3850708007812 -549.8619384765625 -743.1717529296875 C -544.083251953125 -741.9891967773438 -538.3993530273438 -740.224853515625 -532.968017578125 -737.9275512695312 C -527.63525390625 -735.6719360351562 -522.49169921875 -732.880126953125 -517.6802368164062 -729.6295776367188 C -512.91455078125 -726.409912109375 -508.4331665039062 -722.7123413085938 -504.3604736328125 -718.6397094726562 C -500.2878112792969 -714.5670776367188 -496.5903015136719 -710.0856323242188 -493.37060546875 -705.3198852539062 C -490.1201477050781 -700.5086059570312 -487.3282470703125 -695.3651123046875 -485.0725708007812 -690.0321655273438 C -482.7752380371094 -684.6005859375 -481.0108337402344 -678.9166870117188 -479.8283996582031 -673.1382446289062 C -478.6151733398438 -667.2094116210938 -477.9999694824219 -661.1072387695312 -477.9998779296875 -655.001220703125 L -477.9998779296875 -655.000244140625 Z" stroke="none" fill="#7b68ee"/>
    </g>
    <g id="Rectangle_23" data-name="Rectangle 23" transform="translate(234 220.106) rotate(-3)" fill="none" stroke="#66cdaa" stroke-width="6">
      <rect width="174" height="174" stroke="none"/>
      <rect x="3" y="3" width="168" height="168" fill="none"/>
    </g>
  </g>
</svg>
