<svg xmlns="http://www.w3.org/2000/svg" xmlns:xlink="http://www.w3.org/1999/xlink" width="660" height="561" viewBox="0 0 660 561">
  <defs>
    <clipPath id="clip-cover-16-pattern">
      <rect width="660" height="561"/>
    </clipPath>
  </defs>
  <g id="cover-16-pattern" clip-path="url(#clip-cover-16-pattern)">
    <g id="Group_47" data-name="Group 47" transform="translate(0 -55.917)">
      <path id="Line_1" data-name="Line 1" d="M0,60H660" fill="none" stroke="#111315" stroke-width="4"/>
      <path id="Line_2" data-name="Line 2" d="M0,120H660" fill="none" stroke="#111315" stroke-width="4"/>
      <path id="Line_3" data-name="Line 3" d="M0,180H660" fill="none" stroke="#111315" stroke-width="4"/>
      <path id="Line_4" data-name="Line 4" d="M0,240c60.427,0,601.879-.391,660,0" fill="none" stroke="#111315" stroke-width="4"/>
      <path id="Line_5" data-name="Line 5" d="M0,300c44.271,0,607.084-.128,660,0" fill="none" stroke="#111315" stroke-width="4"/>
      <path id="Line_6" data-name="Line 6" d="M0,360c45.661.016,614.409,0,660,0" fill="none" stroke="#111315" stroke-width="4"/>
      <path id="Line_7" data-name="Line 7" d="M0,420c56.165,1.991,615.487,0,660,0" fill="none" stroke="#111315" stroke-width="4"/>
      <path id="Line_8" data-name="Line 8" d="M0,480c64.521,3.7,611.034,0,660,0" fill="none" stroke="#111315" stroke-width="4"/>
      <path id="Line_9" data-name="Line 9" d="M0,540c52.353-.065,615.791,0,660,0" fill="none" stroke="#111315" stroke-width="4"/>
      <path id="Line_10" data-name="Line 10" d="M0,600c54.263-.789,618.533,0,660,0" fill="none" stroke="#111315" stroke-width="4"/>
    </g>
  </g>
</svg>
