<svg xmlns="http://www.w3.org/2000/svg" xmlns:xlink="http://www.w3.org/1999/xlink" width="540" height="540" viewBox="0 0 540 540">
  <defs>
    <clipPath id="clip-path">
      <rect width="510" height="510" fill="none"/>
    </clipPath>
    <clipPath id="clip-cover-13">
      <rect width="540" height="540"/>
    </clipPath>
  </defs>
  <g id="cover-13" clip-path="url(#clip-cover-13)">
    <g id="Repeat_Grid_2" data-name="Repeat Grid 2" transform="translate(15 15)" clip-path="url(#clip-path)">
      <g transform="translate(0 -27)">
        <rect id="dot" width="6" height="6" rx="3" transform="translate(0 27)" fill="#fff"/>
      </g>
      <g transform="translate(36 -27)">
        <rect id="dot-2" data-name="dot" width="6" height="6" rx="3" transform="translate(0 27)" fill="#fff"/>
      </g>
      <g transform="translate(72 -27)">
        <rect id="dot-3" data-name="dot" width="6" height="6" rx="3" transform="translate(0 27)" fill="#fff"/>
      </g>
      <g transform="translate(108 -27)">
        <rect id="dot-4" data-name="dot" width="6" height="6" rx="3" transform="translate(0 27)" fill="#fff"/>
      </g>
      <g transform="translate(144 -27)">
        <rect id="dot-5" data-name="dot" width="6" height="6" rx="3" transform="translate(0 27)" fill="#fff"/>
      </g>
      <g transform="translate(180 -27)">
        <rect id="dot-6" data-name="dot" width="6" height="6" rx="3" transform="translate(0 27)" fill="#fff"/>
      </g>
      <g transform="translate(216 -27)">
        <rect id="dot-7" data-name="dot" width="6" height="6" rx="3" transform="translate(0 27)" fill="#fff"/>
      </g>
      <g transform="translate(252 -27)">
        <rect id="dot-8" data-name="dot" width="6" height="6" rx="3" transform="translate(0 27)" fill="#fff"/>
      </g>
      <g transform="translate(288 -27)">
        <rect id="dot-9" data-name="dot" width="6" height="6" rx="3" transform="translate(0 27)" fill="#fff"/>
      </g>
      <g transform="translate(324 -27)">
        <rect id="dot-10" data-name="dot" width="6" height="6" rx="3" transform="translate(0 27)" fill="#fff"/>
      </g>
      <g transform="translate(360 -27)">
        <rect id="dot-11" data-name="dot" width="6" height="6" rx="3" transform="translate(0 27)" fill="#fff"/>
      </g>
      <g transform="translate(396 -27)">
        <rect id="dot-12" data-name="dot" width="6" height="6" rx="3" transform="translate(0 27)" fill="#fff"/>
      </g>
      <g transform="translate(432 -27)">
        <rect id="dot-13" data-name="dot" width="6" height="6" rx="3" transform="translate(0 27)" fill="#fff"/>
      </g>
      <g transform="translate(468 -27)">
        <rect id="dot-14" data-name="dot" width="6" height="6" rx="3" transform="translate(0 27)" fill="#fff"/>
      </g>
      <g transform="translate(504 -27)">
        <rect id="dot-15" data-name="dot" width="6" height="6" rx="3" transform="translate(0 27)" fill="#fff"/>
      </g>
      <g transform="translate(0 9)">
        <rect id="dot-16" data-name="dot" width="6" height="6" rx="3" transform="translate(0 27)" fill="#fff"/>
      </g>
      <g transform="translate(36 9)">
        <rect id="dot-17" data-name="dot" width="6" height="6" rx="3" transform="translate(0 27)" fill="#fff"/>
      </g>
      <g transform="translate(72 9)">
        <rect id="dot-18" data-name="dot" width="6" height="6" rx="3" transform="translate(0 27)" fill="#fff"/>
      </g>
      <g transform="translate(108 9)">
        <rect id="dot-19" data-name="dot" width="6" height="6" rx="3" transform="translate(0 27)" fill="#fff"/>
      </g>
      <g transform="translate(144 9)">
        <rect id="dot-20" data-name="dot" width="6" height="6" rx="3" transform="translate(0 27)" fill="#fff"/>
      </g>
      <g transform="translate(180 9)">
        <rect id="dot-21" data-name="dot" width="6" height="6" rx="3" transform="translate(0 27)" fill="#fff"/>
      </g>
      <g transform="translate(216 9)">
        <rect id="dot-22" data-name="dot" width="6" height="6" rx="3" transform="translate(0 27)" fill="#fff"/>
      </g>
      <g transform="translate(252 9)">
        <rect id="dot-23" data-name="dot" width="6" height="6" rx="3" transform="translate(0 27)" fill="#fff"/>
      </g>
      <g transform="translate(288 9)">
        <rect id="dot-24" data-name="dot" width="6" height="6" rx="3" transform="translate(0 27)" fill="#fff"/>
      </g>
      <g transform="translate(324 9)">
        <rect id="dot-25" data-name="dot" width="6" height="6" rx="3" transform="translate(0 27)" fill="#fff"/>
      </g>
      <g transform="translate(360 9)">
        <rect id="dot-26" data-name="dot" width="6" height="6" rx="3" transform="translate(0 27)" fill="#fff"/>
      </g>
      <g transform="translate(396 9)">
        <rect id="dot-27" data-name="dot" width="6" height="6" rx="3" transform="translate(0 27)" fill="#fff"/>
      </g>
      <g transform="translate(432 9)">
        <rect id="dot-28" data-name="dot" width="6" height="6" rx="3" transform="translate(0 27)" fill="#fff"/>
      </g>
      <g transform="translate(468 9)">
        <rect id="dot-29" data-name="dot" width="6" height="6" rx="3" transform="translate(0 27)" fill="#fff"/>
      </g>
      <g transform="translate(504 9)">
        <rect id="dot-30" data-name="dot" width="6" height="6" rx="3" transform="translate(0 27)" fill="#fff"/>
      </g>
      <g transform="translate(0 45)">
        <rect id="dot-31" data-name="dot" width="6" height="6" rx="3" transform="translate(0 27)" fill="#fff"/>
      </g>
      <g transform="translate(36 45)">
        <rect id="dot-32" data-name="dot" width="6" height="6" rx="3" transform="translate(0 27)" fill="#fff"/>
      </g>
      <g transform="translate(72 45)">
        <rect id="dot-33" data-name="dot" width="6" height="6" rx="3" transform="translate(0 27)" fill="#fff"/>
      </g>
      <g transform="translate(108 45)">
        <rect id="dot-34" data-name="dot" width="6" height="6" rx="3" transform="translate(0 27)" fill="#fff"/>
      </g>
      <g transform="translate(144 45)">
        <rect id="dot-35" data-name="dot" width="6" height="6" rx="3" transform="translate(0 27)" fill="#fff"/>
      </g>
      <g transform="translate(180 45)">
        <rect id="dot-36" data-name="dot" width="6" height="6" rx="3" transform="translate(0 27)" fill="#fff"/>
      </g>
      <g transform="translate(216 45)">
        <rect id="dot-37" data-name="dot" width="6" height="6" rx="3" transform="translate(0 27)" fill="#fff"/>
      </g>
      <g transform="translate(252 45)">
        <rect id="dot-38" data-name="dot" width="6" height="6" rx="3" transform="translate(0 27)" fill="#fff"/>
      </g>
      <g transform="translate(288 45)">
        <rect id="dot-39" data-name="dot" width="6" height="6" rx="3" transform="translate(0 27)" fill="#fff"/>
      </g>
      <g transform="translate(324 45)">
        <rect id="dot-40" data-name="dot" width="6" height="6" rx="3" transform="translate(0 27)" fill="#fff"/>
      </g>
      <g transform="translate(360 45)">
        <rect id="dot-41" data-name="dot" width="6" height="6" rx="3" transform="translate(0 27)" fill="#fff"/>
      </g>
      <g transform="translate(396 45)">
        <rect id="dot-42" data-name="dot" width="6" height="6" rx="3" transform="translate(0 27)" fill="#fff"/>
      </g>
      <g transform="translate(432 45)">
        <rect id="dot-43" data-name="dot" width="6" height="6" rx="3" transform="translate(0 27)" fill="#fff"/>
      </g>
      <g transform="translate(468 45)">
        <rect id="dot-44" data-name="dot" width="6" height="6" rx="3" transform="translate(0 27)" fill="#fff"/>
      </g>
      <g transform="translate(504 45)">
        <rect id="dot-45" data-name="dot" width="6" height="6" rx="3" transform="translate(0 27)" fill="#fff"/>
      </g>
      <g transform="translate(0 81)">
        <rect id="dot-46" data-name="dot" width="6" height="6" rx="3" transform="translate(0 27)" fill="#fff"/>
      </g>
      <g transform="translate(36 81)">
        <rect id="dot-47" data-name="dot" width="6" height="6" rx="3" transform="translate(0 27)" fill="#fff"/>
      </g>
      <g transform="translate(72 81)">
        <rect id="dot-48" data-name="dot" width="6" height="6" rx="3" transform="translate(0 27)" fill="#fff"/>
      </g>
      <g transform="translate(108 81)">
        <rect id="dot-49" data-name="dot" width="6" height="6" rx="3" transform="translate(0 27)" fill="#fff"/>
      </g>
      <g transform="translate(144 81)">
        <rect id="dot-50" data-name="dot" width="6" height="6" rx="3" transform="translate(0 27)" fill="#fff"/>
      </g>
      <g transform="translate(180 81)">
        <rect id="dot-51" data-name="dot" width="6" height="6" rx="3" transform="translate(0 27)" fill="#fff"/>
      </g>
      <g transform="translate(216 81)">
        <rect id="dot-52" data-name="dot" width="6" height="6" rx="3" transform="translate(0 27)" fill="#fff"/>
      </g>
      <g transform="translate(252 81)">
        <rect id="dot-53" data-name="dot" width="6" height="6" rx="3" transform="translate(0 27)" fill="#fff"/>
      </g>
      <g transform="translate(288 81)">
        <rect id="dot-54" data-name="dot" width="6" height="6" rx="3" transform="translate(0 27)" fill="#fff"/>
      </g>
      <g transform="translate(324 81)">
        <rect id="dot-55" data-name="dot" width="6" height="6" rx="3" transform="translate(0 27)" fill="#fff"/>
      </g>
      <g transform="translate(360 81)">
        <rect id="dot-56" data-name="dot" width="6" height="6" rx="3" transform="translate(0 27)" fill="#fff"/>
      </g>
      <g transform="translate(396 81)">
        <rect id="dot-57" data-name="dot" width="6" height="6" rx="3" transform="translate(0 27)" fill="#fff"/>
      </g>
      <g transform="translate(432 81)">
        <rect id="dot-58" data-name="dot" width="6" height="6" rx="3" transform="translate(0 27)" fill="#fff"/>
      </g>
      <g transform="translate(468 81)">
        <rect id="dot-59" data-name="dot" width="6" height="6" rx="3" transform="translate(0 27)" fill="#fff"/>
      </g>
      <g transform="translate(504 81)">
        <rect id="dot-60" data-name="dot" width="6" height="6" rx="3" transform="translate(0 27)" fill="#fff"/>
      </g>
      <g transform="translate(0 117)">
        <rect id="dot-61" data-name="dot" width="6" height="6" rx="3" transform="translate(0 27)" fill="#fff"/>
      </g>
      <g transform="translate(36 117)">
        <rect id="dot-62" data-name="dot" width="6" height="6" rx="3" transform="translate(0 27)" fill="#fff"/>
      </g>
      <g transform="translate(72 117)">
        <rect id="dot-63" data-name="dot" width="6" height="6" rx="3" transform="translate(0 27)" fill="#fff"/>
      </g>
      <g transform="translate(108 117)">
        <rect id="dot-64" data-name="dot" width="6" height="6" rx="3" transform="translate(0 27)" fill="#fff"/>
      </g>
      <g transform="translate(144 117)">
        <rect id="dot-65" data-name="dot" width="6" height="6" rx="3" transform="translate(0 27)" fill="#fff"/>
      </g>
      <g transform="translate(180 117)">
        <rect id="dot-66" data-name="dot" width="6" height="6" rx="3" transform="translate(0 27)" fill="#fff"/>
      </g>
      <g transform="translate(216 117)">
        <rect id="dot-67" data-name="dot" width="6" height="6" rx="3" transform="translate(0 27)" fill="#fff"/>
      </g>
      <g transform="translate(252 117)">
        <rect id="dot-68" data-name="dot" width="6" height="6" rx="3" transform="translate(0 27)" fill="#fff"/>
      </g>
      <g transform="translate(288 117)">
        <rect id="dot-69" data-name="dot" width="6" height="6" rx="3" transform="translate(0 27)" fill="#fff"/>
      </g>
      <g transform="translate(324 117)">
        <rect id="dot-70" data-name="dot" width="6" height="6" rx="3" transform="translate(0 27)" fill="#fff"/>
      </g>
      <g transform="translate(360 117)">
        <rect id="dot-71" data-name="dot" width="6" height="6" rx="3" transform="translate(0 27)" fill="#fff"/>
      </g>
      <g transform="translate(396 117)">
        <rect id="dot-72" data-name="dot" width="6" height="6" rx="3" transform="translate(0 27)" fill="#fff"/>
      </g>
      <g transform="translate(432 117)">
        <rect id="dot-73" data-name="dot" width="6" height="6" rx="3" transform="translate(0 27)" fill="#fff"/>
      </g>
      <g transform="translate(468 117)">
        <rect id="dot-74" data-name="dot" width="6" height="6" rx="3" transform="translate(0 27)" fill="#fff"/>
      </g>
      <g transform="translate(504 117)">
        <rect id="dot-75" data-name="dot" width="6" height="6" rx="3" transform="translate(0 27)" fill="#fff"/>
      </g>
      <g transform="translate(0 153)">
        <rect id="dot-76" data-name="dot" width="6" height="6" rx="3" transform="translate(0 27)" fill="#fff"/>
      </g>
      <g transform="translate(36 153)">
        <rect id="dot-77" data-name="dot" width="6" height="6" rx="3" transform="translate(0 27)" fill="#fff"/>
      </g>
      <g transform="translate(72 153)">
        <rect id="dot-78" data-name="dot" width="6" height="6" rx="3" transform="translate(0 27)" fill="#fff"/>
      </g>
      <g transform="translate(108 153)">
        <rect id="dot-79" data-name="dot" width="6" height="6" rx="3" transform="translate(0 27)" fill="#fff"/>
      </g>
      <g transform="translate(144 153)">
        <rect id="dot-80" data-name="dot" width="6" height="6" rx="3" transform="translate(0 27)" fill="#fff"/>
      </g>
      <g transform="translate(180 153)">
        <rect id="dot-81" data-name="dot" width="6" height="6" rx="3" transform="translate(0 27)" fill="#fff"/>
      </g>
      <g transform="translate(216 153)">
        <rect id="dot-82" data-name="dot" width="6" height="6" rx="3" transform="translate(0 27)" fill="#fff"/>
      </g>
      <g transform="translate(252 153)">
        <rect id="dot-83" data-name="dot" width="6" height="6" rx="3" transform="translate(0 27)" fill="#fff"/>
      </g>
      <g transform="translate(288 153)">
        <rect id="dot-84" data-name="dot" width="6" height="6" rx="3" transform="translate(0 27)" fill="#fff"/>
      </g>
      <g transform="translate(324 153)">
        <rect id="dot-85" data-name="dot" width="6" height="6" rx="3" transform="translate(0 27)" fill="#fff"/>
      </g>
      <g transform="translate(360 153)">
        <rect id="dot-86" data-name="dot" width="6" height="6" rx="3" transform="translate(0 27)" fill="#fff"/>
      </g>
      <g transform="translate(396 153)">
        <rect id="dot-87" data-name="dot" width="6" height="6" rx="3" transform="translate(0 27)" fill="#fff"/>
      </g>
      <g transform="translate(432 153)">
        <rect id="dot-88" data-name="dot" width="6" height="6" rx="3" transform="translate(0 27)" fill="#fff"/>
      </g>
      <g transform="translate(468 153)">
        <rect id="dot-89" data-name="dot" width="6" height="6" rx="3" transform="translate(0 27)" fill="#fff"/>
      </g>
      <g transform="translate(504 153)">
        <rect id="dot-90" data-name="dot" width="6" height="6" rx="3" transform="translate(0 27)" fill="#fff"/>
      </g>
      <g transform="translate(0 189)">
        <rect id="dot-91" data-name="dot" width="6" height="6" rx="3" transform="translate(0 27)" fill="#fff"/>
      </g>
      <g transform="translate(36 189)">
        <rect id="dot-92" data-name="dot" width="6" height="6" rx="3" transform="translate(0 27)" fill="#fff"/>
      </g>
      <g transform="translate(72 189)">
        <rect id="dot-93" data-name="dot" width="6" height="6" rx="3" transform="translate(0 27)" fill="#fff"/>
      </g>
      <g transform="translate(108 189)">
        <rect id="dot-94" data-name="dot" width="6" height="6" rx="3" transform="translate(0 27)" fill="#fff"/>
      </g>
      <g transform="translate(144 189)">
        <rect id="dot-95" data-name="dot" width="6" height="6" rx="3" transform="translate(0 27)" fill="#fff"/>
      </g>
      <g transform="translate(180 189)">
        <rect id="dot-96" data-name="dot" width="6" height="6" rx="3" transform="translate(0 27)" fill="#fff"/>
      </g>
      <g transform="translate(216 189)">
        <rect id="dot-97" data-name="dot" width="6" height="6" rx="3" transform="translate(0 27)" fill="#fff"/>
      </g>
      <g transform="translate(252 189)">
        <rect id="dot-98" data-name="dot" width="6" height="6" rx="3" transform="translate(0 27)" fill="#fff"/>
      </g>
      <g transform="translate(288 189)">
        <rect id="dot-99" data-name="dot" width="6" height="6" rx="3" transform="translate(0 27)" fill="#fff"/>
      </g>
      <g transform="translate(324 189)">
        <rect id="dot-100" data-name="dot" width="6" height="6" rx="3" transform="translate(0 27)" fill="#fff"/>
      </g>
      <g transform="translate(360 189)">
        <rect id="dot-101" data-name="dot" width="6" height="6" rx="3" transform="translate(0 27)" fill="#fff"/>
      </g>
      <g transform="translate(396 189)">
        <rect id="dot-102" data-name="dot" width="6" height="6" rx="3" transform="translate(0 27)" fill="#fff"/>
      </g>
      <g transform="translate(432 189)">
        <rect id="dot-103" data-name="dot" width="6" height="6" rx="3" transform="translate(0 27)" fill="#fff"/>
      </g>
      <g transform="translate(468 189)">
        <rect id="dot-104" data-name="dot" width="6" height="6" rx="3" transform="translate(0 27)" fill="#fff"/>
      </g>
      <g transform="translate(504 189)">
        <rect id="dot-105" data-name="dot" width="6" height="6" rx="3" transform="translate(0 27)" fill="#fff"/>
      </g>
      <g transform="translate(0 225)">
        <rect id="dot-106" data-name="dot" width="6" height="6" rx="3" transform="translate(0 27)" fill="#fff"/>
      </g>
      <g transform="translate(36 225)">
        <rect id="dot-107" data-name="dot" width="6" height="6" rx="3" transform="translate(0 27)" fill="#fff"/>
      </g>
      <g transform="translate(72 225)">
        <rect id="dot-108" data-name="dot" width="6" height="6" rx="3" transform="translate(0 27)" fill="#fff"/>
      </g>
      <g transform="translate(108 225)">
        <rect id="dot-109" data-name="dot" width="6" height="6" rx="3" transform="translate(0 27)" fill="#fff"/>
      </g>
      <g transform="translate(144 225)">
        <rect id="dot-110" data-name="dot" width="6" height="6" rx="3" transform="translate(0 27)" fill="#fff"/>
      </g>
      <g transform="translate(180 225)">
        <rect id="dot-111" data-name="dot" width="6" height="6" rx="3" transform="translate(0 27)" fill="#fff"/>
      </g>
      <g transform="translate(216 225)">
        <rect id="dot-112" data-name="dot" width="6" height="6" rx="3" transform="translate(0 27)" fill="#fff"/>
      </g>
      <g transform="translate(252 225)">
        <rect id="dot-113" data-name="dot" width="6" height="6" rx="3" transform="translate(0 27)" fill="#fff"/>
      </g>
      <g transform="translate(288 225)">
        <rect id="dot-114" data-name="dot" width="6" height="6" rx="3" transform="translate(0 27)" fill="#fff"/>
      </g>
      <g transform="translate(324 225)">
        <rect id="dot-115" data-name="dot" width="6" height="6" rx="3" transform="translate(0 27)" fill="#fff"/>
      </g>
      <g transform="translate(360 225)">
        <rect id="dot-116" data-name="dot" width="6" height="6" rx="3" transform="translate(0 27)" fill="#fff"/>
      </g>
      <g transform="translate(396 225)">
        <rect id="dot-117" data-name="dot" width="6" height="6" rx="3" transform="translate(0 27)" fill="#fff"/>
      </g>
      <g transform="translate(432 225)">
        <rect id="dot-118" data-name="dot" width="6" height="6" rx="3" transform="translate(0 27)" fill="#fff"/>
      </g>
      <g transform="translate(468 225)">
        <rect id="dot-119" data-name="dot" width="6" height="6" rx="3" transform="translate(0 27)" fill="#fff"/>
      </g>
      <g transform="translate(504 225)">
        <rect id="dot-120" data-name="dot" width="6" height="6" rx="3" transform="translate(0 27)" fill="#fff"/>
      </g>
      <g transform="translate(0 261)">
        <rect id="dot-121" data-name="dot" width="6" height="6" rx="3" transform="translate(0 27)" fill="#fff"/>
      </g>
      <g transform="translate(36 261)">
        <rect id="dot-122" data-name="dot" width="6" height="6" rx="3" transform="translate(0 27)" fill="#fff"/>
      </g>
      <g transform="translate(72 261)">
        <rect id="dot-123" data-name="dot" width="6" height="6" rx="3" transform="translate(0 27)" fill="#fff"/>
      </g>
      <g transform="translate(108 261)">
        <rect id="dot-124" data-name="dot" width="6" height="6" rx="3" transform="translate(0 27)" fill="#fff"/>
      </g>
      <g transform="translate(144 261)">
        <rect id="dot-125" data-name="dot" width="6" height="6" rx="3" transform="translate(0 27)" fill="#fff"/>
      </g>
      <g transform="translate(180 261)">
        <rect id="dot-126" data-name="dot" width="6" height="6" rx="3" transform="translate(0 27)" fill="#fff"/>
      </g>
      <g transform="translate(216 261)">
        <rect id="dot-127" data-name="dot" width="6" height="6" rx="3" transform="translate(0 27)" fill="#fff"/>
      </g>
      <g transform="translate(252 261)">
        <rect id="dot-128" data-name="dot" width="6" height="6" rx="3" transform="translate(0 27)" fill="#fff"/>
      </g>
      <g transform="translate(288 261)">
        <rect id="dot-129" data-name="dot" width="6" height="6" rx="3" transform="translate(0 27)" fill="#fff"/>
      </g>
      <g transform="translate(324 261)">
        <rect id="dot-130" data-name="dot" width="6" height="6" rx="3" transform="translate(0 27)" fill="#fff"/>
      </g>
      <g transform="translate(360 261)">
        <rect id="dot-131" data-name="dot" width="6" height="6" rx="3" transform="translate(0 27)" fill="#fff"/>
      </g>
      <g transform="translate(396 261)">
        <rect id="dot-132" data-name="dot" width="6" height="6" rx="3" transform="translate(0 27)" fill="#fff"/>
      </g>
      <g transform="translate(432 261)">
        <rect id="dot-133" data-name="dot" width="6" height="6" rx="3" transform="translate(0 27)" fill="#fff"/>
      </g>
      <g transform="translate(468 261)">
        <rect id="dot-134" data-name="dot" width="6" height="6" rx="3" transform="translate(0 27)" fill="#fff"/>
      </g>
      <g transform="translate(504 261)">
        <rect id="dot-135" data-name="dot" width="6" height="6" rx="3" transform="translate(0 27)" fill="#fff"/>
      </g>
      <g transform="translate(0 297)">
        <rect id="dot-136" data-name="dot" width="6" height="6" rx="3" transform="translate(0 27)" fill="#fff"/>
      </g>
      <g transform="translate(36 297)">
        <rect id="dot-137" data-name="dot" width="6" height="6" rx="3" transform="translate(0 27)" fill="#fff"/>
      </g>
      <g transform="translate(72 297)">
        <rect id="dot-138" data-name="dot" width="6" height="6" rx="3" transform="translate(0 27)" fill="#fff"/>
      </g>
      <g transform="translate(108 297)">
        <rect id="dot-139" data-name="dot" width="6" height="6" rx="3" transform="translate(0 27)" fill="#fff"/>
      </g>
      <g transform="translate(144 297)">
        <rect id="dot-140" data-name="dot" width="6" height="6" rx="3" transform="translate(0 27)" fill="#fff"/>
      </g>
      <g transform="translate(180 297)">
        <rect id="dot-141" data-name="dot" width="6" height="6" rx="3" transform="translate(0 27)" fill="#fff"/>
      </g>
      <g transform="translate(216 297)">
        <rect id="dot-142" data-name="dot" width="6" height="6" rx="3" transform="translate(0 27)" fill="#fff"/>
      </g>
      <g transform="translate(252 297)">
        <rect id="dot-143" data-name="dot" width="6" height="6" rx="3" transform="translate(0 27)" fill="#fff"/>
      </g>
      <g transform="translate(288 297)">
        <rect id="dot-144" data-name="dot" width="6" height="6" rx="3" transform="translate(0 27)" fill="#fff"/>
      </g>
      <g transform="translate(324 297)">
        <rect id="dot-145" data-name="dot" width="6" height="6" rx="3" transform="translate(0 27)" fill="#fff"/>
      </g>
      <g transform="translate(360 297)">
        <rect id="dot-146" data-name="dot" width="6" height="6" rx="3" transform="translate(0 27)" fill="#fff"/>
      </g>
      <g transform="translate(396 297)">
        <rect id="dot-147" data-name="dot" width="6" height="6" rx="3" transform="translate(0 27)" fill="#fff"/>
      </g>
      <g transform="translate(432 297)">
        <rect id="dot-148" data-name="dot" width="6" height="6" rx="3" transform="translate(0 27)" fill="#fff"/>
      </g>
      <g transform="translate(468 297)">
        <rect id="dot-149" data-name="dot" width="6" height="6" rx="3" transform="translate(0 27)" fill="#fff"/>
      </g>
      <g transform="translate(504 297)">
        <rect id="dot-150" data-name="dot" width="6" height="6" rx="3" transform="translate(0 27)" fill="#fff"/>
      </g>
      <g transform="translate(0 333)">
        <rect id="dot-151" data-name="dot" width="6" height="6" rx="3" transform="translate(0 27)" fill="#fff"/>
      </g>
      <g transform="translate(36 333)">
        <rect id="dot-152" data-name="dot" width="6" height="6" rx="3" transform="translate(0 27)" fill="#fff"/>
      </g>
      <g transform="translate(72 333)">
        <rect id="dot-153" data-name="dot" width="6" height="6" rx="3" transform="translate(0 27)" fill="#fff"/>
      </g>
      <g transform="translate(108 333)">
        <rect id="dot-154" data-name="dot" width="6" height="6" rx="3" transform="translate(0 27)" fill="#fff"/>
      </g>
      <g transform="translate(144 333)">
        <rect id="dot-155" data-name="dot" width="6" height="6" rx="3" transform="translate(0 27)" fill="#fff"/>
      </g>
      <g transform="translate(180 333)">
        <rect id="dot-156" data-name="dot" width="6" height="6" rx="3" transform="translate(0 27)" fill="#fff"/>
      </g>
      <g transform="translate(216 333)">
        <rect id="dot-157" data-name="dot" width="6" height="6" rx="3" transform="translate(0 27)" fill="#fff"/>
      </g>
      <g transform="translate(252 333)">
        <rect id="dot-158" data-name="dot" width="6" height="6" rx="3" transform="translate(0 27)" fill="#fff"/>
      </g>
      <g transform="translate(288 333)">
        <rect id="dot-159" data-name="dot" width="6" height="6" rx="3" transform="translate(0 27)" fill="#fff"/>
      </g>
      <g transform="translate(324 333)">
        <rect id="dot-160" data-name="dot" width="6" height="6" rx="3" transform="translate(0 27)" fill="#fff"/>
      </g>
      <g transform="translate(360 333)">
        <rect id="dot-161" data-name="dot" width="6" height="6" rx="3" transform="translate(0 27)" fill="#fff"/>
      </g>
      <g transform="translate(396 333)">
        <rect id="dot-162" data-name="dot" width="6" height="6" rx="3" transform="translate(0 27)" fill="#fff"/>
      </g>
      <g transform="translate(432 333)">
        <rect id="dot-163" data-name="dot" width="6" height="6" rx="3" transform="translate(0 27)" fill="#fff"/>
      </g>
      <g transform="translate(468 333)">
        <rect id="dot-164" data-name="dot" width="6" height="6" rx="3" transform="translate(0 27)" fill="#fff"/>
      </g>
      <g transform="translate(504 333)">
        <rect id="dot-165" data-name="dot" width="6" height="6" rx="3" transform="translate(0 27)" fill="#fff"/>
      </g>
      <g transform="translate(0 369)">
        <rect id="dot-166" data-name="dot" width="6" height="6" rx="3" transform="translate(0 27)" fill="#fff"/>
      </g>
      <g transform="translate(36 369)">
        <rect id="dot-167" data-name="dot" width="6" height="6" rx="3" transform="translate(0 27)" fill="#fff"/>
      </g>
      <g transform="translate(72 369)">
        <rect id="dot-168" data-name="dot" width="6" height="6" rx="3" transform="translate(0 27)" fill="#fff"/>
      </g>
      <g transform="translate(108 369)">
        <rect id="dot-169" data-name="dot" width="6" height="6" rx="3" transform="translate(0 27)" fill="#fff"/>
      </g>
      <g transform="translate(144 369)">
        <rect id="dot-170" data-name="dot" width="6" height="6" rx="3" transform="translate(0 27)" fill="#fff"/>
      </g>
      <g transform="translate(180 369)">
        <rect id="dot-171" data-name="dot" width="6" height="6" rx="3" transform="translate(0 27)" fill="#fff"/>
      </g>
      <g transform="translate(216 369)">
        <rect id="dot-172" data-name="dot" width="6" height="6" rx="3" transform="translate(0 27)" fill="#fff"/>
      </g>
      <g transform="translate(252 369)">
        <rect id="dot-173" data-name="dot" width="6" height="6" rx="3" transform="translate(0 27)" fill="#fff"/>
      </g>
      <g transform="translate(288 369)">
        <rect id="dot-174" data-name="dot" width="6" height="6" rx="3" transform="translate(0 27)" fill="#fff"/>
      </g>
      <g transform="translate(324 369)">
        <rect id="dot-175" data-name="dot" width="6" height="6" rx="3" transform="translate(0 27)" fill="#fff"/>
      </g>
      <g transform="translate(360 369)">
        <rect id="dot-176" data-name="dot" width="6" height="6" rx="3" transform="translate(0 27)" fill="#fff"/>
      </g>
      <g transform="translate(396 369)">
        <rect id="dot-177" data-name="dot" width="6" height="6" rx="3" transform="translate(0 27)" fill="#fff"/>
      </g>
      <g transform="translate(432 369)">
        <rect id="dot-178" data-name="dot" width="6" height="6" rx="3" transform="translate(0 27)" fill="#fff"/>
      </g>
      <g transform="translate(468 369)">
        <rect id="dot-179" data-name="dot" width="6" height="6" rx="3" transform="translate(0 27)" fill="#fff"/>
      </g>
      <g transform="translate(504 369)">
        <rect id="dot-180" data-name="dot" width="6" height="6" rx="3" transform="translate(0 27)" fill="#fff"/>
      </g>
      <g transform="translate(0 405)">
        <rect id="dot-181" data-name="dot" width="6" height="6" rx="3" transform="translate(0 27)" fill="#fff"/>
      </g>
      <g transform="translate(36 405)">
        <rect id="dot-182" data-name="dot" width="6" height="6" rx="3" transform="translate(0 27)" fill="#fff"/>
      </g>
      <g transform="translate(72 405)">
        <rect id="dot-183" data-name="dot" width="6" height="6" rx="3" transform="translate(0 27)" fill="#fff"/>
      </g>
      <g transform="translate(108 405)">
        <rect id="dot-184" data-name="dot" width="6" height="6" rx="3" transform="translate(0 27)" fill="#fff"/>
      </g>
      <g transform="translate(144 405)">
        <rect id="dot-185" data-name="dot" width="6" height="6" rx="3" transform="translate(0 27)" fill="#fff"/>
      </g>
      <g transform="translate(180 405)">
        <rect id="dot-186" data-name="dot" width="6" height="6" rx="3" transform="translate(0 27)" fill="#fff"/>
      </g>
      <g transform="translate(216 405)">
        <rect id="dot-187" data-name="dot" width="6" height="6" rx="3" transform="translate(0 27)" fill="#fff"/>
      </g>
      <g transform="translate(252 405)">
        <rect id="dot-188" data-name="dot" width="6" height="6" rx="3" transform="translate(0 27)" fill="#fff"/>
      </g>
      <g transform="translate(288 405)">
        <rect id="dot-189" data-name="dot" width="6" height="6" rx="3" transform="translate(0 27)" fill="#fff"/>
      </g>
      <g transform="translate(324 405)">
        <rect id="dot-190" data-name="dot" width="6" height="6" rx="3" transform="translate(0 27)" fill="#fff"/>
      </g>
      <g transform="translate(360 405)">
        <rect id="dot-191" data-name="dot" width="6" height="6" rx="3" transform="translate(0 27)" fill="#fff"/>
      </g>
      <g transform="translate(396 405)">
        <rect id="dot-192" data-name="dot" width="6" height="6" rx="3" transform="translate(0 27)" fill="#fff"/>
      </g>
      <g transform="translate(432 405)">
        <rect id="dot-193" data-name="dot" width="6" height="6" rx="3" transform="translate(0 27)" fill="#fff"/>
      </g>
      <g transform="translate(468 405)">
        <rect id="dot-194" data-name="dot" width="6" height="6" rx="3" transform="translate(0 27)" fill="#fff"/>
      </g>
      <g transform="translate(504 405)">
        <rect id="dot-195" data-name="dot" width="6" height="6" rx="3" transform="translate(0 27)" fill="#fff"/>
      </g>
      <g transform="translate(0 441)">
        <rect id="dot-196" data-name="dot" width="6" height="6" rx="3" transform="translate(0 27)" fill="#fff"/>
      </g>
      <g transform="translate(36 441)">
        <rect id="dot-197" data-name="dot" width="6" height="6" rx="3" transform="translate(0 27)" fill="#fff"/>
      </g>
      <g transform="translate(72 441)">
        <rect id="dot-198" data-name="dot" width="6" height="6" rx="3" transform="translate(0 27)" fill="#fff"/>
      </g>
      <g transform="translate(108 441)">
        <rect id="dot-199" data-name="dot" width="6" height="6" rx="3" transform="translate(0 27)" fill="#fff"/>
      </g>
      <g transform="translate(144 441)">
        <rect id="dot-200" data-name="dot" width="6" height="6" rx="3" transform="translate(0 27)" fill="#fff"/>
      </g>
      <g transform="translate(180 441)">
        <rect id="dot-201" data-name="dot" width="6" height="6" rx="3" transform="translate(0 27)" fill="#fff"/>
      </g>
      <g transform="translate(216 441)">
        <rect id="dot-202" data-name="dot" width="6" height="6" rx="3" transform="translate(0 27)" fill="#fff"/>
      </g>
      <g transform="translate(252 441)">
        <rect id="dot-203" data-name="dot" width="6" height="6" rx="3" transform="translate(0 27)" fill="#fff"/>
      </g>
      <g transform="translate(288 441)">
        <rect id="dot-204" data-name="dot" width="6" height="6" rx="3" transform="translate(0 27)" fill="#fff"/>
      </g>
      <g transform="translate(324 441)">
        <rect id="dot-205" data-name="dot" width="6" height="6" rx="3" transform="translate(0 27)" fill="#fff"/>
      </g>
      <g transform="translate(360 441)">
        <rect id="dot-206" data-name="dot" width="6" height="6" rx="3" transform="translate(0 27)" fill="#fff"/>
      </g>
      <g transform="translate(396 441)">
        <rect id="dot-207" data-name="dot" width="6" height="6" rx="3" transform="translate(0 27)" fill="#fff"/>
      </g>
      <g transform="translate(432 441)">
        <rect id="dot-208" data-name="dot" width="6" height="6" rx="3" transform="translate(0 27)" fill="#fff"/>
      </g>
      <g transform="translate(468 441)">
        <rect id="dot-209" data-name="dot" width="6" height="6" rx="3" transform="translate(0 27)" fill="#fff"/>
      </g>
      <g transform="translate(504 441)">
        <rect id="dot-210" data-name="dot" width="6" height="6" rx="3" transform="translate(0 27)" fill="#fff"/>
      </g>
      <g transform="translate(0 477)">
        <rect id="dot-211" data-name="dot" width="6" height="6" rx="3" transform="translate(0 27)" fill="#fff"/>
      </g>
      <g transform="translate(36 477)">
        <rect id="dot-212" data-name="dot" width="6" height="6" rx="3" transform="translate(0 27)" fill="#fff"/>
      </g>
      <g transform="translate(72 477)">
        <rect id="dot-213" data-name="dot" width="6" height="6" rx="3" transform="translate(0 27)" fill="#fff"/>
      </g>
      <g transform="translate(108 477)">
        <rect id="dot-214" data-name="dot" width="6" height="6" rx="3" transform="translate(0 27)" fill="#fff"/>
      </g>
      <g transform="translate(144 477)">
        <rect id="dot-215" data-name="dot" width="6" height="6" rx="3" transform="translate(0 27)" fill="#fff"/>
      </g>
      <g transform="translate(180 477)">
        <rect id="dot-216" data-name="dot" width="6" height="6" rx="3" transform="translate(0 27)" fill="#fff"/>
      </g>
      <g transform="translate(216 477)">
        <rect id="dot-217" data-name="dot" width="6" height="6" rx="3" transform="translate(0 27)" fill="#fff"/>
      </g>
      <g transform="translate(252 477)">
        <rect id="dot-218" data-name="dot" width="6" height="6" rx="3" transform="translate(0 27)" fill="#fff"/>
      </g>
      <g transform="translate(288 477)">
        <rect id="dot-219" data-name="dot" width="6" height="6" rx="3" transform="translate(0 27)" fill="#fff"/>
      </g>
      <g transform="translate(324 477)">
        <rect id="dot-220" data-name="dot" width="6" height="6" rx="3" transform="translate(0 27)" fill="#fff"/>
      </g>
      <g transform="translate(360 477)">
        <rect id="dot-221" data-name="dot" width="6" height="6" rx="3" transform="translate(0 27)" fill="#fff"/>
      </g>
      <g transform="translate(396 477)">
        <rect id="dot-222" data-name="dot" width="6" height="6" rx="3" transform="translate(0 27)" fill="#fff"/>
      </g>
      <g transform="translate(432 477)">
        <rect id="dot-223" data-name="dot" width="6" height="6" rx="3" transform="translate(0 27)" fill="#fff"/>
      </g>
      <g transform="translate(468 477)">
        <rect id="dot-224" data-name="dot" width="6" height="6" rx="3" transform="translate(0 27)" fill="#fff"/>
      </g>
      <g transform="translate(504 477)">
        <rect id="dot-225" data-name="dot" width="6" height="6" rx="3" transform="translate(0 27)" fill="#fff"/>
      </g>
    </g>
  </g>
</svg>
