<svg xmlns="http://www.w3.org/2000/svg" xmlns:xlink="http://www.w3.org/1999/xlink" width="660" height="540" viewBox="0 0 660 540">
  <defs>
    <clipPath id="clip-path">
      <rect width="540" height="54" fill="none"/>
    </clipPath>
    <clipPath id="clip-cover-2">
      <rect width="660" height="540"/>
    </clipPath>
  </defs>
  <g id="cover-2" clip-path="url(#clip-cover-2)">
    <g id="Group_16" data-name="Group 16">
      <circle id="Ellipse_8" data-name="Ellipse 8" cx="45" cy="45" r="45" fill="#4169e1"/>
      <g id="Group_11" data-name="Group 11" transform="translate(120 12)" opacity="0.753">
        <g id="Repeat_Grid_1" data-name="Repeat Grid 1" clip-path="url(#clip-path)">
          <path id="Path_1" data-name="Path 1" d="M0,0H540V6H0Z" fill="#fff"/>
          <g transform="translate(345)">
            <path id="Path_1-2" data-name="Path 1" d="M0,0H540V6H0Z" fill="#fff"/>
          </g>
          <g transform="translate(0 30)">
            <path id="Path_1-3" data-name="Path 1" d="M0,0H540V6H0Z" fill="#fff"/>
          </g>
          <g transform="translate(345 30)">
            <path id="Path_1-4" data-name="Path 1" d="M0,0H540V6H0Z" fill="#fff"/>
          </g>
        </g>
        <rect id="Rectangle_4" data-name="Rectangle 4" width="257.727" height="6" transform="translate(0 60)" fill="#fff"/>
      </g>
    </g>
    <g id="Group_16-2" data-name="Group 16" transform="translate(0 150)" opacity="0.751">
      <circle id="Ellipse_8-2" data-name="Ellipse 8" cx="45" cy="45" r="45" fill="#4169e1"/>
      <g id="Group_11-2" data-name="Group 11" transform="translate(120 12)" opacity="0.753">
        <g id="Repeat_Grid_1-2" data-name="Repeat Grid 1" clip-path="url(#clip-path)">
          <path id="Path_1-5" data-name="Path 1" d="M0,0H540V6H0Z" fill="#fff"/>
          <g transform="translate(345)">
            <path id="Path_1-6" data-name="Path 1" d="M0,0H540V6H0Z" fill="#fff"/>
          </g>
          <g transform="translate(0 30)">
            <path id="Path_1-7" data-name="Path 1" d="M0,0H540V6H0Z" fill="#fff"/>
          </g>
          <g transform="translate(345 30)">
            <path id="Path_1-8" data-name="Path 1" d="M0,0H540V6H0Z" fill="#fff"/>
          </g>
        </g>
        <rect id="Rectangle_4-2" data-name="Rectangle 4" width="257.727" height="6" transform="translate(0 60)" fill="#fff"/>
      </g>
    </g>
    <g id="Group_16-3" data-name="Group 16" transform="translate(0 300)" opacity="0.501">
      <circle id="Ellipse_8-3" data-name="Ellipse 8" cx="45" cy="45" r="45" fill="#4169e1"/>
      <g id="Group_11-3" data-name="Group 11" transform="translate(120 12)" opacity="0.753">
        <g id="Repeat_Grid_1-3" data-name="Repeat Grid 1" clip-path="url(#clip-path)">
          <path id="Path_1-9" data-name="Path 1" d="M0,0H540V6H0Z" fill="#fff"/>
          <g transform="translate(345)">
            <path id="Path_1-10" data-name="Path 1" d="M0,0H540V6H0Z" fill="#fff"/>
          </g>
          <g transform="translate(0 30)">
            <path id="Path_1-11" data-name="Path 1" d="M0,0H540V6H0Z" fill="#fff"/>
          </g>
          <g transform="translate(345 30)">
            <path id="Path_1-12" data-name="Path 1" d="M0,0H540V6H0Z" fill="#fff"/>
          </g>
        </g>
        <rect id="Rectangle_4-3" data-name="Rectangle 4" width="257.727" height="6" transform="translate(0 60)" fill="#fff"/>
      </g>
    </g>
    <g id="Group_16-4" data-name="Group 16" transform="translate(0 450)" opacity="0.252">
      <circle id="Ellipse_8-4" data-name="Ellipse 8" cx="45" cy="45" r="45" fill="#4169e1"/>
      <g id="Group_11-4" data-name="Group 11" transform="translate(120 12)" opacity="0.753">
        <g id="Repeat_Grid_1-4" data-name="Repeat Grid 1" clip-path="url(#clip-path)">
          <path id="Path_1-13" data-name="Path 1" d="M0,0H540V6H0Z" fill="#fff"/>
          <g transform="translate(345)">
            <path id="Path_1-14" data-name="Path 1" d="M0,0H540V6H0Z" fill="#fff"/>
          </g>
          <g transform="translate(0 30)">
            <path id="Path_1-15" data-name="Path 1" d="M0,0H540V6H0Z" fill="#fff"/>
          </g>
          <g transform="translate(345 30)">
            <path id="Path_1-16" data-name="Path 1" d="M0,0H540V6H0Z" fill="#fff"/>
          </g>
        </g>
        <rect id="Rectangle_4-4" data-name="Rectangle 4" width="257.727" height="6" transform="translate(0 60)" fill="#fff"/>
      </g>
    </g>
  </g>
</svg>
