<svg xmlns="http://www.w3.org/2000/svg" xmlns:xlink="http://www.w3.org/1999/xlink" width="660" height="546" viewBox="0 0 660 546">
  <defs>
    <clipPath id="clip-cover-15">
      <rect width="660" height="546"/>
    </clipPath>
  </defs>
  <g id="cover-15" clip-path="url(#clip-cover-15)">
    <g id="blazing_object_of_art" data-name="blazing object of art" transform="translate(-5 -111.965)">
      <path id="Path_7" data-name="Path 7" d="M5,126.326l1.634,0H9.9l3.267,0,3.267-.01L19.7,126.3l3.267-.02,3.267-.026,3.267-.032,3.267-.038,3.267-.044,3.267-.05,3.267-.056,3.267-.062,3.267-.068,3.267-.073,3.267-.078,3.267-.082,3.267-.086,3.267-.089,3.267-.09,3.267-.09,3.267-.089,3.267-.087,3.267-.083,3.267-.077,3.267-.069,3.267-.059,3.267-.047,3.267-.033,3.267-.017,3.267,0,3.267.023,3.267.047,3.267.073,3.267.1,3.267.13,3.267.161,3.267.194,3.267.227,3.267.26,3.267.293,3.267.324,3.267.353,3.267.386,3.267.424,3.267.469,3.267.518,3.267.572,3.267.631,3.267.694,3.267.76,3.267.828,3.267.9,3.267.969,3.267,1.041,3.267,1.112,3.267,1.181,3.267,1.248,3.267,1.312,3.267,1.371,3.267,1.426,3.267,1.474,3.267,1.515,3.267,1.548,3.267,1.573,3.267,1.588,3.267,1.593,3.267,1.587,3.267,1.569,3.267,1.54,3.267,1.5,3.267,1.443,3.267,1.376,3.267,1.3,3.267,1.2,3.267,1.1,3.267.981,3.267.852,3.267.713,3.267.564,3.267.406,3.267.241,3.267.069,3.267-.107,3.267-.286,3.267-.467,3.267-.648,3.267-.826,3.267-1,3.267-1.17,3.267-1.333,3.267-1.487,3.267-1.631,3.267-1.765,3.267-1.889,3.267-2,3.267-2.108,3.267-2.207,3.267-2.3,3.267-2.4,3.267-2.49,3.267-2.565,3.267-2.6,3.267-2.578,3.267-2.513L349.7,129.7l3.267-2.31,3.267-2.151,3.267-1.965,3.267-1.762,3.267-1.549,3.267-1.332,3.267-1.115,3.267-.9,3.267-.7,3.267-.5,3.267-.314,3.267-.141,3.267.019,3.267.165,3.267.3,3.267.412,3.267.514,3.267.6,3.267.673,3.267.731,3.267.776,3.267.808,3.267.828,3.267.837,3.267.836,3.267.825,3.267.806,3.267.779,3.267.746,3.267.706,3.267.661,3.267.612,3.267.56,3.267.505,3.267.449,3.267.391,3.267.333,3.267.275,3.267.217,3.267.161,3.267.107,3.267.055,3.267,0,3.267-.042,3.267-.085L500,130.4l3.267-.162,3.267-.195,3.267-.224,3.267-.249,3.267-.27,3.267-.287,3.267-.3,3.267-.308,3.267-.314,3.267-.315,3.267-.313,3.267-.307,3.267-.3,3.267-.286,3.267-.271,3.267-.253,3.267-.233,3.267-.213,3.267-.193,3.267-.174,3.267-.156,3.267-.138,3.267-.121,3.267-.1,3.267-.088,3.267-.073,3.267-.058,3.267-.044,3.267-.031,3.267-.018,3.267-.006,3.267,0,3.267.015,3.267.024,3.267.032,3.267.039,3.267.046,3.267.051,3.267.056,3.267.06,3.267.063,3.267.065,3.267.067,3.267.067,3.267.068,3.267.067,3.267.066,3.267.065,3.267.063,3.267.06,1.634.029" transform="translate(0 0)" fill="none" stroke="#17191c" stroke-width="6"/>
      <path id="Path_8" data-name="Path 8" d="M5,176.832l1.634-.026,3.267-.052,3.267-.051,3.267-.05,3.267-.047,3.267-.045,3.267-.041,3.267-.036,3.267-.031,3.267-.025,3.267-.018,3.267-.01h3.267l3.267.01,3.267.021,3.267.033,3.267.045,3.267.059,3.267.073,3.267.088,3.267.1,3.267.12,3.267.136,3.267.153,3.267.17,3.267.186,3.267.2,3.267.219,3.267.234,3.267.249,3.267.264,3.267.277,3.267.29,3.267.3,3.267.313,3.267.324,3.267.335,3.267.346,3.267.358,3.267.371,3.267.387,3.267.406,3.267.43,3.267.451,3.267.466,3.267.474,3.267.476,3.267.47,3.267.456,3.267.434,3.267.4,3.267.368,3.267.322,3.267.268,3.267.206,3.267.137,3.267.059,3.267-.026,3.267-.119,3.267-.218,3.267-.324,3.267-.435,3.267-.552,3.267-.673,3.267-.8,3.267-.927,3.267-1.058,3.267-1.19,3.267-1.322,3.267-1.454,3.267-1.584,3.267-1.71,3.267-1.832,3.267-1.949,3.267-2.059,3.267-2.161,3.267-2.253,3.267-2.334,3.267-2.4,3.267-2.459,3.267-2.5,3.267-2.526,3.267-2.534,3.267-2.524,3.267-2.5,3.267-2.446,3.267-2.377,3.267-2.286,3.267-2.174,3.267-2.04,3.267-1.885,3.267-1.708,3.267-1.51,3.267-1.293,3.267-1.056,3.267-.8,3.267-.525,3.267-.23,3.267.094,3.267.469,3.267.962,3.267,1.71,3.267,2.661,3.267,3.3,3.267,3.5L349.7,141.3l3.267,3.372,3.267,3.263,3.267,3.155,3.267,3.05,3.267,2.949,3.267,2.849,3.267,2.749,3.267,2.649,3.267,2.546,3.267,2.44,3.267,2.331,3.267,2.218,3.267,2.1,3.267,1.982,3.267,1.86,3.267,1.735,3.267,1.609,3.267,1.482L411.782,187l3.267,1.227,3.267,1.1,3.267.977,3.267.855,3.267.736,3.267.622,3.267.511,3.267.406,3.267.305,3.267.211,3.267.122,3.267.039,3.267-.037,3.267-.106,3.267-.169,3.267-.226,3.267-.276,3.267-.32,3.267-.358,3.267-.39,3.267-.416,3.267-.437,3.267-.452,3.267-.463,3.267-.469,3.267-.472,3.267-.471,3.267-.466,3.267-.459,3.267-.449,3.267-.437,3.267-.423,3.267-.408,3.267-.392,3.267-.375,3.267-.358,3.267-.341,3.267-.325,3.267-.309,3.267-.294,3.267-.28,3.267-.267,3.267-.255,3.267-.245,3.267-.235,3.267-.224,3.267-.213,3.267-.2,3.267-.191,3.267-.181,3.267-.172,3.267-.163,3.267-.155,3.267-.148,3.267-.142,3.267-.137,3.267-.132,3.267-.128,3.267-.124,3.267-.121,3.267-.119,3.267-.117,3.267-.115,3.267-.113,3.267-.111,3.267-.109,3.267-.108,3.267-.106,3.267-.1,3.267-.1,3.267-.1,3.267-.1,3.267-.095,3.267-.092,3.267-.089,3.267-.086,3.267-.083,1.634-.04" transform="translate(0 5.264)" fill="none" stroke="#17191c" stroke-width="6"/>
      <path id="Path_9" data-name="Path 9" d="M5,203.458l1.634-.028,3.267-.058,3.267-.06,3.267-.061,3.267-.062,3.267-.062,3.267-.062L29.5,203l3.267-.06,3.267-.058,3.267-.056,3.267-.053,3.267-.05,3.267-.046,3.267-.041,3.267-.036,3.267-.03,3.267-.024,3.267-.017,3.267-.01,3.267,0,3.267.006,3.267.014,3.267.023,3.267.031,3.267.04,3.267.048,3.267.056,3.267.064,3.267.072,3.267.079,3.267.085,3.267.092,3.267.1,3.267.1,3.267.107,3.267.111,3.267.116,3.267.121,3.267.126,3.267.134,3.267.143,3.267.154,3.267.164,3.267.17,3.267.172,3.267.169,3.267.162,3.267.15,3.267.134,3.267.114,3.267.089,3.267.059,3.267.026,3.267-.012,3.267-.053,3.267-.1,3.267-.146,3.267-.2,3.267-.25,3.267-.305,3.267-.362,3.267-.421,3.267-.479,3.267-.538,3.267-.6,3.267-.653,3.267-.708,3.267-.761,3.267-.811,3.267-.856,3.267-.9,3.267-.932,3.267-.962,3.267-.984,3.267-1,3.267-1.006,3.267-1,3.267-.992,3.267-.971,3.267-.938,3.267-.895,3.267-.839,3.267-.772,3.267-.693,3.267-.6,3.267-.5,3.267-.378,3.267-.248,3.267-.106,3.267.048,3.267.214,3.267.391,3.267.577,3.267.772,3.267.973,3.267,1.179,3.267,1.386,3.267,1.589,3.267,1.782,3.267,1.955,3.267,2.1,3.267,2.2,3.267,2.246,3.267,2.245,3.267,2.2,3.267,2.14,3.267,2.085L359.5,211.9l3.267,1.98,3.267,1.927,3.267,1.87,3.267,1.809,3.267,1.741,3.267,1.665,3.267,1.581,3.267,1.488,3.267,1.387,3.267,1.278,3.267,1.162,3.267,1.039,3.267.911,3.267.78,3.267.645,3.267.508,3.267.372,3.267.236,3.267.1,3.267-.027,3.267-.153,3.267-.273,3.267-.387,3.267-.494,3.267-.593,3.267-.684,3.267-.766,3.267-.839,3.267-.9,3.267-.958,3.267-1,3.267-1.039,3.267-1.066,3.267-1.084,3.267-1.094,3.267-1.1,3.267-1.09,3.267-1.078,3.267-1.059,3.267-1.034,3.267-1,3.267-.969,3.267-.93,3.267-.888,3.267-.843,3.267-.8,3.267-.749,3.267-.7,3.267-.652,3.267-.6,3.267-.556,3.267-.511,3.267-.467,3.267-.426,3.267-.387,3.267-.352,3.267-.32,3.267-.292,3.267-.268,3.267-.247,3.267-.231,3.267-.217,3.267-.2,3.267-.194,3.267-.184,3.267-.175,3.267-.166,3.267-.156,3.267-.147,3.267-.137,3.267-.127,3.267-.117,3.267-.107,3.267-.1,3.267-.086,3.267-.075,3.267-.064,3.267-.054,3.267-.044,3.267-.034,3.267-.025,3.267-.016,3.267-.007h3.267l3.267.008,3.267.015,3.267.021,3.267.026,3.267.031,3.267.035,3.267.038,3.267.041,3.267.043,1.634.023" transform="translate(0 35.591)" fill="none" stroke="#17191c" stroke-width="6"/>
      <path id="Path_10" data-name="Path 10" d="M5,240.98l1.634.048,3.267.1,3.267.105,3.267.109,3.267.112,3.267.115,3.267.117,3.267.118,3.267.118,3.267.117,3.267.115,3.267.112,3.267.108,3.267.1,3.267.1,3.267.089,3.267.08,3.267.07,3.267.059,3.267.047,3.267.033,3.267.019,3.267,0,3.267-.011,3.267-.027,3.267-.044,3.267-.061,3.267-.077,3.267-.094,3.267-.11,3.267-.126,3.267-.141,3.267-.156,3.267-.17,3.267-.184,3.267-.2,3.267-.209,3.267-.222,3.267-.235,3.267-.25,3.267-.266,3.267-.286,3.267-.31,3.267-.337,3.267-.365,3.267-.393,3.267-.422,3.267-.451,3.267-.479,3.267-.507,3.267-.534,3.267-.559,3.267-.582,3.267-.6,3.267-.622,3.267-.637,3.267-.648,3.267-.656,3.267-.659,3.267-.658,3.267-.652,3.267-.64,3.267-.623,3.267-.6,3.267-.572,3.267-.538,3.267-.5,3.267-.451,3.267-.4,3.267-.34,3.267-.276,3.267-.208,3.267-.134,3.267-.056,3.267.025,3.267.109,3.267.2,3.267.284,3.267.372,3.267.459,3.267.545,3.267.628,3.267.706,3.267.779,3.267.846,3.267.9,3.267.953,3.267.992,3.267,1.019,3.267,1.033,3.267,1.034,3.267,1.02,3.267.992,3.267.949,3.267.89,3.267.818,3.267.733,3.267.636,3.267.531,3.267.421,3.267.311,3.267.206,3.267.113,3.267.038,3.267-.013,3.267-.036,3.267-.046,3.267-.056,3.267-.065,3.267-.073,3.267-.081,3.267-.088,3.267-.1,3.267-.1,3.267-.107,3.267-.111,3.267-.116,3.267-.119,3.267-.122,3.267-.124,3.267-.125,3.267-.126,3.267-.126,3.267-.126,3.267-.125,3.267-.123,3.267-.121,3.267-.118,3.267-.115,3.267-.112,3.267-.108,3.267-.1,3.267-.1,3.267-.094,3.267-.089,3.267-.083,3.267-.078,3.267-.073,3.267-.067,3.267-.062,3.267-.056,3.267-.051,3.267-.045,3.267-.04,3.267-.035,3.267-.03,3.267-.025,3.267-.021,3.267-.017,3.267-.012,3.267-.009,3.267-.005,3.267,0h3.267l3.267,0,3.267.007,3.267.009,3.267.011,3.267.012,3.267.014,3.267.015,3.267.016,3.267.016,3.267.017,3.267.017,3.267.017,3.267.017,3.267.017,3.267.016,3.267.016,3.267.015,3.267.015,3.267.015,3.267.015,3.267.015,3.267.014,3.267.014,3.267.014,3.267.014,3.267.014,3.267.014,3.267.013,3.267.013,3.267.013,3.267.013,3.267.012,3.267.012,3.267.011,3.267.011,3.267.01,3.267.01,3.267.009,3.267.008,3.267.008,3.267.007,3.267.007,3.267.006,3.267.006,3.267.005,3.267,0,3.267,0,3.267,0,1.634,0" transform="translate(0 56.74)" fill="none" stroke="#17191c" stroke-width="6"/>
      <path id="Path_11" data-name="Path 11" d="M5,278.3l1.634.013,3.267.026,3.267.027,3.267.027,3.267.026,3.267.026,3.267.025,3.267.024,3.267.022,3.267.021,3.267.018,3.267.016,3.267.013,3.267.009,3.267.005h3.267l3.267,0,3.267-.01,3.267-.016,3.267-.022,3.267-.029,3.267-.037,3.267-.045,3.267-.053,3.267-.062,3.267-.072,3.267-.082,3.267-.092,3.267-.1,3.267-.114,3.267-.126,3.267-.138,3.267-.15,3.267-.163,3.267-.176,3.267-.189,3.267-.2,3.267-.217,3.267-.232,3.267-.248,3.267-.266,3.267-.284,3.267-.3,3.267-.322,3.267-.337,3.267-.348,3.267-.355,3.267-.357,3.267-.356,3.267-.35L170,272.4l3.267-.323,3.267-.3,3.267-.276,3.267-.245,3.267-.209,3.267-.168,3.267-.121,3.267-.07,3.267-.014,3.267.047,3.267.112,3.267.181,3.267.254,3.267.33,3.267.409,3.267.49,3.267.573,3.267.657,3.267.741,3.267.825,3.267.909,3.267.99,3.267,1.069,3.267,1.144,3.267,1.215,3.267,1.28,3.267,1.34,3.267,1.392,3.267,1.435,3.267,1.469,3.267,1.493,3.267,1.506,3.267,1.507,3.267,1.495L284.356,295l3.267,1.428,3.267,1.373,3.267,1.3,3.267,1.214,3.267,1.11,3.267.989,3.267.851,3.267.7,3.267.524,3.267.335,3.267.129,3.267-.1,3.267-.337,3.267-.594,3.267-.861,3.267-1.126,3.267-1.367,3.267-1.56,3.267-1.687,3.267-1.744,3.267-1.771,3.267-1.792,3.267-1.81,3.267-1.824,3.267-1.833,3.267-1.836,3.267-1.83,3.267-1.815,3.267-1.79,3.267-1.753,3.267-1.7,3.267-1.645,3.267-1.574,3.267-1.493,3.267-1.4,3.267-1.3,3.267-1.2,3.267-1.084,3.267-.966,3.267-.845,3.267-.722,3.267-.6,3.267-.475,3.267-.354,3.267-.235,3.267-.12,3.267-.009,3.267.1,3.267.194,3.267.285,3.267.369,3.267.445,3.267.513,3.267.573,3.267.625,3.267.668,3.267.7,3.267.73,3.267.75,3.267.762,3.267.766,3.267.765,3.267.757,3.267.743,3.267.725,3.267.7,3.267.675,3.267.645,3.267.612,3.267.576,3.267.54,3.267.5,3.267.464,3.267.425,3.267.388,3.267.351,3.267.316,3.267.282,3.267.251,3.267.223,3.267.2,3.267.174,3.267.154,3.267.137,3.267.121,3.267.106,3.267.092,3.267.078,3.267.065,3.267.052,3.267.039,3.267.027,3.267.015,3.267,0,3.267-.007,3.267-.018,3.267-.028,3.267-.037,3.267-.046,3.267-.054,3.267-.062,3.267-.069,3.267-.075,3.267-.08,3.267-.085,3.267-.088,3.267-.091,3.267-.093,3.267-.095,3.267-.1,3.267-.1,3.267-.095,3.267-.094,3.267-.092,3.267-.09,3.267-.087,1.634-.042" transform="translate(0 75.921)" fill="none" stroke="#17191c" stroke-width="6"/>
      <path id="Path_12" data-name="Path 12" d="M5,315.191l1.634-.049,3.267-.1,3.267-.1,3.267-.1,3.267-.1,3.267-.1,3.267-.1,3.267-.095,3.267-.09,3.267-.085,3.267-.078,3.267-.07,3.267-.06,3.267-.05,3.267-.038,3.267-.024,3.267-.01,3.267.006,3.267.022,3.267.04,3.267.058,3.267.077,3.267.1,3.267.117,3.267.137,3.267.157,3.267.177,3.267.2,3.267.215,3.267.233,3.267.25,3.267.266,3.267.281,3.267.3,3.267.308,3.267.32,3.267.332,3.267.345,3.267.358,3.267.373,3.267.391,3.267.413,3.267.442,3.267.472,3.267.5,3.267.529,3.267.554,3.267.578,3.267.6,3.267.616,3.267.63,3.267.64,3.267.646,3.267.647,3.267.643,3.267.634,3.267.619,3.267.6,3.267.572,3.267.538,3.267.5,3.267.452,3.267.4,3.267.34,3.267.273,3.267.2,3.267.122,3.267.037,3.267-.053,3.267-.148,3.267-.248,3.267-.352,3.267-.458,3.267-.568,3.267-.678,3.267-.789,3.267-.9,3.267-1.008,3.267-1.114,3.267-1.215,3.267-1.31,3.267-1.4,3.267-1.479,3.267-1.549,3.267-1.608,3.267-1.654,3.267-1.687,3.267-1.7,3.267-1.7,3.267-1.687,3.267-1.652,3.267-1.6,3.267-1.524,3.267-1.432,3.267-1.319,3.267-1.188,3.267-1.037,3.267-.867,3.267-.675,3.267-.457,3.267-.206,3.267.083,3.267.391,3.267.663,3.267.844,3.267.925,3.267.955,3.267.972,3.267.984,3.267.993,3.267,1,3.267,1,3.267,1,3.267,1,3.267.986,3.267.97,3.267.949,3.267.923,3.267.891,3.267.854,3.267.812,3.267.766,3.267.715,3.267.662,3.267.607,3.267.549,3.267.49,3.267.43,3.267.37,3.267.311,3.267.253,3.267.2,3.267.142,3.267.09,3.267.041,3.267,0,3.267-.047,3.267-.086,3.267-.121,3.267-.153,3.267-.18,3.267-.2,3.267-.224,3.267-.24,3.267-.252,3.267-.261,3.267-.266,3.267-.269,3.267-.268,3.267-.265,3.267-.259,3.267-.251,3.267-.241,3.267-.229,3.267-.216,3.267-.2,3.267-.187,3.267-.171,3.267-.155,3.267-.139,3.267-.123,3.267-.107,3.267-.092,3.267-.078,3.267-.065,3.267-.053,3.267-.042,3.267-.032,3.267-.024,3.267-.016,3.267-.008h3.267l3.267.008,3.267.016,3.267.024,3.267.032,3.267.039,3.267.045,3.267.051,3.267.057,3.267.062,3.267.066,3.267.07,3.267.073,3.267.076,3.267.078,3.267.079,3.267.08,3.267.08,3.267.08,3.267.079,3.267.078,3.267.076,3.267.075,3.267.072,3.267.07,3.267.067,3.267.064,3.267.062,3.267.058,3.267.055,3.267.052,1.634.024" transform="translate(0 94.081)" fill="none" stroke="#17191c" stroke-width="6"/>
      <path id="Path_13" data-name="Path 13" d="M5,351.991l1.634-.047,3.267-.1,3.267-.1,3.267-.107,3.267-.111,3.267-.113,3.267-.115,3.267-.116,3.267-.116,3.267-.115,3.267-.113,3.267-.11,3.267-.106,3.267-.1,3.267-.094,3.267-.086,3.267-.077,3.267-.067,3.267-.056,3.267-.043,3.267-.03,3.267-.015h3.267l3.267.016,3.267.032,3.267.049,3.267.066,3.267.083,3.267.1,3.267.116,3.267.133,3.267.148,3.267.164,3.267.178,3.267.192,3.267.205,3.267.218,3.267.232,3.267.245,3.267.261,3.267.278,3.267.3,3.267.323,3.267.347,3.267.368,3.267.385,3.267.4,3.267.407,3.267.411,3.267.41,3.267.4,3.267.394,3.267.378,3.267.357,3.267.331,3.267.3,3.267.263,3.267.221,3.267.174,3.267.122,3.267.065,3.267,0,3.267-.06,3.267-.128,3.267-.2,3.267-.272,3.267-.348,3.267-.424,3.267-.5,3.267-.579,3.267-.655,3.267-.729,3.267-.8,3.267-.869,3.267-.932,3.267-.989,3.267-1.04,3.267-1.082,3.267-1.116,3.267-1.139,3.267-1.151,3.267-1.151,3.267-1.138,3.267-1.11,3.267-1.067,3.267-1.008,3.267-.931,3.267-.838,3.267-.726,3.267-.6,3.267-.447,3.267-.28,3.267-.095,3.267.108,3.267.327,3.267.562,3.267.81,3.267,1.07,3.267,1.339,3.267,1.614,3.267,1.892,3.267,2.159,3.267,2.377,3.267,2.486,3.267,2.472,3.267,2.377,3.267,2.268,3.267,2.179,3.267,2.105,3.267,2.042,3.267,1.983,3.267,1.924,3.267,1.862,3.267,1.794,3.267,1.717,3.267,1.631,3.267,1.536,3.267,1.43,3.267,1.315,3.267,1.191,3.267,1.06,3.267.922,3.267.779,3.267.632,3.267.483,3.267.334,3.267.185,3.267.038,3.267-.105,3.267-.244,3.267-.377,3.267-.5,3.267-.62,3.267-.729,3.267-.829,3.267-.919,3.267-1,3.267-1.068,3.267-1.127,3.267-1.175,3.267-1.213,3.267-1.24,3.267-1.258,3.267-1.266,3.267-1.265,3.267-1.255,3.267-1.237,3.267-1.212,3.267-1.18,3.267-1.143,3.267-1.1L500,362.621l3.267-1,3.267-.948,3.267-.892,3.267-.835,3.267-.777,3.267-.719,3.267-.662,3.267-.606,3.267-.552,3.267-.5,3.267-.451,3.267-.406,3.267-.364,3.267-.327,3.267-.293,3.267-.265,3.267-.241,3.267-.222,3.267-.206,3.267-.193,3.267-.181,3.267-.17,3.267-.159,3.267-.148,3.267-.137,3.267-.126,3.267-.114,3.267-.1,3.267-.089,3.267-.076,3.267-.063,3.267-.05,3.267-.037,3.267-.024,3.267-.011h3.267l3.267.013,3.267.024,3.267.035,3.267.044,3.267.053,3.267.061,3.267.068,3.267.074,3.267.079,3.267.083,3.267.086,3.267.089,3.267.09,3.267.091,1.634.045" transform="translate(0 114.667)" fill="none" stroke="#17191c" stroke-width="6"/>
      <path id="Path_14" data-name="Path 14" d="M5,394.6H9.9l3.267,0,3.267-.005,3.267-.008,3.267-.011,3.267-.014,3.267-.017,3.267-.02,3.267-.024,3.267-.027,3.267-.031,3.267-.035,3.267-.038,3.267-.042,3.267-.045,3.267-.048,3.267-.051,3.267-.053,3.267-.054,3.267-.056,3.267-.056,3.267-.055,3.267-.054,3.267-.052,3.267-.048,3.267-.044,3.267-.038,3.267-.031,3.267-.022,3.267-.012h3.267l3.267.013,3.267.027,3.267.043,3.267.059,3.267.078,3.267.1,3.267.116,3.267.135,3.267.154,3.267.172,3.267.188,3.267.2,3.267.214,3.267.222,3.267.227,3.267.228,3.267.226,3.267.221,3.267.211,3.267.2,3.267.179,3.267.158,3.267.131,3.267.1,3.267.067,3.267.028,3.267-.015,3.267-.061,3.267-.111,3.267-.165,3.267-.222,3.267-.282,3.267-.345,3.267-.41,3.267-.476,3.267-.544,3.267-.613,3.267-.683,3.267-.752,3.267-.82,3.267-.887,3.267-.952,3.267-1.013,3.267-1.071,3.267-1.125,3.267-1.173,3.267-1.215,3.267-1.251,3.267-1.278,3.267-1.3,3.267-1.308,3.267-1.308,3.267-1.3,3.267-1.276,3.267-1.243,3.267-1.2,3.267-1.138,3.267-1.067,3.267-.982,3.267-.884,3.267-.773,3.267-.649,3.267-.512,3.267-.362,3.267-.2,3.267-.022,3.267.172,3.267.392,3.267.652,3.267.975,3.267,1.352,3.267,1.685,3.267,1.874,3.267,1.925,3.267,1.9,3.267,1.855L359.5,380.9l3.267,1.728,3.267,1.66,3.267,1.591,3.267,1.522,3.267,1.452,3.267,1.381,3.267,1.31,3.267,1.239,3.267,1.167,3.267,1.1,3.267,1.023,3.267.951,3.267.88,3.267.809,3.267.74,3.267.671,3.267.6,3.267.538,3.267.475,3.267.413,3.267.354,3.267.3,3.267.244,3.267.194,3.267.146,3.267.1,3.267.06,3.267.022,3.267-.013,3.267-.045,3.267-.074,3.267-.1,3.267-.122,3.267-.141,3.267-.158,3.267-.172,3.267-.184,3.267-.193,3.267-.2,3.267-.205,3.267-.208,3.267-.209,3.267-.209,3.267-.207,3.267-.2,3.267-.2,3.267-.2,3.267-.191,3.267-.186,3.267-.18,3.267-.174,3.267-.168,3.267-.161,3.267-.156,3.267-.15,3.267-.145,3.267-.14,3.267-.136,3.267-.133,3.267-.13,3.267-.128,3.267-.126,3.267-.125,3.267-.123,3.267-.122,3.267-.121,3.267-.12,3.267-.119,3.267-.118,3.267-.117,3.267-.116,3.267-.114,3.267-.113,3.267-.111,3.267-.109,3.267-.107,3.267-.105,3.267-.1,3.267-.1,3.267-.1,3.267-.095,3.267-.092,3.267-.089,3.267-.086,3.267-.082,3.267-.079,3.267-.076,3.267-.072,3.267-.069,3.267-.065,3.267-.062,3.267-.058,3.267-.055,1.634-.026" transform="translate(0 129.97)" fill="none" stroke="#17191c" stroke-width="6"/>
      <path id="Path_15" data-name="Path 15" d="M5,433.421l1.634-.014,3.267-.035,3.267-.043,3.267-.051,3.267-.059,3.267-.068,3.267-.077,3.267-.086,3.267-.1,3.267-.1,3.267-.114,3.267-.123,3.267-.133,3.267-.142,3.267-.151,3.267-.159,3.267-.167,3.267-.174,3.267-.181,3.267-.187,3.267-.192,3.267-.2,3.267-.2,3.267-.2,3.267-.2,3.267-.2,3.267-.2,3.267-.195,3.267-.19,3.267-.184,3.267-.177,3.267-.168,3.267-.158,3.267-.147,3.267-.136,3.267-.123,3.267-.111,3.267-.1,3.267-.085,3.267-.073,3.267-.062,3.267-.052,3.267-.044,3.267-.033,3.267-.016,3.267.007,3.267.035,3.267.068,3.267.107,3.267.149,3.267.2,3.267.247,3.267.3,3.267.358,3.267.417,3.267.477,3.267.538,3.267.6,3.267.66,3.267.719,3.267.775,3.267.829,3.267.879,3.267.924,3.267.963,3.267,1,3.267,1.022,3.267,1.04,3.267,1.05,3.267,1.051,3.267,1.042,3.267,1.022,3.267.992,3.267.951,3.267.9,3.267.835,3.267.76,3.267.673,3.267.576,3.267.467,3.267.348,3.267.219,3.267.08,3.267-.066,3.267-.22,3.267-.381,3.267-.547,3.267-.717,3.267-.89,3.267-1.064,3.267-1.238,3.267-1.41,3.267-1.58,3.267-1.745,3.267-1.9,3.267-2.055,3.267-2.2,3.267-2.322,3.267-2.43,3.267-2.512,3.267-2.555,3.267-2.543,3.267-2.467,3.267-2.335,3.267-2.173,3.267-2.009,3.267-1.85,3.267-1.69,3.267-1.532,3.267-1.373,3.267-1.214,3.267-1.053,3.267-.892,3.267-.73,3.267-.568,3.267-.407,3.267-.248,3.267-.091,3.267.061,3.267.209,3.267.351,3.267.487,3.267.615,3.267.735,3.267.846,3.267.947,3.267,1.039,3.267,1.121,3.267,1.192,3.267,1.252,3.267,1.3,3.267,1.341,3.267,1.37,3.267,1.388,3.267,1.4,3.267,1.395,3.267,1.384,3.267,1.365,3.267,1.337,3.267,1.3,3.267,1.26L467.327,427l3.267,1.158,3.267,1.1,3.267,1.037,3.267.971,3.267.9,3.267.832,3.267.76,3.267.688,3.267.616,3.267.544,3.267.474,3.267.406,3.267.34,3.267.277,3.267.218,3.267.162,3.267.111,3.267.064,3.267.022,3.267-.015,3.267-.047,3.267-.074,3.267-.1,3.267-.111,3.267-.122,3.267-.128,3.267-.128,3.267-.127,3.267-.129,3.267-.133,3.267-.137,3.267-.141,3.267-.146,3.267-.149,3.267-.153,3.267-.155,3.267-.157,3.267-.158,3.267-.157,3.267-.156,3.267-.154,3.267-.151,3.267-.147,3.267-.142,3.267-.137,3.267-.131,3.267-.124,3.267-.117,3.267-.11,3.267-.1,3.267-.1,3.267-.088,3.267-.081,3.267-.073,3.267-.066,3.267-.06,3.267-.053,3.267-.047,3.267-.041,3.267-.035L665,433.1" transform="translate(0 148.465)" fill="none" stroke="#17191c" stroke-width="6"/>
      <path id="Path_16" data-name="Path 16" d="M5,460.054l1.634-.048,3.267-.1,3.267-.105,3.267-.109,3.267-.113,3.267-.115,3.267-.117,3.267-.118,3.267-.118,3.267-.117,3.267-.116,3.267-.113,3.267-.109,3.267-.1,3.267-.1,3.267-.089,3.267-.081,3.267-.071,3.267-.059,3.267-.047,3.267-.034,3.267-.02,3.267,0,3.267.011,3.267.027,3.267.044,3.267.06,3.267.077,3.267.094,3.267.11,3.267.126,3.267.142,3.267.156,3.267.171,3.267.184,3.267.2,3.267.21,3.267.223,3.267.236,3.267.251,3.267.268,3.267.288,3.267.313,3.267.34,3.267.368,3.267.4,3.267.427,3.267.457,3.267.487,3.267.516,3.267.545,3.267.572,3.267.6,3.267.621,3.267.641,3.267.659,3.267.674,3.267.685,3.267.691,3.267.693,3.267.691,3.267.683,3.267.67,3.267.651,3.267.627,3.267.6,3.267.56,3.267.518,3.267.469,3.267.415,3.267.355,3.267.29,3.267.221,3.267.146,3.267.068,3.267-.013,3.267-.1,3.267-.182,3.267-.268,3.267-.354,3.267-.439,3.267-.521,3.267-.6,3.267-.673,3.267-.74,3.267-.8,3.267-.852,3.267-.893,3.267-.924,3.267-.943,3.267-.949,3.267-.941,3.267-.92,3.267-.884,3.267-.835,3.267-.772,3.267-.7,3.267-.61,3.267-.515,3.267-.414,3.267-.313,3.267-.215,3.267-.127,3.267-.058,3.267-.014H555.544l3.267,0,3.267-.006,3.267-.012,3.267-.019,3.267-.026,3.267-.032,3.267-.039,3.267-.044,3.267-.048,3.267-.052,3.267-.054,3.267-.055,3.267-.055,3.267-.054,3.267-.052,3.267-.05,3.267-.046,3.267-.042,3.267-.038,3.267-.032,3.267-.027,3.267-.022,3.267-.016,3.267-.011,3.267-.006h3.267l3.267,0,3.267.009,3.267.014,3.267.018,3.267.021,3.267.025,3.267.028L665,460.3" transform="translate(0 177.396)" fill="none" stroke="#17191c" stroke-width="6"/>
    </g>
  </g>
</svg>
