<svg xmlns="http://www.w3.org/2000/svg" xmlns:xlink="http://www.w3.org/1999/xlink" width="660" height="660" viewBox="0 0 660 660">
  <defs>
    <filter id="Rectangle_15" x="336" y="398" width="258" height="108" filterUnits="userSpaceOnUse">
      <feOffset dy="2" input="SourceAlpha"/>
      <feGaussianBlur stdDeviation="2" result="blur"/>
      <feFlood flood-opacity="0.149"/>
      <feComposite operator="in" in2="blur"/>
      <feComposite in="SourceGraphic"/>
    </filter>
    <filter id="Rectangle_13" x="66" y="188" width="258" height="348" filterUnits="userSpaceOnUse">
      <feOffset dy="2" input="SourceAlpha"/>
      <feGaussianBlur stdDeviation="2" result="blur-2"/>
      <feFlood flood-opacity="0.149"/>
      <feComposite operator="in" in2="blur-2"/>
      <feComposite in="SourceGraphic"/>
    </filter>
    <filter id="Path_6" x="336" y="128" width="258" height="258" filterUnits="userSpaceOnUse">
      <feOffset dy="2" input="SourceAlpha"/>
      <feGaussianBlur stdDeviation="2" result="blur-3"/>
      <feFlood flood-opacity="0.149"/>
      <feComposite operator="in" in2="blur-3"/>
      <feComposite in="SourceGraphic"/>
    </filter>
    <clipPath id="clip-cover-11">
      <rect width="660" height="660"/>
    </clipPath>
  </defs>
  <g id="cover-11" clip-path="url(#clip-cover-11)">
    <g transform="matrix(1, 0, 0, 1, 0, 0)" filter="url(#Rectangle_15)">
      <rect id="Rectangle_15-2" data-name="Rectangle 15" width="246" height="96" rx="3" transform="translate(342 402)" fill="#fff"/>
    </g>
    <g id="Group_44" data-name="Group 44">
      <g transform="matrix(1, 0, 0, 1, 0, 0)" filter="url(#Rectangle_13)">
        <rect id="Rectangle_13-2" data-name="Rectangle 13" width="246" height="336" rx="3" transform="translate(72 192)" fill="#fff"/>
      </g>
      <path id="Rectangle_17" data-name="Rectangle 17" d="M3,0H243a3,3,0,0,1,3,3V240a0,0,0,0,1,0,0H0a0,0,0,0,1,0,0V3A3,3,0,0,1,3,0Z" transform="translate(72 192)" fill="#f08080" opacity="0.25"/>
      <rect id="Rectangle_18" data-name="Rectangle 18" width="102" height="18" rx="3" transform="translate(102 462)" fill="#17191c"/>
      <rect id="Rectangle_19" data-name="Rectangle 19" width="186" height="12" rx="3" transform="translate(102 486)" fill="#17191c" opacity="0.2"/>
    </g>
    <g id="Group_43" data-name="Group 43">
      <g transform="matrix(1, 0, 0, 1, 0, 0)" filter="url(#Path_6)">
        <path id="Path_6-2" data-name="Path 6" d="M3,0H243a2.851,2.851,0,0,1,3,2.674V243.326A2.851,2.851,0,0,1,243,246H3a2.851,2.851,0,0,1-3-2.674V2.674A2.851,2.851,0,0,1,3,0Z" transform="translate(342 132)" fill="#fff"/>
      </g>
      <circle id="Ellipse_14" data-name="Ellipse 14" cx="33" cy="33" r="33" transform="translate(432 162)" fill="#6495ed" opacity="0.248"/>
      <g id="Group_42" data-name="Group 42" transform="translate(-12 -42)">
        <rect id="Rectangle_16" data-name="Rectangle 16" width="150" height="36" rx="3" transform="translate(402 354)" fill="#7b68ee"/>
      </g>
      <rect id="Rectangle_20" data-name="Rectangle 20" width="102" height="18" rx="3" transform="translate(414 252)" fill="#17191c"/>
      <rect id="Rectangle_21" data-name="Rectangle 21" width="186" height="12" rx="3" transform="translate(372 276)" fill="#17191c" opacity="0.2"/>
    </g>
    <circle id="Ellipse_15" data-name="Ellipse 15" cx="18" cy="18" r="18" transform="translate(372 432)" fill="#17191c" opacity="0.2"/>
    <rect id="Rectangle_22" data-name="Rectangle 22" width="138" height="18" rx="3" transform="translate(420 441)" fill="#17191c"/>
  </g>
</svg>
