<svg xmlns="http://www.w3.org/2000/svg" xmlns:xlink="http://www.w3.org/1999/xlink" width="660" height="307" viewBox="0 0 660 307">
  <defs>
    <clipPath id="clip-cover-17">
      <rect width="660" height="307"/>
    </clipPath>
  </defs>
  <g id="cover-17" clip-path="url(#clip-cover-17)">
    <g id="Group_47" data-name="Group 47" transform="translate(0 -57.917)">
      <path id="Line_1" data-name="Line 1" d="M0,60c46.226,0,94.058-3.414,140.03,1.879,72.853,8.389,134.359,61.966,207.563,36.439C408.943,76.925,438.567,59.248,505.714,60c51.414.576,102.867,0,154.286,0" fill="none" stroke="#111315" stroke-linecap="round" stroke-width="3"/>
      <path id="Line_2" data-name="Line 2" d="M0,120c48.5,0,97.061-.86,145.549-.113,37.307.574,61.014,4.284,94.154,21.3,27.036,13.883,52.383,33.806,84.166,34.049,65.4.5,115.654-56.074,185.982-55.239,50.036.594,100.108,0,150.149,0" fill="none" stroke="#111315" stroke-linecap="round" stroke-width="3"/>
      <path id="Line_3" data-name="Line 3" d="M0,180c58.607,0,112.022-7.89,169.772-12.574,37.443-3.037,63.323,3.588,91.231,27.892,16.412,14.292,37.763,49.718,62.8,49.632,19.333-.066,51.408-33.622,68.33-42.35,33.133-17.091,63.5-25.04,100.659-24.452C548.473,179.03,604.22,180,660,180" fill="none" stroke="#111315" stroke-linecap="round" stroke-width="3"/>
      <path id="Line_4" data-name="Line 4" d="M0,240c60.427,0,106.421.523,164.14-16.5,68.058-20.075,84.965,56.208,150.206,58.479,31.168,1.085,51.739-20.808,77.945-33.768,32.015-15.832,60.588-20.348,95.458-18.345C545.607,233.189,601.879,239.609,660,240" fill="none" stroke="#111315" stroke-linecap="round" stroke-width="3"/>
      <path id="Line_5" data-name="Line 5" d="M0,300c44.271,0,88.129-1.031,132.331-2.592,69.45-2.452,135.589,30.657,204.652,15.762,62.231-13.423,106.908-46.088,172.694-31.553C561.265,293.015,607.084,299.872,660,300" fill="none" stroke="#111315" stroke-linecap="round" stroke-width="3"/>
      <path id="Line_6" data-name="Line 6" d="M0,360c45.661.016,88.93-4.758,134.313-8.646,68.736-5.889,135.439,15.373,202.849,10.4,69.24-5.109,118.135-20.329,188.381-8.646C570.627,360.606,614.409,360,660,360" fill="none" stroke="#111315" stroke-linecap="round" stroke-width="3"/>
    </g>
  </g>
</svg>
