<svg xmlns="http://www.w3.org/2000/svg" xmlns:xlink="http://www.w3.org/1999/xlink" width="1330" height="560" viewBox="0 0 1330 560">
  <defs>
    <style>
      .cls-1 {
        clip-path: url(#clip-Hello);
      }

      .cls-2 {
        fill: #19191a;
      }
    </style>
    <clipPath id="clip-Hello">
      <rect width="1330" height="560"/>
    </clipPath>
  </defs>
  <g id="Hello" class="cls-1">
    <path id="Subtraction_1" data-name="Subtraction 1" class="cls-2" d="M-701.244,463H-859.291V258.2h-45.572V463h-181.491V258.2h-45.573V463h-199.88V418.1H-1185.5V379.724h-146.312v-82.75H-1176.7V258.2h-200.68V463h-63.961V258.2h-45.572V379.724h-145.513V258.2H-1676V108.023h43.573V-21.9h145.513V108.023h45.572V-97h63.961V108.023h200.68V69.246h-155.107V-21.9H-1185.5V-60.276h-146.312V-97h199.88V108.023h195.083V69.246h-149.511V-97h181.491V108.023H-709.78V69.246H-859.291V-97h158.007c-6.167,18.224-9.3,38.38-9.3,59.91,0,21.848,3.217,42.29,9.563,60.757A137.864,137.864,0,0,0-673.652,71.2a121.725,121.725,0,0,0,43.18,30.963c17.161,7.34,36.342,11.062,57.01,11.062,20.571,0,39.674-3.722,56.778-11.062a121.551,121.551,0,0,0,43.062-30.963A138.069,138.069,0,0,0-446.3,23.667c6.341-18.473,9.557-38.915,9.557-60.757,0-21.522-3.125-41.679-9.289-59.91h55.348l8.309,120.274h26.784L-347.68-97H-346V58.053h-47.97v49.971H-346V463h-9.574l7.977-121.253V258.2h-43.174v83.551L-382.4,463h-63.678c6.19-18.3,9.329-38.514,9.329-60.09,0-21.839-3.215-42.259-9.557-60.695a137.34,137.34,0,0,0-27.321-47.391A121.361,121.361,0,0,0-516.684,264c-17.1-7.3-36.2-11-56.778-11-20.675,0-39.856,3.7-57.01,11a121.537,121.537,0,0,0-43.18,30.825,137.138,137.138,0,0,0-27.365,47.391c-6.346,18.429-9.563,38.85-9.563,60.695,0,21.58,3.141,41.8,9.336,60.09Zm-785.67,0h-145.513V418.1h145.513V463Zm991.9,0H-652.293a125.926,125.926,0,0,1-8.516-27.346,171.374,171.374,0,0,1-3-32.744c0-17.679,2.348-33.89,6.977-48.184a101.079,101.079,0,0,1,19.157-35.066A80.792,80.792,0,0,1-609,298.235a87.091,87.091,0,0,1,35.535-7.258,86.136,86.136,0,0,1,35.3,7.258A80.651,80.651,0,0,1-509.6,319.66a101.309,101.309,0,0,1,19.114,35.066c4.626,14.3,6.971,30.512,6.971,48.184a171.5,171.5,0,0,1-3,32.744,126.217,126.217,0,0,1-8.5,27.346ZM-573.462,75.243A86.511,86.511,0,0,1-609,67.922,81.033,81.033,0,0,1-637.674,46.36a101.851,101.851,0,0,1-19.157-35.2c-4.63-14.332-6.977-30.564-6.977-48.246a170.988,170.988,0,0,1,2.99-32.666A125.221,125.221,0,0,1-652.329-97h157.348A125.48,125.48,0,0,1-486.5-69.756a171.11,171.11,0,0,1,2.988,32.666c0,17.674-2.345,33.907-6.971,48.246A102.088,102.088,0,0,1-509.6,46.36a80.894,80.894,0,0,1-28.558,21.562A85.564,85.564,0,0,1-573.462,75.243ZM-1486.914-60.275h-145.513V-97h145.513v36.725Z" transform="translate(1676 97)"/>
  </g>
</svg>
