<svg xmlns="http://www.w3.org/2000/svg" xmlns:xlink="http://www.w3.org/1999/xlink" width="1330" height="560" viewBox="0 0 1330 560">
  <defs>
    <style>
      .cls-1 {
        clip-path: url(#clip-Hello_world);
      }

      .cls-2 {
        fill: #fff;
      }
    </style>
    <clipPath id="clip-Hello_world">
      <rect width="1330" height="560"/>
    </clipPath>
  </defs>
  <g id="Hello_world" data-name="Hello world" class="cls-1">
    <path id="Subtraction_2" data-name="Subtraction 2" class="cls-2" d="M-2783.982,451.5h-78.489l23.727-235.64h-40.588l-21.678,235.64h-4.705l-30.867-141.22h-44.006l-30.868,141.22h-4.679l-21.275-235.64H-3077.5V-107.5h18.726V123.177h40.588V-17.385h119.627V123.177h40.588V-107.5h149.242a95.352,95.352,0,0,0-31.307,14.54A97.155,97.155,0,0,0-2764.222-68a117.78,117.78,0,0,0-15.594,34.362A159.206,159.206,0,0,0-2785.341,9.1a164.55,164.55,0,0,0,6.5,47.35c4.4,14.629,10.967,27.393,19.513,37.938a88.733,88.733,0,0,0,32.57,25.2c13.383,6.064,28.748,9.139,45.668,9.139a120.339,120.339,0,0,0,36.876-5.487,94.792,94.792,0,0,0,29.346-15.341c16.79-13.071,28.166-31.575,32.9-53.512h-40.587a74.4,74.4,0,0,1-7.9,17.6,50.851,50.851,0,0,1-12.023,13.318,51.762,51.762,0,0,1-16.909,8.431,80.036,80.036,0,0,1-22.557,2.944,57.814,57.814,0,0,1-25-5.461,56.7,56.7,0,0,1-19.593-15.474,72.392,72.392,0,0,1-12.783-24.126,103.589,103.589,0,0,1-4.573-31.416h165.342A199.327,199.327,0,0,0-2582.1-27.25a125.88,125.88,0,0,0-13.926-37.719,91.046,91.046,0,0,0-23.587-27.057,90.171,90.171,0,0,0-32.52-15.473h227.379V89.425h-64.94v33.752h169.615V89.425h-65.368V-107.5h236.691V89.425h-64.94v33.752h169.615V89.425h-65.368V-107.5h229.151a102.723,102.723,0,0,0-30.7,12.77,97.507,97.507,0,0,0-25.648,23.3,110.009,110.009,0,0,0-17.593,34.417A154.658,154.658,0,0,0-1960.766,9.1c0,19.939,3.106,38.053,9.233,53.839a103.789,103.789,0,0,0,24.253,37.216,97.623,97.623,0,0,0,16.144,12.688,101.148,101.148,0,0,0,17.962,8.908,107.188,107.188,0,0,0,19.133,5.253,112.626,112.626,0,0,0,19.659,1.723,112.768,112.768,0,0,0,18.562-1.534,107.751,107.751,0,0,0,18.126-4.672,99.221,99.221,0,0,0,32.772-19.178,101.212,101.212,0,0,0,24.513-32.992c6.572-13.946,10.579-29.977,11.91-47.647V451.5h-14.881V215.861h-39.306v114.5a87.08,87.08,0,0,0-11.155-15.381,69.683,69.683,0,0,0-14.64-12.177,69.861,69.861,0,0,0-18.725-8.011,90.819,90.819,0,0,0-23.411-2.884,85.151,85.151,0,0,0-36.836,8.057,84.123,84.123,0,0,0-29.386,23.4c-8.429,10.414-14.974,23.057-19.453,37.577-4.669,15.136-7.036,32.159-7.036,50.595a182.815,182.815,0,0,0,4.168,39.964h-150.284V215.861h-104.247v33.324h64.94V451.5h-254.208V411.109c0-6.343.276-12.362.82-17.889a123.011,123.011,0,0,1,2.538-15.8,82.924,82.924,0,0,1,4.37-13.613,58.947,58.947,0,0,1,6.318-11.34,47.652,47.652,0,0,1,8.38-8.977,47.1,47.1,0,0,1,10.558-6.523,57.561,57.561,0,0,1,12.851-3.98,81.836,81.836,0,0,1,15.26-1.347h38.879V295.754h-39.306a70.213,70.213,0,0,0-19.947,2.8,62.608,62.608,0,0,0-17.223,8.091,64.2,64.2,0,0,0-14.019,12.9,74.24,74.24,0,0,0-10.334,17.223V295.754h-103.82v33.752h65.368V451.5h-138.5a159.607,159.607,0,0,0,4.775-39.964c0-19.939-3.106-38.053-9.232-53.839a103.787,103.787,0,0,0-24.252-37.217,97.65,97.65,0,0,0-16.145-12.688,101.147,101.147,0,0,0-17.962-8.908,107.2,107.2,0,0,0-19.133-5.253,112.642,112.642,0,0,0-19.659-1.723,112.639,112.639,0,0,0-19.659,1.723,107.186,107.186,0,0,0-19.133,5.253,101.149,101.149,0,0,0-17.962,8.908,97.624,97.624,0,0,0-16.144,12.688,103.783,103.783,0,0,0-24.252,37.217c-6.126,15.786-9.233,33.9-9.233,53.839a159.615,159.615,0,0,0,4.775,39.964Zm-154.971,0h-38.839l19.419-87.387,19.42,87.387Zm-115.646,0h-22.9V220.9l22.9,230.6Zm1248.358,0h-111.081c-3.029-11.458-4.565-24.9-4.565-39.964a162.558,162.558,0,0,1,3.752-36.622c2.5-10.709,6.269-19.877,11.2-27.25a50.288,50.288,0,0,1,18.572-17,55.438,55.438,0,0,1,25.861-5.861,55.382,55.382,0,0,1,23.492,5.02,54.256,54.256,0,0,1,19.606,15.594c5.826,7.29,10.347,16.364,13.438,26.97,3.309,11.357,4.986,24.527,4.986,39.146,0,14.922-1.771,28.368-5.262,39.964Zm-816.611,0H-2741.9c-3.595-11.513-5.417-24.958-5.417-39.964,0-14.73,1.757-27.962,5.22-39.326,3.239-10.626,7.987-19.693,14.112-26.95a56.207,56.207,0,0,1,20.681-15.494,62.174,62.174,0,0,1,24.927-4.96,62.174,62.174,0,0,1,24.927,4.96,56.211,56.211,0,0,1,20.681,15.494c6.125,7.257,10.874,16.324,14.112,26.95,3.464,11.365,5.22,24.6,5.22,39.326,0,15.006-1.823,28.452-5.417,39.964Zm768.469-355.668a62.177,62.177,0,0,1-24.927-4.96,56.208,56.208,0,0,1-20.681-15.494c-6.126-7.257-10.874-16.324-14.112-26.949-3.464-11.365-5.22-24.6-5.22-39.326s1.756-27.962,5.22-39.326c3.239-10.625,7.987-19.693,14.112-26.95a56.21,56.21,0,0,1,20.681-15.494,62.175,62.175,0,0,1,24.927-4.96,62.175,62.175,0,0,1,24.927,4.96,56.209,56.209,0,0,1,20.681,15.494c6.126,7.257,10.874,16.324,14.112,26.95,3.464,11.365,5.22,24.6,5.22,39.326s-1.756,27.961-5.22,39.326c-3.239,10.625-7.987,19.693-14.112,26.949a56.206,56.206,0,0,1-20.681,15.494A62.177,62.177,0,0,1-1854.383,95.833ZM-1748.5-4.527h0a140.2,140.2,0,0,0-8.789-40.359A106.039,106.039,0,0,0-1775.176-75.2a97.451,97.451,0,0,0-24.539-20.714,103.126,103.126,0,0,0-28.756-11.586h79.972Zm-871.926-7.732h-123.045a95.957,95.957,0,0,1,5.24-29.092,57.459,57.459,0,0,1,12.651-20.681,51.438,51.438,0,0,1,19.3-12.35,73.067,73.067,0,0,1,25.187-4.1,67.773,67.773,0,0,1,24.69,4.326,52.469,52.469,0,0,1,18.4,12.013,57.7,57.7,0,0,1,13.316,21.836,82.219,82.219,0,0,1,4.264,28.047Zm-278.133-43.577h-119.627V-107.5h119.627v51.663Z" transform="translate(3078 108)"/>
  </g>
</svg>
