<svg xmlns="http://www.w3.org/2000/svg" xmlns:xlink="http://www.w3.org/1999/xlink" width="1330" height="560" viewBox="0 0 1330 560">
  <defs>
    <style>
      .cls-1 {
        clip-path: url(#clip-Hello_world_2);
      }

      .cls-2 {
        fill: #707070;
      }
    </style>
    <clipPath id="clip-Hello_world_2">
      <rect width="1330" height="560"/>
    </clipPath>
  </defs>
  <g id="Hello_world_2" data-name="Hello world – 2" class="cls-1">
    <path id="Path_5" data-name="Path 5" class="cls-2" d="M163.987-225.06v110.414H63.284V-225.06H29.117V36.049H63.284V-82.277h100.7V36.049h34.167V-225.06ZM347.051,40.724c45.316,0,75.527-25.9,83.44-62.58H396.324C389.49.083,375.1,13.75,346.332,13.75c-30.571,0-52.15-25.535-52.15-64.378H433.368c2.518-69.054-29.851-110.414-86.317-110.414-51.071,0-87.756,38.843-87.756,101.063C259.3-2.794,288.428,40.724,347.051,40.724Zm0-174.432c33.807,0,51.43,24.1,51.071,55.746H294.542C295.98-115.366,315.761-133.708,347.051-133.708ZM508.176-224.7v28.053h54.667V7.636H508.176V36.049H650.959V7.636H595.932V-224.7Zm232.336,0v28.053H795.18V7.636H740.513V36.049H883.3V7.636H828.268V-224.7Zm247.8,164.721c0-51.431,25.176-73.01,54.667-73.01s54.667,21.579,54.667,73.01-25.176,73.01-54.667,73.01S988.314-8.548,988.314-59.979Zm-34.886,0c0,70.133,45.316,100.7,89.554,100.7s89.554-30.571,89.554-100.7-45.316-100.7-89.554-100.7S953.428-130.111,953.428-59.979ZM97.811,196.965l-28.772,104.3L49.617,158.122H15.81L48.179,351.616H81.627l31.65-116.888,31.65,116.888h33.448l32.369-193.494H177.295L157.514,301.264l-28.772-104.3ZM291.3,255.588c0-51.431,25.176-73.01,54.667-73.01s54.667,21.579,54.667,73.01-25.176,73.01-54.667,73.01S291.3,307.019,291.3,255.588Zm-34.886,0c0,70.132,45.316,100.7,89.554,100.7s89.554-30.571,89.554-100.7-45.316-100.7-89.554-100.7S256.418,185.456,256.418,255.588Zm236.652-97.466v28.413H548.1V323.2H493.43v28.413H647.362V323.2H581.186V255.229c0-42.439,14.386-66.9,51.43-66.9h32.729V158.122H632.257c-23.737,0-42.439,12.948-51.79,34.527V158.122ZM740.513,90.867V118.92H795.18V323.2H740.513v28.413H883.3V323.2H828.268V90.867ZM1086.5,187.254c-10.79-18.7-28.053-32.369-57.185-32.369-44.6,0-78.045,37.044-78.045,100.7,0,64.018,33.448,100.7,78.045,100.7,29.132,0,46.4-13.667,57.185-32.009l.36,27.334h32.728V90.867H1086.5Zm1.439,68.334c0,50.711-24.1,73.369-51.79,73.369-33.088,0-49.992-27.334-49.992-73.369s16.9-73.01,49.992-73.01C1063.841,182.579,1087.938,204.518,1087.938,255.588ZM1345.81,382.546v-30.93H1204.466v30.93Z" transform="translate(-15.81 177.06)"/>
  </g>
</svg>
