<svg xmlns="http://www.w3.org/2000/svg" xmlns:xlink="http://www.w3.org/1999/xlink" width="1330" height="560" viewBox="0 0 1330 560">
  <defs>
    <style>
      .cls-1 {
        clip-path: url(#clip-Hello_world_1);
      }

      .cls-2 {
        fill: #707070;
      }
    </style>
    <clipPath id="clip-Hello_world_1">
      <rect width="1330" height="560"/>
    </clipPath>
  </defs>
  <g id="Hello_world_1" data-name="Hello world – 1" class="cls-1">
    <path id="Path_4" data-name="Path 4" class="cls-2" d="M192.287-225.06v131.5H72.351v-131.5H31.659V85.916H72.351V-55.008H192.287V85.916h40.692V-225.06ZM410.312,91.484c53.971,0,89.952-30.841,99.375-74.531H469c-8.138,26.129-25.272,42.406-59.539,42.406-36.409,0-62.109-30.412-62.109-76.673H513.114c3-82.242-35.552-131.5-102.8-131.5-60.824,0-104.515,46.261-104.515,120.364C305.8,39.655,340.493,91.484,410.312,91.484Zm0-207.746c40.264,0,61.253,28.7,60.824,66.393H347.775C349.488-94.416,373.047-116.261,410.312-116.261Zm191.9-108.37v33.411h65.108v243.3H602.209V85.916H772.261V52.077H706.725V-224.632Zm276.709,0v33.411h65.108v243.3H878.918V85.916h170.052V52.077H983.433V-224.632Zm295.127,196.18c0-61.253,29.984-86.953,65.108-86.953s65.108,25.7,65.108,86.953S1274.277,58.5,1239.153,58.5,1174.045,32.8,1174.045-28.451Zm-41.549,0c0,83.527,53.971,119.936,106.657,119.936S1345.81,55.075,1345.81-28.451s-53.971-119.936-106.657-119.936S1132.5-111.978,1132.5-28.451ZM113.472,305.2,79.2,429.418l-23.13-170.48H15.81L54.361,489.386H94.2l37.694-139.211,37.694,139.211H209.42l38.551-230.448H208.135l-23.559,170.48L150.309,305.2Zm230.448,69.82c0-61.253,29.984-86.953,65.108-86.953s65.108,25.7,65.108,86.953-29.984,86.953-65.108,86.953S343.919,436.271,343.919,375.019Zm-41.549,0c0,83.527,53.971,119.936,106.657,119.936s106.657-36.409,106.657-119.936S461.713,255.083,409.027,255.083,302.37,291.492,302.37,375.019ZM584.219,258.938v33.839h65.536v162.77H584.647v33.839h183.33V455.547H689.163V374.59c0-50.544,17.134-79.672,61.253-79.672h38.979V258.938H749.987c-28.271,0-50.544,15.42-61.681,41.121V258.938Zm294.7-80.1v33.411h65.108v243.3H878.918v33.839h170.052V455.547H983.433V178.838Zm412.064,114.8c-12.85-22.274-33.411-38.551-68.106-38.551-53.114,0-92.95,44.119-92.95,119.936,0,76.245,39.836,119.936,92.95,119.936,34.7,0,55.256-16.277,68.106-38.122l.428,32.554h38.979V178.838h-39.407Zm1.713,81.385c0,60.4-28.7,87.382-61.681,87.382-39.407,0-59.539-32.554-59.539-87.382s20.132-86.953,59.539-86.953C1264,288.065,1292.7,314.194,1292.7,375.019Z" transform="translate(-15.81 145.06)"/>
  </g>
</svg>
