<svg height="449" viewBox="0 0 352 449" width="352" xmlns="http://www.w3.org/2000/svg"><g fill="none" fill-rule="evenodd"><path d="m0 0h352v449h-352z" fill="#44c2ff"/><path d="m126 212h160v90h-160z" fill="#f2093d"/><path d="m126 278h103v120h-103z" fill="#4a40fd"/><g fill="#fff"><path d="m241 312h45v4h-45z"/><path d="m241 324h45v4h-45z"/><path d="m241 336h45v4h-45z"/><path d="m241 348h30v4h-30z"/></g><path d="m228.62069 301.678571h-102.62069v-23.678571h102.62069z" fill="#1e179f"/><path d="m59.1953125 62.078125c.4765649 0 .9199198-.0878897 1.3300781-.2636719.4101583-.1757821.7675766-.4199203 1.0722656-.7324219.3046891-.3125015.5410148-.6874978.7089844-1.125.1679696-.4375021.2519532-.9296847.2519532-1.4765624v-9.5976563h2.2851562v9.5976563c0 .812504-.1406236 1.5644496-.421875 2.2558593s-.6738256 1.28906-1.1777344 1.7929688c-.5039087.5039087-1.0996059.8945298-1.7871094 1.171875-.6875034.2773451-1.4414021.4160156-2.2617187.4160156-.8125041 0-1.5624966-.1386705-2.25-.4160156-.6875034-.2773452-1.2832006-.6679663-1.7871094-1.171875-.5039087-.5039088-.8964829-1.1015591-1.1777343-1.7929688-.2812515-.6914097-.421875-1.4433553-.421875-2.2558593v-9.5976563h2.2851562v9.5976563c0 .5468777.0839835 1.0390603.2519531 1.4765624.1679696.4375022.4042954.8124985.7089844 1.125.304689.3125016.6601542.5566398 1.0664063.7324219.406252.1757822.8476538.2636719 1.3242187.2636719zm9.927884-1.5585938c.0625003.4765649.2460922.8554674.5507813 1.1367188.304689.2812514.7617157.421875 1.3710937.421875.6718784 0 1.1601547-.1269519 1.4648438-.3808594.304689-.2539075.4570312-.5644513.4570312-.9316406 0-.3203141-.1445298-.5644523-.4335937-.7324219-.289064-.1679696-.6464823-.3085932-1.0722657-.421875s-.8867162-.2304681-1.3828125-.3515625c-.4960962-.1210943-.955076-.2929676-1.3769531-.515625-.4218771-.2226573-.7773423-.5214825-1.0664062-.8964844-.289064-.3750018-.4335938-.8828092-.4335938-1.5234374 0-.4453148.0878897-.8652325.2636719-1.2597657.1757821-.3945332.4238265-.7402329.7441406-1.0371093.3203141-.2968765.7089821-.5292961 1.1660156-.6972657.4570336-.1679696.9746065-.2519531 1.5527344-.2519531 1.2656313 0 2.2246061.3046845 2.8769531.9140625s1.0136715 1.4257761 1.0839844 2.4492187h-2.1679687c-.0625004-.3671893-.2421861-.6796862-.5390625-.9375-.2968765-.2578137-.7148411-.3867187-1.2539063-.3867187-.5468777 0-.9648423.1249988-1.2539062.375-.289064.2500012-.4335938.5273422-.4335938.8320313 0 .3203141.1445298.5644522.4335938.7324218.2890639.1679696.6464822.3066401 1.0722656.4160156.4257834.1093756.8847631.2246088 1.3769531.3457032.49219.1210943.9511697.2929676 1.3769531.515625.4257834.2226573.7832017.5234356 1.0722657.9023437.2890639.3789082.4335937.8886687.4335937 1.5292969 0 .9609423-.3437466 1.7597624-1.03125 2.3964844-.6875034.6367219-1.6640562.9550781-2.9296875.9550781-1.3281316 0-2.3242154-.3124969-2.9882812-.9375-.6640659-.6250031-1.0273435-1.511713-1.0898438-2.6601563zm17.2521027.3632813c-.1796883.4453147-.4062486.8632793-.6796875 1.2539063-.2734388.3906269-.6015605.7343735-.984375 1.03125-.3828144.2968764-.8261693.529296-1.3300781.6972656-.5039087.1679696-1.0683562.2519531-1.6933594.2519531-.7187535 0-1.3906218-.1347643-2.015625-.4042969-.6250031-.2695326-1.1718726-.648435-1.640625-1.1367187-.4687523-.4882837-.8359361-1.068356-1.1015625-1.7402344-.2656263-.6718784-.3984375-1.4179646-.3984375-2.2382813 0-.812504.1328112-1.5546841.3984375-2.2265624.2656264-.6718784.6249978-1.2519507 1.078125-1.7402344.4531273-.4882837.9882782-.8691393 1.6054688-1.1425782.6171906-.2734388 1.2695278-.4101562 1.9570312-.4101562.6875035 0 1.3398407.1367174 1.9570313.4101562.6171906.2734389 1.1523415.6542945 1.6054687 1.1425782.4531273.4882837.8124987 1.068356 1.078125 1.7402344.2656264.6718783.3984375 1.4140584.3984375 2.2265624 0 .1250007-.0078124.2480463-.0234375.3691407-.015625.1210943-.0312499.2246089-.046875.3105469-.015625.1093755-.0312499.2031246-.046875.28125h-7.6875c.0312502.3359391.1289055.6562484.2929688.9609374.1640633.3046891.3691394.5722645.6152344.8027344s.5410139.4140618.8847656.5507813c.3437517.1367194.7070293.2050781 1.0898437.2050781.6562533 0 1.1777325-.1406236 1.5644532-.421875s.6660147-.5390613.8378906-.7734375zm-4.8046875-5.765625c-.7187535 0-1.3261693.2441382-1.8222656.7324219-.4960962.4882837-.8105462 1.1269492-.9433594 1.9160156h5.765625c-.1250006-.7812539-.4433568-1.4179663-.9550781-1.9101562-.5117213-.49219-1.1933551-.7382813-2.0449219-.7382813zm11.8380403-2.0390625c.1250006 0 .2285152.0078124.3105469.0234375.0820316.0156251.1582027.0312499.2285156.046875l.1875.046875v2.1679687c-.0625003-.015625-.1367183-.0312499-.2226562-.046875-.0781254-.015625-.1601559-.033203-.2460938-.0527343-.0859379-.0195314-.1718746-.0292969-.2578125-.0292969-.3671893 0-.7109359.0722649-1.03125.2167969-.3203141.1445319-.5996082.3378894-.8378906.5800781-.2382825.2421887-.4257806.5234359-.5625.84375-.1367195.3203141-.2050781.6562482-.2050781 1.0078125v6.1171875h-2.15625v-10.8046875h1.5585937l.4804688 1.0898437c.1953134-.2265636.4257799-.4296866.6914062-.609375.2265636-.1406257.511717-.2753899.8554688-.4042968.3437517-.1289069.7460914-.1933594 1.2070312-.1933594zm-37.8109958 37.921875h-2.15625v-10.8046875h2.15625zm-1.078125-12.4804688c-.3671893 0-.6796862-.1269518-.9375-.3808593-.2578137-.2539075-.3867187-.5683575-.3867187-.9433594 0-.3671893.128905-.6777331.3867187-.9316406.2578138-.2539075.5703107-.3808594.9375-.3808594.3671894 0 .6796863.1269519.9375.3808594.2578138.2539075.3867188.5644513.3867188.9316406s-.128905.6796862-.3867188.9375c-.2578137.2578138-.5703106.3867187-.9375.3867187zm8.849759 1.5585938c.593753 0 1.1542943.1171863 1.6816407.3515625s.9863261.5546855 1.3769531.9609375.6992176.8964815.9257813 1.4707031c.2265636.5742216.3398437 1.2089809.3398437 1.9042969v6.234375h-2.15625v-6.234375c0-.3515643-.0683587-.6874984-.2050781-1.0078125-.1367195-.3203141-.3222645-.6015613-.5566406-.84375-.2343762-.2421887-.5039048-.4355462-.8085938-.5800781-.304689-.144532-.6249983-.2167969-.9609375-.2167969-.3671893 0-.7109359.0722649-1.03125.2167969-.3203141.1445319-.5996082.3378894-.8378906.5800781-.2382825.2421887-.4257806.5214828-.5625.8378906-.1367195.3164079-.2050782.6542951-.2050782 1.0136719v6.234375h-2.15625v-10.8046875h1.5585938l.4804687 1.0898437c.2109386-.2265636.4570299-.4296866.7382813-.609375.2578138-.1406257.5820293-.2753899.9726562-.4042968.390627-.1289069.8593723-.1933594 1.40625-.1933594zm9.927884 7.3242188c0 .4765648.1601547.8749983.4804688 1.1953124.3203141.3203142.7187476.4804688 1.1953125.4804688.0781254 0 .1621089-.0039062.2519531-.0117188.0898442-.0078125.1738278-.0195311.2519531-.0351562.0781254-.0156251.1523434-.0390623.2226563-.0703125v1.921875c-.0937505.0468752-.2070306.0859373-.3398438.1171875-.2421887.0781254-.5273421.1171875-.8554687.1171875-.4765649 0-.9199198-.0878897-1.3300781-.2636719-.4101583-.1757821-.7675766-.4238265-1.0722657-.7441406-.304689-.3203141-.5410147-.707029-.7089843-1.1601562-.1679696-.4531273-.2519532-.9687472-.2519532-1.546875v-5.1679688h-1.921875v-2.0390625h.84375c.4140646 0 .7578112-.1347643 1.03125-.4042969.2734389-.2695326.4101563-.611326.4101563-1.0253906v-1.4414062h1.7929687v2.8710937h2.4023438v2.0390625h-2.4023438zm13.7833528.4804687c-.1796884.4453147-.4062486.8632793-.6796875 1.2539063-.2734389.3906269-.6015606.7343735-.984375 1.03125-.3828144.2968764-.8261694.529296-1.3300781.6972656-.5039088.1679696-1.0683563.2519531-1.6933594.2519531-.7187536 0-1.3906219-.1347643-2.015625-.4042969s-1.1718727-.648435-1.640625-1.1367187-.8359362-1.068356-1.1015625-1.7402344-.3984375-1.4179646-.3984375-2.2382813c0-.812504.1328112-1.5546841.3984375-2.2265624.2656263-.6718784.6249977-1.2519507 1.078125-1.7402344s.9882782-.8691393 1.6054688-1.1425782c.6171905-.2734388 1.2695278-.4101562 1.9570312-.4101562s1.3398407.1367174 1.9570313.4101562c.6171905.2734389 1.1523414.6542945 1.6054687 1.1425782s.8124987 1.068356 1.078125 1.7402344c.2656263.6718783.3984375 1.4140584.3984375 2.2265624 0 .1250007-.0078124.2480463-.0234375.3691407-.0156251.1210943-.0312499.2246089-.046875.3105469-.0156251.1093755-.0312499.2031246-.046875.28125h-7.6875c.0312502.3359391.1289054.6562484.2929688.9609374.1640633.3046891.3691393.5722645.6152343.8027344s.5410139.4140618.8847657.5507813c.3437517.1367194.7070293.2050781 1.0898437.2050781.6562533 0 1.1777324-.1406236 1.5644531-.421875s.6660148-.5390613.8378907-.7734375zm-4.8046875-5.765625c-.7187536 0-1.3261694.2441382-1.8222656.7324219-.4960963.4882837-.8105462 1.1269492-.9433594 1.9160156h5.765625c-.1250006-.7812539-.4433568-1.4179663-.9550781-1.9101562-.5117213-.49219-1.1933551-.7382813-2.0449219-.7382813zm11.8380402-2.0390625c.1250007 0 .2285153.0078124.3105469.0234375.0820317.0156251.1582028.0312499.2285156.046875l.1875.046875v2.1679687c-.0625003-.015625-.1367183-.0312499-.2226562-.046875-.0781254-.015625-.1601558-.033203-.2460938-.0527343-.0859379-.0195314-.1718745-.0292969-.2578125-.0292969-.3671893 0-.7109358.0722649-1.03125.2167969-.3203141.1445319-.5996081.3378894-.8378906.5800781-.2382824.2421887-.4257805.5234359-.5625.84375-.1367194.3203141-.2050781.6562482-.2050781 1.0078125v6.1171875h-2.15625v-10.8046875h1.5585937l.4804688 1.0898437c.1953135-.2265636.4257799-.4296866.6914062-.609375.2265637-.1406257.5117171-.2753899.8554688-.4042968s.7460914-.1933594 1.2070312-.1933594zm7.5255403 2.15625h-2.4023437v8.765625h-2.15625v-8.765625h-1.3242188v-2.0390625h1.3242188v-.7148437c0-.5781279.0839835-1.0957009.2519531-1.5527344.1679696-.4570336.4023422-.8437484.703125-1.1601563.3007827-.3164078.6562479-.5624991 1.0664062-.7382812.4101583-.1757822.8535133-.2636719 1.3300784-.2636719.179688 0 .341796.0117186.486328.0351562.144532.0234377.271484.0507811.380859.0820313.125001.0468752.238281.0859373.339844.1171875v1.921875c-.0625-.0156251-.136718-.0312499-.222656-.046875-.078126-.0156251-.160156-.0312499-.246094-.046875s-.171875-.0234375-.257812-.0234375c-.476565 0-.874999.1601546-1.195313.4804687-.3203141.3203142-.4804687.7187477-.4804687 1.1953126v.7148437h2.4023437zm5.720853-2.15625c.625003 0 1.197263.0996084 1.716797.2988281.519533.1992198.962888.4707014 1.330078.8144531.367189.3437518.652342.7480446.855469 1.2128907.203126.464846.304687.9707004.304687 1.5175781v7.078125h-1.558594l-.480468-1.078125c-.210939.2265636-.460937.4257804-.75.5976562-.257814.1562508-.58203.2949213-.972657.4160157-.390627.1210943-.859372.1816406-1.40625.1816406-1.203131 0-2.123043-.2988251-2.759765-.8964844-.636722-.5976592-.955078-1.3769483-.955078-2.3378906 0-.5468777.103514-1.0410134.310546-1.4824219.207033-.4414084.562498-.8164047 1.066407-1.125.503908-.3085953 1.187495-.5507803 2.050781-.7265625.863285-.1757821 1.958978-.2636719 3.287109-.2636719v-.3632812c0-.5468777-.171873-.9843734-.515625-1.3125-.343751-.3281266-.851559-.4921875-1.523437-.4921875-.718754 0-1.242186.128905-1.570313.3867187-.328126.2578138-.523437.5703107-.585937.9375h-2.15625c.0625-.9609423.46484-1.7617155 1.207031-2.4023437s1.777337-.9609375 3.105469-.9609375zm-.832031 9.1171875c.914067 0 1.621091-.2343727 2.121093-.703125.500003-.4687523.75-1.0390591.75-1.7109375v-.5859375c-.960942 0-1.736325.0449214-2.326172.1347656-.589846.0898442-1.052732.2109368-1.388671.3632813-.33594.1523445-.560547.3398426-.673829.5625-.113281.2226573-.169921.4707017-.169921.7441406 0 .304689.144529.5800769.433593.8261719s.707029.3691406 1.253907.3691406zm16.888821-2.15625c-.125001.5781279-.324217 1.1152319-.597656 1.6113281-.273439.4960963-.619139.9277326-1.03711 1.2949219-.41797.3671893-.894528.6542958-1.429687.8613281s-1.115231.3105469-1.740235.3105469c-.718753 0-1.390621-.1347643-2.015625-.4042969-.625003-.2695326-1.173825-.648435-1.646484-1.1367187-.472658-.4882837-.839842-1.068356-1.101562-1.7402344s-.392579-1.4179646-.392579-2.2382813c0-.812504.130859-1.5546841.392579-2.2265624.26172-.6718784.628904-1.2519507 1.101562-1.7402344.472659-.4882837 1.021481-.8691393 1.646484-1.1425782.625004-.2734388 1.296872-.4101562 2.015625-.4101562.625004 0 1.205076.1035146 1.740235.3105469s1.011717.4960919 1.429687.8671875c.417971.3710956.761718.804685 1.03125 1.3007812.269533.4960963.470703 1.029294.603516 1.5996094h-2.285156c-.179689-.609378-.476561-1.1015606-.890625-1.4765625-.414065-.3750019-.957028-.5625-1.628907-.5625-.382814 0-.75781.0839835-1.125.2519531-.367189.1679696-.687498.4082016-.960937.7207032-.273439.3125015-.49414.6816384-.662109 1.1074218-.16797.4257834-.251954.8925756-.251954 1.4003906 0 .5156276.083984.9843729.251954 1.40625.167969.4218772.38867.789061.662109 1.1015626.273439.3125015.593748.5527335.960937.7207031.36719.1679696.742186.2519531 1.125.2519531.671879 0 1.216795-.1874981 1.634766-.5625s.71289-.8671845.884766-1.4765625zm11.252103.84375c-.179689.4453147-.406249.8632793-.679688 1.2539063-.273439.3906269-.60156.7343735-.984375 1.03125-.382814.2968764-.826169.529296-1.330078.6972656s-1.068356.2519531-1.693359.2519531c-.718754 0-1.390622-.1347643-2.015625-.4042969s-1.171873-.648435-1.640625-1.1367187c-.468753-.4882837-.835936-1.068356-1.101563-1.7402344-.265626-.6718784-.398437-1.4179646-.398437-2.2382813 0-.812504.132811-1.5546841.398437-2.2265624.265627-.6718784.624998-1.2519507 1.078125-1.7402344.453128-.4882837.988278-.8691393 1.605469-1.1425782.617191-.2734388 1.269528-.4101562 1.957031-.4101562.687504 0 1.339841.1367174 1.957031.4101562.617191.2734389 1.152342.6542945 1.605469 1.1425782.453128.4882837.812499 1.068356 1.078125 1.7402344.265627.6718783.398438 1.4140584.398438 2.2265624 0 .1250007-.007813.2480463-.023438.3691407-.015625.1210943-.03125.2246089-.046875.3105469-.015625.1093755-.03125.2031246-.046875.28125h-7.6875c.03125.3359391.128906.6562484.292969.9609374.164063.3046891.369139.5722645.615234.8027344s.541014.4140618.884766.5507813c.343752.1367194.707029.2050781 1.089844.2050781.656253 0 1.177732-.1406236 1.564453-.421875s.666015-.5390613.83789-.7734375zm-4.804688-5.765625c-.718753 0-1.326169.2441382-1.822265.7324219-.496097.4882837-.810547 1.1269492-.94336 1.9160156h5.765625c-.125-.7812539-.443357-1.4179663-.955078-1.9101562-.511721-.49219-1.193355-.7382813-2.044922-.7382813zm-71.864478 36.0000005c-.7187536 0-1.3906219-.134765-2.015625-.404297-.6250031-.269533-1.1738258-.648435-1.6464844-1.136719s-.8398424-1.068356-1.1015625-1.740234c-.26172-.671879-.3925781-1.417965-.3925781-2.238282 0-.812504.1308581-1.554684.3925781-2.226562.2617201-.671879.6289039-1.251951 1.1015625-1.740235.4726586-.488283 1.0214813-.869139 1.6464844-1.142578s1.2968714-.410156 2.015625-.410156c.5156276 0 .9570294.064452 1.3242188.193359.3671893.128907.6796862.263672.9375.404297.2890639.179689.5351552.382812.7382812.609375v-5.402344h2.15625v15.117188h-1.5585938l-.4804687-1.078125c-.2109386.226564-.4570298.42578-.7382813.597656-.2578137.156251-.5820292.294922-.9726562.416016s-.8593723.181641-1.40625.181641zm.1171875-9c-.4140646 0-.8085919.083983-1.1835937.251953-.3750019.167969-.7070299.408201-.9960938.720703-.2890639.312501-.5175773.681638-.6855469 1.107422-.1679696.425783-.2519531.892575-.2519531 1.40039 0 .515628.0839835.984373.2519531 1.40625s.396483.789061.6855469 1.101563c.2890639.312501.6210919.552733.9960938.720703.3750018.167969.7695291.251953 1.1835937.251953s.810545-.083984 1.1894531-.251953c.3789082-.16797.7109361-.408202.9960938-.720703.2851577-.312502.5117179-.679686.6796875-1.101563s.2519531-.890622.2519531-1.40625c0-.515627-.0839835-.984373-.2519531-1.40625s-.3945298-.789061-.6796875-1.101562c-.2851577-.312502-.6171856-.552734-.9960938-.720703-.3789081-.16797-.7753885-.251953-1.1894531-.251953zm17.1349153 5.765624c-.1796884.445315-.4062487.86328-.6796875 1.253907-.2734389.390627-.6015606.734373-.984375 1.03125-.3828145.296876-.8261694.529296-1.3300782.697265-.5039087.16797-1.0683562.251954-1.6933593.251954-.7187536 0-1.3906219-.134765-2.015625-.404297-.6250032-.269533-1.1718727-.648435-1.640625-1.136719-.4687524-.488284-.8359362-1.068356-1.1015625-1.740234-.2656264-.671879-.3984375-1.417965-.3984375-2.238282 0-.812504.1328111-1.554684.3984375-2.226562.2656263-.671879.6249977-1.251951 1.078125-1.740235.4531272-.488283.9882781-.869139 1.6054687-1.142578s1.2695278-.410156 1.9570313-.410156c.6875034 0 1.3398406.136717 1.9570312.410156s1.1523415.654295 1.6054688 1.142578c.4531272.488284.8124986 1.068356 1.078125 1.740235.2656263.671878.3984375 1.414058.3984375 2.226562 0 .125001-.0078125.248047-.0234375.369141-.0156251.121094-.03125.224609-.046875.310547-.0156251.109375-.03125.203124-.046875.28125h-7.6875c.0312501.335939.1289054.656248.2929687.960937s.3691394.572265.6152344.802735.5410139.414061.8847656.550781c.3437517.136719.7070293.205078 1.0898438.205078.6562532 0 1.1777324-.140624 1.5644531-.421875s.6660147-.539061.8378906-.773438zm-4.8046875-5.765624c-.7187536 0-1.3261694.244138-1.8222657.732421-.4960962.488284-.8105462 1.12695-.9433593 1.916016h5.765625c-.1250007-.781254-.4433569-1.417966-.9550782-1.910156s-1.1933551-.738281-2.0449218-.738281zm8.6036652 5.402343c.0625003.476565.2460922.855468.5507812 1.136719.3046891.281251.7617158.421875 1.3710938.421875.6718784 0 1.1601547-.126952 1.4648437-.380859.3046891-.253908.4570313-.564452.4570313-.931641 0-.320314-.1445298-.564452-.4335938-.732422-.2890639-.167969-.6464822-.308593-1.0722656-.421875s-.8867162-.230468-1.3828125-.351562c-.4960962-.121095-.955076-.292968-1.3769531-.515625-.4218771-.222658-.7773423-.521483-1.0664063-.896485-.2890639-.375002-.4335937-.882809-.4335937-1.523437 0-.445315.0878897-.865233.2636719-1.259766.1757821-.394533.4238265-.740233.7441406-1.037109.3203141-.296877.7089821-.529296 1.1660156-.697266.4570336-.167969.9746065-.251953 1.5527344-.251953 1.2656313 0 2.2246061.304684 2.8769531.914063.652347.609378 1.0136715 1.425776 1.0839844 2.449218h-2.1679688c-.0625003-.367189-.242186-.679686-.5390625-.9375-.2968764-.257814-.714841-.386718-1.2539062-.386718-.5468777 0-.9648423.124998-1.2539063.375-.2890639.250001-.4335937.527342-.4335937.832031 0 .320314.1445298.564452.4335937.732422.289064.167969.6464823.30664 1.0722657.416015.4257834.109376.8847631.224609 1.3769531.345703.49219.121095.9511697.292968 1.3769531.515625.4257834.222658.7832017.523436 1.0722656.902344.289064.378908.4335938.888669.4335938 1.529297 0 .960942-.3437466 1.759762-1.03125 2.396484s-1.6640562.955079-2.9296875.955079c-1.3281316 0-2.3242154-.312497-2.9882813-.9375-.6640658-.625004-1.0273434-1.511714-1.0898437-2.660157zm10.0450715 3.480469h-2.15625v-10.804688h2.15625zm-1.078125-12.480469c-.3671893 0-.6796862-.126952-.9375-.380859-.2578138-.253908-.3867187-.568358-.3867187-.94336 0-.367189.1289049-.677733.3867187-.93164.2578138-.253908.5703107-.38086.9375-.38086s.6796862.126952.9375.38086c.2578138.253907.3867188.564451.3867188.93164 0 .36719-.128905.679687-.3867188.9375-.2578138.257814-.5703107.386719-.9375.386719zm13.173978 1.675781v10.324219c0 .656254-.117187 1.263669-.351563 1.822266-.234376.558596-.562498 1.042967-.9843748 1.453125-.4218771.410158-.9374969.726561-1.546875.949219-.609378.222657-1.2890587.333984-2.0390625.333984-.6562532 0-1.2480442-.091796-1.7753906-.275391-.5273464-.183594-.9863261-.427732-1.3769531-.732422-.390627-.304689-.7148425-.660154-.9726563-1.066406-.2578137-.406252-.4414057-.835935-.5507812-1.289062h2.15625c.1796884.367189.4648418.699217.8554687.996094.390627.296876.945309.445312 1.6640625.445312.8515668 0 1.5253882-.244138 2.0214844-.732422.4960963-.488284.7441406-1.123043.7441406-1.904297v-1.078125c-.2109385.226564-.460936.425781-.75.597656-.2578137.156251-.5703106.294922-.9375.416016-.3671893.121094-.8046849.181641-1.3125.181641-.6562532 0-1.2851532-.134765-1.8867187-.404297-.6015655-.269533-1.1269509-.640623-1.5761719-1.113281-.449221-.472659-.8046862-1.029294-1.0664062-1.669922-.2617201-.640628-.3925782-1.335934-.3925782-2.085938s.1308581-1.445309.3925782-2.085937c.26172-.640628.6171852-1.197264 1.0664062-1.669922.449221-.472659.9746064-.845702 1.5761719-1.119141s1.2304655-.410156 1.8867187-.410156c.5468778 0 1.0156231.064452 1.40625.193359.390627.128907.7109363.263672.9609375.404297.289064.179689.5390615.382812.75.609375l.4804688-1.089844zm-4.8984378 8.402344c.3828145 0 .7539045-.083983 1.1132813-.251953.3593768-.167969.6757799-.400389.9492187-.697265.2734389-.296877.4941398-.640624.6621094-1.03125.1679696-.390627.2519531-.808592.2519531-1.253907 0-.445314-.0839835-.865232-.2519531-1.259765-.1679696-.394534-.3886705-.740233-.6621094-1.03711-.2734388-.296876-.5937481-.529296-.9609375-.697265-.3671893-.16797-.7421855-.251953-1.125-.251953-.3828144 0-.7578106.083983-1.125.251953-.3671893.167969-.6874986.400389-.9609375.697265-.2734388.296877-.4941397.640623-.6621093 1.03125s-.2519532.812498-.2519532 1.265625c0 .445315.0839836.86328.2519532 1.253907.1679696.390626.3925767.734373.6738281 1.03125.2812514.296876.6015607.529296.9609375.697265.3593768.16797.7382793.251953 1.1367187.251953zm12.6583528-8.519531c.593753 0 1.154294.117186 1.681641.351563.527346.234376.986326.554685 1.376953.960937s.699217.896482.925781 1.470703c.226564.574222.339844 1.208981.339844 1.904297v6.234375h-2.15625v-6.234375c0-.351564-.068359-.687498-.205078-1.007813-.13672-.320314-.322265-.601561-.556641-.84375-.234376-.242188-.503905-.435546-.808594-.580078s-.624998-.216796-.960937-.216796c-.36719 0-.710936.072264-1.03125.216796s-.599608.33789-.837891.580078c-.238282.242189-.42578.521483-.5625.837891-.136719.316408-.205078.654295-.205078 1.013672v6.234375h-2.15625v-10.804688h1.558594l.480469 1.089844c.210938-.226563.457029-.429686.738281-.609375.257814-.140625.582029-.27539.972656-.404297s.859372-.193359 1.40625-.193359zm13.609674 5.519531c0 1.296882.148436 2.490229.445313 3.580078.296876 1.08985.628904 2.041012.996093 2.853516.414065.945317.894529 1.800777 1.441407 2.566406l-1.558594 1.078125c-.625003-.812504-1.183591-1.738276-1.675781-2.777343-.414065-.898442-.798827-1.962885-1.154297-3.19336-.355471-1.230475-.533203-2.599602-.533203-4.107422s.177732-2.876947.533203-4.107422c.35547-1.230475.740232-2.291011 1.154297-3.18164.49219-1.039068 1.050778-1.968746 1.675781-2.789063l1.558594 1.078125c-.546878.765629-1.027342 1.621089-1.441407 2.566406-.367189.812505-.699217 1.763667-.996093 2.853516-.296877 1.089849-.445313 2.283197-.445313 3.580078zm10.291165 3.480469c.476565 0 .91992-.08789 1.330079-.263672.410158-.175782.767576-.41992 1.072265-.732422.304689-.312501.541015-.687498.708985-1.125.167969-.437502.251953-.929685.251953-1.476562v-9.597657h2.285156v9.597657c0 .812504-.140624 1.564449-.421875 2.255859s-.673826 1.28906-1.177734 1.792969c-.503909.503909-1.099606.89453-1.78711 1.171875-.687503.277345-1.441402.416016-2.261719.416016-.812504 0-1.562496-.138671-2.25-.416016-.687503-.277345-1.2832-.667966-1.787109-1.171875s-.896483-1.101559-1.177734-1.792969c-.281252-.69141-.421875-1.443355-.421875-2.255859v-9.597657h2.285156v9.597657c0 .546877.083984 1.03906.251953 1.476562.16797.437502.404295.812499.708984 1.125.30469.312502.660155.55664 1.066407.732422s.847654.263672 1.324218.263672zm11.006009 1.921875h-2.273437v-15.117188h2.273437zm4.888822-5.402344c0-1.296881-.148436-2.488276-.445312-3.574218-.296877-1.085943-.628905-2.039059-.996094-2.859376-.414065-.945317-.894529-1.800777-1.441406-2.566406l1.558593-1.078125c.625003.812504 1.183592 1.742183 1.675782 2.789063.414064.898442.798826 1.962884 1.154296 3.193359.355471 1.230475.533204 2.595696.533204 4.095703 0 1.50782-.17578 2.876947-.527344 4.107422-.351565 1.230475-.738279 2.294918-1.160156 3.19336-.49219 1.039067-1.050779 1.964839-1.675782 2.777343l-1.558593-1.078125c.546877-.765629 1.027341-1.621089 1.441406-2.566406.367189-.812504.699217-1.763666.996094-2.853516.296876-1.089849.445312-2.283196.445312-3.580078z" fill="#fff" fill-rule="nonzero"/></g></svg>