<svg xmlns="http://www.w3.org/2000/svg" xmlns:xlink="http://www.w3.org/1999/xlink" width="32" height="32" viewBox="0 0 32 32">
  <defs>
    <style>        
      .cls-2 {
        fill: #19191a;
        stroke: rgba(0, 0, 0, 0);
        stroke-miterlimit: 10;
      }
      
      @media (prefers-color-scheme: dark) {
        .cls-2 { fill: #ffffff; }
      }
    </style>
  </defs>
  <!-- <path class="cls-2"
  d="M-1155,332.776h3.269c.281,2.771,2.243,4.484,5.325,4.484,2.958,0,4.671-1.463,4.671-3.643,0-2.585-2.3-3.363-4.515-3.893l-2.211-.5c-2.864-.685-5.822-2.148-5.822-6.071,0-3.8,2.771-6.322,7.442-6.322,4.951,0,7.847,2.865,8.033,7.007h-3.27a4.544,4.544,0,0,0-4.764-4.453c-2.3,0-4.08,1.277-4.08,3.487,0,2.615,2.3,3.3,4.173,3.705l2.3.53c2.927.653,6.134,2.272,6.134,6.414,0,4.36-3.613,6.477-8.159,6.477C-1151.388,340-1154.688,337.322-1155,332.776Zm3.436-22.776h2.709c.124,1.557.841,2.523,2.18,2.523,1.309,0,2.056-.966,2.18-2.523h2.677a4.632,4.632,0,0,1-4.857,4.827A4.674,4.674,0,0,1-1151.563,310Z"
  transform="translate(1163 -309)" />
   -->
   <path id="Union_1" data-name="Union 1" class="cls-2" d="M-1155,331.257h3.051c.262,2.586,2.093,4.185,4.97,4.185,2.761,0,4.36-1.366,4.36-3.4,0-2.412-2.15-3.139-4.214-3.633l-2.064-.465c-2.673-.639-5.434-2.005-5.434-5.667,0-3.546,2.586-5.9,6.946-5.9,4.621,0,7.324,2.674,7.5,6.539h-3.052a4.242,4.242,0,0,0-4.446-4.156c-2.151,0-3.808,1.192-3.808,3.255,0,2.441,2.151,3.081,3.9,3.458l2.15.495c2.731.61,5.725,2.121,5.725,5.987,0,4.069-3.372,6.045-7.615,6.045C-1151.629,338-1154.709,335.5-1155,331.257Zm3.207-21.257h2.528c.116,1.453.784,2.354,2.034,2.354,1.221,0,1.918-.9,2.034-2.354h2.5a4.323,4.323,0,0,1-4.533,4.5A4.362,4.362,0,0,1-1151.792,310Z" transform="translate(1163 -310)"/>
</svg>