<svg xmlns="http://www.w3.org/2000/svg" xmlns:xlink="http://www.w3.org/1999/xlink" width="32" height="32" viewBox="0 0 32 32">
  <defs>
    <style>
      .cls-1 {
        clip-path: url(#clip-favicon);
      }

      .cls-2 {
        fill: #19191a;
        stroke: rgba(0,0,0,0);
        stroke-miterlimit: 10;
      }
    </style>
    <clipPath id="clip-favicon">
      <rect width="32" height="32"/>
    </clipPath>
  </defs>
  <g id="favicon" class="cls-1">
    <path id="Union_1" data-name="Union 1" class="cls-2" d="M-1155,331.257h3.051c.262,2.586,2.093,4.185,4.97,4.185,2.761,0,4.36-1.366,4.36-3.4,0-2.412-2.15-3.139-4.214-3.633l-2.064-.465c-2.673-.639-5.434-2.005-5.434-5.667,0-3.546,2.586-5.9,6.946-5.9,4.621,0,7.324,2.674,7.5,6.539h-3.052a4.242,4.242,0,0,0-4.446-4.156c-2.151,0-3.808,1.192-3.808,3.255,0,2.441,2.151,3.081,3.9,3.458l2.15.495c2.731.61,5.725,2.121,5.725,5.987,0,4.069-3.372,6.045-7.615,6.045C-1151.629,338-1154.709,335.5-1155,331.257Zm3.207-21.257h2.528c.116,1.453.784,2.354,2.034,2.354,1.221,0,1.918-.9,2.034-2.354h2.5a4.323,4.323,0,0,1-4.533,4.5A4.362,4.362,0,0,1-1151.792,310Z" transform="translate(1163 -310)"/>
  </g>
</svg>
